<?xml version="1.0" encoding="utf-8"?>
<!-- Generator: Adobe Illustrator 25.2.0, SVG Export Plug-In . SVG Version: 6.00 Build 0)  -->
<svg version="1.1" id="レイヤー_1" xmlns="http://www.w3.org/2000/svg" xmlns:xlink="http://www.w3.org/1999/xlink" x="0px"
	 y="0px" viewBox="0 0 60.9 10" style="enable-background:new 0 0 60.9 10;" xml:space="preserve">
<style type="text/css">
	.st0{fill:#FFFFFF;}
</style>
<g>
	<path class="st0" d="M9.5,4.7C7.4,3.8,5.9,2.2,5.3,0.9H5.3C3.9,3,1.6,5,0,5.4l0-0.1C1.8,4,3.1,2.8,4.3,0.7C4.6,0.3,4.6,0.2,4.6,0
		l1,0.5c0.1,0,0.1,0.1,0.1,0.1c0,0.1,0,0.1-0.2,0.2c1,1.4,3,2.6,4.8,2.8v0.1C10.2,3.9,9.7,4.2,9.5,4.7z M9.5,9.4H2.2
		c-0.1,0-0.8,0-1.3,0.1L0.8,9c0.7,0.1,1.5,0.1,1.6,0.1h2.3V7.1H3.1c-0.3,0-0.8,0-1.3,0.1L1.7,6.7C2.3,6.8,3,6.8,3.3,6.8h1.4V4.9h-1
		C3.5,4.9,3,4.9,2.5,5L2.3,4.6C3,4.6,3.8,4.6,3.9,4.6h2.7L7,4.1C7.1,4,7.1,4,7.2,4c0.1,0,0.1,0,0.2,0.1L8,4.6c0,0,0.1,0.1,0.1,0.2
		c0,0.1-0.1,0.1-0.2,0.1H5.4v1.9H7l0.4-0.5c0-0.1,0.1-0.1,0.2-0.1c0,0,0.1,0,0.2,0.1l0.6,0.5c0.1,0,0.1,0.1,0.1,0.2
		c0,0.1-0.1,0.1-0.2,0.1H5.4v2.1H8l0.5-0.6c0,0,0.1-0.1,0.1-0.1s0.1,0.1,0.2,0.1l0.6,0.5c0.1,0,0.1,0.1,0.1,0.2
		C9.6,9.3,9.5,9.4,9.5,9.4z"/>
	<path class="st0" d="M14.1,1.1h0.4v5.4h1.2v0.3h-1.2v1.2c0,0.5,0.2,0.6,0.7,0.6h0.2v0.3h-2.7V8.7h0.2c0.5,0,0.7-0.2,0.7-0.6V6.8
		h-2.9V6.5L14.1,1.1z M13.6,2.5l-2.5,4h2.5V2.5z"/>
	<path class="st0" d="M21.7,6.9c0,1.2-1,2.3-2.5,2.3c-1.2,0-2.3-0.7-2.3-1.9c0-1.1,0.9-1.7,1.9-2.3c-0.6-0.3-1.6-0.9-1.6-2.1
		c0-1.1,0.8-1.9,2.1-1.9c1.5,0,1.9,1.1,1.9,1.7c0,0.9-0.9,1.6-1.3,1.9C21,5.3,21.7,5.8,21.7,6.9z M17.8,7.3c0,0.9,0.7,1.6,1.5,1.6
		c0.9,0,1.6-0.8,1.6-1.6c0-1-1.1-1.6-1.8-2C18.7,5.6,17.8,6.3,17.8,7.3z M20.5,2.9c0-0.8-0.5-1.4-1.3-1.4C18.5,1.5,18,2,18,2.7
		c0,0.7,0.6,1.1,1.7,1.8C20,4.2,20.5,3.8,20.5,2.9z"/>
	<path class="st0" d="M31.4,9.4c-0.5,0.1-3,0.1-3.7,0.1c-3.3,0-3.3,0-3.3-1.5c0-0.5,0-2.8,0-3.3c0-0.4,0-0.9,0-1.4
		c-0.5,0.5-1.1,1.1-1.8,1.4l0,0c0.7-0.7,1.7-2,2.4-3.2c0.3-0.5,0.5-0.9,0.6-1.6l1,0.6c0.1,0,0.1,0.1,0.1,0.2c0,0,0,0.1-0.1,0.1
		c-0.1,0-0.3,0.1-0.4,0.1c-0.1,0.2-0.2,0.3-0.4,0.5H28l0.5-0.3c0.1-0.1,0.2-0.1,0.2-0.1c0.1,0,0.1,0,0.2,0.1l0.6,0.6
		c0.1,0.1,0.1,0.1,0.1,0.2c0,0.1,0,0.1-0.1,0.1c-0.1,0-0.4,0.1-0.5,0.1c-0.2,0.2-1.2,1.2-1.4,1.4h2.3l0.3-0.3
		c0.1-0.1,0.1-0.1,0.2-0.1c0,0,0.1,0,0.1,0.1L31,3.7c0.1,0.1,0.1,0.1,0.1,0.2c0,0.1,0,0.1-0.4,0.3c0,0.6,0,1.2,0,1.7
		c0,0.1,0,0.4,0,0.5c0,0.3-0.3,0.4-0.6,0.4c-0.3,0-0.3-0.2-0.3-0.4h-4.8v1.4c0,0.8,0,0.9,0.2,1c0.2,0,1.9,0,2.2,0c0.7,0,1.5,0,2.6,0
		c0.8,0,0.9-0.3,1.4-1.7h0.1c0.2,1,0.2,1.2,0.4,1.4c0.2,0.1,0.3,0.2,0.3,0.3C32.2,9,31.8,9.3,31.4,9.4z M25.7,1.8
		c-0.6,0.7-0.9,1.1-1.2,1.4l0.8,0.5h1.9c0.1-0.1,0.6-1,1-1.9H25.7z M27.1,3.9h-2v2.2h2V3.9z M29.9,3.9h-2.1v2.2h2.1V3.9z"/>
	<path class="st0" d="M37.3,10c-1.4-1.2-2.2-2.8-2.2-4.5c0-1.7,0.7-3.3,2.2-4.5l0.1,0.1c-1.7,1.8-1.8,3.7-1.8,4.3s0,2.5,1.8,4.3
		L37.3,10z"/>
	<path class="st0" d="M39.1,8.8h0.5c0.5,0,0.6-0.2,0.6-0.6v-5c0-0.3-0.3-0.3-0.4-0.3h-0.7V2.6h0.2c0.7,0,1.4-0.3,1.5-0.4
		c0.1,0,0.1-0.1,0.1-0.1C41,2.2,41,2.2,41,2.3v5.9c0,0.4,0.2,0.6,0.6,0.6h0.5v0.3h-3.1V8.8z"/>
	<path class="st0" d="M43.6,3.1l-0.1,2.3C44,5,44.3,4.8,45,4.8c1.3,0,2,1.1,2,2.1c0,1.3-1.1,2.4-2.3,2.4c-1.1,0-1.7-0.8-1.7-1.4
		c0-0.4,0.2-0.6,0.5-0.6c0.3,0,0.5,0.2,0.5,0.5c0,0.1,0,0.1,0,0.3c0,0.1,0,0.2,0,0.3c0,0.4,0.4,0.6,0.8,0.6c0.7,0,1.4-0.7,1.4-1.9
		c0-1.2-0.6-1.8-1.3-1.8c-0.4,0-0.9,0.2-1.4,0.8l-0.1-0.1l0.1-3.6h3.2l-0.2,0.7H43.6z"/>
	<path class="st0" d="M48.2,4.9l1.1-0.3v0.6c0.1-0.2,0.4-0.6,0.9-0.6c0.5,0,0.7,0.4,0.8,0.5c0.2-0.2,0.4-0.5,0.9-0.5
		c0.6,0,0.8,0.5,0.8,0.9v3.1c0,0.2,0.1,0.3,0.3,0.3H53v0.3h-1.5V8.8h0.2c0.2,0,0.3-0.2,0.3-0.3v-3C52,5.1,51.7,5,51.5,5
		c-0.3,0-0.6,0.4-0.6,0.7v2.8c0,0.2,0.1,0.3,0.3,0.3h0.2v0.3h-1.5V8.8H50c0.2,0,0.3-0.2,0.3-0.3v-3c0-0.3-0.2-0.5-0.4-0.5
		c-0.1,0-0.4,0-0.6,0.6v2.9c0,0.2,0.1,0.3,0.3,0.3h0.2v0.3h-1.5V8.8h0.2c0.2,0,0.3-0.2,0.3-0.3V5.2c0-0.1-0.1-0.2-0.2-0.2
		c0,0-0.1,0-0.2,0L48.2,4.9z M52.9,8.5c0.2-0.2,0.6-0.5,0.8-0.7c-0.1-0.3-0.1-0.6-0.1-1.2c0-2.1,1.1-4.4,2.2-4.4
		c0.6,0,0.6,1.2,0.6,1.4c0,2.1-1.3,3.3-2.1,4.1c0.1,0.4,0.3,1.1,0.9,1.1c0.4,0,0.9-0.5,1.4-1.3l0.2,0.1c-0.4,0.8-1,1.7-1.7,1.7
		c-0.8,0-1.1-0.8-1.2-1.1c-0.1,0.1-0.4,0.3-0.8,0.5L52.9,8.5z M55.5,5.4C55.5,5.1,56,3.9,56,2.9c0-0.2,0-0.5-0.2-0.5
		c-0.3,0-0.7,0.9-0.8,1.2c-0.6,1.5-0.6,3.1-0.6,3.6C54.7,6.7,55.1,6.3,55.5,5.4z"/>
	<path class="st0" d="M58.7,10l-0.1-0.1c1.7-1.8,1.8-3.7,1.8-4.3s0-2.5-1.8-4.3l0.1-0.1c1.4,1.2,2.2,2.8,2.2,4.5
		C60.9,7.2,60.1,8.9,58.7,10z"/>
</g>
</svg>
