<?xml version="1.0" encoding="utf-8"?>
<!-- Generator: Adobe Illustrator 25.2.0, SVG Export Plug-In . SVG Version: 6.00 Build 0)  -->
<svg version="1.1" id="レイヤー_1" xmlns="http://www.w3.org/2000/svg" xmlns:xlink="http://www.w3.org/1999/xlink" x="0px"
	 y="0px" viewBox="0 0 176.5 107.8" style="enable-background:new 0 0 176.5 107.8;" xml:space="preserve">
<style type="text/css">
	.st0{fill:#FFFFFF;}
	.st1{clip-path:url(#SVGID_2_);fill:#FFFFFF;}
</style>
<path class="st0" d="M115.8,19.3c-0.1-0.1-0.6-0.5-0.6-0.5v-6.3c0.2-0.1,0.3-0.3,0.4-0.4c0.1-0.1,0.1-0.2-0.1-0.4
	c-0.3-0.4-2.2-2.3-2.3-2.4c-0.2-0.2-0.3-0.2-0.5-0.1c-0.3,0.2-1.6,1.2-1.7,1.3c0,0-1.3-1.1-1.4-1.2c-0.2-0.1-0.3-0.2-0.5-0.1
	c-0.2,0.1-1.5,1.2-1.7,1.3c-0.2,0.1-0.1,0.3,0,0.4c0.1,0.1,0.8,0.7,0.8,0.7v7c0,0-0.6,0.6-0.8,0.7c-0.1,0.1-0.2,0.3,0,0.4
	c0.2,0.1,1.5,1.2,1.7,1.3c0.2,0.1,0.4,0.1,0.5-0.1c0.1-0.1,1.5-1.3,1.6-1.4c0.1-0.1,0.1-0.2,0-0.3c-0.1-0.1-0.6-0.5-0.6-0.5v-6.6
	c0-0.1,0-0.2,0.1-0.3c0.4-0.3,0.9-0.7,1.1-0.6c0.2,0.2,0.5,0.5,0.8,0.8c0.1,0.2,0.1,0.3,0.1,0.5v6c0,0-0.6,0.6-0.8,0.7
	c-0.1,0.1-0.2,0.3,0,0.4c0.2,0.1,1.5,1.2,1.7,1.3c0.2,0.1,0.4,0.1,0.5-0.1c0.1-0.1,1.5-1.3,1.6-1.4
	C115.9,19.5,115.9,19.5,115.8,19.3"/>
<path class="st0" d="M83,6.8c0,0,0.4-0.4,0.6-0.5c0.1-0.1,0.1-0.2,0-0.3c-0.1-0.1-1.5-1.2-1.6-1.4c-0.1-0.1-0.3-0.2-0.5-0.1
	c-0.2,0.1-1.5,1.2-1.7,1.3c-0.2,0.1-0.1,0.3,0,0.4c0.1,0.1,0.8,0.7,0.8,0.7v11.8c0,0-0.6,0.6-0.8,0.7c-0.1,0.1-0.2,0.3,0,0.4
	c0.2,0.1,1.5,1.2,1.7,1.3c0.2,0.1,0.4,0.1,0.5-0.1c0.1-0.1,1.5-1.3,1.6-1.4c0.1-0.1,0.1-0.2,0-0.3c-0.1-0.1-0.6-0.5-0.6-0.5V6.8z"/>
<path class="st0" d="M79,12c0.1-0.1,0.1-0.3-0.1-0.5c-0.3-0.2-3.4-2.1-3.8-2.3c-0.2-0.1-0.4-0.1-0.5,0c-0.3,0.2-3.1,2.1-3.5,2.4
	c-0.2,0.2,0.1,0.4,0.3,0.7v5.7c0,0-0.4,0.5-0.4,0.5c-0.1,0.1-0.1,0.3,0.1,0.5c0.3,0.2,3.4,2.1,3.8,2.3c0.2,0.1,0.4,0.1,0.5,0
	c0.3-0.2,3.1-2.1,3.5-2.4c0.2-0.2-0.1-0.4-0.3-0.7v-5.7C78.6,12.5,79,12.1,79,12 M75.8,18.9c-0.2-0.1-1-0.6-1.4-0.9
	c-0.2-0.1-0.4-0.2-0.4-0.7v-5.1c0-0.6,0.1-0.7,0.3-0.6c0.2,0.1,1,0.6,1.4,0.9c0.2,0.1,0.4,0.2,0.4,0.7v5.1
	C76.1,18.9,76,19,75.8,18.9"/>
<path class="st0" d="M85.1,6.9c0,0-0.6-0.6-0.8-0.7c-0.1-0.1-0.2-0.3,0-0.4c0.2-0.1,1.5-1.2,1.7-1.3c0.2-0.1,0.4-0.1,0.5,0.1
	c0.1,0.1,1.5,1.3,1.6,1.4c0.1,0.1,0.1,0.2,0,0.3c-0.1,0.1-0.5,0.5-0.5,0.5v4.3c0,0,1.8-1.4,2.1-1.6c0.2-0.1,0.3-0.1,0.5,0.1
	c0.1,0.1,2,1.7,2.3,2.2c0.2,0.2,0.1,0.3,0.1,0.4c-0.1,0.1-0.2,0.2-0.4,0.4v5.7c0.2,0.2,0.5,0.5,0.3,0.7c-0.4,0.3-3.2,2.1-3.5,2.4
	c-0.1,0.1-0.3,0.1-0.5,0c-0.4-0.2-3.5-2.1-3.8-2.3c-0.2-0.1-0.1-0.4-0.1-0.5c0.1-0.1,0.4-0.5,0.4-0.5V6.9z M89.7,12.9
	c0-0.2,0-0.3-0.1-0.5c-0.2-0.3-0.6-0.6-0.8-0.8c-0.2-0.1-0.7,0.3-1.1,0.6c-0.1,0.1-0.1,0.1-0.1,0.3v4.6c0,0.7,0.7,1.1,0.8,1.3
	c0.5,0.4,0.8,0.5,0.9,0.6c0.3,0.1,0.3-0.1,0.3-0.6V12.9z"/>
<path class="st0" d="M96.8,12c0-0.7,0.2-0.8,0.4-0.7c0.2,0.1,1,0.6,1.4,0.9c0.2,0.1,0.4,0.2,0.4,0.7v1.5c-0.8,0.3-1.6,0.7-2.2,0.9
	V12z M101.7,14.3c0.2-0.2-0.1-0.4-0.3-0.7v-1.1c0,0,0.4-0.5,0.4-0.5c0.1-0.1,0.1-0.3-0.1-0.5c-0.3-0.2-3.4-2.1-3.8-2.3
	c-0.2-0.1-0.4-0.1-0.5,0c-0.3,0.2-3.1,2.1-3.5,2.4c-0.2,0.2,0.1,0.4,0.3,0.7v5.7c0,0-0.4,0.5-0.4,0.5c-0.1,0.1-0.1,0.3,0.1,0.5
	c0.3,0.2,3.4,2.1,3.8,2.3c0.2,0.1,0.4,0.1,0.5,0c0.3-0.2,3-2,3.5-2.4c0.1,0,0.1-0.1,0-0.3c0-0.1-0.3-0.5-0.4-0.5c-0.1,0-0.1,0-0.2,0
	c-0.4,0.3-1.8,1.3-2,1.2c-0.2-0.1-1.6-1-2-1.3c-0.2-0.1-0.4-0.2-0.4-0.7v-0.9C97.9,15.9,101.6,14.4,101.7,14.3"/>
<path class="st0" d="M102.7,6.7c-0.1,0.1-0.2,0.3,0.1,0.5c0.2,0.2,1.4,1.2,1.5,1.3c0.1,0.1,0.3,0.1,0.5-0.1c0.1-0.1,1.2-1.1,1.3-1.2
	c0.1-0.1,0.2-0.3-0.1-0.5c-0.2-0.2-1.4-1.2-1.5-1.3c-0.1-0.1-0.3-0.1-0.5,0.1C104,5.5,102.9,6.5,102.7,6.7"/>
<path class="st0" d="M105.8,11.5c0,0,0.4-0.4,0.6-0.5c0.1-0.1,0.1-0.2,0-0.3c-0.1-0.1-1.5-1.2-1.6-1.4c-0.1-0.1-0.3-0.2-0.5-0.1
	c-0.2,0.1-1.5,1.2-1.7,1.3c-0.2,0.1-0.1,0.3,0,0.4c0.1,0.1,0.8,0.7,0.8,0.7v7c0,0-0.6,0.6-0.7,0.7c-0.1,0.1-0.2,0.3,0,0.4
	c0.2,0.1,1.5,1.2,1.7,1.3c0.2,0.1,0.4,0.1,0.5-0.1c0.1-0.1,1.5-1.3,1.6-1.4c0.1-0.1,0.1-0.2,0-0.3c-0.1-0.1-0.6-0.5-0.6-0.5V11.5z"
	/>
<path class="st0" d="M119.6,6c-6.4-2.9-20.3-6-31.4-6c-8.6,0-18.7,1.9-25.9,4.1c0,0-0.6,0.2-0.8,0.3c-0.2,0.1-0.1,0.3,0,0.5
	c0.1,0.1,0.7,0.7,0.8,0.7l0,13.1c0,0-0.6,0.6-0.8,0.7c-0.1,0.1-0.2,0.3,0,0.4c0.2,0.1,1.5,1.2,1.7,1.3c0.2,0.1,0.4,0.1,0.5-0.1
	c0.1-0.1,1.5-1.3,1.6-1.4c0.1-0.1,0.1-0.2,0-0.3c-0.1-0.1-0.6-0.5-0.6-0.5v-6.6c0-0.1,0-0.2,0.1-0.3c0.4-0.3,0.9-0.7,1.1-0.6
	c0.2,0.2,0.5,0.5,0.8,0.8c0.1,0.2,0.1,0.3,0.1,0.5v6c0,0-0.6,0.6-0.7,0.7c-0.1,0.1-0.2,0.3,0,0.4c0.2,0.1,1.5,1.2,1.7,1.3
	c0.2,0.1,0.4,0.1,0.5-0.1c0.1-0.1,1.5-1.3,1.6-1.4c0.1-0.1,0.1-0.2,0-0.3c-0.1-0.1-0.5-0.5-0.5-0.5v-6.3c0.2-0.1,0.3-0.3,0.4-0.4
	c0.1-0.1,0.1-0.2-0.1-0.4c-0.3-0.4-2.2-2.3-2.3-2.4c-0.2-0.2-0.3-0.2-0.5-0.1c-0.3,0.2-2,1.5-2.1,1.6l0-6c5.8-1.6,15.7-3.5,23.4-3.4
	c11.1,0.1,24.1,3.1,30.7,5.9c4,1.7,4.9,4.3,4.9,6.6c0,2.3-0.9,5-4.9,6.6c-6.6,2.7-19.6,5.9-30.7,5.9c-11.1,0-24.1-3.1-30.7-5.9
	c-4-1.7-4.9-4.3-4.9-6.6c0-2.8,1.5-5.2,4.3-6.4c0.4,1.5,1.4,1.9,2.5,1.6c0.9-0.3,1.2-1.3,0.9-2.2c-0.2-0.6-0.9-1.2-2.2-1
	c-1.2,0.1-3.4,1.1-4.7,2.5c-0.5,0.5-2.1,2.4-2.1,5.6c0,3.5,1.8,6.2,5.6,7.9c6.4,2.8,20.3,6,31.4,6c11.1,0,25-3.2,31.4-6
	c3.8-1.7,5.6-4.4,5.6-7.9C125.2,10.4,123.4,7.7,119.6,6"/>
<path class="st0" d="M10.7,68.7h8.7v12.1h-2.9l-0.4-2.8c-1.1,1.4-2.7,3.4-6.5,3.4c-5,0-9.6-3.9-9.6-11.7c0-6.1,3.2-11.9,10.2-11.9
	c6.4,0,8.9,4.5,9.2,7.6H15c0-0.9-1.5-3.7-4.6-3.7c-3.1,0-6,2.3-6,8.1c0,6.1,3.1,7.7,6.1,7.7c1,0,4.2-0.4,5.1-4.9h-4.9V68.7z"/>
<path class="st0" d="M30.7,57.7c2.8,0,10,1.3,10,11.8c0,10.5-7.3,11.8-10,11.8c-2.8,0-10-1.3-10-11.8C20.7,59,28,57.7,30.7,57.7
	 M30.7,77.4c2.4,0,5.7-1.6,5.7-7.8c0-6.3-3.3-7.8-5.7-7.8c-2.4,0-5.7,1.6-5.7,7.8C25.1,75.8,28.4,77.4,30.7,77.4"/>
<path class="st0" d="M59.2,72.9c0,5.9-3.3,8.4-8.6,8.4c-1.9,0-4.8-0.5-6.6-2.7c-1.1-1.4-1.6-3.2-1.6-5.4V58.3h4.5l0,14.6
	c0,3.1,1.7,4.5,3.7,4.5c3,0,4.2-1.6,4.2-4.3V58.3l4.5,0L59.2,72.9z"/>
<path class="st0" d="M64.3,80.8h-4.6l7.4-22.4h5l7.4,22.4h-4.7l-1.3-4.6h-7.7L64.3,80.8z M66.9,72.3h5.3l-2.6-8.9h-0.1L66.9,72.3z"
	/>
<path class="st0" d="M93.2,65.7c-0.4-1.3-1-3.9-4.6-3.9c-2.1,0-5.2,1.5-5.2,7.8c0,4,1.5,7.7,5.2,7.7c2.4,0,4.1-1.5,4.6-4.2h4.4
	c-0.9,4.9-3.8,8.3-9.1,8.3c-5.6,0-9.5-4-9.5-11.8c0-7.8,4.2-11.8,9.6-11.8c6.3,0,8.8,4.6,9,7.9H93.2z"/>
<polygon class="st0" points="103.8,70.7 103.8,80.8 99.5,80.8 99.5,58.3 103.8,58.3 103.8,66.8 112,66.8 112,58.3 116.3,58.3 
	116.3,80.8 112,80.8 112,70.7 "/>
<polygon class="st0" points="133.7,62.3 122.7,62.3 122.7,67 132.8,67 132.8,71 122.7,71 122.7,76.8 134.2,76.8 134.2,80.8 
	118.4,80.8 118.4,58.3 133.7,58.3 "/>
<polygon class="st0" points="2.2,48.5 6.4,48.5 6.4,53.3 8.6,53.3 8.6,42.7 6.4,42.7 6.4,46.7 2.2,46.7 2.2,42.7 0,42.7 0,53.3 
	2.2,53.3 "/>
<path class="st0" d="M15.4,53.6c1.4,0,5.1-0.6,5.1-5.6s-3.7-5.6-5.1-5.6c-1.4,0-5.1,0.6-5.1,5.6S14,53.6,15.4,53.6 M15.4,44.3
	c1.2,0,2.9,0.7,2.9,3.7s-1.7,3.7-2.9,3.7c-1.2,0-2.9-0.7-2.9-3.7S14.2,44.3,15.4,44.3"/>
<polygon class="st0" points="29.7,51.4 24.5,51.4 24.5,42.7 22.2,42.7 22.2,53.3 29.7,53.3 "/>
<path class="st0" d="M39.1,52.3c0.6-0.5,0.9-1.3,0.9-2.2c0-1-0.3-2.1-1.6-2.6c0.4-0.2,1.3-0.6,1.3-2.2c0-1.1-0.7-2.7-3.3-2.7h-5.2
	v10.6h4.5C37.9,53.3,38.5,52.9,39.1,52.3 M33.4,44.5h2.5c1,0,1.6,0.3,1.6,1.1c0,0.8-0.7,1.2-1.6,1.2h-2.6V44.5z M33.4,48.6h2.8
	c0.8,0,1.6,0.4,1.6,1.3c0,1.1-0.6,1.6-1.7,1.6h-2.7V48.6z"/>
<polygon class="st0" points="50,51.4 44.1,51.4 44.1,48.7 49.3,48.7 49.3,46.8 44.1,46.8 44.1,44.5 49.7,44.5 49.7,42.7 41.9,42.7 
	41.9,53.3 50,53.3 "/>
<rect x="51.6" y="42.7" class="st0" width="2.2" height="10.6"/>
<polygon class="st0" points="62.2,53.3 64.4,53.3 64.4,42.7 62.4,42.7 62.4,50.1 62.3,50.1 58.1,42.7 55.8,42.7 55.8,53.3 
	57.9,53.3 57.9,45.7 57.9,45.7 "/>
<path class="st0" d="M71.4,51.1h3.9l0.7,2.2h2.4l-3.7-10.6h-2.6l-3.8,10.6h2.3L71.4,51.1z M73.3,45.1L73.3,45.1l1.3,4.2h-2.7
	L73.3,45.1z"/>
<path class="st0" d="M86,51.1c0,1.1,0.1,1.6,0.2,2.1h2.5V53c-0.5-0.2-0.5-0.6-0.5-2.1c0-2-0.5-2.3-1.3-2.7c1-0.4,1.6-1.4,1.6-2.5
	c0-0.9-0.5-3-3.3-3h-5.4v10.6h2.2v-4.2h2.3C85.9,49.1,86,49.7,86,51.1 M81.9,44.5h2.8c1.3,0,1.6,0.8,1.6,1.4c0,1-0.6,1.4-1.7,1.4
	h-2.6V44.5z"/>
<polygon class="st0" points="94.9,53.3 94.9,44.5 98.2,44.5 98.2,42.7 89.5,42.7 89.5,44.5 92.7,44.5 92.7,53.3 "/>
<rect x="99.3" y="42.7" class="st0" width="2.2" height="10.6"/>
<path class="st0" d="M109,47.2l-2.6-0.6c-0.4-0.1-1.1-0.3-1.1-1.1c0-1,1-1.3,1.8-1.3c1.9,0,2.1,1.1,2.2,1.6h2.1
	c0-1.3-0.9-3.4-4.1-3.4c-3.4,0-4.1,2.1-4.1,3.3c0,2.3,1.7,2.7,3.4,3.1l1.1,0.3c1.1,0.3,1.9,0.5,1.9,1.3c0,1.1-1.2,1.4-2.2,1.4
	c-1.9,0-2.2-1.1-2.2-1.7H103c0,1.3,0.7,3.5,4.5,3.5c0.9,0,4.2-0.3,4.2-3.5C111.8,48.2,110.4,47.6,109,47.2"/>
<path class="st0" d="M128,47.2l-2.6-0.6c-0.4-0.1-1.1-0.3-1.1-1.1c0-1,1-1.3,1.8-1.3c1.9,0,2.1,1.1,2.2,1.6h2.1
	c0-1.3-0.9-3.4-4.1-3.4c-3.4,0-4.1,2.1-4.1,3.3c0,2.3,1.7,2.7,3.4,3.1l1.1,0.3c1.1,0.3,1.9,0.5,1.9,1.3c0,1.1-1.2,1.4-2.2,1.4
	c-1.9,0-2.2-1.1-2.2-1.7H122c0,1.3,0.7,3.5,4.5,3.5c0.9,0,4.2-0.3,4.2-3.5C130.7,48.2,129.4,47.6,128,47.2"/>
<polygon class="st0" points="115.7,53.3 117.9,53.3 117.9,44.5 121.2,44.5 121.2,42.7 112.5,42.7 112.5,44.5 115.7,44.5 "/>
<path class="st0" d="M131.8,44.5h1.1c0,0.6-0.1,1.1-1.1,1.4v0.8c0.8-0.2,2-0.7,2-2.5v-1.5h-2.1V44.5z"/>
<path class="st0" d="M2.4,103.7c-0.4,1-0.9,1.9-1.6,2.6L0,105.8c0.6-0.6,1.2-1.4,1.5-2.4L2.4,103.7z M4.2,102.4v3.9
	c0,1.1-0.8,1.1-2.2,1.1c0-0.2-0.1-0.6-0.3-0.8c0.3,0,0.6,0,0.8,0c0.5,0,0.7,0,0.7-0.3v-3.9H0.5v-0.8h2.9v-1.7l1.1,0.1
	c0,0.1-0.1,0.2-0.2,0.2v1.5h2.8v0.8H4.2z M5.8,103.3c0.6,0.7,1.3,1.7,1.8,2.5l-0.8,0.5c-0.4-0.8-1.1-1.9-1.7-2.6L5.8,103.3z"/>
<path class="st0" d="M11.2,101.1c0,0.1-0.1,0.2-0.2,0.2c-0.1,2.4-0.3,4.5-1.5,6.1c-0.2-0.1-0.5-0.3-0.8-0.5c1.2-1.4,1.4-3.6,1.4-5.9
	L11.2,101.1z M13.5,105.9c1.3-0.7,2.1-1.9,2.6-3.3c0.2,0.1,0.6,0.4,0.8,0.5c-0.6,1.8-1.7,3.1-3.5,4c0,0.1-0.1,0.1-0.2,0.2l-0.7-0.8
	l0.1-0.2V100l1.1,0.1c0,0.1-0.1,0.2-0.2,0.2V105.9z"/>
<path class="st0" d="M17.6,104.1c0.7-0.7,1.9-2.1,2.5-2.7c0.3-0.3,0.5-0.4,0.8-0.4c0.3,0,0.5,0.2,0.8,0.4c1.1,1,2.9,3,4.1,4.6
	l-0.7,0.7c-1.1-1.6-3-3.7-3.8-4.5c-0.2-0.2-0.3-0.2-0.4-0.2c-0.1,0-0.2,0.1-0.4,0.3c-0.4,0.4-1.5,1.8-2.1,2.4c0,0.1,0,0.2-0.1,0.3
	L17.6,104.1z M23.5,100.4c0.4,0.3,0.8,0.9,1.1,1.2l-0.4,0.3c-0.2-0.4-0.7-0.9-1-1.2L23.5,100.4z M24.6,99.7c0.4,0.3,0.8,0.9,1.1,1.2
	l-0.4,0.3c-0.2-0.4-0.7-0.9-1.1-1.2L24.6,99.7z"/>
<path class="st0" d="M33.9,100.5c0,0-0.1,0.1-0.2,0.1c0,0-0.1,0-0.1,0c-0.7,0.7-1.6,1.4-2.4,2c0.1,0,0.2,0.1,0.2,0.1
	c0,0.1-0.1,0.1-0.2,0.1v4.6h-0.9v-4.3c-0.9,0.6-2,1.3-3.1,1.8c-0.1-0.2-0.3-0.5-0.5-0.7c2.3-1.1,4.9-2.9,6.3-4.5L33.9,100.5z"/>
<path class="st0" d="M35.4,100.4c0.9,0.3,1.9,0.7,2.6,1.2l-0.5,0.8c-0.6-0.4-1.7-0.9-2.5-1.2L35.4,100.4z M35.3,106.4
	c3-0.9,5.1-2.7,6.1-5.1c0.3,0.2,0.6,0.4,0.8,0.5c-1.1,2.4-3.2,4.3-6.1,5.3c0,0.1-0.1,0.2-0.1,0.2L35.3,106.4z"/>
<path class="st0" d="M48.3,101c0,0-0.1,0-0.1,0c-0.2,0.4-0.4,0.7-0.7,1.1l0.3,0.1c0,0.1-0.1,0.1-0.2,0.1v5.4h-0.9v-4.6
	c-0.8,1-1.9,1.9-3.1,2.6c-0.1-0.2-0.4-0.5-0.6-0.7c1.7-0.9,3.2-2.5,4.1-4h-3.8v-0.8H51v0.8H48.3z M50.6,105.6
	c-0.6-0.6-1.9-1.6-2.9-2.2l0.6-0.6c1,0.6,2.3,1.5,3,2.1L50.6,105.6z"/>
<path class="st0" d="M54.2,103v2.8c0.6,1,1.8,1,3.3,1c1,0,2.2,0,3-0.1c-0.1,0.2-0.2,0.6-0.3,0.8c-0.7,0-1.7,0-2.6,0
	c-1.9,0-3,0-3.8-1c-0.4,0.4-0.8,0.7-1.1,1c0,0.1,0,0.1-0.1,0.2l-0.4-0.9c0.3-0.2,0.8-0.6,1.2-0.9v-2.1h-1.1V103H54.2z M53,99.8
	c0.5,0.4,1.1,1,1.4,1.4l-0.7,0.5c-0.3-0.4-0.8-1-1.4-1.5L53,99.8z M60.3,101.8h-2c0.6,0.5,1.4,1,2.2,1.2c-0.2,0.1-0.4,0.4-0.5,0.6
	c-0.8-0.3-1.5-0.8-2.1-1.4v1h-0.8v-1c-0.4,0.5-1,0.9-1.6,1.2h2.7l0.2,0l0.4,0.1c0,0.1-0.1,0.5-0.2,0.7h0.8l0.2,0l0.4,0.1
	c0,0.1,0,0.1,0,0.2c-0.2,1.8-0.4,1.9-1.4,1.9c-0.2,0-0.4,0-0.7,0c0-0.2-0.1-0.5-0.2-0.6c0.4,0,0.8,0,0.9,0c0.1,0,0.2,0,0.3-0.1
	c0.1-0.1,0.2-0.3,0.2-0.9h-0.8l-0.1,0.3l-0.7-0.1c0.1-0.3,0.2-0.6,0.2-0.9h-0.9c-0.2,1.1-0.5,1.9-2,2.4c-0.1-0.2-0.3-0.5-0.4-0.6
	c1.2-0.3,1.5-1,1.7-1.8h-1v-0.5c-0.2,0.1-0.3,0.1-0.5,0.2c-0.1-0.2-0.3-0.5-0.5-0.6c0.8-0.3,1.7-0.8,2.2-1.3h-2v-0.6h2.4v-0.6
	c-0.6,0.1-1.3,0.1-1.9,0.1c0-0.2-0.1-0.4-0.2-0.6c1.5-0.1,3.3-0.2,4.3-0.5l0.6,0.6c0,0-0.1,0-0.1,0c0,0-0.1,0-0.1,0
	c-0.5,0.1-1.1,0.2-1.8,0.3v0.6h2.4V101.8z"/>
<path class="st0" d="M64.7,105.4h-2.2v0.8h-0.8V100h3V105.4z M63.9,100.8h-1.4v1.5h1.4V100.8z M62.5,104.6h1.4V103h-1.4V104.6z
	 M69.3,99.9v6.8c0,0.9-0.4,1-2,1c0-0.2-0.2-0.6-0.3-0.8c0.3,0,0.5,0,0.8,0c0.7,0,0.7,0,0.7-0.2v-1.8h-2.4c-0.2,1.1-0.7,2.1-1.7,2.9
	c-0.1-0.2-0.4-0.5-0.6-0.6c1.5-1.1,1.6-2.8,1.6-4.1v-3.2H69.3z M66.2,103.1c0,0.3,0,0.7-0.1,1.1h2.3v-1.4h-2.2V103.1z M68.5,100.7
	h-2.2v1.4h2.2V100.7z"/>
<path class="st0" d="M73.3,101.7l0.6,0.3c0,0.1-0.1,0.1-0.1,0.1c-0.4,2.2-1.4,3.9-2.7,4.8c-0.1-0.2-0.5-0.5-0.7-0.6
	c1.1-0.7,2-2,2.4-3.7h-2.1v-0.8h2.5L73.3,101.7z M75.1,101.1c0.2,0.7,0.4,1.3,0.7,1.9c0.7-0.6,1.5-1.4,2-2.1l0.9,0.7
	c0,0-0.1,0.1-0.2,0.1c-0.6,0.6-1.5,1.5-2.2,2.1c0.7,1.1,1.5,2.1,2.7,2.6c-0.2,0.2-0.5,0.5-0.6,0.8c-1.4-0.8-2.4-2.1-3.1-3.7v3.3
	c0,1-0.4,1.1-2.1,1.1c0-0.3-0.2-0.7-0.3-0.9c0.4,0,0.8,0,1,0c0.5,0,0.6,0,0.6-0.2v-7l1.1,0.1c0,0.1-0.1,0.1-0.2,0.1V101.1z"/>
<path class="st0" d="M82.6,104.3v0.4c0.5,0.3,1.6,1.2,1.9,1.4l-0.5,0.7c-0.3-0.3-0.9-0.9-1.4-1.3v2.3h-0.8v-2.4
	c-0.5,0.7-1.1,1.4-1.7,1.9c-0.1-0.2-0.3-0.5-0.5-0.7c0.7-0.5,1.6-1.4,2-2.2h-1.8v-0.7h2v-0.9l1,0.1c0,0.1-0.1,0.1-0.2,0.1v0.7h1.8
	v0.7H82.6z M84.4,100.3C84.4,100.3,84.3,100.3,84.4,100.3c-0.1,0-0.1,0-0.2,0c-1,0.3-2.7,0.5-4.2,0.6c0-0.2-0.1-0.5-0.2-0.7
	c1.4-0.1,3.1-0.4,4.1-0.7L84.4,100.3z M80.5,101.2c0.2,0.4,0.5,1,0.5,1.4l-0.7,0.2c-0.1-0.4-0.3-1-0.5-1.5L80.5,101.2z M82.1,101
	c0.2,0.5,0.3,1,0.4,1.4l-0.7,0.1c0-0.4-0.2-1-0.3-1.5L82.1,101z M84.6,101.2c0,0.1-0.1,0.1-0.2,0.1c-0.2,0.5-0.6,1.2-0.9,1.6
	c-0.2-0.1-0.4-0.2-0.6-0.2c0.3-0.5,0.6-1.2,0.8-1.8L84.6,101.2z M88,105c0,0.1-0.1,0.1-0.2,0.1c-0.6,1-1.8,2-2.9,2.6
	c-0.1-0.2-0.4-0.5-0.6-0.7c1.1-0.5,2.2-1.4,2.8-2.4L88,105z M87.6,100c0,0.1-0.1,0.1-0.2,0.1c-0.5,0.7-1.4,1.5-2.2,2
	c-0.1-0.2-0.4-0.4-0.6-0.6c0.7-0.4,1.6-1.2,2.1-1.8L87.6,100z M87.8,102.5c0,0.1-0.1,0.1-0.2,0.1c-0.6,0.7-1.5,1.5-2.4,2.1
	c-0.1-0.2-0.4-0.4-0.6-0.6c0.8-0.4,1.8-1.2,2.3-1.9L87.8,102.5z"/>
<path class="st0" d="M90,104.8c0,0.1-0.1,0.1-0.2,0.1c-0.1,0.7-0.3,1.6-0.5,2.1c-0.1-0.1-0.4-0.2-0.6-0.3c0.2-0.5,0.4-1.3,0.5-2.1
	L90,104.8z M95.7,106.5c-0.2-0.3-0.5-0.7-0.7-1l0.6-0.3c0.6,0.7,1.2,1.5,1.5,2.1l-0.7,0.4c-0.1-0.2-0.2-0.4-0.3-0.6
	c-1.4,0.1-2.8,0.2-3.7,0.2c0,0.1-0.1,0.1-0.1,0.1l-0.2-0.9l0.8,0c0.2-0.5,0.5-1.3,0.6-1.9h-1.2v-0.5l-0.5,0.2c0-0.1-0.1-0.3-0.2-0.5
	l-0.6,0v3.7h-0.7v-3.6c-0.4,0-0.8,0-1.1,0.1c0,0.1-0.1,0.1-0.1,0.1l-0.2-0.9l0.6,0c0.2-0.2,0.3-0.4,0.5-0.7
	c-0.3-0.4-0.7-0.9-1.1-1.2l0.4-0.5c0.1,0.1,0.2,0.1,0.2,0.2c0.3-0.5,0.6-1.1,0.7-1.6l0.8,0.4c0,0.1-0.1,0.1-0.2,0.1
	c-0.2,0.5-0.6,1.2-0.9,1.7c0.2,0.2,0.3,0.3,0.4,0.5c0.3-0.5,0.7-1.1,0.9-1.5l0.8,0.4c0,0.1-0.1,0.1-0.2,0.1
	c-0.4,0.7-1.1,1.7-1.7,2.4l1.2,0c-0.1-0.3-0.3-0.5-0.4-0.8l0.6-0.3c0.3,0.5,0.7,1.2,0.8,1.7h4.5v0.7h-2.4c0,0,0,0-0.1,0
	c-0.2,0.6-0.4,1.3-0.7,1.8L95.7,106.5z M91.7,104.6c0.2,0.5,0.5,1.2,0.6,1.6c-0.2,0.1-0.4,0.1-0.7,0.2c-0.1-0.4-0.3-1.1-0.5-1.7
	L91.7,104.6z M95,99.6c0,0.1-0.1,0.1-0.1,0.1c0.5,0.8,1.4,1.9,2.2,2.5c-0.2,0.2-0.4,0.5-0.5,0.8c-0.8-0.7-1.7-1.8-2.2-2.6
	c-0.5,0.8-1.3,1.9-2.2,2.7c-0.1-0.2-0.3-0.5-0.4-0.7c0.9-0.7,1.8-1.9,2.2-2.8L95,99.6z M93,102.4h2.9v0.7H93V102.4z"/>
<path class="st0" d="M101.5,106.5c0,0-0.1,0-0.2,0.1c-0.6,0.4-1.8,0.9-2.7,1.2c-0.1-0.2-0.4-0.5-0.6-0.6c0.9-0.3,2.1-0.8,2.7-1.2
	L101.5,106.5z M98.1,105h7.8v0.8h-7.8V105z M99.4,99.9h5.4v4.6h-5.4V99.9z M100.2,101.2h3.7v-0.7h-3.7V101.2z M100.2,102.5h3.7v-0.7
	h-3.7V102.5z M100.2,103.8h3.7v-0.7h-3.7V103.8z M105.3,107.7c-0.6-0.3-1.6-0.8-2.6-1.2l0.6-0.6c1,0.4,2.1,0.8,2.8,1.2L105.3,107.7z
	"/>
<polygon class="st0" points="108.5,103.6 111.1,107.7 110.4,107.7 107.9,103.6 110.4,99.5 111.1,99.5 "/>
<path class="st0" d="M118.9,101.8c0,0,0,0.1-0.1,0.1c-0.1,2.6-0.4,4.1-0.7,4.7c-0.3,0.5-0.7,0.7-1.2,0.7c-0.4,0-1-0.1-1.6-0.2
	c0-0.2,0-0.6,0-0.9c0.6,0.1,1.2,0.2,1.4,0.2c0.3,0,0.5-0.1,0.6-0.4c0.2-0.5,0.4-1.8,0.5-3.6h-2.5c-0.4,1.9-1.2,3.6-2.8,4.9
	c-0.2-0.2-0.5-0.4-0.7-0.5c1.5-1.1,2.2-2.6,2.6-4.4h-2.3v-0.8h2.4c0.1-0.6,0.1-1.1,0.2-1.8l1.2,0.1c0,0.1-0.1,0.2-0.2,0.2
	c-0.1,0.6-0.1,1-0.2,1.6h2.5l0.2-0.1L118.9,101.8z M117.4,99.7c0.4,0.3,0.8,0.9,1.1,1.3l-0.4,0.3c-0.2-0.3-0.7-1-1-1.3L117.4,99.7z
	 M118.8,99.4c0.4,0.3,0.8,0.9,1.1,1.3l-0.4,0.3c-0.2-0.3-0.7-1-1-1.3L118.8,99.4z"/>
<path class="st0" d="M121.4,102.1c0.2,0.5,0.5,1.4,0.6,1.9l-0.7,0.2c-0.1-0.5-0.4-1.3-0.6-1.9L121.4,102.1z M126.5,102.2
	c0,0.1-0.1,0.1-0.2,0.1c-0.7,2.6-2,4.1-4.1,4.9c-0.1-0.1-0.3-0.4-0.5-0.6c2-0.8,3.2-2.2,3.8-4.8L126.5,102.2z M123.5,101.7
	c0.2,0.6,0.3,1.4,0.4,1.9l-0.7,0.1c-0.1-0.6-0.2-1.4-0.4-1.9L123.5,101.7z"/>
<path class="st0" d="M128.1,102.2c0.8,0.2,1.7,0.5,2.3,0.8l-0.4,0.8c-0.6-0.3-1.5-0.6-2.3-0.8L128.1,102.2z M128.5,106.4
	c2.8-0.9,4.7-2.4,5.9-5c0.2,0.2,0.6,0.4,0.8,0.6c-1.2,2.5-3.3,4.2-5.9,5.1c0,0.1,0,0.2-0.1,0.2L128.5,106.4z M129.1,100.1
	c0.8,0.2,1.7,0.6,2.3,0.9l-0.4,0.7c-0.6-0.3-1.5-0.7-2.3-0.9L129.1,100.1z"/>
<path class="st0" d="M141.7,106.1v0.7h-6v-0.7h3.5c0.1-0.8,0.3-2.4,0.4-3.2h-3.2v-0.7h3.5l0.1,0l0.6,0.3c0,0-0.1,0.1-0.1,0.1
	c-0.1,0.9-0.4,2.7-0.5,3.6H141.7z"/>
<polygon class="st0" points="145.3,103.6 142.7,99.5 143.4,99.5 145.9,103.6 143.4,107.7 142.7,107.7 "/>
<path class="st0" d="M150.9,100.1h5.8v7.5h-0.9V107h-4.1v0.6h-0.8V100.1z M155.9,100.9h-4.1v2.2h4.1V100.9z M151.8,106.2h4.1v-2.2
	h-4.1V106.2z"/>
<path class="st0" d="M166.4,102.2h-2.9c0.7,1.4,1.9,2.8,3.3,3.4c-0.2,0.2-0.5,0.5-0.6,0.7c-1.3-0.7-2.4-2-3.2-3.4v2.4h1.6v0.8H163
	v1.6h-0.9v-1.6h-1.6v-0.8h1.6v-2.4c-0.8,1.5-1.9,2.7-3.1,3.5c-0.1-0.2-0.4-0.5-0.6-0.7c1.3-0.7,2.5-2,3.2-3.5h-2.9v-0.8h3.4v-1.8
	l1.1,0.1c0,0.1-0.1,0.1-0.2,0.1v1.6h3.4V102.2z"/>
<path class="st0" d="M169.5,106.2c0,0.6,0.2,0.7,1.1,0.7h3.2c0.8,0,1-0.2,1.1-1.2c0.2,0.1,0.6,0.3,0.8,0.3c-0.2,1.3-0.5,1.7-1.9,1.7
	h-3.3c-1.5,0-2-0.3-2-1.4v-3.6c-0.2,0.2-0.4,0.3-0.5,0.4c-0.1-0.2-0.4-0.5-0.6-0.6c1.2-0.8,2.1-2,2.6-2.9l1,0.2
	c0,0.1-0.1,0.1-0.2,0.1l-0.2,0.3h2l0.1,0l0.6,0.4c0,0-0.1,0.1-0.2,0.1c-0.2,0.4-0.5,0.8-0.7,1.2h2.4v3.3h-0.9v-0.4h-4.7V106.2z
	 M171.7,101.7c0.2-0.3,0.4-0.6,0.6-0.9h-2c-0.2,0.3-0.5,0.6-0.8,0.9H171.7z M169.5,103.9h1.9v-1.4h-1.9V103.9z M174.2,102.5h-2v1.4
	h2V102.5z"/>
<polygon class="st0" points="3,86.6 3,91.3 2,91.3 2,86.6 0,86.6 0,85.8 5,85.8 5,86.6 "/>
<path class="st0" d="M9.1,91.3c-0.1-0.1-0.2-0.2-0.2-0.6V90c0-0.4-0.1-0.9-0.7-0.9H6.8v2.1h-1v-5.5h2.6c1,0,1.7,0.6,1.7,1.5
	c0,0.4-0.1,0.7-0.3,0.9c-0.2,0.2-0.4,0.3-0.9,0.4c0.5,0.1,1,0.2,1,1.3v0.6c0,0.5,0.2,0.7,0.4,0.8H9.1z M8.2,86.6H6.8v1.6h1.3
	C8.6,88.3,9,88,9,87.4C9,86.9,8.7,86.6,8.2,86.6"/>
<path class="st0" d="M14.9,91.3l-0.4-1.2h-2.3l-0.4,1.2h-1.1l2.1-5.5H14l2.1,5.5H14.9z M13.5,87.1l-0.1-0.5l-0.1,0.5l-0.7,2.1h1.7
	L13.5,87.1z"/>
<path class="st0" d="M19.5,91.3H17v-5.5h2.4c1.5,0,2.3,1.2,2.3,2.6C21.8,89.9,21,91.3,19.5,91.3 M19.4,86.6H18v3.8h1.4
	c1,0,1.3-1.3,1.3-2C20.7,87.1,20,86.6,19.4,86.6"/>
<rect x="22.7" y="85.8" class="st0" width="1" height="5.5"/>
<polygon class="st0" points="27.4,86.6 27.4,91.3 26.4,91.3 26.4,86.6 24.5,86.6 24.5,85.8 29.4,85.8 29.4,86.6 "/>
<rect x="30.1" y="85.8" class="st0" width="1" height="5.5"/>
<path class="st0" d="M34.8,91.4c-1.6,0-2.7-1.2-2.7-2.9c0-1.8,1.1-2.9,2.7-2.9c1.6,0,2.7,1.1,2.7,2.9C37.6,90.3,36.5,91.4,34.8,91.4
	 M34.8,86.5c-0.9,0-1.7,0.7-1.7,2c0,1.3,0.7,2,1.7,2c1,0,1.7-0.8,1.7-2C36.5,87.3,35.8,86.5,34.8,86.5"/>
<polygon class="st0" points="42.1,91.3 39.9,87.8 39.5,86.9 39.6,88.1 39.6,91.3 38.7,91.3 38.7,85.8 39.7,85.8 41.9,89.3 
	42.3,90.2 42.2,89 42.2,85.8 43.2,85.8 43.2,91.3 "/>
<path class="st0" d="M48.3,91.3l-0.4-1.2h-2.3l-0.4,1.2h-1.1l2.1-5.5h1.1l2.1,5.5H48.3z M46.9,87.1l-0.1-0.5l-0.1,0.5l-0.7,2.1h1.7
	L46.9,87.1z"/>
<polygon class="st0" points="50.3,91.3 50.3,85.8 51.3,85.8 51.3,90.4 54.4,90.4 54.4,91.3 "/>
<path class="st0" d="M60.3,91.4c-1.8,0-2.6-1.4-2.6-2.9c0-1.4,0.7-3,2.7-3c1.6,0,2.2,1,2.3,1.9h-1.1c-0.2-1-1.1-1-1.2-1
	c-0.9,0-1.6,0.7-1.6,2.1c0,1.3,0.7,2,1.5,2c0.4,0,0.7-0.1,1-0.4c0.2-0.2,0.3-0.4,0.3-0.7h1.1C62.6,90.3,61.9,91.4,60.3,91.4"/>
<path class="st0" d="M66.3,91.4c-1.6,0-2.7-1.2-2.7-2.9c0-1.8,1.1-2.9,2.7-2.9c1.6,0,2.7,1.1,2.7,2.9C69,90.3,67.9,91.4,66.3,91.4
	 M66.3,86.5c-0.9,0-1.7,0.7-1.7,2c0,1.3,0.7,2,1.7,2c1,0,1.7-0.8,1.7-2C67.9,87.3,67.2,86.5,66.3,86.5"/>
<polygon class="st0" points="70,91.3 70,85.8 71,85.8 71,90.4 74.1,90.4 74.1,91.3 "/>
<path class="st0" d="M77.4,91.4c-1.6,0-2.7-1.2-2.7-2.9c0-1.8,1.1-2.9,2.7-2.9c1.6,0,2.7,1.1,2.7,2.9C80.2,90.3,79,91.4,77.4,91.4
	 M77.4,86.5c-0.9,0-1.7,0.7-1.7,2c0,1.3,0.7,2,1.7,2c1,0,1.7-0.8,1.7-2C79.1,87.3,78.4,86.5,77.4,86.5"/>
<path class="st0" d="M84.5,91.3c-0.1-0.1-0.2-0.2-0.2-0.6V90c0-0.4-0.1-0.9-0.7-0.9h-1.4v2.1h-1v-5.5h2.6c1,0,1.7,0.6,1.7,1.5
	c0,0.4-0.1,0.7-0.3,0.9c-0.2,0.2-0.4,0.3-0.9,0.4c0.5,0.1,1.1,0.2,1.1,1.3v0.6c0,0.5,0.2,0.7,0.4,0.8H84.5z M83.6,86.6h-1.4v1.6h1.3
	c0.6,0,0.9-0.3,0.9-0.9C84.4,86.9,84.1,86.6,83.6,86.6"/>
<path class="st0" d="M88.6,91.4c-0.9,0-2.3-0.3-2.4-1.8h1c0,0.9,0.8,1,1.3,1c0.3,0,1.3,0,1.3-0.8c0-0.4-0.2-0.5-0.7-0.7l-1.3-0.3
	c-0.7-0.2-1.5-0.6-1.5-1.6c0-1.2,1.1-1.6,2.2-1.6c0.5,0,1.1,0.1,1.6,0.5c0.3,0.3,0.4,0.5,0.5,1.2h-1c0-0.8-0.9-0.9-1.2-0.9
	c-0.2,0-1.2,0-1.2,0.7c0,0.3,0.2,0.6,0.8,0.7l1.4,0.3c0.4,0.1,1.4,0.4,1.4,1.5C90.9,90.7,90,91.4,88.6,91.4"/>
<path class="st0" d="M97,91.4c-1.6,0-2.7-1.2-2.7-2.9c0-1.8,1.1-2.9,2.7-2.9c1.6,0,2.7,1.1,2.7,2.9C99.7,90.3,98.6,91.4,97,91.4
	 M97,86.5c-0.9,0-1.7,0.7-1.7,2c0,1.3,0.7,2,1.7,2c1,0,1.7-0.8,1.7-2C98.7,87.3,98,86.5,97,86.5"/>
<polygon class="st0" points="101.8,86.6 101.8,88.1 104.4,88.1 104.4,88.9 101.8,88.9 101.8,91.3 100.8,91.3 100.8,85.8 104.7,85.8 
	104.7,86.6 "/>
<path class="st0" d="M111.1,91c-0.4,0.4-1,0.5-1.4,0.5c-1.2,0-1.7-0.7-1.7-1.7v-0.6h1v0.6c0,0.7,0.5,0.7,0.8,0.7
	c0.5,0,0.8-0.2,0.8-0.9v-3.8h1v3.9C111.5,90.1,111.4,90.6,111.1,91"/>
<path class="st0" d="M116.5,91.3l-0.4-1.2h-2.3l-0.4,1.2h-1.1l2.1-5.5h1.1l2.1,5.5H116.5z M115.1,87.1l-0.1-0.5l-0.1,0.5l-0.7,2.1
	h1.7L115.1,87.1z"/>
<path class="st0" d="M121.1,89.3h-1.5v2h-1v-5.5h2.5c1.2,0,1.9,0.8,1.9,1.7C122.9,88.6,122.1,89.3,121.1,89.3 M120.9,86.6h-1.4v1.8
	h1.4c0.6,0,1-0.3,1-0.9C121.9,86.9,121.4,86.6,120.9,86.6"/>
<path class="st0" d="M127.7,91.3l-0.4-1.2H125l-0.4,1.2h-1.1l2.1-5.5h1.1l2.1,5.5H127.7z M126.2,87.1l-0.1-0.5l-0.1,0.5l-0.7,2.1
	h1.7L126.2,87.1z"/>
<polygon class="st0" points="133.2,91.3 131,87.8 130.6,86.9 130.7,88.1 130.7,91.3 129.7,91.3 129.7,85.8 130.8,85.8 133,89.3 
	133.4,90.2 133.3,89 133.3,85.8 134.2,85.8 134.2,91.3 "/>
<g>
	<defs>
		<rect id="SVGID_1_" x="140.8" y="42.1" width="35.7" height="43.4"/>
	</defs>
	<clipPath id="SVGID_2_">
		<use xlink:href="#SVGID_1_"  style="overflow:visible;"/>
	</clipPath>
	<path class="st1" d="M166.2,58c-0.1,0-0.1,0.1-0.2,0.2c0,0,0,0,0,0c0,0,0,0,0,0c0-0.1,0.2,0,0.3-0.1C166.2,58.1,166.4,58,166.2,58"
		/>
	<path class="st1" d="M161.9,60.7c0.1,0,0.1,0.1,0.1,0.1c0,0,0,0,0-0.1C162,60.7,162,60.7,161.9,60.7"/>
	<path class="st1" d="M154.7,65.8c0,0.1-0.2,0.1-0.1,0.1c0,0,0,0,0,0.1c0.1,0,0.1,0,0.1,0.1c0,0,0,0,0,0c0,0,0.1,0,0.1,0
		c-0.2-0.1,0-0.2,0-0.2C154.9,65.8,154.8,65.8,154.7,65.8"/>
	<path class="st1" d="M158.4,63.5C158.4,63.5,158.3,63.5,158.4,63.5C158.5,63.5,158.5,63.5,158.4,63.5
		C158.4,63.4,158.4,63.4,158.4,63.5c0.1-0.1,0.2-0.1,0.4-0.1c0,0,0,0,0,0v0c-0.2,0-0.1,0-0.1,0.1c-0.1,0,0.1,0.1,0,0.1
		c-0.1,0-0.1,0.1,0,0.1c0,0,0.1,0,0.1,0c0,0,0-0.1-0.1-0.1c0,0,0-0.1,0-0.1h0l0,0c0.1,0,0.1,0,0.2,0c0-0.1,0-0.1-0.1-0.1
		c0,0,0.2,0,0.1-0.1c0,0,0.1,0,0.1,0c0,0,0,0,0,0c0,0,0.1,0,0.1,0c0,0,0,0.1,0.1,0.1c0.1-0.1,0.1-0.1,0-0.2c0-0.1-0.1-0.1-0.2,0
		c-0.1,0-0.1,0-0.1,0.1c0,0,0,0,0,0c0,0-0.1,0-0.1,0c0,0-0.1,0-0.1,0c-0.1-0.1-0.3-0.1-0.4,0C158.4,63.3,158.3,63.4,158.4,63.5
		C158.4,63.4,158.4,63.4,158.4,63.5"/>
	<polygon class="st1" points="153.9,66.6 153.9,66.6 153.9,66.6 153.9,66.6 153.9,66.6 	"/>
	<path class="st1" d="M153.8,66.5C153.7,66.5,153.7,66.5,153.8,66.5c0,0.1-0.2,0.2-0.2,0.3c0.2,0,0.2-0.2,0.3-0.2
		C153.9,66.6,153.9,66.6,153.8,66.5"/>
	<polyline class="st1" points="157.6,64.1 157.6,64.1 157.6,64.1 157.6,64.1 	"/>
	<path class="st1" d="M157.9,64.1C157.9,64.1,158,64.1,157.9,64.1c0.1,0,0.2-0.1,0.3-0.1c0,0,0,0,0,0.1c0,0,0.1-0.1,0.1-0.1
		c0-0.1-0.1,0-0.1,0h-0.1c0,0,0.1-0.1-0.1-0.1c-0.1,0-0.2,0-0.1-0.1c0.1,0,0.2,0,0.2-0.1c-0.1,0-0.2-0.1-0.2,0
		c-0.1,0-0.1,0.1-0.2,0.1c0,0-0.1,0.1,0,0.1c0,0,0,0,0,0c0,0,0,0.1,0,0.1C157.7,64.1,157.8,64,157.9,64.1"/>
	<polygon class="st1" points="156.4,65.7 156.4,65.7 156.4,65.7 156.4,65.7 	"/>
	<path class="st1" d="M158.5,63.9c0.1,0,0.2-0.1,0.2-0.1c0,0,0,0-0.1,0c-0.1,0.1-0.3,0-0.3,0.1C158.4,63.8,158.4,63.9,158.5,63.9"/>
	<path class="st1" d="M158.8,64.3C158.8,64.3,158.8,64.2,158.8,64.3c-0.2-0.1-0.3,0-0.4,0.1c0.1,0,0.2,0,0.3,0
		C158.7,64.4,158.6,64.3,158.8,64.3"/>
	<polygon class="st1" points="156.2,65.1 156.2,65.1 156.2,65.1 	"/>
	<path class="st1" d="M158.2,63.9C158.3,63.9,158.3,63.9,158.2,63.9c0.1-0.1,0-0.2,0-0.2c0,0-0.1,0-0.1,0.1
		C158.2,63.8,158.1,63.9,158.2,63.9"/>
	<path class="st1" d="M159.4,63.4c-0.1,0-0.2,0.1-0.2,0.1c0,0-0.1,0-0.1,0c0,0.1,0.1,0,0.2,0.1c0,0,0,0,0,0.1c0,0,0,0,0,0.1
		c0,0-0.1,0-0.1,0c0,0,0.1,0,0.1,0c0,0-0.1,0-0.1,0c-0.1,0,0,0.1,0,0.1c0,0,0.1,0,0.2,0c0.1,0-0.2,0,0,0c0.2,0,0.3,0,0.1-0.1
		c0,0,0,0,0.1,0c0.1,0,0.2,0,0.1-0.1c0-0.1-0.1,0-0.2,0C159.4,63.6,159.5,63.5,159.4,63.4"/>
	<path class="st1" d="M156.1,65.5C156.1,65.5,156.1,65.5,156.1,65.5c0.1,0.1,0.2,0.1,0.2,0C156.3,65.4,156.2,65.4,156.1,65.5
		C156.1,65.4,156.1,65.4,156.1,65.5"/>
	<path class="st1" d="M153.5,66.6c-0.2,0.1-0.1,0.1,0,0.2C153.5,66.7,153.6,66.6,153.5,66.6"/>
	<path class="st1" d="M156.6,64.7C156.6,64.7,156.6,64.8,156.6,64.7c0.1,0.1,0.2,0.1,0.2,0.1c0,0,0,0,0.1,0c0,0,0.1,0,0.1,0
		c0,0-0.1,0.1,0,0.1c0.1,0,0.2-0.1,0.1-0.1c0.1,0,0.1-0.1,0.1-0.1c0,0,0,0,0,0c0,0,0,0,0.1,0c0.1,0,0.2,0.1,0.2,0
		c0-0.1,0-0.1-0.1-0.1c0,0,0,0-0.1,0c0,0-0.1-0.1-0.1-0.1c-0.1,0-0.1,0-0.1,0.1c0,0,0,0,0,0c0,0,0,0,0,0
		C156.8,64.6,156.7,64.7,156.6,64.7"/>
	<path class="st1" d="M154.5,66.3c0.1-0.1-0.1-0.1-0.2-0.1c0,0,0,0-0.1-0.1c-0.1-0.1-0.1,0-0.2,0c-0.2,0-0.2,0-0.1,0.1
		c-0.1,0.1,0,0.1,0.1,0.1c0,0,0.1,0.1,0.1,0.1c0,0,0,0,0-0.1c0,0,0.1,0,0.1,0C154.4,66.4,154.5,66.4,154.5,66.3"/>
	<path class="st1" d="M158.4,64.2c0.1,0.1,0.2,0,0.3,0C158.6,64.2,158.6,64.1,158.4,64.2c0.1-0.1,0.2-0.1,0.1-0.1c0,0-0.1,0-0.1,0
		C158.4,64.1,158.3,64.1,158.4,64.2"/>
	<polyline class="st1" points="157.6,64.1 157.6,64.1 157.6,64.1 157.6,64.1 	"/>
	<path class="st1" d="M157.4,64.1C157.4,64.1,157.4,64.2,157.4,64.1c0.1,0,0.1,0.1,0.2,0.1c0.1-0.1-0.1-0.1,0-0.1
		C157.5,64.1,157.5,64,157.4,64.1"/>
	<path class="st1" d="M154,66.8c0,0-0.1,0-0.2,0c0,0,0,0.1,0,0.1C154,66.9,153.9,66.7,154,66.8"/>
	<path class="st1" d="M159.9,62.8C159.9,62.8,159.9,62.7,159.9,62.8C159.9,62.7,159.8,62.7,159.9,62.8c-0.1-0.1-0.1,0-0.1,0
		c0,0,0,0.1,0,0.1C159.8,62.9,159.8,62.8,159.9,62.8"/>
	<path class="st1" d="M158.8,64.1C158.8,64.1,158.9,64.1,158.8,64.1c0.2,0,0.2,0,0.2-0.1c0,0,0,0-0.1,0
		C158.9,64,158.8,64.1,158.8,64.1"/>
	<path class="st1" d="M158.1,64.7c0-0.1,0.2-0.1,0-0.2C158.1,64.6,158,64.7,158.1,64.7"/>
	<polygon class="st1" points="157.1,65.5 157.1,65.5 157.1,65.5 	"/>
	<path class="st1" d="M157.2,65.4C157.2,65.4,157.3,65.4,157.2,65.4C157.3,65.4,157.3,65.3,157.2,65.4c0-0.1-0.1,0-0.1,0
		c0,0,0-0.1,0-0.1c0,0,0,0-0.1,0c0,0-0.1,0-0.1,0c0.1,0,0,0.1,0.1,0.1c0,0,0,0.1,0.1,0.1C157.1,65.4,157.1,65.4,157.2,65.4"/>
	<path class="st1" d="M156,66.1c0,0,0.1,0.1,0.1,0c0.1,0,0.1,0,0.1-0.1c0,0,0-0.1-0.1-0.1C156.1,66,156,66,156,66.1"/>
	<path class="st1" d="M154.5,66.8c-0.1-0.1-0.1-0.1-0.3,0C154.3,66.8,154.4,66.8,154.5,66.8"/>
	<path class="st1" d="M157.1,64.4C157,64.4,156.9,64.4,157.1,64.4c-0.1,0.1,0,0.1,0,0.1C157.2,64.5,157.2,64.4,157.1,64.4
		c0.1,0,0.1,0,0.2,0c0,0,0,0,0,0c0,0,0,0,0,0c0,0,0.1,0.1,0.1,0c0.1,0,0-0.1-0.1-0.1c0,0,0.1,0,0.1,0c0,0,0,0,0,0c0,0,0,0,0,0
		c0,0,0.1,0,0.1,0c0,0,0,0,0,0c0,0-0.1,0,0,0.1c0,0,0,0,0,0c0.1,0,0,0,0-0.1c0,0,0,0,0,0c0.1-0.1,0.1-0.1-0.1-0.1c0,0-0.1,0-0.1,0
		C157.2,64.2,157.1,64.2,157.1,64.4C157.1,64.4,157,64.4,157.1,64.4 M157.3,64.3L157.3,64.3L157.3,64.3
		C157.3,64.4,157.3,64.4,157.3,64.3C157.3,64.3,157.3,64.3,157.3,64.3"/>
	<path class="st1" d="M157.8,65C157.8,65,157.8,65,157.8,65c-0.1-0.1-0.2,0-0.2,0C157.6,65.1,157.7,65.1,157.8,65
		C157.8,65.1,157.8,65.1,157.8,65"/>
	<path class="st1" d="M154.4,68.3C154.4,68.3,154.4,68.3,154.4,68.3c0.1,0,0.2,0,0.2,0C154.6,68.2,154.6,68.2,154.4,68.3
		C154.5,68.2,154.4,68.2,154.4,68.3"/>
	<path class="st1" d="M156.8,65C156.7,65.1,156.8,65,156.8,65c0.2,0,0.1,0,0.1-0.1c0,0,0,0,0,0C156.8,64.9,156.9,65,156.8,65"/>
	<path class="st1" d="M153.9,67.1c-0.1,0-0.2,0-0.3,0C153.8,67.2,153.9,67.2,153.9,67.1"/>
	<path class="st1" d="M156.3,65.6C156.2,65.6,156.2,65.6,156.3,65.6c-0.1,0-0.2,0-0.2,0c0,0,0,0,0,0c0,0,0,0,0,0c0-0.1-0.2,0-0.3,0
		c-0.1,0-0.2,0-0.2,0.1c0,0,0,0.1,0,0.1c-0.1,0-0.2,0.1-0.2,0.1c0,0,0,0,0.1,0c0,0-0.1,0-0.1,0c0,0,0,0-0.1,0c0,0,0-0.1-0.1-0.1
		c-0.1,0,0,0-0.1,0c0,0,0,0.1,0.1,0.1c0,0-0.1,0.1,0,0.1c0.1,0,0.1,0,0.1-0.1c0.1,0,0.1,0.1,0.2,0l0,0c0.1,0,0.2,0,0.2,0
		c0,0,0,0-0.1,0c0.2,0,0.1-0.1,0-0.1c0,0,0,0,0,0c0,0,0-0.1,0-0.1c0,0,0.1,0,0.1,0c0,0,0,0.1,0,0.1c0,0,0,0.1,0.1,0
		c-0.1-0.1,0.3,0,0.1-0.1c0,0,0.1,0,0.2,0c0,0,0,0,0,0C156.5,65.6,156.3,65.6,156.3,65.6"/>
	<path class="st1" d="M155.6,66.1C155.7,66.1,155.7,66.1,155.6,66.1C155.6,66,155.6,66,155.6,66.1c-0.2,0-0.1,0-0.1,0
		C155.5,66.1,155.5,66.1,155.6,66.1"/>
	<path class="st1" d="M153,67C153,66.9,153,66.9,153,67c-0.1,0.1,0,0.1,0,0.1C153.1,67,153.1,67,153,67"/>
	<path class="st1" d="M157.5,64.6c0,0,0-0.1-0.1,0c0,0-0.1,0-0.1,0C157.3,64.6,157.4,64.6,157.5,64.6
		C157.4,64.6,157.5,64.6,157.5,64.6c0,0.1,0.1,0.1,0.1,0.1c0,0,0,0,0,0C157.6,64.5,157.5,64.6,157.5,64.6"/>
	<polygon class="st1" points="157,64.9 157,64.9 157,64.9 157,64.9 157,64.9 157,64.9 157,64.9 	"/>
	<path class="st1" d="M157.6,65.3C157.7,65.3,157.6,65.2,157.6,65.3c0-0.1,0.1-0.2,0-0.2C157.5,65.1,157.5,65.2,157.6,65.3
		C157.5,65.3,157.5,65.3,157.6,65.3"/>
	<path class="st1" d="M159.9,63.2C159.9,63.2,159.9,63.3,159.9,63.2c0.2,0.1,0.2,0,0.2,0C160,63.2,160,63.2,159.9,63.2
		C159.9,63.2,159.9,63.2,159.9,63.2"/>
	<path class="st1" d="M155.4,65.6C155.4,65.6,155.4,65.6,155.4,65.6c0-0.1,0.1-0.1,0-0.2C155.3,65.5,155.4,65.5,155.4,65.6
		C155.3,65.6,155.4,65.6,155.4,65.6"/>
	<path class="st1" d="M153.4,67.1c0.2,0,0.1-0.1,0.2-0.1c0,0,0.1,0,0.1,0c0,0,0-0.1-0.1-0.1c0,0-0.1,0-0.1-0.1c0,0,0-0.1-0.1-0.1
		c-0.1,0-0.1,0-0.1,0.1c0.1,0,0,0.1,0,0.1c-0.1,0-0.1-0.1-0.1,0c-0.1,0.2,0,0.2,0.3,0.2c-0.1,0-0.2-0.1-0.2-0.1
		C153.3,67.1,153.4,67.1,153.4,67.1"/>
	<path class="st1" d="M159.6,63.5C159.6,63.5,159.6,63.5,159.6,63.5c0.1,0.1,0.1,0,0.2,0C159.7,63.5,159.6,63.5,159.6,63.5"/>
	<path class="st1" d="M157.5,65C157.6,65,157.6,64.9,157.5,65C157.5,64.9,157.5,64.9,157.5,65C157.4,64.9,157.4,65,157.5,65"/>
	<path class="st1" d="M158.2,64.3C158.2,64.3,158.2,64.3,158.2,64.3c0.1,0.1,0.1,0,0.1,0C158.3,64.3,158.3,64.2,158.2,64.3
		C158.2,64.3,158.2,64.3,158.2,64.3"/>
	<path class="st1" d="M154.7,66.1c0,0,0.1-0.1-0.1-0.1c0,0-0.1,0-0.1,0C154.7,66,154.4,66.1,154.7,66.1c0,0.1-0.1,0.1-0.1,0.1
		c0,0,0.1,0,0,0C154.6,66.2,154.9,66.1,154.7,66.1"/>
	<path class="st1" d="M155.1,65.7c0,0,0.1,0,0.2,0C155.2,65.7,155.1,65.7,155.1,65.7c0-0.1,0.1-0.1,0-0.1c-0.1,0-0.2,0-0.2,0.1
		c0,0-0.1,0.1,0,0.1C155,65.7,155,65.8,155.1,65.7c0,0-0.1,0.1,0.1,0.1C155.2,65.8,155.2,65.7,155.1,65.7"/>
	<path class="st1" d="M155.2,65.8L155.2,65.8C155.2,65.8,155.2,65.8,155.2,65.8C155.2,65.8,155.2,65.8,155.2,65.8
		C155.2,65.8,155.2,65.8,155.2,65.8"/>
	<path class="st1" d="M155.3,67.4c0,0-0.1,0-0.2,0c-0.1,0,0,0,0,0.1c0,0,0,0.1,0.1,0.1c0,0.1,0.1,0.1,0.1,0.1c0,0,0,0,0.1,0
		c0-0.1-0.1-0.1-0.1-0.1C155.3,67.5,155.4,67.4,155.3,67.4C155.3,67.4,155.3,67.4,155.3,67.4"/>
	<path class="st1" d="M158.6,64.5C158.6,64.5,158.5,64.5,158.6,64.5c-0.1-0.1-0.2-0.1-0.2,0C158.4,64.5,158.5,64.5,158.6,64.5"/>
	<path class="st1" d="M157.9,64.3c0.1,0,0.2,0,0.3,0C158,64.2,158,64.2,157.9,64.3"/>
	<path class="st1" d="M159.4,63c0.1,0,0.1,0,0.2,0c0,0,0.1,0,0.1,0c0,0,0.1,0.1,0.1,0c0,0,0,0-0.1,0c0,0-0.1,0-0.1,0
		C159.6,62.9,159.5,63,159.4,63"/>
	<polygon class="st1" points="157.1,65.5 157.1,65.5 157.1,65.5 	"/>
	<path class="st1" d="M155.6,65.1C155.7,65.1,155.6,65,155.6,65.1c0-0.1,0-0.1-0.1-0.1c-0.1,0-0.1,0-0.1,0.1
		C155.4,65.1,155.5,65.1,155.6,65.1"/>
	<path class="st1" d="M156.2,65.1c0.1,0,0.2,0,0.2-0.1C156.3,65,156.2,65,156.2,65.1"/>
	<polygon class="st1" points="156.4,65 156.4,65 156.4,65 156.4,65 	"/>
	<polyline class="st1" points="156.2,65.1 156.2,65.1 156.2,65.1 156.2,65.1 	"/>
	<path class="st1" d="M156.5,65C156.6,64.9,156.5,64.9,156.5,65c-0.1-0.1-0.2,0-0.1,0C156.4,65,156.5,65,156.5,65"/>
	<path class="st1" d="M154.1,66.6c0,0-0.1,0-0.1,0C154,66.8,154.1,66.6,154.1,66.6"/>
	<path class="st1" d="M155.7,67c0.1,0.1,0.1,0,0.2,0C155.9,67,155.8,67,155.7,67"/>
	<path class="st1" d="M160,62.9C160,62.9,160,62.9,160,62.9c-0.1-0.1-0.1,0-0.1,0C159.9,62.9,159.9,62.9,160,62.9
		C160,62.9,160,62.9,160,62.9"/>
	<path class="st1" d="M158.3,63.7C158.3,63.7,158.4,63.7,158.3,63.7C158.4,63.7,158.4,63.7,158.3,63.7c0.1-0.1,0.2-0.1,0.3-0.1
		C158.5,63.5,158.4,63.6,158.3,63.7C158.2,63.6,158.3,63.7,158.3,63.7"/>
	<path class="st1" d="M157.7,64.4C157.7,64.4,157.7,64.4,157.7,64.4c0.1,0,0.1,0,0.2,0C157.8,64.3,157.7,64.3,157.7,64.4"/>
	<path class="st1" d="M158.1,64.5C158.2,64.5,158.2,64.4,158.1,64.5C158.2,64.4,158.2,64.4,158.1,64.5
		C158.1,64.4,158,64.4,158.1,64.5C158.1,64.5,158.1,64.5,158.1,64.5"/>
	<path class="st1" d="M157.8,64.7c-0.1,0-0.1,0-0.2,0.1C157.8,64.8,157.8,64.7,157.8,64.7"/>
	<path class="st1" d="M157.3,64.8C157.2,64.8,157.2,64.9,157.3,64.8C157.2,64.9,157.3,64.9,157.3,64.8l0.1,0.1
		C157.4,64.8,157.4,64.8,157.3,64.8"/>
	<polyline class="st1" points="157.4,64.9 157.4,64.9 157.4,64.9 157.4,64.9 157.4,64.9 	"/>
	<path class="st1" d="M158,64.9c-0.1,0-0.1,0-0.2,0c0,0,0,0,0,0C157.9,64.9,158,64.9,158,64.9"/>
	<path class="st1" d="M157.3,65.5c0-0.1-0.1,0-0.2,0c0,0,0,0-0.1,0c0,0,0,0.1,0,0.1c0,0.1,0.1,0,0.2,0.1
		C157.2,65.6,157.2,65.6,157.3,65.5C157.2,65.6,157.2,65.6,157.3,65.5C157.3,65.5,157.3,65.5,157.3,65.5"/>
	<path class="st1" d="M154.1,66c0.1,0,0.2,0,0.2-0.1c0,0,0.1,0,0.1-0.1c-0.1,0-0.1-0.1-0.2,0c-0.1,0,0,0,0,0.1
		C154.3,66,154.2,66,154.1,66"/>
	<path class="st1" d="M155.9,65.9C155.9,65.9,155.9,65.9,155.9,65.9c0,0.1,0.1,0,0.1,0c0,0,0,0,0,0C156,65.9,155.9,65.9,155.9,65.9
		L155.9,65.9C155.9,65.9,155.9,65.9,155.9,65.9C155.9,65.9,155.9,65.9,155.9,65.9C155.9,65.9,155.9,65.9,155.9,65.9"/>
	<path class="st1" d="M154.4,65.8C154.4,65.8,154.4,65.8,154.4,65.8c0.1,0,0.1,0,0.2,0C154.5,65.8,154.4,65.7,154.4,65.8"/>
	<path class="st1" d="M157,65.7C157,65.7,157.1,65.7,157,65.7C157.1,65.6,157,65.7,157,65.7C156.9,65.7,156.9,65.7,157,65.7
		c-0.2,0-0.3,0-0.3,0c0,0,0-0.1,0-0.1c0,0,0.1,0,0-0.1c-0.1,0-0.1,0-0.1,0c0,0,0,0-0.1,0.1l0,0h-0.1c0,0,0.1,0,0,0.1
		c-0.2,0,0,0.1,0,0.1c0,0,0,0.1,0,0.1c0,0-0.1,0.1,0.1,0.1c0,0,0,0.1,0.1,0.1c0.1,0,0-0.1,0.1-0.1c0.1,0,0.1,0,0.2-0.1
		c0,0,0,0,0-0.1c0.1,0,0,0,0-0.1C156.9,65.8,157,65.8,157,65.7 M156.7,65.7C156.7,65.7,156.7,65.7,156.7,65.7
		C156.7,65.7,156.7,65.7,156.7,65.7L156.7,65.7z"/>
	<path class="st1" d="M152.9,67.1c-0.1,0,0,0.1-0.1,0.1c0.1,0,0.1,0,0.2,0c0,0-0.1,0-0.1,0C153,67.1,152.9,67.1,152.9,67.1"/>
	<path class="st1" d="M156.1,65.2L156.1,65.2c-0.1,0-0.1,0-0.1,0c0,0,0,0,0,0C156,65.3,156,65.3,156.1,65.2c0.2,0,0.2-0.1,0.3-0.1
		c0,0,0.1,0,0.1,0c-0.2,0.1-0.2,0.1,0.1,0.2c0.1,0-0.1-0.1,0-0.1c0,0,0,0,0.1,0c0,0,0,0,0,0c0,0.1,0,0.1,0.1,0.1c0.1,0,0.1,0,0.2,0
		c-0.1-0.1-0.1,0-0.2,0c0,0-0.1,0-0.1-0.1c0,0,0.1,0,0.1,0c0,0,0.1,0,0.1,0c0,0,0,0,0,0c0,0,0,0-0.1-0.1c-0.1-0.1-0.2-0.1-0.4-0.1
		l-0.1-0.1C156.1,65.1,156.2,65.2,156.1,65.2"/>
	<path class="st1" d="M153.1,66.9c0.1,0,0.1-0.1,0.2-0.1C153.1,66.8,153.1,66.8,153.1,66.9"/>
	<path class="st1" d="M156.2,66.6c0.1,0,0.1,0,0.2,0C156.3,66.6,156.3,66.6,156.2,66.6"/>
	<path class="st1" d="M154.3,66.4C154.2,66.5,154.2,66.5,154.3,66.4C154.2,66.5,154.2,66.6,154.3,66.4
		C154.2,66.5,154.3,66.5,154.3,66.4C154.3,66.5,154.3,66.5,154.3,66.4"/>
	<path class="st1" d="M157.1,65C157.1,65,157.1,65,157.1,65C157.1,65,157.1,65,157.1,65C157,65,157,65,157.1,65
		C157,65.1,157.1,65,157.1,65"/>
	<path class="st1" d="M155.8,66.2c0,0.1,0.1,0,0.2,0C155.9,66.2,155.9,66.2,155.8,66.2C155.8,66.2,155.8,66.2,155.8,66.2"/>
	<path class="st1" d="M159.8,63.2L159.8,63.2c0-0.1,0-0.1-0.2-0.1c0,0-0.1,0.1,0,0.1C159.6,63.3,159.7,63.3,159.8,63.2
		C159.8,63.2,159.8,63.2,159.8,63.2"/>
	<path class="st1" d="M157.2,63.6C157.1,63.6,157.1,63.7,157.2,63.6c-0.1,0.1-0.2,0.1-0.2,0.1c0,0,0.1,0,0.1,0c0,0,0.1,0,0.1,0
		c0,0,0,0.1,0,0.1c-0.1,0-0.2,0-0.2,0c0,0,0-0.1,0-0.1c-0.1,0-0.1,0-0.1,0c0,0,0,0,0,0c-0.2,0,0,0.1,0,0.1c-0.1,0-0.1,0-0.2,0
		c0,0,0,0,0,0c0,0,0,0,0,0c0,0,0,0.1,0,0.1c-0.1,0,0,0,0,0.1c-0.1,0-0.1,0-0.1,0.1c0,0-0.1,0,0,0c0,0-0.1,0-0.1,0
		c-0.1,0-0.2,0-0.3,0c0,0,0.1,0,0.1,0.1c0,0-0.1,0-0.1,0c-0.2,0-0.2,0.1-0.1,0.1c-0.1,0-0.1,0,0,0c0,0,0,0,0,0.1c0,0-0.1,0.1,0,0.1
		c0,0,0,0,0,0c-0.1,0-0.2,0.1-0.2,0c0.1,0,0.1,0,0-0.1c0,0,0,0-0.1,0c0,0,0,0,0,0.1c0,0,0,0.1,0.1,0.1c-0.2,0.1-0.2,0.2-0.2,0.3
		c0,0,0,0,0,0c0,0,0-0.1-0.1-0.1c-0.1,0,0,0.1,0,0.1c-0.1,0-0.1,0-0.1,0.1c0,0-0.1,0-0.1,0c0,0,0.1,0,0.1,0c0.1,0,0.2,0,0.2,0
		c0,0,0,0,0-0.1c0.1,0,0.2,0,0.2-0.1l0,0c0.2,0,0.1-0.1,0.1-0.1c0,0,0,0,0.1,0c0,0,0,0,0,0c0,0,0,0,0,0c0,0,0,0,0,0
		c0.1,0,0,0,0.1-0.1c0,0,0.1,0,0.2-0.1c0,0,0,0,0,0c0,0,0-0.1,0.1-0.1c0,0,0,0,0,0c0,0,0.1,0,0.1-0.1c0.1,0,0.1,0,0.1-0.1
		c0.1-0.1,0.2,0.1,0.3-0.1c-0.1,0-0.2,0-0.3,0l0,0c0-0.1,0.1,0,0.1-0.1c-0.1,0-0.2,0-0.2,0c0,0,0,0,0,0c0.1,0,0.2,0,0.2-0.1
		c0,0,0.1,0,0.1,0c0,0,0,0.1,0,0.1c0,0,0.1,0,0.1,0c0,0,0.1,0,0-0.1c0,0-0.1,0-0.1,0c0,0-0.1,0-0.1-0.1c0.1,0,0.1,0,0.1-0.1
		c0.1,0,0.1-0.1,0.1-0.1h0c0.1-0.1,0.1,0,0.2,0c0,0,0.1-0.1,0.1-0.1c0.1,0,0.1-0.1,0.1-0.1c0,0-0.1,0-0.1,0c0,0,0.1,0,0.1-0.1
		c0,0,0.1-0.1,0-0.1C157.4,63.6,157.3,63.7,157.2,63.6C157.2,63.6,157.2,63.6,157.2,63.6"/>
	<path class="st1" d="M156,67C156.1,66.9,156.1,66.9,156,67c0-0.1,0-0.1-0.1-0.2C155.9,66.8,155.8,66.9,156,67C156,67,156,67,156,67
		"/>
	<path class="st1" d="M154.7,65.7c-0.1,0-0.1-0.1-0.2,0c0,0,0,0,0,0C154.6,65.7,154.6,65.7,154.7,65.7"/>
	<path class="st1" d="M156.7,64.8C156.7,64.9,156.7,64.9,156.7,64.8c0.1,0,0.1,0,0.1,0C156.8,64.8,156.7,64.8,156.7,64.8"/>
	<polyline class="st1" points="156.8,64.8 156.8,64.8 156.8,64.8 156.8,64.8 	"/>
	<polygon class="st1" points="156.8,64.8 156.8,64.8 156.8,64.8 	"/>
	<path class="st1" d="M158.2,64.7c0,0,0.1,0,0.1,0C158.3,64.7,158.3,64.7,158.2,64.7C158.3,64.7,158.2,64.7,158.2,64.7
		C158.2,64.7,158.2,64.7,158.2,64.7"/>
	<path class="st1" d="M158.3,64.6c0,0-0.1-0.1-0.2,0C158.2,64.5,158.2,64.6,158.3,64.6"/>
	<path class="st1" d="M158.2,64.6C158.2,64.6,158.1,64.6,158.2,64.6C158.1,64.6,158.1,64.6,158.2,64.6
		C158.2,64.6,158.2,64.6,158.2,64.6"/>
	<path class="st1" d="M159,63.7C159,63.7,159,63.7,159,63.7C158.9,63.7,158.9,63.7,159,63.7c-0.1,0.1-0.2,0.1-0.3,0.2
		C158.9,63.9,158.9,63.8,159,63.7C159,63.7,159,63.7,159,63.7"/>
	<path class="st1" d="M142.1,53.3c0,0,0.2,0.2,0.1,0.1c0-0.1,0-0.1,0.1-0.1v0c0,0,0,0,0,0.1c0,0,0.1,0,0.1,0c0,0-0.1,0,0,0.1
		c0,0,0.1,0,0.1,0c0,0,0,0.1,0,0.1c0,0.1,0,0,0.1,0c0.1,0,0.3,0.1,0.3,0.1c0.1,0.1,0.2,0,0.3-0.1c0,0,0.1,0.1,0.1,0
		c0.1-0.1-0.1,0-0.1-0.1c0,0,0.1,0,0.1,0l0,0c0,0,0,0,0,0c0,0,0,0,0,0c0,0,0,0,0,0c0,0,0.1,0,0.1,0c0,0,0,0,0,0.1c0,0,0,0.1,0.1,0.1
		c0,0-0.1,0.1,0,0.1c0,0,0,0,0,0c0,0,0.1,0,0.1,0c0,0,0,0.1,0.1,0.1c0,0-0.1,0.1,0,0.1c0.1,0,0.1,0,0.1-0.1c0,0,0.3,0,0.2-0.1l0,0
		c0.1,0,0.1,0,0.1,0c0,0,0,0,0,0c0,0,0,0,0,0c0,0,0,0,0,0l0.1,0c0,0,0,0,0.1-0.1c0.1,0,0.1,0,0.2-0.1c0.1-0.1,0.1-0.1,0.1-0.1
		c0,0,0.1-0.1,0.1-0.1c0.1-0.1,0.3-0.1,0.4-0.2c2-0.9,5.6-3,8.4-4.7c0,0,0.1,0,0.2-0.1c0.2-0.1,0.2-0.1,0.3-0.2c0,0,0,0,0,0
		c0.1-0.1,0.2,0,0.3-0.2c0.2-0.1,0.9-0.6,1.1-0.7c0,0,0,0,0.1,0c0.2-0.1,0.4-0.2,0.6-0.3c0,0,0,0,0.1,0c0.3-0.2,0.5-0.3,0.7-0.4
		c0.1,0,0.1,0,0.1-0.1c0.1,0,0.1-0.1,0.2-0.1c0.4-0.3,0.7-0.5,1-0.7c0.3-0.2,0.6-0.4,0.6-0.4c0-0.1,0,0,0,0C159,45.1,159,45,159,45
		c0-0.1,0-0.1,0.1-0.1c0,0,0.1,0,0.1-0.1c0-0.1,0.1-0.2,0.1-0.2c0.1-0.2,0.2-0.6,0.2-0.7c0-0.1-0.1,0-0.2-0.1c-0.1-0.1,0,0-0.1-0.2
		c0-0.1,0-0.1-0.2-0.2c-0.2-0.1-0.1,0-0.1-0.1c0-0.1,0,0-0.1-0.1c-0.1-0.1-0.2-0.1-0.3-0.1c-0.1-0.1-0.1-0.1-0.1-0.1
		c-0.1,0,0,0-0.1,0c-0.1,0-0.1,0-0.1-0.1c-0.1-0.1-0.3-0.1-0.4-0.2c-0.1,0-0.1-0.1-0.1-0.1c0,0,0.1,0,0.1-0.1c0-0.1,0-0.2,0-0.2
		c0.1-0.3,0.1-0.6,0-0.7c-0.1-0.1-0.3-0.1-0.3-0.2c0-0.1-0.1-0.1-0.3-0.3c-0.2-0.1-0.1-0.1-0.3-0.2c-0.2-0.1-0.2,0-0.4-0.1
		c-0.2-0.1-0.8-0.2-1-0.3c0,0,0,0,0,0c-0.1,0-0.1,0-0.1,0c0,0,0,0,0,0l0,0c-0.1,0,0,0,0,0.1c0,0,0,0.1,0.1,0.1l0.1,0.1
		c0.1,0.3,0,0.6-0.1,0.8c-0.1,0-0.1,0.1-0.1,0.1c0,0,0,0,0,0c0,0.1-0.1,0.2-0.1,0.3c0,0.1-0.1,0.2-0.2,0.2c-0.1,0.1-0.3,0.3-0.4,0.4
		c0,0-0.1,0-0.2,0.1c0,0.1-0.1,0.1-0.1,0.2c-0.1,0-0.1,0.1-0.1,0.1c-0.1,0-0.1,0.1-0.1,0.1c-0.1,0-0.1,0-0.1,0.1c0,0,0,0,0,0
		c0,0-0.1,0-0.1,0.1c0,0,0,0.1,0,0.1c0,0,0,0.1,0,0.1c-0.1,0-0.2,0-0.2,0.1c0,0.1-0.1,0.1-0.1,0.2c0,0,0,0,0,0c0,0-0.1,0-0.1,0
		c0,0-0.1,0-0.1,0c0,0,0,0,0.1,0.1c0,0,0,0,0,0c-0.1,0-0.2,0-0.2,0c0,0,0,0,0,0c0,0,0,0,0,0c-0.1,0,0,0.1-0.1,0.1
		c0,0-0.1,0.1-0.1,0.2c0.1,0.1-0.1,0.1-0.1,0.2c0,0,0,0,0-0.1c0,0,0-0.1-0.1,0c0,0.1-0.2,0.1-0.2,0.2c0,0.1-0.1,0-0.1,0.1
		c0,0-0.2,0.2-0.2,0.2c-0.2,0,0,0.1,0,0.1c0,0-0.1,0-0.1,0c-0.1,0,0,0,0,0c0,0-0.2,0-0.2,0c-0.1,0-0.1,0.1-0.1,0.1
		c-0.1,0-0.2,0.1-0.2,0.1c-0.1,0,0,0.1,0,0.1c-0.1,0-0.2,0-0.2,0c-0.1,0,0,0.1-0.1,0.1c-0.1,0,0,0,0,0c-0.1,0-0.2,0.1-0.2,0.1
		c0,0,0.2,0,0.1,0c0,0-0.2,0-0.2,0c0,0-0.1,0.1-0.1,0.1c0,0-0.1,0.1-0.1,0.2c0,0,0,0-0.1,0c-0.1,0-0.1,0-0.1,0c0,0,0,0,0.1,0
		c0,0,0.1,0,0.1,0c0,0,0,0,0,0c-0.1,0-0.1,0-0.1,0c0,0-0.1,0-0.1,0c0,0,0,0.1,0.1,0.1v0c-0.1,0-0.3,0-0.3,0.1c-0.1,0,0,0.2,0,0.2
		c-0.1,0-0.2,0-0.1,0.1c-0.2,0-0.2,0-0.2,0c-0.1,0-0.1,0,0,0.1c0,0-0.1,0-0.1,0c0,0,0,0,0,0c0,0-0.1,0-0.1,0.1c-0.1,0-0.1,0-0.1,0.1
		c0,0,0.1-0.1,0.1,0c-0.1,0-0.1,0-0.1,0c0,0,0,0,0,0l0,0c-0.1,0-0.1,0-0.2,0c0,0,0,0-0.1,0c0,0,0,0,0,0c0.1,0,0,0.1,0.1,0.1
		c0,0-0.2,0.1-0.1,0.1c0,0-0.1,0-0.1,0c0,0-0.1,0-0.1,0c0,0,0,0-0.1,0.1c0,0,0,0,0,0c-0.1,0-0.1,0-0.2,0.1c0,0,0,0,0,0c0,0,0,0,0,0
		c0,0-0.2,0.1-0.3,0.1h0h0h0c0,0,0,0,0,0c-0.1,0,0,0.1,0,0.1c0,0,0,0-0.1,0.1c-0.1,0-0.3,0.2-0.4,0.2c0,0,0,0,0,0.1c0,0,0,0,0,0
		c0,0,0,0,0,0l0,0c0,0-0.2,0-0.1,0.1c0,0,0,0,0,0c0,0,0,0,0,0c-0.1,0.1-0.2,0.1-0.2,0.2c-0.1,0,0,0.1,0,0.1c0,0-0.1,0-0.1,0
		c-0.1,0-0.2,0-0.2,0.1c0,0,0,0,0,0.1c-0.1,0-0.2,0-0.2,0.1c0,0-0.1,0.1,0,0.1l0,0c0,0.1-0.1,0.1-0.2,0.1c-0.1,0-0.1,0-0.2,0.1l0,0
		v0c0,0,0,0,0,0c-0.1,0-0.1,0.1-0.2,0.1c0,0,0.1,0,0.1,0c0,0,0,0,0,0c0,0-0.4,0.1-0.4,0.1c0,0,0,0-0.1,0.1c0,0,0,0-0.1,0
		c-0.1,0-0.1,0.1-0.1,0.1c0,0,0,0-0.1,0c0,0-0.1,0.1-0.1,0.1l0,0c-0.1,0-0.2,0-0.1,0.1c0,0,0,0,0,0c0,0,0,0-0.1,0.1
		c-0.1,0-0.1,0.1-0.2,0.2l0,0c-0.1,0-0.1,0-0.1,0.1c-0.1,0-0.1,0.1-0.2,0.1c0,0,0,0.1-0.1,0.1c-0.1,0-0.1,0.1-0.1,0.1
		c-0.1,0.1-0.2,0.2-0.3,0.3c-0.1,0-0.1,0-0.1,0c0,0-0.1,0.1-0.1,0.1c0,0,0,0,0,0c-0.1,0-0.1,0.1-0.1,0.1c0,0-0.1,0-0.1,0
		c0,0,0,0,0,0c0,0,0,0.1,0,0.1c-0.1,0.1-0.6,0.7-0.7,0.8c-0.1,0-0.1,0-0.1,0c0,0-0.1,0.1-0.1,0.1c-0.1,0-0.1,0.1-0.1,0.1
		c0,0-0.1,0.1-0.1,0.1c-0.1,0.1-0.3,0.2-0.4,0.3c-0.1,0.2-0.3,0.3-0.5,0.5C142.2,53.1,142.2,53.2,142.1,53.3
		C142.1,53.2,142,53.3,142.1,53.3"/>
	<path class="st1" d="M151.9,84.4c0.1-0.3,0.2-3.3,0.2-6.1c0.1-2.1,0.1-4.5,0.2-6.9c0-0.3,0-0.6,0.1-0.8c0,0,0,0,0,0
		c0.1-0.1,0.1-0.2,0.2-0.2c0,0,0.1-0.1,0.2-0.2c0,0,0.1-0.1,0.1-0.1l0,0c0,0,0,0,0,0c0,0,0.1,0,0.1,0c0,0,0,0-0.1,0c0,0,0,0,0.1,0
		c0.1,0,0.1,0,0.1,0c0,0,0,0,0,0c0,0,0-0.1,0-0.1c-0.1,0-0.1,0-0.1,0c0,0,0-0.1,0-0.1c0,0,0,0,0,0c0,0,0,0,0,0c0-0.1,0-0.1,0.1-0.1
		c0.1,0,0.1,0,0.1-0.1c0,0,0,0,0.1,0c0,0,0,0,0-0.1c0,0,0,0,0.1,0c0.1,0,0.1,0,0.2,0l0,0c0.1,0,0.2,0,0.2-0.1c0-0.1-0.1,0-0.1,0
		v-0.1c0.1,0,0-0.1,0.1-0.1c0,0-0.2,0-0.2,0.1c0,0,0,0,0,0c0,0,0,0,0-0.1c0-0.1,0-0.1,0.1-0.1c0,0,0.1,0,0.1,0c0.1,0.1,0.1,0,0.2,0
		c0,0,0.1,0.1,0.1,0.1c0,0-0.1,0-0.1,0c0,0,0.1,0,0.1,0c0,0,0.1,0,0-0.1c0-0.1,0.1-0.2,0-0.3c0,0-0.1,0-0.1,0c0,0,0-0.1,0.1-0.1
		c0,0,0.1,0,0.1,0c0,0,0,0,0-0.1c0.1,0,0.2,0,0.1-0.1c0,0,0,0,0,0c0,0,0,0.1,0.1,0c0,0-0.1-0.1-0.1-0.1c-0.1-0.1-0.2,0-0.2,0
		c0,0,0,0,0,0s0-0.1,0-0.1c-0.1,0-0.5,0.1-0.5,0.1c0,0-0.2,0-0.2,0.1c0,0,0,0,0,0c0,0,0,0,0,0c0,0,0,0,0,0c-0.1,0-0.1,0-0.2,0
		c0,0,0,0,0,0c0,0,0,0,0-0.1c0,0,0,0,0,0c0,0,0,0,0,0c0-0.1,0-0.1,0-0.2c0,0,0,0,0,0c0,0,0,0,0.1,0c0,0,0.1,0,0.1,0
		c0.1,0,0.1,0,0.2,0c0.1,0,0,0,0-0.1c0.1,0,0.1,0,0.2-0.1c0,0,0,0-0.1,0c0,0,0,0,0,0c0,0,0,0,0,0c0,0,0,0,0.1,0c0.1,0,0.2,0,0.2,0
		c0.1,0,0,0,0.1,0c0,0,0,0,0,0c0,0,0.1,0,0.2,0c0.1,0,0.1,0.1,0.2,0c0,0,0,0,0,0v0c0,0,0.1,0.1,0.1,0c0.1,0,0.1,0,0.2,0
		c0.1,0,0.2,0.1,0.3,0c0,0,0.1-0.1,0-0.1c0-0.1-0.1,0-0.1,0c0-0.1,0.1-0.1,0.2-0.1c0,0,0.1,0,0.1,0l0,0c0,0.1,0.2,0,0.2,0.1
		c0,0,0,0.1,0.1,0c0.1,0,0-0.1,0-0.1c0,0-0.1,0-0.1,0c0,0,0,0,0,0c0,0,0.1,0,0.1,0c0,0-0.1,0-0.1,0c0,0-0.1,0-0.1-0.1
		c0,0-0.1,0-0.1,0c0,0,0,0,0,0c0,0,0,0,0,0c0,0,0.3-0.1,0-0.1c0,0,0,0-0.1,0c0,0,0,0,0,0c0,0,0,0,0.1-0.1c0.1-0.1,0.1,0,0.2,0
		c0.1,0,0.1,0,0.2,0c0.1,0,0.1,0,0.1-0.1c0,0,0,0,0.1,0c0,0,0.1,0.1,0.1,0c0,0,0,0,0,0c0.1,0,0.2,0,0.2,0c0-0.1-0.1-0.1-0.2-0.1
		c0,0-0.1,0-0.1-0.1c0,0,0-0.1,0-0.1c0,0,0,0,0.1,0c0,0,0,0.1,0.1,0c0.1,0,0.2,0,0.1-0.1c0.1,0,0.1,0,0.1-0.1c0,0,0,0,0-0.1
		c0.1,0,0.1-0.1,0-0.1c0,0,0,0,0,0c0.1,0,0.2,0,0.3,0c0,0,0,0,0.1,0c0,0,0.1,0,0.1-0.1c0,0-0.1-0.1-0.1-0.1c0,0,0,0,0,0
		c0.1,0,0.1-0.1,0.2-0.1c0.1-0.1,0.1,0,0.2,0c0,0,0-0.1-0.1-0.1c0,0,0-0.1-0.1-0.1c-0.1,0-0.2,0-0.3,0.1c0,0,0,0,0,0h0
		c-0.1,0-0.1-0.1-0.2,0c-0.1,0-0.1-0.1-0.2,0c0.1-0.1,0.1-0.1-0.1-0.1c0,0,0,0,0,0c0-0.1,0-0.1-0.2-0.1v0h0c-0.1,0-0.2-0.1-0.3,0
		c0,0-0.1,0-0.1,0c-0.1,0-0.1,0.1-0.1,0.1c0,0.1-0.2,0.1-0.1,0.2c0,0,0,0.1,0,0.1c-0.1,0-0.1-0.1-0.2,0c0,0-0.1,0.1,0,0.1
		c0,0,0,0,0,0c0.1,0,0.1,0.1,0.2,0.1c0,0,0,0,0.1,0c0,0,0,0,0,0.1c0,0,0,0,0,0c0,0-0.1,0-0.1,0c0,0.1-0.1,0.1-0.2,0.1
		c0,0-0.1,0-0.1,0c-0.2-0.1-0.2,0-0.3,0.1c0,0-0.1,0,0,0c0,0,0.1,0,0.1,0c0,0,0,0,0.1,0.1c0,0,0,0.1,0,0.1c0,0,0.1,0,0.1,0
		c0,0,0,0,0,0.1c0,0,0,0,0,0.1c0,0.1-0.1,0.1-0.2,0.1c0,0,0,0,0.1,0c0,0,0,0,0,0c-0.1,0-0.2,0-0.2,0.1c0,0,0,0-0.1,0c0,0,0,0,0,0
		c0-0.1-0.1-0.1-0.2-0.1c-0.1,0,0,0.1,0,0.1c0,0-0.1,0-0.1,0c-0.1-0.1-0.1,0-0.2,0c0,0-0.1,0,0,0c0,0,0.1,0,0.1,0c0,0,0,0,0,0
		c-0.1,0-0.1,0.1,0,0.1c0,0,0.1,0,0.1-0.1c0,0,0.1,0,0.1,0c0,0,0.1,0,0.1,0c0,0,0,0,0,0c0,0,0,0-0.1,0c-0.1,0-0.2,0.1-0.4,0
		c0,0,0.1,0,0.1,0c-0.1,0-0.1-0.1-0.2-0.1c0,0-0.1,0-0.1,0.1c0,0,0.1,0,0.2,0c0,0,0.1,0.1,0.1,0.1c-0.1,0-0.1,0-0.1,0
		c0,0,0-0.1-0.1-0.1c-0.1-0.1-0.1-0.1-0.2,0c-0.1,0.1-0.1,0.1,0,0.1c0,0,0,0,0,0.1c0,0.1-0.2-0.1-0.2,0.1c-0.1,0-0.1-0.1-0.1-0.1
		c0,0,0,0-0.1,0c0,0,0,0,0,0.1c0,0,0,0-0.1-0.1c0,0,0,0,0,0c0,0,0.1-0.1,0.1-0.1c0.1,0,0.1,0,0.1,0c0.1,0,0.1,0.1,0.1,0
		c0.1,0,0.2-0.1,0.2-0.1c0.1,0,0-0.1,0-0.1c0.1-0.1,0.1-0.1-0.1-0.1c-0.2-0.1-0.1,0.1-0.2,0.1c0,0,0-0.1-0.1-0.1c0,0,0-0.1-0.1-0.1
		c-0.1,0-0.1,0,0,0.1c0,0-0.1,0-0.1,0c0-1.1,0.1-2.1,0.1-3c0.1,0,0.1-0.2,0.3-0.3c0.1,0,0.3-0.1,0.3-0.1c0.1-0.1,0.2-0.1,0.3-0.2
		c0.1-0.1,1.3-0.9,1.3-0.9c0,0,1-0.7,1.2-0.7c0-0.1,0.2-0.1,0.1-0.2c0,0,0,0,0,0c0.1,0,0.1-0.1,0.2-0.1c0,0,0.1,0,0.1-0.1
		c0,0,0.7-0.4,0.6-0.5c0.1,0,0.1,0,0.2,0c0.1,0,0.4-0.2,0.3-0.2c0,0,0,0,0,0c0,0,0.1-0.1,0.1-0.1c0.1-0.1,0.7-0.6,0.8-0.7
		c0.1,0,0.1,0,0.1-0.1c0,0,0,0,0,0c0.1,0,0.1-0.1,0.2-0.1c0.1,0,0.1-0.1,0.2-0.2c0,0,0,0,0-0.1c-0.1,0-0.2-0.2-0.2-0.2s0.2,0,0.2,0
		c0,0,0,0.1,0.1,0c0.1,0,0.1-0.1,0-0.1c0,0,0-0.1,0-0.1c0.2-0.1,0.2-0.2,0.3-0.3c-0.1,0-0.1,0-0.1,0.1c-0.1-0.1,0.2-0.2,0.2-0.3
		c0.6-0.5,0.8-0.8,1-1.3c0.4-0.7-0.2-1-0.2-1v0c-0.7-0.6-1.6,0.4-1.7,0.6c0,0-0.8,0.8-0.8,0.8c-1,1-2.8,2.7-4.9,4l0-0.1l0,0
		c0-1.1,0.1-3.8,0.2-4.1c0-0.1,0.1-0.3,0.1-0.4l0,0c0,0,0,0,0,0c0,0,0,0,0.1-0.1c0,0,0.1,0,0.1-0.1c0-0.1,0.1-0.1,0.1-0.2
		c0,0,0.1,0,0-0.1v0c0.1-0.1,0.2-0.2,0.3-0.4c0,0,0,0,0,0c0.6-0.7,1-1.3,1.3-1.6c0,0,0.1,0,0.1,0c0,0,0.1,0,0.1,0
		c0.1,0,0.1-0.1,0.1-0.1h0c0.1,0,0-0.1,0-0.1c0,0,0.1,0,0.1-0.1c0,0,0,0,0,0c0,0,0.1,0,0.1-0.1c0,0,0-0.1,0.1-0.2c0,0,0,0,0,0
		c0-0.1,0.2-0.2,0.2-0.2c0,0,0,0,0,0c0,0,0,0,0,0c0,0,0.1,0,0.1,0c0,0,0.1,0,0.1,0c0,0,0,0,0,0c0.2,0,0.1-0.1,0-0.1l0,0
		c0.1,0,0.1,0,0.1,0c0,0,0,0,0-0.1c0.1-0.1,0.2-0.1,0.1-0.2c0,0-0.1,0,0,0c0.2,0,0.2-0.1,0.2-0.2c0.1,0,0-0.1,0-0.1
		c0.1,0,0.1-0.1,0.1-0.1c0,0,0.2-0.4,0.2-0.5c0,0,0,0,0,0c0.1,0,0.1-0.1,0.1-0.2c0-0.1,0.4-1,0.3-1.5c0-0.2,0-0.3-0.3-0.4
		c0-0.1-0.1-0.1-0.1-0.2c0,0-0.1-0.1-0.2,0c0,0.1-0.1,0.1-0.3,0c-0.5-0.3-1.6-0.7-2.6-0.2c-1,0.5-2.4,1.6-3.4,3.3
		c-0.1,0.1-0.1,0.2-0.2,0.2L150,54c-0.1,0,0,0.1-0.1,0.1c-0.1,0-0.1,0.2-0.1,0.2c-0.1,0.1-0.1,0.1-0.1,0.2c-0.1,0.1-0.1,0.2-0.1,0.3
		c-0.1,0.1-0.2,0.2-0.2,0.3c0,0,0,0,0,0c-0.1,0,0,0.1,0,0.1c-0.1,0.1-0.1,0.2-0.2,0.3c0,0.1-0.1,0.2-0.1,0.4c0,0.1-0.1,0.2-0.2,0.3
		c0,0-0.1,0.1-0.1,0.3c-0.1,0.3-0.2,0.6-0.4,0.9c0,0,0,0.1,0,0.1c0,0,0,0.1,0,0.1c-0.1,0.2-0.1,0.4-0.2,0.5c0,0,0,0-0.1,0
		c-0.2,0-0.4-0.1-0.5,0c0,0,0,0-0.1,0c-0.2,0-0.4-0.1-0.7-0.1c0-0.1-0.1-0.1-0.2-0.1c0,0,0,0,0,0c0,0-0.1,0-0.1,0
		c-0.5-0.1-1.5-0.1-2,0.8c-0.5,0.9-0.7,1.4-0.9,1.6c0,0-0.2-0.1-0.3-0.2c0-0.1-0.3-0.4-0.4-0.4c0,0-0.1-0.1-0.1-0.1
		c-0.1,0.1-0.1,0.1-0.2,0.1c0,0-0.1,0-0.1,0c0-0.1,0-0.1-0.1-0.1c-0.1,0,0,0.1,0,0.1c0,0,0.1,0.1,0,0.1c0,0-0.1,0-0.1,0
		c0-0.1-0.1-0.1-0.2-0.2c0-0.1,0-0.1-0.1-0.1c-0.1,0-0.1-0.1-0.1-0.1c0,0-0.1-0.1-0.1-0.1c0,0-0.1,0-0.1,0c0,0,0.1-0.1,0.1-0.1
		c-0.1-0.1-0.1,0-0.2,0c0,0-0.1,0-0.1,0c0,0-0.1-0.1-0.1,0c0,0,0-0.1,0-0.1c0,0-0.2,0.1-0.1,0.1c0.1,0.1,0.1,0.2,0.2,0.3
		c0,0,0,0.1,0.1,0.1c0,0,0,0,0,0l0,0c0,0,0.6,1,0.8,1.2c0,0,0,0.1,0.1,0.1c0.2,0.4,0.5,0.8,1,1c0.4,0.2,0.9,0.4,1.7,0.2
		c0.1,0,0.4-0.1,0.5-0.1c0,0,0.1,0,0.1-0.1c0,0,0-0.1,0-0.1c0-0.1,0.1-0.1,0.1-0.2h0c0.1,0-0.1-0.1,0.1-0.1c0,0,0,0,0,0
		c0-0.1-0.2-0.2,0.1-0.2c0,0,0,0,0,0c-0.1,0-0.1-0.1-0.1-0.1c0,0,0.1-0.1,0-0.1c0,0,0.1-0.3,0.1-0.4c0,0,0.1-0.2,0.2-0.3
		c0.1-0.1,0.1-0.2,0.1-0.3c0-0.1,0.1-0.1,0.2-0.1c0.1,0.1,0.2,0.2,0.4,0.3c0.4,0.3,1,0.5,1.8,0.4c0,0,0,0,0,0c0,0,0,0,0,0
		c0,0,0,0,0,0.1c0,0,0,0,0,0c0,0,0,0,0,0c0,0.1-0.1,0.1-0.1,0.2c0,0,0,0-0.1,0.1c0,0,0,0,0,0.1c-0.2,0.3-0.4,0.6-0.6,0.9
		c0,0,0,0,0,0c-0.1,0.1-0.1,0.2-0.2,0.3c-0.2,0.3-0.3,0.5-0.5,0.8c-0.2,0.2-0.3,0.5-0.5,0.8c-0.2,0.3-0.3,0.6-0.5,0.8
		c-0.3,0.4-0.4,0.8-0.6,1.2c-0.1,0.1-0.3,0.6-0.3,0.6c0,0,0.2,0,0.3,0c0.2,0,0.2,0,0.3,0.1c0,0,0.2-0.1,0.3-0.1v0h0c0,0,0,0,0,0
		c0.1,0,0.4-0.2,0.4-0.3l0,0c0,0,0.2-0.1,0.1-0.1c0,0,0.6-0.6,0.6-0.6c0.1,0,0.3-0.3,0.4-0.4c0,0,0,0,0,0c0.1,0,0.1-0.2,0.1-0.2
		c0,0,0-0.1,0-0.1c0,0,0.3-0.3,0.7-0.7c0-0.1,0.2-0.2,0.1-0.3c0.1,0,0.3-0.2,0.3-0.3c0-0.1,0.2-0.4,0.2-0.4c0.1,0,0.2-0.2,0.1-0.2
		c-0.1,0-0.1,0,0-0.1c0.1,0,0.1,0,0.1-0.1c0,0,0-0.1,0-0.1c-0.1,0-0.1,0-0.2,0c0-0.1,0.1-0.1,0.1-0.1l0,0l0,0c0,0,0.1,0.1,0.1,0
		c0.1,0,0,0,0-0.1c0,0,0.1-0.1,0-0.1c0,0,0.1-0.2,0.2-0.2c0.1,0,0-0.1,0-0.1c0,0,0.1,0,0.1,0c0,0,0,0.1,0,0.2c0,0.4,0,1.8-0.2,2.1
		c-1,0.6-2.1,1.3-3.2,2.1c0,0,0,0,0,0c0,0,0,0,0,0c0,0-0.1,0.1-0.1,0.1c0,0-0.1,0-0.1,0.1c0,0,0,0-0.1,0.1c-0.1,0-0.1,0.1-0.2,0.1
		l-0.3,0.2c0,0-0.1,0-0.1,0.1c-0.1,0.1-0.2,0.1-0.3,0.2c-0.1,0.1-0.2,0.1-0.2,0.1c0,0,0,0,0,0c-0.1,0-0.1,0.1-0.2,0.1
		c-0.1,0-0.1,0.1-0.2,0.1c0,0-0.1,0-0.1,0.1c-0.1,0-0.1,0.1-0.2,0.1c-0.1,0.1-0.3,0.2-0.4,0.2c0,0-0.1,0-0.1,0.1
		c-1.5,1-2.7,1.8-3.3,2.4c-0.1,0.1-0.2,0.2-0.3,0.2c0,0,0,0.1-0.1,0.1c-0.1,0.4,0.4,1.8,0.5,1.9c0.1-0.1,0.2-0.2,0.3-0.2
		c0,0,0,0,0,0c0.1,0,0.1-0.1,0.2-0.1c0.2-0.1,0.3-0.2,0.4-0.4c0,0,0.5-0.5,0.5-0.5c0.2,0.1,0.2,0,0.2-0.1c0-0.1,0.2-0.3,0.2-0.2
		c0.1,0,0.2,0,0.2-0.1c0-0.1,0.1-0.1,0.1-0.1c0.2,0,0.2-0.2,0.3-0.2c0,0,0-0.1,0-0.1c0.1,0,0.1-0.1,0-0.1c0.2,0,0.2-0.1,0.2-0.2
		c0,0,0.1,0,0.2-0.1c0.1,0,0.1-0.1,0.1-0.1c0.1,0,0.2-0.1,0.1-0.1c0,0,0,0,0,0c0.2,0,0.2-0.1,0.3-0.1c0.1,0,0.1,0,0.1-0.1
		c0,0-0.1-0.1,0-0.1c0,0,0.1,0.1,0.1,0c0-0.1,0.1-0.1,0.2-0.2c0.1,0,0.1,0,0.1-0.1c0,0-0.1,0-0.1,0c0,0,0.3-0.1,0.3-0.1
		c0.2,0,0.4-0.3,0.4-0.3c0.1-0.1,0.3-0.1,0.2-0.2c0,0,0.1,0,0.1-0.1c0,0.1,0.5-0.3,0.5-0.3c0.1,0,0.8-0.5,0.8-0.5
		c0,0,0.7-0.4,0.7-0.4c0.1,0,0.1,0,0.2-0.1c0,0,0.1-0.1,0.1-0.1c0,0,0.2-0.1,0.3-0.1c0,0,0.1-0.1,0.1-0.1c0,0,0.4-0.2,0.5-0.2
		c-0.1,0.1-0.2,0.3-0.2,0.3l-1.8,2.5c-0.1,0.1-0.3,0.3-0.5,0.5c0,0-0.1,0.1-0.1,0.1c-0.1,0.2-0.6,0.7-0.6,0.7c0,0,0,0,0,0.1
		c0,0.1-0.1,0.1-0.1,0.2c-0.1,0-0.2,0.2-0.2,0.2c-0.1,0-0.1,0.1-0.1,0.1c-0.2,0.2-0.2,0.5-0.2,0.5c0,0-0.5,0.2-0.5,0.3
		c-0.1,0,0,0.1-0.1,0.1c0,0-0.1,0,0,0.1c0,0-0.1,0.1-0.1,0.2c0,0,0,0.1,0,0.1c-0.1,0-0.4,0.4-0.4,0.5c-0.1,0.1-0.1,0.1,0,0.2
		c-0.1,0-0.1,0.1-0.1,0.1c0,0,0,0.1-0.1,0.1c-0.2,0-0.2,0-0.2,0c0,0-0.1,0.1-0.1,0.1c0,0.1-0.2,0.3-0.3,0.3c0,0-0.1,0.2-0.2,0.2
		c0,0.1,0,0.1-0.1,0.1c-0.1,0,0,0.1,0,0.1c-0.1,0-0.1,0.1-0.1,0.1s-0.2,0-0.2,0.1c0,0,0,0.1,0,0.1c-0.1,0-0.1,0.1,0,0.1
		c-0.1,0-0.3,0.3-0.3,0.4c0,0-0.1,0.1-0.1,0.1c0,0-0.6,0.8-0.6,0.8c0,0.1-0.2,0.1-0.1,0.2c0,0,0,0,0,0.1c-0.2,0,0,0.2-0.2,0.2
		c-0.1,0-0.1,0.1-0.1,0.1c0,0,0,0.1,0,0.1c0,0,0,0,0,0c-0.1,0-0.1,0.1-0.1,0.1c-0.1,0.1-0.2,0.3-0.2,0.4c0,0,0,0.1-0.1,0.1
		c-0.1,0.1-0.1,0.1-0.1,0.2l-0.3,2.1l-0.1,0.1l-0.2,1.8c0.1-0.1,0.3-0.2,0.4-0.2c0,0,0.1,0,0.1,0c0,0,0.1-0.1,0.1-0.1
		c0,0,0-0.1,0-0.1c0.1-0.1,0.2-0.1,0.3-0.2c0.1,0,0.1,0,0.1,0c0,0,0,0,0.1,0c0-0.1,0.1-0.1,0.2-0.2c0.1,0,0.1,0,0.1-0.1
		c0,0,0,0,0-0.1c0.1-0.1,0.2-0.1,0.2-0.2c0,0,0.1,0,0.1,0c0,0,0,0,0,0c0.1,0,0.1-0.1,0.2-0.1h0c0,0,0.1,0.1,0.1,0
		c0-0.1,0.2-0.1,0.1-0.2c0.1,0,0.1,0,0-0.1c0,0,0.1-0.1,0.1-0.1c0,0,0,0,0.1,0c0.1,0,0-0.1,0.1-0.1c0.1,0,0.2-0.1,0.2-0.2l0.1-0.1
		c0,0,0,0,0.1,0c0,0,0.1,0,0.1,0c0,0,0,0,0-0.1c0,0,0,0,0,0c0.1,0,0.1-0.1,0.1-0.1c0.6-0.5,1.1-1,1.2-1.2c0.2,0,0.3,0,0.3-0.1v0
		c0,0,0-0.1,0-0.1c0.2-0.1,0.1-0.2,0.1-0.2c0,0,0.1-0.1,0.1-0.1c0.1-0.1,0.1-0.1,0.2-0.1c0.1,0,0.5-0.3,0.4-0.3c0,0,0.1-0.1,0-0.1
		c0-0.1,0.4-0.1,0.4-0.2v0v0c0.1,0,0.1-0.1,0.1-0.1c0.1,0,0.2,0,0.2-0.1V77c0,0,0.2,0,0-0.1c0,0,0.1,0,0.2,0c0,0,0.1,0,0-0.1
		c0,0,0-0.1,0.2-0.2c0,0,0.1-0.1,0.1-0.1c0-0.1,0-0.1-0.1-0.1c-0.1,0,0.2-0.1,0.2-0.1c0,0,0.1,0,0.1,0c0.1,0,0.1,0,0-0.1
		c0,0,0-0.2,0.1-0.1c0.2,0,0.2,0,0.2-0.1c0,0-0.1,0.1-0.1,0c0,0,0-0.1,0-0.1c0,0,0.1,0,0.1,0c0.1,0,0,0,0,0c-0.1-0.1-0.2,0-0.3,0
		c0,0,0,0,0,0c0.2,0,0.4-0.2,0.4-0.2c0,0,0.2,0,0.2,0c0.1-0.1-0.1,0-0.1-0.1c0,0,0-0.1,0.1-0.1c0,0,0.1-0.1,0.2-0.1c0.1,0,0,0,0,0
		c0,0,0.1-0.1,0-0.1c-0.1,0-0.1,0-0.1-0.1l0,0c0,0,0,0,0,0c0.1,0,0.2,0,0.2-0.1c0.1,0,0.1,0,0.2-0.1c-0.2,0-0.1-0.1-0.1-0.2
		c0-0.1,0.1-0.1,0.1-0.1c0,0,0.1,0,0,0c0,0,0.2-0.1,0.2-0.2c0.1,0,0-0.1,0,0c0,0,0-0.1,0-0.1c0,0,0.1,0,0.1-0.1c0-0.1,0.1-0.1,0-0.1
		c0,0,0.1,0,0.1,0c0.1,0,0.1,0,0.1-0.1c0,0,0.1,0,0.1,0c0.1,0,0-0.1,0-0.1c0,0,0.2,0.1,0.2,0.1c0,0.1,0,0.2,0,0.3
		c-0.1,0.1,0,0.5,0,0.5c0,0.1-0.1,0.2,0,0.3c0.1,0.1,0,0.3,0,0.3c-0.1,0.1-0.1,0.1,0,0.1c0,0,0,0.1,0,0.1c-0.1,0,0,0.2,0,0.2
		c0,0,0,0.1,0,0.1c0,0,0,0,0,0.1c0,0,0.1,0,0,0.1c-0.1,0.1,0,0.2,0,0.2c0,0,0,0.1,0,0.1c-0.1,0.1,0,0.3,0,0.3c0,0,0,0.8,0,1.1
		c-0.1,0.1,0,0.4-0.1,0.4c0,0.1,0,0.5,0,0.6c0,0.2,0,1,0,1.2c0,0.3,0,2,0,2.4c0,0.4,0,0.8,0,1.2c0,0.4,0,0.7,0,1.1
		c0,0.4,0,0.7,0.1,1.1c0.1,0.4,2.4,0,2.3-0.1c0-0.1,0.1-0.2,0.1-0.2c0.1,0,0.1,0,0.1-0.1c0-0.1,0-0.2,0-0.3c0,0,0,0,0,0
		c0,0,0,0,0.1,0c0.1,0,0.2-0.1,0.2-0.2L151.9,84.4z M153.5,69.2C153.5,69.2,153.5,69.2,153.5,69.2C153.5,69.2,153.5,69.2,153.5,69.2
		C153.5,69.2,153.5,69.2,153.5,69.2 M153.7,67.7L153.7,67.7C153.7,67.7,153.7,67.7,153.7,67.7C153.7,67.7,153.7,67.7,153.7,67.7
		 M155.1,55.1C155.1,55.1,155.1,55.1,155.1,55.1C155.1,55.1,155.1,55.1,155.1,55.1C155,55.1,155.1,55.1,155.1,55.1"/>
	<path class="st1" d="M175.9,65.4c0-0.8-1.4-1.6-2.4-1.7c-0.7-0.1-0.9-0.4-0.9-0.6c0-0.2-0.1-0.3-0.1-0.5c-0.4-1-0.9-1.5-1.2-1.8
		c-0.3-0.2-0.8-0.3-1.2-0.3c-0.2-0.1-0.4-0.1-0.5-0.2c0,0-0.1,0-0.1,0c-0.1,0-0.2,0-0.3-0.1c0,0-0.1,0-0.1,0c-0.2,0-0.3,0-0.5,0
		c0,0-0.1,0-0.1,0c-0.2-0.1-0.5-0.1-0.8-0.1c0,0-0.1,0-0.1,0c-0.4,0-0.8,0-1.2-0.1c-0.3-0.1-1.2-0.2-1.5-0.2c-0.1,0-0.4-0.1-0.4-0.1
		c-0.1,0-0.2-0.1-0.3,0c0,0-0.1,0-0.2,0c-0.1,0-0.1,0-0.2-0.1c0.1,0,0.2,0,0.2,0c0.1,0,0,0,0,0c0,0,0-0.1,0-0.1
		c0.1-0.1-0.1,0-0.1-0.1c0.1,0,0-0.1,0-0.1c0,0,0-0.1,0-0.1c0,0,0,0,0-0.1c0,0,0-0.1,0-0.1c0,0,0.1,0,0.1,0c0.2,0.1,0.2,0,0.3-0.1
		c0,0,0,0,0,0c0-0.1,0.3-0.1,0.2-0.2c0,0-0.1-0.1-0.1-0.1c0.1,0,0.1,0,0.2-0.1c0.1,0,0.2,0,0.2-0.1c0.1,0,0.1,0,0.1-0.1
		c0,0,0.1-0.1,0.1-0.1c0,0,0.1,0,0.1,0c0.1,0,0.2,0,0.2,0.1c0,0.1,0,0.1,0.1,0.1c0,0,0.1,0,0.1,0c0.1,0.1,0.2,0,0.2,0
		c0.1,0,0.2,0,0.2-0.1c-0.1,0-0.1,0-0.2,0c0,0,0,0,0,0c-0.1,0-0.1,0-0.1,0c-0.1,0-0.1-0.1-0.2,0c0,0-0.1,0,0-0.1
		c0.1,0,0.2-0.1,0.1-0.2c-0.1,0-0.1,0.1-0.2,0.1c0,0,0-0.1,0-0.1l0.1,0c0.1,0,0-0.1,0.1-0.2c0.2,0,0.2-0.1,0.2-0.2
		c0.1,0,0.1,0,0.2-0.1c0,0,0,0,0.1,0c0,0,0,0,0,0c0,0,0,0,0,0c0,0-0.1,0.1-0.1,0.2c0.1,0,0.2,0,0.3,0c0,0,0-0.1-0.1-0.1
		c0,0,0-0.1,0-0.1c0.1,0,0.2-0.1,0.3-0.1c0.1,0,0.1-0.1,0.1-0.1c0-0.1,0.3,0,0.1-0.1c0,0,0.3,0,0.2-0.1c0,0,0.1-0.1,0-0.1
		c-0.1,0-0.2,0.1-0.2,0.1c0,0,0,0,0,0c0.1,0,0.1-0.1,0-0.1c0.2,0,0.2-0.1,0.2-0.1c0,0,0,0,0.1,0c0,0,0,0,0,0c0,0,0,0,0,0
		c0,0,0,0,0,0l0,0c0.3-0.1,0.8-0.2,1.4-0.4l0,0c0,0,0,0,0,0c0.2-0.1,0.5-0.2,0.7-0.4c0,0.1,0.1,0.2,0.1,0.2c0.2,0.4,0.7,1,1.3,1.3
		c-0.1,0.1,0.1,0.1,0.2,0.1c0,0,0.1,0,0.1,0c0,0,0.2-0.1,0.2-0.1c0.1,0,0.1,0,0.2,0c0,0,0,0,0.1,0c0,0,0.2,0,0.2,0
		c0.1-0.1-0.1-0.2,0.1-0.2c0,0,0.1,0,0.1,0c0,0,0.1,0,0.1,0c0,0,0.1-0.1,0.1-0.2c0,0,0,0,0,0c0,0,0,0,0,0c0,0.1,0.3-0.3,0.4-0.3
		c0,0,0,0,0-0.1c0,0,0,0-0.1,0c0-0.1-0.1-0.3-0.3-0.7c-0.4-0.6-0.6-1.1-0.7-1.4c-0.1-0.3,0-0.6,0.2-0.9c0.1-0.1,0.1-0.1,0.2-0.2
		c0.1,0,0.1-0.1,0.1-0.1c0,0,0.1-0.1,0.1-0.1c0,0,0.1,0,0.1,0c0,0,0,0,0,0c0.2-0.2,0.3-0.3,0.3-0.3c0,0,0-0.1,0-0.1
		c0,0,0.1-0.1,0.1-0.1l0.1-0.1c0.1-0.1,0.3-0.2,0.1-0.2c0,0-0.1,0-0.1,0c0,0,0.2-0.2,0.2-0.3c0,0,0.2-0.2,0.2-0.2
		c0.2-0.1,0.2-0.2,0.3-0.3c0,0-0.1,0-0.1,0c0-0.1,0.1-0.2,0.1-0.2c0.1,0,0.1-0.1,0.1-0.1c0.2-0.1-0.1-0.1,0-0.2
		c0-0.1,0.1-0.1,0.1-0.2c-0.1,0-0.2,0.1-0.2,0.1c0,0,0,0,0,0c0.1-0.1,0.2-0.2,0.2-0.3c-0.1,0-0.1,0-0.2,0.1c0,0-0.1,0-0.1,0
		c0.1-0.1,0.1-0.1,0.2-0.2c0.2-0.1,0.1-0.2,0-0.3c-0.1,0.1-0.5,0.4-0.5,0.4c-0.4,0.3-0.8,0.7-1.1,1.1c-0.1,0-0.3,0.3-0.4,0.3
		c0,0,0,0.1-0.1,0.1c0,0-0.1,0-0.2,0c0-0.1,0-0.1,0-0.2c0-0.1,0-0.2,0.1-0.3c0.1-0.1,0-0.2,0-0.3c0,0,0-0.1,0-0.1c0,0,0-0.1,0-0.2
		c0,0,0,0,0-0.1c0-0.1,0-0.1-0.1-0.2c0,0,0,0,0,0c0-0.1,0-0.1,0-0.2c0,0,0-0.1,0-0.1c0-0.1,0-0.1,0-0.2c0,0,0-0.1,0-0.1
		c0-0.1,0-0.1,0-0.2c0-0.1,0-0.2,0-0.3c0,0,0,0,0,0c0-0.2,0-0.3,0-0.5c0,0,0-0.1,0-0.1c0.1-0.8,0.2-1.5,0.3-2.1c0,0,0,0,0,0
		c0,0,0-0.1,0-0.1c0,0,0-0.1,0-0.1c0-0.2,0.1-0.5,0.1-0.7c0.2-0.1,0.1-0.1,0.1-0.2c-0.1,0-0.1-0.1-0.2-0.1c-0.1,0-0.2-0.1-0.1-0.1
		c0-0.1,0-0.1-0.1-0.1c0,0,0,0,0.1-0.1c0-0.1-0.1-0.1-0.2-0.1c0,0,0-0.1,0-0.1c0-0.2,0.1-0.5,0.1-0.6c0,0,0,0,0,0l0.1-0.3
		c0-0.1,0-0.1,0.1-0.2c0,0,0-0.1,0-0.1c0.1-0.3,0.2-0.7,0.2-0.9c0,0,0-0.1,0-0.1c0-0.1,0-0.1,0-0.1c0,0,0-0.1,0-0.1c0,0,0,0,0-0.1
		c0,0,0,0,0,0c0-0.1-0.1-0.1-0.2-0.2c0,0-0.1,0-0.1,0c0,0-0.1,0-0.1-0.1c0,0-0.9-0.2-0.8-0.2c0,0,0,0,0-0.1c-0.1,0-0.1-0.1-0.2-0.2
		c0,0-0.1,0-0.1,0c-0.1,0-0.1,0.1-0.1,0.1c0-0.1,0-0.1-0.1-0.1c-0.1,0-0.2,0-0.2,0.1c-0.1,0-0.1-0.1-0.2-0.1
		c-0.1-0.1-0.2-0.1-0.3-0.1c-0.2,0-0.4-0.1-0.6-0.1c-0.1,0-0.2,0-0.2,0c0,0,0,0,0,0s0,0,0,0c0,0,0,0,0,0.1c-0.2,0.4-0.8,2.1-1,4.1
		c0,0,0,0,0,0.1c0,0,0,0.1,0,0.1c0,0.2,0,0.4,0,0.7c0,0,0,0,0,0c0,0.1,0,0.3-0.1,0.4c0,0.1-0.1,0.2,0.1,0.3c0,0.2,0,0.4,0,0.5
		c0,0,0,0.1,0,0.1c0,0,0,0.1,0,0.1c0,0,0,0,0,0.1c0,0.1,0,0.1,0,0.2c0,0,0,0,0,0c0,0,0,0.1,0,0.1c0,0-0.1,0,0,0.1c0,0,0,0.1,0,0.1
		c0,0,0,0,0,0.1c0,0,0,0,0,0c0,0,0,0.1,0,0.1l0,0c0,0,0,0.1,0,0.1c-0.1,0,0,0.1,0,0.1c0,0,0,0.1-0.1,0.1l0,0c0.1,0-0.1,0.2,0,0.3
		c0.1,0-0.1,0,0.1,0c0,0,0,0,0,0c0,0,0,0,0,0.1c0,0.1,0,0.2,0.1,0.3c0,0,0,0,0,0c0,0.2,0.1,0.3,0.1,0.5c0,0,0,0,0,0.1
		c0.2,0.8,0.4,2,0.9,3.1c0,0,0,0.1,0,0.1c0,0.1-0.1,0.1-0.1,0.1c0,0,0,0.1,0,0.1c0,0,0.1,0,0.2,0.1c0,0-0.1,0.1,0,0.1
		c0,0,0.1,0.1,0.2,0.1c0,0,0.1,0.1,0.1,0.2c0,0,0,0.1,0.1,0.1c0,0,0,0-0.1,0c0,0,0,0.1,0.1,0.1c0.1,0.1,0,0.1,0,0.2
		c-0.2,0.2-0.3,0.4-0.5,0.5c-0.1,0.1-0.2,0.2-0.3,0.2c-0.1,0-0.1,0-0.1,0.1c0,0,0,0.2,0,0.3c0,0-0.3,0-0.4,0.1c0,0-0.1,0-0.1,0
		c0,0,0,0,0.1,0c0.1,0,0.2,0,0.2,0c0,0.1-0.3,0-0.4,0c-0.1,0,0.1-0.1-0.1-0.1c0,0,0,0,0-0.1l0,0c0.1,0,0.3-0.2,0.3-0.3
		c0-0.2-0.2-0.1-0.3-0.1c0,0,0-0.1,0-0.1c0,0,0,0.1-0.1,0.1c-0.2,0-0.2-0.1-0.3-0.2c-0.2,0-1.1,0.8-1.2,0.9
		c-0.2,0.2-0.3,0.4-0.6,0.5c-0.1,0-0.1,0.1,0,0.1c-0.1,0.1-0.3,0.1-0.3,0.2c0,0-0.4,0.2-0.3,0.3c0,0.1-0.2,0-0.1,0.1
		c-0.1,0.1-0.3,0.1-0.2,0.3c-0.1,0-0.2,0.1-0.2,0.1c-0.1,0.1-0.2,0.2-0.3,0.3c-0.1,0-0.1,0-0.1,0c0,0,0,0,0,0
		c-0.1,0.1-0.1,0.1-0.2,0.2c-0.1,0.1-0.2,0.2-0.2,0.3c0,0.1-0.1,0-0.1,0.1c-0.1,0-0.2,0,0,0.1c0,0-0.2,0.1-0.1,0.1c0,0,0,0,0,0
		c0,0,0,0,0,0l0,0c-0.1,0-0.2,0-0.2,0c-0.1,0,0,0.1,0,0.1c-0.1,0-0.2,0-0.1,0.1c-0.2,0-0.1,0.1-0.3,0.1c0,0,0,0,0,0.1
		c-0.2,0-0.2,0.1-0.3,0.1c0,0,0,0,0,0c0,0,0,0,0,0.1c-0.2,0.1-0.2,0.2-0.4,0.3c0,0.1-0.1,0.1-0.2,0.2c-0.2,0-0.2,0.1-0.3,0.2
		c-0.1,0-0.2,0.1-0.2,0.1c-0.1,0,0,0,0,0.1c-0.1,0-0.1,0-0.1,0.1c0,0-0.1,0.1,0,0.1c0,0.1,0,0.1,0.2,0.1c0,0.1-0.2,0-0.3,0.1
		c0.1,0,0.1,0.1,0.1,0.1c-0.1,0-0.1,0-0.2,0.1c-0.1,0-0.1-0.1-0.1,0c-0.1,0,0,0.1,0,0.1c-0.1,0-0.1,0.1-0.1,0.1c0,0-0.1,0-0.1,0v0
		c0.1-0.1,0-0.1,0-0.2c0,0-0.1,0-0.1,0c-0.1,0-0.2,0-0.1,0.1c0,0,0,0,0,0c-0.2,0-0.1,0.1-0.1,0.2c0,0,0,0,0,0
		c-0.2-0.1-0.1,0-0.1,0.1c-0.1,0-0.1,0.1-0.2,0.1c0,0,0,0,0.1,0c0,0,0,0.1,0.1,0.1c0,0,0,0-0.1,0c0,0-0.1,0-0.1,0c0,0,0,0-0.1,0
		c-0.1,0-0.1,0.1-0.1,0.1c0,0,0,0,0,0c-0.1,0,0,0-0.1,0.1c-0.1,0-0.2,0-0.2,0.1c0,0,0,0-0.1,0c0,0.1-0.3,0.1,0,0.2c0,0,0,0,0.1,0
		c0,0.1,0,0.1-0.1,0.2c0,0,0,0,0,0c0-0.1-0.1-0.1-0.2,0c-0.1-0.1-0.2,0-0.3,0c0.1,0,0.2,0,0.3,0c0,0,0.1,0,0.1,0c0,0-0.1,0-0.1,0.1
		c-0.1,0,0,0-0.1,0.1c0,0-0.1,0-0.1,0c-0.1-0.1,0.1-0.1,0.1-0.2c0,0-0.1,0-0.1,0c-0.2,0-0.3,0-0.1,0.1c0,0,0,0,0,0h0c0,0,0,0,0,0
		c-0.1,0-0.1,0-0.1,0c-0.1,0-0.1,0-0.1,0c0,0,0,0,0.1,0c0,0,0,0,0,0l-0.1,0c-0.2,0-0.2,0.1-0.3,0.1c0.3,0,0.4,0,0.2,0.2
		c0,0,0,0,0,0.1c0,0,0,0.1,0,0.1c0,0,0,0.1,0.1,0.1c0,0,0,0,0,0c0,0-0.1,0-0.1,0c0.1,0,0.1-0.1,0.2-0.1c0,0,0,0,0,0s0,0,0,0
		c0,0,0,0.1,0.1,0.1c0.1,0,0-0.1,0-0.1c0,0,0,0,0,0v0c0.1,0,0.1,0,0.1-0.1c0.1,0,0.2-0.1,0.2-0.1c0,0,0,0,0.1,0c0.1,0,0.1,0,0.1-0.1
		c0.1,0,0-0.1,0-0.1c0,0,0,0,0.1-0.1c0.1,0,0.1,0,0.1,0c0,0,0,0,0,0c0,0,0,0,0.1,0c0.1,0,0.1,0,0.2-0.1c0,0,0.1-0.1,0.1-0.1
		c0,0,0,0,0,0c0.1,0-0.2,0.1,0,0.1c0.1,0,0.2-0.1,0.2-0.1c0,0,0.1,0,0.1,0c0,0,0,0,0,0c0.1,0,0.2-0.1,0.4,0c0,0,0.1,0,0.1,0
		c0,0,0-0.1-0.1,0c0,0-0.1,0-0.1,0c0,0,0.1-0.1,0.1-0.1c0,0,0,0,0,0c0,0,0,0,0-0.1c0,0,0,0,0.1,0c0.1,0.1,0.3,0,0.2,0.1
		c0.2-0.1,0.1-0.1,0-0.2c0,0,0,0,0.1,0c0.1,0,0.2,0,0.3-0.1c-0.1,0-0.2,0-0.2,0c0.1,0,0.1,0,0.2,0l0.1,0c0,0.1,0.1,0,0.1,0
		c0.2,0.1,0.2-0.1,0.3-0.1c0.1-0.1-0.1,0-0.1-0.1c-0.1-0.1,0.1-0.1,0-0.2c0,0,0,0,0.1-0.1h0.3c0,0,0,0,0.1,0c0.1,0,0.2-0.1,0.3-0.1
		c-0.1,0-0.3-0.1-0.4,0h0l0,0c0,0,0,0,0,0c0,0,0,0-0.1,0c0-0.1,0-0.1,0.1-0.2c0.1,0,0.1,0,0.1-0.1c0,0,0,0,0,0c0,0,0,0,0.1,0
		c0.1,0.1,0.2,0,0.3,0c0.1,0,0.1,0,0.2,0c0.2-0.1,0-0.1,0-0.2c0,0,0-0.1,0-0.1c0.1,0,0.2,0,0.1-0.1c0.1,0.2,0.3,0,0.3,0
		c0.1-0.1,0-0.1-0.1-0.1c0,0,0,0,0,0c0.1-0.1,0-0.1-0.1-0.2c0,0,0,0,0,0h0c0.1,0,0.2,0.1,0.4,0c0.1,0,0.1-0.1,0.1-0.1h0c0,0,0,0,0,0
		c0.1,0,0.2,0,0.2-0.1c0,0-0.1,0-0.1-0.1c0,0,0-0.1-0.1-0.1c0,0,0,0,0,0h0.1c0,0,0.1,0,0.1,0c0.3-0.1,0.3-0.1,0.1-0.2c0,0,0,0,0,0
		c0,0,0.1,0,0,0c0.1-0.1,0.1-0.1,0.2-0.1c0.1,0,0.1,0,0.2,0l0.1,0c0.1,0,0.2,0,0.1-0.1c0-0.1-0.1,0-0.2,0v0c0.1,0,0.2,0,0.2,0
		c0.2,0.2,0.5,0.3,0.7,0.4c0,0,0,0,0.1,0c0.3,0.2,0.4,0.3,1,0.5c0.6,0.2,1.3,0.4,1.4,0.6c0.1,0.1,0.2,0.1,0.2,0.1s0.4-0.1,0.8,0.5
		c0.4,0.7,0.2,1.8,0.1,2.3c-0.1,0.6,0.2,1.4,1.9,1.8c2.6,0.6-1.8,5.4-8.6,12.1c-0.4,0.4-0.8,0.8-1.2,1.2c-1.6,1.4-5.9,5.1-5.9,5.2
		c0,0.1-0.1-0.1-0.5,0.4c-0.4,0.4-0.3,0.4-0.8,0.7c-0.4,0.3-1.3,0.9-0.2,0.7c0.8-0.2,2-0.2,3.4-1c0.1,0.1,0.1,0.2,0.1,0.2
		c0.1,0,0.1-0.1,0.1-0.2c0,0,0,0,0,0c0.1,0,0.4-0.2,0.4-0.2c0.1-0.2,1.1-0.8,1.1-0.9c0,0,0.3-0.4,0.3-0.4l0.6-0.4
		c0,0,0.1-0.1,0.1-0.2c0.1-0.1,0.3-0.1,0.3-0.3c0,0,0,0,0-0.1c0,0,0.1-0.1,0.1-0.1c0.1,0,0.3-0.1,0.3-0.1c0.1,0,0-0.1,0.1-0.1
		c0.1,0,0.1-0.1,0.2-0.1c0.2-0.1,0.4-0.4,0.4-0.4c0.1,0,0.2,0.1,0.3,0c0-0.1,0.1-0.2,0.1-0.2c0.1-0.1,0.2-0.1,0.3-0.2
		c0.1-0.1-0.1-0.1-0.1-0.1c0.1-0.1,0.4-0.1,0.4-0.2c0-0.1,0.7-0.4,0.6-0.5h0c0,0,0.2-0.2,0.3-0.3c0,0,0.2-0.2,0.1-0.2
		c0.1,0,0.2,0,0.2-0.1c0.3,0,0.2-0.2,0.2-0.2c0,0,0.1,0,0.1,0c0.1,0,0.2-0.2,0.2-0.2c0.1-0.1,0.2-0.1,0.2-0.1c0,0,0.3-0.2,0.4-0.4
		c0.2,0,0.1-0.2,0.1-0.2c0.1,0,0.2,0,0.2,0c0,0,0,0,0,0c0,0,0.1-0.1,0.1-0.2c0,0,0,0,0,0c0.1,0,0.2,0,0.2-0.1l0,0c0,0,0,0,0,0
		c0,0,0,0,0,0c0.2,0,0.1-0.2,0.2-0.2c0.2,0,0.1-0.1,0.1-0.1c0,0,0,0,0,0c0,0,0,0,0,0l0,0c0.1,0,0.2-0.2,0.2-0.2
		c0-0.1,0.2-0.2,0.2-0.2c0.3,0,0.1-0.1,0.2-0.1c0.1,0,0.1,0,0.2-0.1c0.1-0.1,0.5-0.5,0.5-0.5c0,0,0,0,0,0c0-0.1,0.2-0.1,0.3-0.1
		c0,0,0,0.1,0.1,0.1c0.1,0,0.1-0.1,0.1-0.1c0.1-0.1,0.1-0.3,0.3-0.4c0.1,0,0.2,0,0.2-0.1c-0.1,0-0.2,0-0.2,0c-0.1,0,0.5-0.1,0.4-0.3
		c0,0-0.1-0.1,0-0.1c0.1,0,0.1,0,0.2,0c0.3-0.1,0.4-0.3,0.4-0.5c0.1,0,0,0.1,0.1,0c0.1,0,0.2-0.1,0.1-0.1c0-0.1,0.4-0.2,0.3-0.3
		c0-0.1,0.2-0.1,0.1-0.2c0.3,0,0.4-0.3,0.5-0.4c0.1,0,0.3-0.1,0.1-0.2c0.1,0,0.3,0,0.3-0.1c0.1,0,0-0.1,0-0.1
		c0.1-0.1,0.3-0.1,0.2-0.2c0.2,0,0.1-0.1,0.2-0.2c0.2,0,0.3-0.3,0.3-0.3c0.2-0.1,0.3-0.2,0.3-0.3c0.2-0.1,0.3-0.3,0.4-0.4
		c0.1-0.1,0.3-0.1,0.2-0.2c0-0.1,0.7-0.5,0.8-0.7c0.1-0.1,0.5-0.5,0.6-0.7c0.2-0.1,0.4-0.4,0.5-0.5c0-0.1,0.3-0.2,0.4-0.4
		c0.2-0.2,0.4-0.4,0.5-0.6c0-0.1,0.1-0.1,0.2-0.1c0.2-0.1,0.1-0.2,0.2-0.2c0.1-0.2,0.2-0.4,0.4-0.6c0.2-0.2,0.3-0.4,0.4-0.6
		c0.8-0.8,1.1-1.7,1.3-2.4C175.8,65.9,175.9,65.7,175.9,65.4C175.9,65.4,175.9,65.4,175.9,65.4 M172.6,51.4
		C172.6,51.4,172.6,51.4,172.6,51.4L172.6,51.4C172.6,51.4,172.6,51.4,172.6,51.4 M171.9,52.8C171.9,52.8,171.9,52.8,171.9,52.8
		C171.9,52.8,171.9,52.8,171.9,52.8L171.9,52.8z M165.7,57.8L165.7,57.8C165.7,57.8,165.7,57.8,165.7,57.8L165.7,57.8z M158.4,62.8
		C158.4,62.8,158.4,62.8,158.4,62.8C158.4,62.8,158.4,62.8,158.4,62.8C158.4,62.8,158.4,62.8,158.4,62.8 M158.8,62.3
		C158.8,62.3,158.8,62.3,158.8,62.3L158.8,62.3C158.8,62.3,158.8,62.3,158.8,62.3 M162,59.5L162,59.5L162,59.5L162,59.5"/>
</g>
<path class="st0" d="M141.2,91.3v-0.2c0.5,0,0.5-0.1,0.5-0.6v-2.4c0-0.5,0-0.5-0.5-0.6v-0.2h1.6v0.2c-0.5,0-0.5,0.1-0.5,0.6v2.4
	c0,0.5,0,0.5,0.5,0.6v0.2H141.2z"/>
<path class="st0" d="M148.3,91.3c-0.1,0-0.1,0-0.2,0c-0.4,0-0.7-0.2-1-0.5c-0.2-0.3-0.4-0.7-0.6-1c-0.1-0.2-0.2-0.2-0.5-0.2h-0.2v1
	c0,0.5,0.1,0.5,0.5,0.6v0.2h-1.6v-0.2c0.5,0,0.5-0.1,0.5-0.6v-2.4c0-0.5,0-0.5-0.5-0.6v-0.2h1.5c0.4,0,0.7,0.1,0.9,0.2
	c0.2,0.2,0.4,0.4,0.4,0.8c0,0.5-0.3,0.8-0.8,1c0.1,0.2,0.3,0.6,0.5,0.9c0.2,0.3,0.3,0.5,0.5,0.6c0.2,0.2,0.3,0.2,0.4,0.3L148.3,91.3
	z M146.1,89.4c0.3,0,0.5,0,0.6-0.2c0.2-0.2,0.3-0.4,0.3-0.7c0-0.6-0.4-0.9-0.9-0.9c-0.2,0-0.3,0-0.3,0.1c0,0-0.1,0.1-0.1,0.3v1.5
	H146.1z"/>
<path class="st0" d="M153.9,89.3c0,1.3-0.9,2.1-2,2.1c-1.1,0-1.9-0.8-1.9-2c0-1.1,0.7-2.1,2-2.1C153,87.3,153.9,88.1,153.9,89.3
	 M150.6,89.2c0,1.1,0.6,1.9,1.4,1.9c0.7,0,1.2-0.6,1.2-1.7c0-1.3-0.6-1.9-1.4-1.9C151.2,87.5,150.6,88.1,150.6,89.2"/>
<path class="st0" d="M157.5,87.4c0.8,0,1.3,0.2,1.7,0.5c0.3,0.3,0.5,0.7,0.5,1.3c0,0.7-0.3,1.2-0.7,1.6c-0.4,0.3-1,0.5-1.8,0.5h-1.4
	v-0.2c0.5,0,0.6-0.1,0.6-0.6v-2.4c0-0.5,0-0.5-0.5-0.6v-0.2H157.5z M156.9,90.5c0,0.5,0.2,0.6,0.6,0.6c1.1,0,1.6-0.8,1.6-1.8
	c0-0.6-0.2-1.1-0.7-1.4c-0.3-0.2-0.6-0.2-1-0.2c-0.2,0-0.4,0-0.5,0.1c-0.1,0-0.1,0.1-0.1,0.3V90.5z"/>
<path class="st0" d="M165.7,89.3c0,1.3-0.9,2.1-2,2.1c-1.1,0-1.9-0.8-1.9-2c0-1.1,0.7-2.1,2-2.1C164.8,87.3,165.7,88.1,165.7,89.3
	 M162.4,89.2c0,1.1,0.6,1.9,1.4,1.9c0.7,0,1.2-0.6,1.2-1.7c0-1.3-0.7-1.9-1.4-1.9C163,87.5,162.4,88.1,162.4,89.2"/>
<path class="st0" d="M171.2,91.3c-0.1,0-0.1,0-0.2,0c-0.4,0-0.7-0.2-1-0.5c-0.2-0.3-0.4-0.7-0.6-1c-0.1-0.2-0.2-0.2-0.5-0.2h-0.2v1
	c0,0.5,0.1,0.5,0.5,0.6v0.2h-1.6v-0.2c0.5,0,0.5-0.1,0.5-0.6v-2.4c0-0.5,0-0.5-0.5-0.6v-0.2h1.5c0.4,0,0.7,0.1,0.9,0.2
	c0.2,0.2,0.4,0.4,0.4,0.8c0,0.5-0.3,0.8-0.8,1c0.1,0.2,0.3,0.6,0.5,0.9c0.2,0.3,0.3,0.5,0.5,0.6c0.2,0.2,0.3,0.2,0.4,0.3L171.2,91.3
	z M169,89.4c0.3,0,0.5,0,0.6-0.2c0.2-0.2,0.3-0.4,0.3-0.7c0-0.6-0.4-0.9-0.9-0.9c-0.2,0-0.3,0-0.3,0.1c0,0-0.1,0.1-0.1,0.3v1.5H169z
	"/>
<path class="st0" d="M172.9,91.3v-0.2c0.5,0,0.5-0.1,0.5-0.6v-2.4c0-0.5,0-0.5-0.5-0.6v-0.2h1.6v0.2c-0.5,0-0.5,0.1-0.5,0.6v2.4
	c0,0.5,0,0.5,0.5,0.6v0.2H172.9z"/>
</svg>
