<svg xmlns="http://www.w3.org/2000/svg" viewBox="0 0 675.89 78.33"><defs><style>.cls-1{fill:none;stroke:#fff000;stroke-miterlimit:10;stroke-width:2.04px;}.cls-2{fill:#fff000;}</style></defs><title>lp_aqua_oil_main_deadline</title><g id="レイヤー_2" data-name="レイヤー 2"><g id="レイヤー_1-2" data-name="レイヤー 1"><line class="cls-1" x1="675.89" y1="1.02" y2="1.02"/><line class="cls-1" y1="77.31" x2="675.89" y2="77.31"/><path class="cls-2" d="M293.52,52H280V50.43l2.24-2.36c5.45-5.51,8.2-8.85,8.2-12.59,0-2.45-1.07-4.71-4.38-4.71a7.66,7.66,0,0,0-4.59,1.9l-.85-1.78a9,9,0,0,1,5.93-2.24c4.63,0,6.46,3.37,6.46,6.53,0,4.32-3,8-7.77,12.77l-1.81,1.9v.06h10.13Z"/><path class="cls-2" d="M296.56,40.6c0-8,3.12-11.91,7.41-11.91s7,4.1,7,11.6c0,8-2.78,12.07-7.34,12.07C299.47,52.36,296.56,48.25,296.56,40.6Zm11.84-.19c0-5.72-1.37-9.67-4.59-9.67-2.72,0-4.65,3.64-4.65,9.67s1.68,9.87,4.56,9.87C307.12,50.28,308.4,45.87,308.4,40.41Z"/><path class="cls-2" d="M320.16,52V31.44h-.06l-3.76,2.18-.62-1.9,4.75-2.67h2.17V52Z"/><path class="cls-2" d="M342.11,41.15a6.47,6.47,0,0,1-5.26,2.54c-3.92,0-6.34-3.06-6.34-6.95,0-4.2,2.76-8,7.26-8,4.28,0,7,3.73,7,9.58,0,7.63-3.85,12.92-9.73,13.84a13.13,13.13,0,0,1-2.72.22V50.21a10.9,10.9,0,0,0,2.35-.15c3.86-.55,6.77-3.67,7.53-8.91Zm-9-4.56c0,3.09,1.75,5.17,4.38,5.17s4.74-1.9,4.74-3.73c0-4.41-1.62-7.38-4.65-7.38C334.89,30.65,333.08,33.16,333.08,36.59Z"/><path class="cls-2" d="M376.55,45.56v2H365.1v7H363v-7H348.51v-2h5.15V37.14H363v-5h-7.89a28.83,28.83,0,0,1-4.9,6.18A12.5,12.5,0,0,0,348.57,37,28.11,28.11,0,0,0,355.71,26l2.6.83a.56.56,0,0,1-.7.27,29.45,29.45,0,0,1-1.38,3h18.85v2h-10v5h9.31v2H365.1v6.46Zm-20.81,0H363V39.1h-7.28Z"/><path class="cls-2" d="M384.76,39.42a11.56,11.56,0,0,1,9.64-5.07c7,0,11.69,5.23,11.69,13.17,0,7.55-4.63,14.44-12.68,14.44S380,55.29,380,44.6c0-11.08,5.19-22.65,18.58-24.86a30.89,30.89,0,0,1,3.86-.38l.05,3.8c-11.46,0-16.92,8.32-17.86,16.26Zm16.7,8.43c0-6.34-3.42-10-8.38-10s-8.54,4.74-8.54,7.83c0,7.55,3.25,12.73,9,12.73C398.32,58.38,401.46,54.08,401.46,47.85Z"/><path class="cls-2" d="M411.76,63.78h-3.69l17.47-45.14h3.8Z"/><path class="cls-2" d="M446.48,39a10.57,10.57,0,0,1,9,10.69c0,6.56-4.74,12.29-14,12.29a18.21,18.21,0,0,1-9.76-2.65l1.38-3.52a16.49,16.49,0,0,0,8.43,2.48c7,0,9.21-4.85,9.21-8.66,0-6.06-5.13-8.81-10.53-8.81h-2.7V37.38h2.7c4,0,9.09-2.48,9.09-7.66,0-3.58-2.14-6.67-7.11-6.67a13.6,13.6,0,0,0-7.55,2.7l-1.37-3.36a17.2,17.2,0,0,1,9.81-3.09c7.55,0,10.91,4.8,10.91,9.76,0,4.24-2.7,8-7.5,9.75Z"/><path class="cls-2" d="M461.75,40.8c0-14.44,5.62-21.44,13.33-21.44s12.63,7.38,12.63,20.88c0,14.33-5,21.72-13.23,21.72C467,62,461.75,54.57,461.75,40.8Zm21.33-.33c0-10.31-2.48-17.42-8.27-17.42-4.91,0-8.38,6.56-8.38,17.42s3,17.74,8.21,17.74C480.76,58.21,483.08,50.28,483.08,40.47Z"/><path class="cls-2" d="M504.14,26.27a18.45,18.45,0,0,0-6.06,14.08,18.38,18.38,0,0,0,6.06,14.09v.15H502.3a19.42,19.42,0,0,1-5.85-14.24,19.44,19.44,0,0,1,5.85-14.24h1.84Z"/><path class="cls-2" d="M509.53,28.13H529.4V53.92h-2.15V52.08H511.64v2h-2.11Zm17.72,2.09H511.64V39h15.61ZM511.64,50h15.61V41H511.64Z"/><path class="cls-2" d="M534.46,54.44a18.51,18.51,0,0,0,6.06-14.09,18.39,18.39,0,0,0-6.06-14.08v-.16h1.83a19.32,19.32,0,0,1,5.85,14.24,19.3,19.3,0,0,1-5.85,14.24h-1.83Z"/><path class="cls-2" d="M124.54,44h-7a21,21,0,0,0,7.68,3.83,7.92,7.92,0,0,0-1.35,1.65,22.33,22.33,0,0,1-4.62-2.14l-.06.37c-.61,6.43-1.22,6.7-4.16,6.7-.77,0-1.78,0-2.79-.12a4.21,4.21,0,0,0-.49-1.66c1.5.16,3,.19,3.46.19s.8,0,1-.28.68-1.47,1-4h-7.44c-1.28,2.79-3.79,4.78-9.27,5.91a4.38,4.38,0,0,0-1-1.53c4.53-.86,6.89-2.27,8.17-4.38H101.4v-1.1a33.1,33.1,0,0,1-3.86,1.71,4.78,4.78,0,0,0-1.25-1.46A22.24,22.24,0,0,0,103.42,44H96.9V42.26h8.32a9.57,9.57,0,0,0,1.35-1.89h-5.45V31.91h19.44v8.46h-11.3c-.09.12-.24.18-.52.18a12.62,12.62,0,0,1-1.1,1.71h16.9ZM104.43,31.45V29.86H97.11V28.12h7.32V25.88l2.63.15c0,.22-.21.37-.61.43v1.66h8.38V25.88l2.64.15c0,.22-.19.37-.62.43v1.66h7.53v1.74h-7.53v1.59h-2V29.86h-8.38v1.59Zm7,13.29c0,.19-.25.34-.62.4-.12.62-.24,1.23-.39,1.78h7.37c.25,0,.34-.06.43-.06l.52.09a18.45,18.45,0,0,1-3.55-3h-9a20.73,20.73,0,0,1-3.83,2.94h6.1A13.67,13.67,0,0,0,109,44.5Zm-8.36-11.45v2.15h15.52V33.29Zm0,3.49V39h15.52V36.78Z"/><path class="cls-2" d="M158.25,46.58H147.2A32.41,32.41,0,0,0,158.86,52a8.15,8.15,0,0,0-1.35,1.69,35.13,35.13,0,0,1-12.18-6.4v7h-2.05V47.38a36.12,36.12,0,0,1-12,6.58,8.59,8.59,0,0,0-1.38-1.74,33.77,33.77,0,0,0,11.54-5.64H130.54V44.87h12.74V42.72h-8.94V33.63a32.06,32.06,0,0,1-3.18,3.21,6,6,0,0,0-1.44-1.44,28.43,28.43,0,0,0,7.41-9.58l2.57.43c-.06.21-.25.36-.65.4-.49.91-1.07,1.92-1.74,3h6.21a29.2,29.2,0,0,0,1.75-3.77l2.63.52c-.06.21-.27.31-.67.34-.4.82-1,1.93-1.59,2.91H156v1.71H145.82v2.18h9V35h-9v2.2h9.09v1.53h-9.09V41h11.54v1.68H145.79a1.15,1.15,0,0,1-.46.16v2h12.92ZM143.83,33.51V31.33h-7.5v2.18Zm0,3.73V35h-7.5v2.2Zm-7.5,1.53V41h7.5V38.77Z"/><path class="cls-2" d="M172.58,39.48a35.38,35.38,0,0,0-1.78-3.1l1.5-.64a26.6,26.6,0,0,1,3.31,6.31l-1.65.76a16.28,16.28,0,0,0-.65-1.74l-2.6.15V54.33h-1.83v-13l-4.41.19a.62.62,0,0,1-.46.4l-.55-2.3h2.11c.67-.83,1.38-1.81,2.11-2.82a28.07,28.07,0,0,0-3.92-4.56l1.11-1.32,1,1a46.94,46.94,0,0,0,2.87-6l2.21.92a.68.68,0,0,1-.68.24A44.94,44.94,0,0,1,167,33a19.06,19.06,0,0,1,1.8,2.21,65.07,65.07,0,0,0,3.43-5.82l2.14,1a.77.77,0,0,1-.67.28,89.31,89.31,0,0,1-6.15,8.91Zm-4.9,4.59c-.06.22-.24.34-.61.34a27.36,27.36,0,0,1-2,7.32c-.4-.25-1.07-.55-1.53-.77a26.34,26.34,0,0,0,1.93-7.44Zm6.06,5.64A27.18,27.18,0,0,0,171.88,44l1.56-.52a26.62,26.62,0,0,1,2,5.72ZM192,29v1.78H175.37V29h6.88V25.85l2.67.18c0,.22-.19.37-.62.43V29Zm-12.46,6.86H186l-1-.42A32.29,32.29,0,0,0,187,30.81l2.48.86c-.1.15-.31.24-.68.24a31.69,31.69,0,0,1-2.08,4h5v5h-2V37.64H177.29v3.28h-1.86v-5h3.91a19.46,19.46,0,0,0-1.46-4.34l1.74-.46a17.89,17.89,0,0,1,1.62,4.31ZM190.27,42v7.26c0,1.93-.82,2.14-4.16,2.14a6.32,6.32,0,0,0-.64-1.78c.61,0,1.16,0,1.59,0,1.19,0,1.31,0,1.31-.4V43.77h-4.13V54.33h-1.9V43.77h-3.91v7.68h-1.84V42h5.75V38.65l2.48.18c0,.22-.18.34-.58.4V42Z"/><path class="cls-2" d="M203,45.17c0,1.11.16,1.29,1,1.29h3c.83,0,1-.8,1.08-4.5a5.82,5.82,0,0,0,1.86.89c-.21,4.28-.73,5.57-2.78,5.57h-3.43c-2.21,0-2.79-.67-2.79-3.28V37.06l-3.49.76L197.14,36,201,35.1V26.74l2.64.15c0,.21-.19.37-.62.43v7.32c5.05-1.13,6.13-1.32,7.2-1.5.06.43.15.86.36,1.84L203,36.63ZM224.35,28.7l1.13.09c0,.18,0,.49-.06.7-.49,16.3-.95,21.59-2.23,23.19-.89,1.19-1.84,1.34-3.86,1.34-.89,0-1.9-.06-2.91-.12a4.79,4.79,0,0,0-.64-2.08c1.86.12,3.52.15,4.22.15a1.52,1.52,0,0,0,1.29-.52c1-1.19,1.59-6.46,2-20.76H216.6c-.3,8.51-.82,18.59-9,23.67A5.79,5.79,0,0,0,206,52.8c7.72-4.5,8.3-13.84,8.48-22.11h-5.72v-2Z"/><path class="cls-2" d="M232,35.19a1.81,1.81,0,1,1,1.8,2A1.81,1.81,0,0,1,232,35.19Zm0,12.53a1.81,1.81,0,1,1,1.8,1.93A1.81,1.81,0,0,1,232,47.72Z"/></g></g></svg>