<svg xmlns="http://www.w3.org/2000/svg" viewBox="0 0 175.64 123.09"><defs><style>.cls-1,.cls-2{fill:#fff;}.cls-1{fill-rule:evenodd;}</style></defs><title>lp_duo_aqua_oil_logo</title><g id="レイヤー_2" data-name="レイヤー 2"><g id="レイヤー_1-2" data-name="レイヤー 1"><path class="cls-1" d="M175.64,16.65c0-.22-.13-.37-.28-.38a.22.22,0,0,0-.14,0h-.06l0,0-.06,0h-.21l0,0h0l-.24.06h-.1l-.25,0-.06,0-.51.13-.05,0-.06,0a1.93,1.93,0,0,0-.71.2.25.25,0,0,1-.13,0l-.15,0a3.69,3.69,0,0,1-1.17.4l-.27.09a1.46,1.46,0,0,0-.39.13.23.23,0,0,1-.11,0l-.14,0-.12.05-.22.09-.13,0-.33.16-.58.26-.14,0-.18.08a2,2,0,0,0-.68.21,1.33,1.33,0,0,1-.34.09h-.09l-.13.05a.46.46,0,0,1-.14,0,1.89,1.89,0,0,0-.34.09l-.08,0-.1,0c-.18.08-.36.14-.56.21a3.52,3.52,0,0,0-.68.26,4.9,4.9,0,0,1-.49.17h0a.37.37,0,0,0-.15,0l-.18.09-.38.19h-.08l-.23.11-.24.11-.24.09-.35.17-.37.18-.35.12-.38.17,0-.08-.08.08-.05.07-.15,0-.27.16-.15.06-.11,0-.39.23-.3.14a2.2,2.2,0,0,0-.31.15l-.3.09-.15.08-.64.22a.81.81,0,0,0-.36.08,3.66,3.66,0,0,1-1.12.29,1.21,1.21,0,0,0-.34.09.71.71,0,0,1-.29.07H157a.93.93,0,0,1-.4.09h0a.34.34,0,0,1-.17,0h-.06l-.09,0s0,0,0,0l-.12.05-.23,0h-.12a.77.77,0,0,0-.27.07.57.57,0,0,1-.24.05.89.89,0,0,0-.32,0l-.27.05-.16,0-.18,0h0l-.27.1a.53.53,0,0,0-.25.07,1.14,1.14,0,0,1-.26.09l-.22.08a1,1,0,0,0-.4.12.62.62,0,0,1-.23,0h-.06l-.19.05-.1,0h-.07l-.15,0h0l-.24.05h0l-.21.07a2.61,2.61,0,0,0-.37.15,2,2,0,0,1-1,.31h0a4.23,4.23,0,0,1-.65.25l-.32.11h0l-.39.1h0a3.11,3.11,0,0,1-.64.19,1.52,1.52,0,0,0-.32.11,2,2,0,0,1-.29.1h-.1l-.12.06a1.32,1.32,0,0,0-.34.07l-.08,0h0a3,3,0,0,0-.42.09,1,1,0,0,1-.31.13,3.15,3.15,0,0,0-.76.24l-.11.05a1.28,1.28,0,0,1-.27,0h0l-.15.06-.27.06-.13.06,0,0-.17,0-.46.18-.33.08h0l-.24.09-.26.09-.09,0-.08,0-.33.13a2.34,2.34,0,0,0-.46.19.94.94,0,0,1-.22.07l-.22.08a.5.5,0,0,1-.21,0,4.07,4.07,0,0,0-.57.21,1.7,1.7,0,0,1-.4.13l-.31.1-.14,0-.17.06a1.75,1.75,0,0,1-.38.09l-.29.09a.55.55,0,0,0-.21.05l-.31.14-.32.14-.17.06a9,9,0,0,1-1.82.68l-.28.09-.27.09-.36.06-.24,0-.16.06-.08,0h0l-.08,0h0l-.06,0,0,0a.59.59,0,0,1-.13,0h-.18l-.14.05a.61.61,0,0,1-.18.05,1.17,1.17,0,0,1-.5-.06l-.06-.06-.1-.08-.1,0h-.08l-.07-.05-.05-.06-.19-.07-.1,0,0-.06h-.17l-.06-.06h-.2l-.08,0-.13,0-.08,0-.05,0,0,0h-.18l-.13,0h-.29l-.07,0-.17,0h-.13l-.07,0h-.12l-.08,0h0l-.07,0h0l-.13,0h0l-.06,0-.11,0-.07,0-.17,0-.17,0-.14,0-.11,0h0l0,0-.17,0-.14,0h0l-.07,0a1,1,0,0,0-.38.09,1,1,0,0,1-.29.07h-.22a.59.59,0,0,0-.16.06l0,0-.16,0H128l-.14.06a.3.3,0,0,1-.13.06,5.59,5.59,0,0,0-1.65.7.43.43,0,0,1-.22.06h0l-.47.16-.45.17a6.86,6.86,0,0,0-.6.38l-.34.23-.35.21a3.88,3.88,0,0,0-.88.62l-.12.15-.08.12a7.69,7.69,0,0,0-.65.76l-.16.2h0l-.06.06,0,.08-.07.11,0,0-.09.09-.09.16-.14.24-.06,0h0l0,.09,0,.07h-.07l-.08.09-.07,0-.32.22-.4.29-.15.14-.11.12-.1.06-.14.09,0,.07v0l-.1,0h0c-.08.06-.17.16-.25.23l-.08.09-.06,0-.08.05-.07.08h0l-.08,0h0l0,0a4.15,4.15,0,0,1,.13-.65v-.21l0-.08a1,1,0,0,0,.07-.29s0,0,0-.05l0-.14,0-.08v0s0-.07,0-.11a.59.59,0,0,0,0-.13.45.45,0,0,0,0-.12.86.86,0,0,0-.11-.19l-.06-.08v0l0-.09-.06,0h0l0,0a.41.41,0,0,0-.48-.09,1.81,1.81,0,0,0-.6.6l-.11.14-.14.14A.68.68,0,0,0,117,34l-.06.11,0,.07-.09.12-.21.25a.92.92,0,0,0,0,.09v0l-.1.13-.06.08,0,.07v0l-.08.08-.11.12-.11.19,0,0-.1.1,0,.09a2,2,0,0,1-.36.52l0,0a.56.56,0,0,0,0,.1.23.23,0,0,0-.07.07l0,0-.27.27-.06.08,0,0-.07.05-.08.08h0l0,.1h0l-.07.05,0,.09h0l-.06,0-.13.2-.07.11a1.24,1.24,0,0,1-.19.22l-.08.08L114,38s0,0,0,0l-.08.07-.06.09-.05.08,0,0-.09.09,0,.06h0l-.06,0h0l-.07.1,0,.06,0,0-.08.07,0,.07h0l0,0-.1.1v0h0l-.06,0-.15.18,0,0-.31.31-.08.12v0l-.09,0,0,.07-.17.2-.14.17-.11.09-.12.08a2.65,2.65,0,0,0-.21.26,1.32,1.32,0,0,1-.18.22l-.11.09-.17.15h0l0,.06-.1.11a1.19,1.19,0,0,0-.18.19v0a1.31,1.31,0,0,1-.19.27l0,0-.09,0-.12.1-.08.08-.06,0-.12.08-.07.09,0,0,0,0-.1.07-.06.1a.38.38,0,0,1-.09.12l-.13.09-.09.14-.08.07-.12.09-.06.09,0,0-.06.05-.08.07h0a.47.47,0,0,0-.15.12l-.06.06h0l-.14.11h0s0,.08-.06.08l-.09,0s0,.08,0,.08l-.14.1-.07.07,0,0-.15.06h0l0,.06h0l-.05.05-.16.16h0a0,0,0,0,1,0,0h0l-.08.09,0,0a.78.78,0,0,1-.15.1l-.14.09-.17.15-.23.18L107,45l-.18.12-.12.1c-.11.09-.22.19-.33.27h-.08l-.07.08h0a3.67,3.67,0,0,1-.38.27l-.05,0v0a2.66,2.66,0,0,0-.33.21l0,0a.82.82,0,0,0-.24.13l-.07.06-.1,0-.07.09-.14.06-.21.17-.34.28a1.11,1.11,0,0,1-.29.13,1.83,1.83,0,0,0-.26.11l-.25.16-.25.16a.75.75,0,0,1-.23.07,1,1,0,0,0-.26.08l-.18.07a1,1,0,0,0-.23.09,3.51,3.51,0,0,1-.85.28l-.15,0-.08,0a1.66,1.66,0,0,1-.32,0l0,0,0,0h-.1l-.2-.15h0v0h0l-.15-.09-.16-.11,0,0-.07-.1,0,0h0l-.2-.11,0-.08h0l-.16-.1v-.05l-.06-.14,0,0-.06-.08-.08-.1c-.14-.09-.45-.33-.46-.59v0h0s-.09-.1-.12-.17l-.07-.12-.18-.17a1.1,1.1,0,0,1-.22-.21l0-.12,0-.13s-.09-.22-.09-.22L98,45l-.07-.09-.06-.09,0-.19a2,2,0,0,0-.07-.26c-.14-.28-.27-.6-.39-.9L97.17,43v-.16l-.07-.17,0-.11h0a.59.59,0,0,0,0-.14s-.05-.07-.05-.07,0,0,0,0v-.21L96.9,42l-.11-.35v-.08s0-.05,0-.08a.15.15,0,0,0,0-.07l0,0,0-.07v-.13l0-.08,0,0v-.13s0-.09,0-.09v-.13a.66.66,0,0,0-.14-.29l-.08-.14v0l0-.07-.08-.06a.13.13,0,0,1-.07-.05v-.13a1,1,0,0,0-.23-.38c-.08-.09-.29-.09-.49-.09h-.24l-.09,0-.11,0-.1,0h0l-.11,0-.09,0h-.25a.52.52,0,0,1-.16-.06.59.59,0,0,0,0-.08l-.06.05a.09.09,0,0,1-.07,0H94.2l-.48.13a.53.53,0,0,1-.14.06l-.15,0h-.17l-.18.06h0l-.18,0a.66.66,0,0,0-.28.09l-.13,0a1.56,1.56,0,0,0-.43.21l-.1.06-.17.07-.06,0v0l-.12.06h0l0,0-.19.07a.79.79,0,0,1-.33.13h0l0,0a.43.43,0,0,0-.2.18l-.08,0v.06a1.45,1.45,0,0,1-.07.26l0,.12a.15.15,0,0,0,0,.07.91.91,0,0,0,.05.31s0,0,0,0l0,0-.07.1v.17a.68.68,0,0,1-.14.23v0c0,.17.05.25.17.29a1.18,1.18,0,0,0,0,.21,1.57,1.57,0,0,0,0,.44.49.49,0,0,1,0,.13v.09a.28.28,0,0,0,0,.09.57.57,0,0,0,0,.13l.19.6,0,0,0,.17,0,.19,0,.06h0v.08l0,.06,0,0v.17a6,6,0,0,0,.24.62.57.57,0,0,1,0,.14l0,.17.09.32a3,3,0,0,0,.15.53l.12.18.08.12,0,.2,0,0,0,0h0a.6.6,0,0,1,0,.12.58.58,0,0,0,0,.14v.09a1.58,1.58,0,0,1,0,.28.17.17,0,0,1,0,.07l0,0,0,.1v0s0,0,0,0h0l-.05.07h0v.12l0,.07,0,.07,0,.21,0,.14a5.11,5.11,0,0,1-.22.62.35.35,0,0,0,0,.12v.1l0,.05h0l0,.18h0v0h0l0,.06a.93.93,0,0,0,0,.13v0h0v0l0,.14s0,.1,0,.13a.58.58,0,0,0-.08.1l0,.18,0,.05-.08.12-.06.17-.08.2,0,0,0,0v.11l0,0a.89.89,0,0,1,0,.11l-.06.07,0,.13,0,.09-.08.09-.08.08-.1.16-.11.15-.09.09h0a3.66,3.66,0,0,1-.46.58l-.05.09,0,0-.22.25a1.72,1.72,0,0,1-.47.47h0l0,0a2.22,2.22,0,0,1-.61.53h0a.92.92,0,0,0-.26.08l-.13.08-.17.11H87.3a.71.71,0,0,0-.37,0h0a.14.14,0,0,1,0,0h0l-.11,0,0,0c-.11,0-.15,0-.19,0l-.12,0a.62.62,0,0,0-.19,0v0l-.21,0-.17-.11h0s0-.06,0-.06H85.7l-.07-.08a.51.51,0,0,0-.2-.14v-.07l-.07,0a.17.17,0,0,0-.06-.06h0v-.05l0-.14,0,0h0a.25.25,0,0,1-.06-.13v-.05L85,54a1.37,1.37,0,0,0-.1-.41.51.51,0,0,1,0-.13h0v-.12c0-.06,0-.11-.05-.13s0-.12,0-.12h0l0,0s0-.07,0-.07v-.16h0a.18.18,0,0,0,0-.06h0l0,0h0v-.13l0,0h0l0-.11,0,0s0,0,0,0h0l0-.07h0l0,0a.41.41,0,0,0,0-.07h0l0,0v0a.34.34,0,0,1,0-.11.28.28,0,0,1,0-.09V51.8a.76.76,0,0,0,0-.16l0-.13-.06-.24v-.21l0-.06,0-.12h0l0-.09,0-.08h0s0-.07,0-.09l0-.08h0c0-.07,0-.32,0-.38l0-.09,0-.15,0-.05h0a.07.07,0,0,1,0,0,.2.2,0,0,1,0-.07v-.13l-.07-.25L84.19,49v-.22a2,2,0,0,0,0-.36.08.08,0,0,1,0,0s0,0,0-.07l0-.12,0-.16,0-.1v-.1s0-.06,0-.09v-.08l-.06-.26v-.26l0,0s0,0,0,0a.41.41,0,0,1,0-.11v-.18l0-.06a.29.29,0,0,1,0-.09l0,0v-.07a1.27,1.27,0,0,0,0-.31v-.09a2.37,2.37,0,0,1,0-.37v0a.8.8,0,0,0,0-.15s0-.07,0-.08h0l0-.06v-.15s0,0,0,0a2.42,2.42,0,0,0,0-.42v0a.31.31,0,0,1,0-.08.53.53,0,0,0,0-.12.13.13,0,0,0,0-.06A3,3,0,0,1,84,44s0-.19,0-.19l0-.71s0,0,.08-.09l.07,0v0l0-.08v0c0-.14,0-.16-.11-.17h0a.28.28,0,0,1,0-.14.82.82,0,0,1,0-.21l0-.24a.34.34,0,0,0,0-.1v-.27a1.34,1.34,0,0,1,0-.3,1.17,1.17,0,0,1,0-.29v0a.45.45,0,0,0,0-.18l0-.06s0,0,0,0a.29.29,0,0,1,0-.09l0-.06v-.06a.21.21,0,0,0-.08-.19l0,0s0,0,0-.05a.74.74,0,0,1,0-.19v0h0a.29.29,0,0,1-.25-.17l-.1-.12a.15.15,0,0,0-.12,0h-.07l-.1,0h0s0-.13,0-.13l-.06,0a.22.22,0,0,1-.21,0,.32.32,0,0,0-.13-.05v0h-.07l0,0h-.19a.61.61,0,0,0-.26.08h0l-.15.05h0a.24.24,0,0,0-.14.05h0l0,.07-.14.07-.16.09-.14.09-.19.13h-.1l-.23.13-.18.09-.68.31a4.33,4.33,0,0,0-.38.34h0a.64.64,0,0,0-.06.1l-.14.08a1.09,1.09,0,0,0-.21.14l0,.08v0l0,0-.08.08,0,.09,0,0-.06,0a3.17,3.17,0,0,1-.5.07l-.13,0-.1,0,0,0-.32.05h-.07l-.09,0a.54.54,0,0,0-.23.1l0,0-.12,0a.81.81,0,0,0-.27.16.61.61,0,0,0-.08.27.78.78,0,0,0,0,.26.41.41,0,0,0-.1.2.22.22,0,0,1,0,.1.57.57,0,0,1-.26,0H76.1l-.54,0a1,1,0,0,1,.15-.33l.05-.08a.64.64,0,0,0,0-.17l0-.1.07-.14a1.22,1.22,0,0,0,.1-.24l.06,0v0a1.06,1.06,0,0,1,.14-.31l0-.08,0-.15,0-.13.07-.13a2.32,2.32,0,0,0,.18-.39l.05,0,0-.1v0a.4.4,0,0,1,.09-.21l.1-.14V40l.07-.1h0l0-.12v-.07l0,0,.09-.25a.54.54,0,0,0,0-.1.41.41,0,0,1,0-.08l0-.07a3,3,0,0,0,.26-.46l.08-.17.1-.2h0v0l0-.06.08-.14h0v0l.21-.5h0s0-.09,0-.12h0l0-.07,0-.08v0l.09-.11V37.1l.12-.23h0s0-.08,0-.1l.11-.21.09-.18,0-.15,0-.1.14-.28h0a.78.78,0,0,0,0-.09l.05,0h0a.89.89,0,0,0,.07-.19l0-.12.1-.17L79,35l0-.14,0-.07.06-.1h0v-.08l.07-.09h0l.07-.23.08-.24c0-.1.06-.23.13-.27l0,0,0,0h0a.9.9,0,0,1,.12-.27l0-.07a2.47,2.47,0,0,0,.19-.49l.09-.22,0-.06.06-.1h0l0-.11a1.33,1.33,0,0,0,.06-.12l.09-.19h0V32l0,0,.06-.11a.25.25,0,0,0,0-.08v-.06l.07-.12.1-.21,0-.13v-.09l0,0,.1-.11h0v-.07l.13-.33v0s0,0,0,0a.06.06,0,0,1,0,0l.07-.15a.8.8,0,0,0,.11-.25A.09.09,0,0,0,81,30a.1.1,0,0,0,0-.08,0,0,0,0,1,0,0h0l.06-.1.09-.14v-.13s0,0,0,0,0,0,0,0a.33.33,0,0,0,.06-.08s0-.12,0-.14,0,0,0,0l0-.09h0v-.08a.39.39,0,0,1,0-.09l.06-.1,0-.15a1,1,0,0,1,0-.12h0l.07-.07,0-.13,0-.06,0-.06s0-.06,0-.08l.17-.4,0-.17a.83.83,0,0,1,0-.15l0,0h0l0-.06h0l0-.11,0-.1.18-.55v-.1l0-.05,0-.1a.65.65,0,0,0,0-.11v-.1l.09-.22.06-.14s0-.17,0-.19l0,0,.06-.05-.05,0a1,1,0,0,1,.05-.21l.12-.33a3.52,3.52,0,0,1,.2-.52l.21-.7C84.49,18,86.32,10.48,81,4.28S62.26-.78,51.12,3.87L50.87,4a.68.68,0,0,0-.16.09l-.07,0-.23.1-.23.1a1.34,1.34,0,0,1-.26.09.9.9,0,0,0-.23.08l-.62.26H49l-.34.16-.1,0-.15,0-.4.17-.37.15-.18,0h0a1.67,1.67,0,0,1-.38.16l-.26.08,0,0-.05,0A2.22,2.22,0,0,0,46,6l-.14,0-.25.12-.3.14a.89.89,0,0,1-.29.09,1,1,0,0,0-.36.13h0l0,0-.1,0-.12,0-.09.07,0,0-.22.1-.19.08a1.07,1.07,0,0,1-.23.1l-.1,0-.14.08-.21.13H43l-.09,0a.57.57,0,0,1-.25,0h0l-.13.06-.15.06L42,7.59l-.21.08a1,1,0,0,0-.25.09L41,8c-.24.12-.5.25-.71.38l-.15,0h0L40,8.51l-.2.09-.1,0-.12,0-.12.09-.11.09-.15,0-.51.28-.54.29a.27.27,0,0,1-.12,0l-.13,0-.28.18-.21.15-.13,0h0a1.89,1.89,0,0,1-.38.16,3.7,3.7,0,0,0-.4.16c-.45.26-.91.49-1.36.72s-.95.48-1.4.74l-.24.1a1.53,1.53,0,0,0-.29.14l-.53.34-.06,0-.09,0-.11.07-.14.09h0l-.16,0v0l0,0-.28.17-.11.06-.09,0-.11,0-.32.18-.11,0h0l-.14.1-.09.07-.13.07-.18.1-.08.08a1,1,0,0,1-.16.06l-.13,0-.22.15-.1.06-.16,0-.13.1-.05,0h-.1l-.17.11-.12.07a1.07,1.07,0,0,1-.23.1l-.1,0-.08.06-.06.05-.09,0-.11.05h0l-.06.06,0,0h-.1l-.11.08s0,0,0,0a1.45,1.45,0,0,0-.5.22l-.28.17-.57.37-.18.06-.08.06,0,0h-.11l-.09.07,0,0-.11.07-.19.13h0a0,0,0,0,1,0,0h0l-.12,0-.1.09-.07.05-.1,0-.08.05-.08.06-.19.05h0l-.27.22-.2.11-.11.07h0l-.08,0-.05.05,0,0-.14,0h0l-.06.05,0,0-.14.06-.1.07-.35.23-.26.13-.26.14a2.66,2.66,0,0,0-.38.28l-.25.19-.05,0-.07,0h0l-.09.07a.58.58,0,0,1-.13.11H22a.6.6,0,0,0-.19.08l0,.06,0,0-.13,0h0l-.09.07-.09.07-.19.06h0l-.06.06-.05,0-.14.05h0l-.06.05,0,0-.16.05-.05,0-.11.07h0l0,0-.27.1h0c-.39.28-.84.55-1.28.81l-.32.19-.06,0-.09,0h0l0,0,0,0h0a.42.42,0,0,0-.15,0l-.27.19-.35.23-.14.05L17.4,21,17,21.3l-.12,0-.21.14-.09.08,0,.05-.1.05-.47.29-.11.1-.07.06-.12.06-.16.08-.09.1-.05.06-.22.1-.24.21-.22.19-.19.08-.12.11-.06.07-.14,0h0l-.09.09,0,0h-.08l-.08.06,0,0-.14,0-.5.35-.25.18-.08,0-.07,0a1.81,1.81,0,0,0-.3.25l-.21.18-.9.68-.69.52-.1.05-.13.06-.17.13-.09.07-.13.06-.47.36-.11.09s0,0-.07,0l-.13.13-.12.11L8.81,27l-.3.2-.13.12-.14.12-.1.06L8,27.62l-.12.12-.07.08-.06,0-.12.08h0a.33.33,0,0,0,0,.06l-.19.12-.14.15-.1.11-.14.1-.16.13-.11.12-.16.15-.41.31c-.17.12-.34.24-.49.37s-.52.5-.77.75C.46,34.58-4,41.05,6.31,45.6h.13l.07.08h0l.2.09.18.09.24,0,.19,0,.12.06.12.07.3.08.34.1.08.06.08.06.09,0,.07,0v0l0,.07a.94.94,0,0,0,.28.06H9l.07,0,.06,0,.1,0h.07l.23.16c.47.14.89.28,1.28.42l.11.08.12.07.1,0,.09,0,0,0,.06,0,.1,0h.06l.13.09.15.1h.12l0,.06.1,0h.06l.15.06.15.06h.14l0,0,.08.05.29,0h0l.06,0h.06v0h0l.13,0,.06,0,.12.09h.07v0h.05a.29.29,0,0,1,.22.06l.14,0h.19l.21.06a1.21,1.21,0,0,0,.34.06v.07h0a.4.4,0,0,1,.24,0l.17,0a3.69,3.69,0,0,1,.52.1l.12,0H16l.08,0,.11,0,.3,0,.33,0L17,49l.1,0h.2l.14,0,.22,0h.27l.05,0h0l.34,0h.32l.07,0,.1,0h.29l.1,0h0l.06,0,0,0,.15,0,.13,0h0l0,.07v0h.06l.38.06h0l.1,0,.09,0,.12,0h.15l.17,0,.27,0h.1a16.22,16.22,0,0,0,2.22.16l1.2,0h0l.14-.05.14,0H25l.23-.06.18,0h.13l.12,0,.08,0,.15,0,.09,0a1.27,1.27,0,0,0,.26,0,.71.71,0,0,1,.2,0H27a7.18,7.18,0,0,1,.81,0h0l.15,0,.2,0,.47,0h0l.09,0,.15,0,.16,0a10.05,10.05,0,0,0,1.82,0l.73,0h0l.05,0h.44l.07,0h0l.13,0h.59l.2-.06a.76.76,0,0,1,.21-.06l.06,0,.09,0h.26l.1,0,.16,0,.27,0h.15l.22,0,.19,0H35l.24,0a2.64,2.64,0,0,0,.4,0,1.33,1.33,0,0,1,0,.26l0,.1,0,.1a.53.53,0,0,1,0,.15v.06c0,.08,0,.15.11.16v0a1.77,1.77,0,0,1,0,.21v.21s0,.22,0,.22l0,.23v.15a1.17,1.17,0,0,1,0,.26,2.57,2.57,0,0,0-.07.4v.21s0,.08,0,.12a1,1,0,0,0,0,.17l0,.05,0,0a0,0,0,0,1,0,0,2,2,0,0,1,0,.24v.23l0,.2s0,.07,0,.09-.1.45-.1.45v.14h0l0,.15,0,.12v.22l0,.27a5,5,0,0,1-.13.63h0v.23a1.78,1.78,0,0,0-.07.39v.09h0a.71.71,0,0,1-.05.16.5.5,0,0,0,0,.12v.17l0,0,0,.07V57l0,.13,0,.1,0,.26a.71.71,0,0,1,0,.24,1.4,1.4,0,0,0-.09.31l0,.1h0v.07a.1.1,0,0,0,0,0,.37.37,0,0,0,0,.14v0l0,.13,0,0,0,.23a1.72,1.72,0,0,1,0,.24l-.1.26s0,.33,0,.33l0,.16v.11a.87.87,0,0,0-.07.31v0h0a2.45,2.45,0,0,1-.1.35,1.13,1.13,0,0,0-.07.26v0a.48.48,0,0,1-.08.16l-.08.14h0a.41.41,0,0,1,0,.1l0,.07-.06.14v.07l0,.11,0,.08s0,.12-.07.19-.57-.49-4.85-1.92a13.33,13.33,0,0,0-11.29,1.13A9.74,9.74,0,0,0,13,70c.18,3.37,2.19,7.39,3.83,11.05s2.85,2.71,4.71,2l.22-.1.12-.06.08,0,.15,0,.05,0a1.29,1.29,0,0,1,.22-.1.31.31,0,0,0,.14-.09l0,0,.2-.07h0l0,0h0l.13-.06.16-.07.07-.07h.05l.43-.26.15,0,.06-.08a.29.29,0,0,0,.08,0l.14-.07h0l0,0h0l.06,0,.15-.11.14-.1.13-.05.16-.14.13-.1.1,0h0l.08-.08,0,0,.12,0,0,0,.12,0h0a.26.26,0,0,0,0,0,1.94,1.94,0,0,1,.27-.21L26,80.4l.05-.06,0,0a.74.74,0,0,1,.16-.11l.18-.11L26.5,80l0,0,.07,0,.15-.08.13-.11.16-.14h0l.06,0,.07-.07,0,0h0l.08-.05.16-.17.16-.08.18-.12.38-.32a5.46,5.46,0,0,1,.44-.38,1.81,1.81,0,0,0,.24-.24s.14-.14.14-.15l.07,0h0l.09-.11h0l.09,0,.1-.11c0-.06.11-.13.16-.14h.08l0-.1A3.89,3.89,0,0,1,30,77L30,77l.06-.09,0,0,.06,0,.08-.06.1-.14.06-.08a2.29,2.29,0,0,1,.27-.27l.2-.18.13-.17.12-.14.4-.43.42-.46.07-.11,0,0h0l.08,0,.15-.18a1.29,1.29,0,0,1,.15-.17l0,0,.08-.05.07-.1.06-.08h0l.07-.06,0-.08.08,0,.07-.11,0,0,.07-.06.09-.06.07-.11,0-.06.11-.13a5,5,0,0,0,.33-.44l.12-.13a1.15,1.15,0,0,0,.14-.17l.06,0,0,0a.19.19,0,0,1,.07-.11l.06-.07.09-.12,0-.06.09-.1.09-.1,0,0,0,0,.06,0,.1-.2.06-.14.06-.05.1-.13.13-.16L35.1,71l.1-.1h0l0-.07,0,0a.57.57,0,0,0,.13-.14l.15-.32.13-.28c.09,0,.17.06.25.11l.06,0,.15.06.1,0,0,0,.12.09a.08.08,0,0,1,0,0l0,.1v0h0l0,0,.06.06h.07v0h.14v0l.08.08.09,0a.23.23,0,0,1,.1,0v0l.08.09,0,0,0,0a0,0,0,0,0,0,0l0,.06h.09l.05,0,.06.06h.15a.18.18,0,0,1,.08.09l0,.06a.34.34,0,0,0,.16.1l.05,0,.08.07.09.08.24.1,0,0,.06.05h.15l0,0,.07,0h.16v0l.06,0h.13l.07.11h0l.22.07,0,0v0h0a.15.15,0,0,1,.1,0l.08,0a2,2,0,0,1,.39.18l.17.09.19.05.1,0,0,.06h0l.1,0,.08,0,.05,0,.06.06.08,0h0l.07,0,.1.08h0s0,0,0,0l.08.07h.09l.36.08,0,0,.07.06.13,0a.36.36,0,0,1,.19.07l.08.07.12.1.23.07a.52.52,0,0,1,.23.07l.06,0,.1.08.25.12.24.12a.53.53,0,0,1,.15.11.49.49,0,0,0,.18.14l.16,0s0,0,0,.07l0,.06a.42.42,0,0,0,.18.11l.09,0,0,0a.19.19,0,0,0,.09.09l.15,0,.17,0,.07.07s.06.08.11.09l.23,0,.1.09a.41.41,0,0,0,.13.1h.17l.05,0h.13l.07.09s.06.1.11.11h0l.09,0h0l.1,0h0l.07,0,.17,0h.12l.09.08h.15a.3.3,0,0,1,.14.06l.07,0h.11l0,0,.08,0,0,0,.07,0h.07l.08,0,.12.06h.19a.27.27,0,0,1,.15,0s0,0,0,0h0l.12,0h.08l.07,0,.09.05.15,0h.12l.06,0,.07,0h.17l.4.05a1.17,1.17,0,0,0,.27-.05l.2-.06a4.3,4.3,0,0,0,.69-.11L51,75.7l.16,0,.11,0,.24,0h0l.07,0h.14l.17-.06a1,1,0,0,1,.2-.07.6.6,0,0,0,.28-.07l.3-.19.27-.17h0l.11,0,.06-.06,0,0h0l.08,0h.08l.37-.22.19-.11.31-.15a2.12,2.12,0,0,0,.41-.23,1.52,1.52,0,0,0,.22-.22l0,0a1.5,1.5,0,0,1,.25-.19l.3-.17h0a.16.16,0,0,0,.13,0h0l0-.05.08,0h0l.05,0,0,0,.09,0v0l0-.06h0a.67.67,0,0,1,.14-.09l.16-.1.17-.13.31-.25.07,0,.09-.06.13-.12.08-.08.05,0,.09-.06.21-.19.3-.27.1-.06.12-.07a2.28,2.28,0,0,0,.56-.6l.08,0v-.07a5.14,5.14,0,0,0,.7-.7l.35-.39.17-.23.09-.07.15-.14a0,0,0,0,1,0,0l0,0,.1-.06,0-.07v0l0,0,.08,0,0-.09v0l.08-.09.14-.14h0l0,0a2.31,2.31,0,0,1,.2-.24,5.45,5.45,0,0,0,.77-1l.14-.17a.14.14,0,0,0,.08-.06l.26-.36.28-.39.14-.16a1.18,1.18,0,0,0,.17-.22l.35-.52,0,0,.09-.1h0a.1.1,0,0,1,0,0l.11-.11,0-.07.12-.07s0-.06,0-.07l0,0,.07-.08.06-.14.06-.13.21-.31.25-.38.08-.17.07-.13.1-.12h0a.51.51,0,0,1,0-.09l0,0,.09-.11h0l0-.1.07-.11.11-.17,0-.07v0l.09-.06h0l0-.09,0-.09h0l.11-.1h0v0l.1-.11.12-.17.16-.23.07-.12v-.05l.06,0,.06-.12a.34.34,0,0,1,.06-.12l.1-.07,0-.09.13-.19.14-.21.06-.12,0-.09,0,0,.07-.07.1-.17.06-.11h0l.1-.09h0a.08.08,0,0,0,0-.05l.06-.1h0l.08-.08h0l0-.08.07-.08s0-.08,0-.08l0,0,.1-.13,0-.11,0-.1.09-.11a.74.74,0,0,0,.12-.17l.1,0v0a.34.34,0,0,1,.09-.19l.08-.13a1.43,1.43,0,0,0,0-.2l.1-.11.13-.23.15-.27.14-.19h0a.17.17,0,0,0,.08-.07l0,0v0a.32.32,0,0,1,0-.07l.1-.15h0a.54.54,0,0,1,0-.08s.15-.22.15-.22,0-.1,0-.13l.09-.09.14-.15,0,0,0,0,0-.07.08-.13h0v0l.06-.06v-.07l.06,0,0-.15,0-.05.1-.14h0a.56.56,0,0,0,0-.07l.12-.15a1.33,1.33,0,0,0,.06-.12.59.59,0,0,1,0-.08l.08-.07h0l0-.11v0l.09-.13.12-.17.09-.19.08-.18.12-.17.11-.16.15-.31.06,0v0a.11.11,0,0,0,0-.05s0,0,0,0l0-.08.11-.18h0v-.07l.06-.09.06-.08a.69.69,0,0,0,0-.1l0-.08.06-.09.13-.18h0s0-.06,0-.08l.08-.09h0l.06-.15a.5.5,0,0,1,0-.13l.05,0h0l0-.14.11-.18.09-.16,0-.09v0l.06-.09.06-.09,0-.12a.21.21,0,0,1,0-.06s.07-.07.07-.07a.41.41,0,0,1,0-.07l0,0V51l0,0a.27.27,0,0,0,.08-.16,2,2,0,0,0,.26-.46l.07-.16,0,0,.07-.1h0a.08.08,0,0,1,0,0l.08-.1h0l0-.13,0-.09.09-.09h0l0-.1,0-.07.18-.28.07-.16.07-.15a4.12,4.12,0,0,0,.41-.74l.07,0h0l.06-.19.06-.13,0-.05.11-.19,0,0,0-.08v0l0,0,.07-.06,0-.07h0l.06,0h0l0-.1v0l.07-.09.09-.12,0-.12,0-.07.16-.31.15-.28,0-.17,0-.12.15-.29.06-.11a6.89,6.89,0,0,1,1-.09l.68,0,.2,0a1.07,1.07,0,0,1,.4,0h.05v.09l0,.11,0,.11v.27l0,.11,0,.09v.19a.93.93,0,0,0,0,.24l0,.07a.41.41,0,0,0,0,.08s0,.22,0,.22h0a.59.59,0,0,1,0,.17A.5.5,0,0,1,77,47l0,0a.38.38,0,0,0,0,.17v0l0,.05,0,0,0,.14,0,.17,0,0,0,0h0l0,.09,0,.16v.19s0,.08,0,.13a.17.17,0,0,0,0,.07,3.33,3.33,0,0,1,.07.81,2.46,2.46,0,0,1,0,.28,0,0,0,0,0,0,0,.88.88,0,0,0,0,.2V50l0,.05,0,0v.08a.82.82,0,0,0,0,.22l0,.12v.21s0,0,0,.05a1.73,1.73,0,0,0,0,.33,1.79,1.79,0,0,1,0,.47.61.61,0,0,1,0,.14v.07l.06,0a1.33,1.33,0,0,1,0,.28l0,.23,0,.09a.08.08,0,0,1,0,.08v.08h0a.61.61,0,0,1,.1.32.08.08,0,0,0,0,.06.08.08,0,0,0,0,0l0,0h0a.35.35,0,0,1,0,.07,1.3,1.3,0,0,0,0,.13l0,.07a.45.45,0,0,1,0,.08l.11.41.06.27,0,.36,0,.07,0,0h0a.19.19,0,0,0,0,.08v.06h0v.08l0,.06a.21.21,0,0,0,0,.06v.16h0l.05.08,0,.05v.24h0s0,.14,0,.14l.11.24.08.19,0,.24v0l0,.08.08.16s0,.05,0,.05v.13l.06.12,0,.1,0,.17a.39.39,0,0,0,0,.21l0,0h0v.12h0l0,0,0,0v.07a.39.39,0,0,0,0,.14l.07,0h0l.12.19,0,.1,0,.11,0,.06,0,0a1.23,1.23,0,0,1,0,.13H79l0,.1h0a1.07,1.07,0,0,1,.07.15l.07.16.19.26h0l0,0v0l.11.05,0,.09,0,.1.08.1,0,0v0l0,.07h0l.06,0h0l0,.06a.27.27,0,0,0,.1.11h0l.08,0,.14.13h0l0,.08h.07l0,.09.09,0h0l0,.05.16.17.06.06.07,0,0,0,0,0,.05.08.12,0,.09,0,0,0a2.09,2.09,0,0,0,.29.23h.11l0,0,.09,0h.06l0,0H82l.07,0,.15,0,.11,0,.06.06.1,0a7.42,7.42,0,0,0,1,.27.62.62,0,0,0,.23,0l.19,0,.11,0,.11,0a1,1,0,0,0,.29,0l.17,0,.24-.06h0a.26.26,0,0,0,.18,0h0l.06,0a1.31,1.31,0,0,0,.5-.12l.14,0h0l0,0,.05,0h0l.11,0,.16-.08.22-.1.16,0h0l.11-.07.06-.06.15-.06.18-.09.06-.06,0,0a1.69,1.69,0,0,1,.37-.15h0l0,0,.27-.2.07,0,.06,0,.09,0h0l0-.05v0l.11-.08.21-.17h0l0,0h0l.07,0,.11-.07c.09-.07.2-.14.29-.22l.11-.12.09-.09,0-.08h0l.11-.07h0a.12.12,0,0,0,0-.09h0l.13-.14.14-.14h0a.1.1,0,0,1,0,0l.05,0,.07-.06L89.9,58a2.87,2.87,0,0,0,.44-.49l.07,0v-.05a1,1,0,0,1,.29-.38h0l.1-.14.08,0v0a.1.1,0,0,1,0-.05l.06,0v0a.14.14,0,0,0,0,0l.09-.07.06-.08s0,0,0,0l.08,0h0l.08-.12,0-.06,0,0,.1-.1.25-.39c.13-.2.27-.4.39-.61l.08-.07.09-.09,0-.1,0-.05.2-.29.21-.31.15-.27,0-.08v0l0-.06.07-.08h0c.06-.14.11-.3.13-.33l.09-.14.12-.18,0-.12a.25.25,0,0,1,0-.07h0l.06,0,.06-.17,0-.14,0-.07a1,1,0,0,0,.09-.18s0,0,0,0l0,.06.17.23.22.28.14.14c.11.12.23.25.33.38h0l.15.09v0l0,0h0l0,0h.13l0,0,.06.08.08,0h0l.07.07.09.1.07,0h0l0,0h0a.41.41,0,0,0,.19,0l.13,0,.08.07,0,0h0l0,0v0h.06a1.57,1.57,0,0,1,.18.07h0l.05.06h.08l0,.07h0a.33.33,0,0,0,.21,0h.11l.1.08.12,0h.08l0,.06h.14l.09.06h0l.2,0,.15,0h0l.13,0,.16,0h0l.12,0h.35l.12,0,.15,0,.13,0h.64l.34-.12a.6.6,0,0,0,.18-.08l.23-.06h0l.22-.1.12,0a.54.54,0,0,1,.19,0,.85.85,0,0,0,.33-.07l.2-.08.26-.11.16-.06s.27-.14.27-.14a5.24,5.24,0,0,0,.75-.44l.07-.07,0-.05.21-.13a3.19,3.19,0,0,0,.43-.32l.11-.07h0l0-.06.66-.66,0,0,.09-.07h0a.26.26,0,0,0,0-.05l.05,0,.08-.06h0l.06-.09.15-.12.27-.24.1-.12.1-.1,0,0,.1,0,.32-.34,0,0,.1-.08.12-.1h0l.07-.11,0,0,.18-.25.05,0,.09-.07.06-.1,0-.06.12-.09.12-.09.07-.09,0-.05,0,0h0a2.43,2.43,0,0,0,.26-.3,2.3,2.3,0,0,1,.23-.28l.11-.08.16-.13,0,0h0l.09-.11,0,0,0,0,.09-.07.1-.13.34-.38.36-.39.06-.09,0,0,.06,0,.06-.09.07-.07.11-.1.06-.1,0,0,0,0,.13-.07h0l0,0,.07-.07.09-.07.1-.12.08-.1.11-.06a.42.42,0,0,0,.17-.1l.12-.18.06-.09.09-.09a.51.51,0,0,0,.17-.19v-.07h0l.1-.07,0-.08a2.43,2.43,0,0,1,.24-.32l.07-.06h0l.07-.09.09-.13.18-.15a2,2,0,0,0,.26-.23h0a3.52,3.52,0,0,1-.09.58c0,.14-.06.28-.08.43l-.1,0s0,.1,0,.12l0,0v.13h.06l.09,0h0l-.11,0,0,.08,0,.08,0,0h0a0,0,0,0,0,0,0l0,.09h0a.61.61,0,0,1,0,.14.86.86,0,0,0,0,.16c0,.06,0,.11,0,.16a1.69,1.69,0,0,0,0,.23v.07a.44.44,0,0,0,0,.1.16.16,0,0,0,0,.1l.05.07,0,0v.1h0l0,0,0,0s0,.12,0,.12l0,.08,0,.05v.07a.07.07,0,0,0,0,0,.14.14,0,0,0,0,.06h0s0,0,0,0v0h.07l0,0,0,.07,0,.1,0,0,.08,0h0a.31.31,0,0,1,0,.11c0,.07,0,.15.06.2h0s0,0,0,0l0,.1.07,0,.05,0s0,0,0,0l0,.06h0l0,.1.08.12,0,.13a.41.41,0,0,0,0,.18h0l0,0v.06h0a1,1,0,0,0,.17.19l0,0h0a.45.45,0,0,1,.06.12s0,0,0,.05v0a1,1,0,0,0,.32.28v.07h0c.06,0,.08.06.09.12v0h0a.32.32,0,0,1,.24.09.62.62,0,0,0,.2.1h0l.09,0,0,0,.09,0,0,0a.81.81,0,0,1,.22.07l.12,0,.15,0,.14,0h0l0,0,.13,0h.08l.07,0,0,0,.08,0,.22.06a.83.83,0,0,0,.39.08l.54-.08h.53a1.09,1.09,0,0,0,.23-.06l.13,0,.37-.06.43-.07a.51.51,0,0,0,.21-.09l.06,0,.14,0a.58.58,0,0,0,.29-.07l.11,0,.11,0,.09-.07.1-.06h.11l.1-.07h0l.08,0,.23-.17.18-.12a.39.39,0,0,1,.18-.06.47.47,0,0,0,.19-.06l.29-.19.22-.15h.08l.07-.05v0l.21-.08.17-.06.29-.21.12-.08.09-.06.14-.09,0-.05,0,0,.13,0a.62.62,0,0,0,.19-.11l0,0v0l.07,0h0l.1-.09.11-.1.11,0a.81.81,0,0,0,.18-.1h0l0-.07.38-.28.15-.11a.85.85,0,0,1,.19-.06l.11,0a.12.12,0,0,0,0-.09h0l.18-.16L124,47l.32-.2.12-.12.06-.07.25-.2.19-.14.14-.13a.73.73,0,0,1,.26-.21l0,0v-.06c.19-.14.42-.33.66-.49l.15-.07h0l.07-.06h0l.08,0h0l.08-.07,0,0,.07,0h0l0-.08h0a.18.18,0,0,0,.13-.05l0,0v0h0l.07,0,.1-.1.07,0,0,0,.09,0,.08-.09,0,0,.07,0,.1-.07.06-.07,0,0,.16-.1.07-.07A.7.7,0,0,1,128,44h0v0a1.35,1.35,0,0,1,.27-.25l.12-.11.13-.12.22-.22.08,0L129,43v0a0,0,0,0,1,0,0l.05,0,.14-.11h0l.07,0h0l.07-.12.06-.08.13-.11a1.12,1.12,0,0,0,.21-.18v0a.2.2,0,0,0,0-.05l0,0,.09-.07L130,42l0,0,0,0,.1-.06,0-.06h.06l0,0a.64.64,0,0,0,0-.07l.05,0,.1-.06.06-.11,0,0,.08-.06.16-.12v0l.1-.11L131,41l.13-.18.08-.07.1-.1.2-.23h0l.14-.16.06-.07.08-.09L132,40l.08-.13,0-.07.11-.1s0-.08,0-.12l.05,0,.06-.09.08-.13.29-.31.24-.28.06-.1v0l.07-.06a.83.83,0,0,0,.15-.17.35.35,0,0,0,0-.06l0,0,.08-.09.07-.13,0-.09.08-.1.11-.16a.3.3,0,0,0,0-.09l.06,0h0l.06-.09v0l.07,0,.1-.11.11-.14,0,0,0,0a.72.72,0,0,1,.11-.19l.07-.11.06-.12,0-.1.11-.11h0l.06-.16,0-.1.06-.05.08-.09.05-.11,0-.05.08-.1.09-.18,0-.13,0-.05c.08-.14.17-.3.24-.45l0-.1V34.8l.09-.15.12-.22h0v-.14l0-.07,0-.07h0s0-.19,0-.21a2.18,2.18,0,0,0,.09-.52v0l0-.08,0,0s0,0,0,0l0-.25a2.94,2.94,0,0,0-.17-1,1.33,1.33,0,0,1,.24-.1l.25-.11.13,0h0l.06-.06h0l.13,0h0a.94.94,0,0,1,.41-.13,1.12,1.12,0,0,0,.26-.11l.23-.06.28-.14,0,0a1.15,1.15,0,0,1,.28-.06,1.53,1.53,0,0,0,.25-.06,2.53,2.53,0,0,1,.36-.12,2.53,2.53,0,0,0,.36-.12l.37-.1h0l.92-.45a.48.48,0,0,1,.19-.05l.19-.06a5.54,5.54,0,0,1,.68-.25,4.54,4.54,0,0,0,.57-.22l.12,0a.88.88,0,0,0,.15,0,.62.62,0,0,1,.18-.06,1.23,1.23,0,0,0,.37-.09,3.91,3.91,0,0,1,.47-.18l.28-.09a2.16,2.16,0,0,1,.45-.15l.15,0,.09,0s0,0,.07,0l.24-.12.11-.06.15-.05a.7.7,0,0,0,.23-.1h0l0,0,.06,0a.22.22,0,0,1,.14,0h.07l.34-.11a1.49,1.49,0,0,1,.42-.08H146a1,1,0,0,0,.25-.1h.11l.08,0,.26-.13.4-.15h0l.11,0,.33-.15.26-.11h0a.1.1,0,0,0,.07,0h0a.72.72,0,0,1,.24-.11h.09l.54-.21c.29-.12.59-.24.83-.36a1.2,1.2,0,0,1,.35-.08.6.6,0,0,0,.21-.08.6.6,0,0,1,.21-.08,4.72,4.72,0,0,0,.79-.23,6.27,6.27,0,0,1,.69-.32l.54-.23a.06.06,0,0,1,.06,0,.22.22,0,0,0,.17,0l.74-.33a.15.15,0,0,1,.09,0l.12,0a2.06,2.06,0,0,1,.47-.13h0l.16-.07h.12a2,2,0,0,1,.54-.14,1.39,1.39,0,0,0,.33-.1l.11,0,.13-.06h0l.15,0,.26-.1.34-.15.19-.05.17-.05a2.88,2.88,0,0,1,.8-.21l.08,0,0,0a2.89,2.89,0,0,0,.52-.14l.17-.05.18-.06.24-.14.26-.15a1.16,1.16,0,0,1,.48-.06l.14,0h0a.7.7,0,0,0,.2-.08.9.9,0,0,1,.21-.08,1.57,1.57,0,0,0,.33-.08,3.75,3.75,0,0,1,.39-.1h0l.11,0,.06,0h0l.06,0a.2.2,0,0,1,.11-.06l.38-.06.07,0,.22-.07.15-.06.22-.05.21,0,.26-.05.25-.05.11,0h0l.19,0,.3,0,.12-.05h.15l0,0,.05,0a4.71,4.71,0,0,0,.58-.1l.24,0,.26-.08a.9.9,0,0,1,.25-.08h0l.37-.13.11,0,.15,0a3.92,3.92,0,0,0,1.2-.42.53.53,0,0,1,.22,0h0a.4.4,0,0,0,.19-.07l0,0a.61.61,0,0,1,.18-.05l.16,0a2.92,2.92,0,0,1,.28-.11h0l.18,0,.14,0a5.92,5.92,0,0,0,.66-.25l.27-.07h0l0,0s0,0,0,0h.12l.49-.25.24-.06a1.44,1.44,0,0,1,.37-.13h.08l0,0a.33.33,0,0,1,.13,0H171a.58.58,0,0,0,.25,0l.25-.11.16-.05a.53.53,0,0,0,.2-.06l.22-.1.07.07v0l.1,0h.06l.11,0h0l.1-.05a2,2,0,0,0,.61-.27l.11-.05h0a1,1,0,0,0,.23-.23l.14-.16.12-.07.13-.07.07-.08,0,0,.13-.1a2,2,0,0,0,.26-.24l.1-.18,0-.09a.42.42,0,0,1,.14-.11l.17-.12h0a.79.79,0,0,0,0-.09,2.24,2.24,0,0,1,.35-.34l0,0,.07-.39.07,0a.88.88,0,0,0,.23-.54v-.1M26.44,74.5c-2,2-3.13,2.57-5,.75s-2.62-1.74-4.51-7.1c-.69-2.6,1.73-5,5-4a52.23,52.23,0,0,1,9,3.55,26,26,0,0,1-4.48,6.84M68.52,46l-.06.07h0l-.06.18-.09.12c0,.09-.11.18-.15.26l-.07.2a.72.72,0,0,1-.1.24l0,0-.07.1a.68.68,0,0,0,0,.12h0l-.1.11h0v0l0,0,0,.1h0l0,0-.09.12,0,.15,0,.13,0,.05-.06.1h0v.06l-.06.11-.09.13h0v0a2.09,2.09,0,0,1-.16.29L67,49.1l0,.09,0,.06-.07.07-.09.11-.13.27-.1.19-.06.06h0l0,.1h0l0,.06-.08.1-.06.18,0,.12c-.05.11-.13.24-.2.36L66,51l-.07.16a.37.37,0,0,1-.15.19l0,0a.94.94,0,0,1,0,.09.52.52,0,0,0-.07.15.88.88,0,0,1,0,.1l0,0h0l0,.09h0l0,0v0l0,.09v0a4.21,4.21,0,0,0-.45.9l-.11.25a3.2,3.2,0,0,1-.26.48l-.16.29-.08.09h0l0,.11,0,0-.09.07,0,0h0l-.09.24-.12.19a2.64,2.64,0,0,0-.2.36v.06l-.08.17c-.07.13-.17.27-.26.41l-.19.29-.06.14,0,.11-.13.2-.14.25-.05.11,0,.09-.06.08h0s0,0,0,0,0,0,0,0l-.1.11a.84.84,0,0,0-.15.2h0s0,.08,0,.09a.28.28,0,0,1-.07.11l-.05,0s0,.12,0,.15l-.06.08,0,.08v0l-.07.1-.1.16h0v0l-.15.19L62,58.6l-.07.13-.05.05-.06.06-.05.12,0,.08-.12.13c-.06.07-.13.14-.18.21l-.07.12-.12.18-.09.09h0v.06A1.46,1.46,0,0,0,61,60v0l-.2.22h0l0,.09-.12.18-.06.06s-.06.09-.06.09l0,0-.1.12-.13.14V61l-.11.09,0,0h0l-.16.25,0,0-.09.08h0v0l-.09.13-.11.15a1.3,1.3,0,0,1-.15.18l-.12.12-.06.1,0,.07-.12.11-.16.15,0,.08v0l-.06,0-.11.1-.09.13a1,1,0,0,1-.15.19l-.1.07,0,.06-.17.19-.17.16-.22.21-.07.08a.67.67,0,0,1-.18.16l-.05,0v.06a.31.31,0,0,0-.08.07l0,0-.15.11-.15.11-.15.14-.17.15-.22.15a1.31,1.31,0,0,0-.31.23h0a.12.12,0,0,0,0,0l-.25.23s-.13.07-.16.09h-.09l0,0,0,0-.17.07h0l-.12.1-.12.11a.47.47,0,0,1-.15.06.53.53,0,0,0-.19.09l-.07.06,0,.05-.21.08-.49.28-.12,0-.1,0-.41.19a.11.11,0,0,1-.08,0,.45.45,0,0,0-.19,0,2.92,2.92,0,0,1-1.06.23.4.4,0,0,0-.23.08.33.33,0,0,1-.15.05h-.25l-.28,0a.78.78,0,0,0-.23.07.3.3,0,0,1-.15,0h-.08l-.24,0,0,0-.11,0h0l-.14,0h-.11l-.07,0-.11,0-.15,0h-.11l-.24.06a5.32,5.32,0,0,0-.69,0,5.84,5.84,0,0,1-.75-.06h-.34l-.08,0h-.23l-.06,0-.08,0-.18,0-.16,0v0l-.06,0h-.19l-.5-.1a3.75,3.75,0,0,1-.58-.13v0h0l-.12,0-.29-.08-.16,0,0,0a.09.09,0,0,0-.09,0v-.08h-.05a.43.43,0,0,1-.26-.07l-.09,0-.5-.18-.37-.14-.26-.08a5.59,5.59,0,0,1-.91-.37l-.12,0h-.06l-.11-.06L42,65.65h-.12l-.09-.06h-.07s0,0,0,0h-.11l0,0-.07-.06-.09,0-.06,0,0,0a1.08,1.08,0,0,0-.26-.14l-.32-.09a1.62,1.62,0,0,1-.76-.31v0h0a.84.84,0,0,0-.29-.14h0l0,0a0,0,0,0,1,0,0l-.05-.07-.28-.09-.2,0-.16-.08a.58.58,0,0,1-.11-.07l.06-.19v0l.05-.07h0s0-.14,0-.16l.06-.14.09-.2v-.1a.29.29,0,0,0,0-.06l.08-.14h0a.2.2,0,0,1,0-.05L39.2,63l0,0v0l0-.11a.11.11,0,0,1,0-.06l.06,0v-.11l0,0,.05-.08h0a.87.87,0,0,0,0-.1h0l.07-.1h0v-.1l0,0,0-.08h0l0-.17,0-.17,0-.21.33-1.1v-.16l.06-.23.07-.26v-.09l.05-.06h0l0-.17,0-.12,0-.09.07-.16,0-.2a.72.72,0,0,1,0-.21l0-.05.07-.13h0a.56.56,0,0,1,0-.07,1,1,0,0,1,.08-.2v0h0a5.3,5.3,0,0,1,.1-.55l0-.16.13-.37.07-.26a1.48,1.48,0,0,1,.09-.33.49.49,0,0,0,.05-.19v-.15a.22.22,0,0,1,0-.11l0,0,0-.06,0-.16,0-.09.1-.24a.27.27,0,0,0,0-.13.37.37,0,0,0,0-.15l0,0,.08-.12h0s0,0,0,0a.2.2,0,0,1,0-.1l0-.06a1.28,1.28,0,0,0,0-.17v-.15l.08-.32.09-.4v-.2l0-.17,0-.18c0-.06.05-.29.06-.33s0-.08,0-.11l.12-.39,0-.06,0-.06v0c.05-.29.06-.35.06-.37h0a.24.24,0,0,1,0-.08v0l0,0,.1-.31v-.22s0-.11,0-.11l0-.11v-.11h0l0-.11,0-.11v0l0-.33v0a.14.14,0,0,1,0-.06,0,0,0,0,0,0,0,2.11,2.11,0,0,0,0-.35.21.21,0,0,1,0-.06l.06,0,0-.07v0a.68.68,0,0,1,.07-.26l0-.08s0-.27,0-.27a.35.35,0,0,0,0-.07,1.42,1.42,0,0,1,.58,0l.24,0h0l.12,0h0l.11,0,.09,0,.07,0h.38a.65.65,0,0,0,.2,0l.15,0,.2,0V49l.12-.06h.34l.14,0,.07,0a9.34,9.34,0,0,0,1,0,1.77,1.77,0,0,0,.33-.08,1,1,0,0,1,.32-.07h.28l.23,0,.22,0,.16,0,.17,0,.15,0h.28l.11,0H49a1.24,1.24,0,0,0,.35-.1.85.85,0,0,1,.24-.08l.11,0,.11,0,.23,0,.29,0h0l.1,0h.12c.28,0,.59-.06.85-.07l.12,0h.12l.17,0h.28a1.75,1.75,0,0,0,.37-.08h.23l.14,0H53l.12,0,.15,0h.15l0,0,.05,0,.14,0,.09,0,.29,0,.27,0,.31-.06,1,0,.13,0,.08,0,.19,0,.26,0a.48.48,0,0,0,.18,0,.3.3,0,0,1,.11,0h.13l.55,0,.06,0,.07,0,.38-.07.12,0,.08,0h.23l.34,0,.32,0a2,2,0,0,0,.36,0,1.27,1.27,0,0,1,.32,0,.7.7,0,0,0,.23,0,.54.54,0,0,1,.19-.05,2.4,2.4,0,0,0,.46,0l.38-.05.17,0h.09l.28,0,.14,0,.23,0h.13l.15,0,.08,0H62l.07,0h0l.11,0h.43l.16,0,.15,0h.23l.33,0,.16,0,.11,0H64l.19,0,.16,0,.49-.07.46-.07.36-.1h.81l.17,0,.13,0h.07l.12,0,.13,0,.18,0,.29,0h.22l.12,0L68,46h.15a2.23,2.23,0,0,1,.36,0h0M76,20.09a2.07,2.07,0,0,0-.06.5.28.28,0,0,0,0,.09v.13l-.05.25-.07.36v.25l0,.13a.51.51,0,0,0,0,.13V22a1.72,1.72,0,0,1,0,.26.44.44,0,0,1,0,.13l-.08.43v.27l-.07.32-.16.64v.18l-.09.28h0v.16a1.63,1.63,0,0,0,0,.35l0,.17,0,.06a.43.43,0,0,1,0,.07l0,.06s0,0,0,.06v.21s0,.05,0,.06a1.88,1.88,0,0,0-.09.43v.08a.58.58,0,0,1,0,.14l0,.13h0s0,.07,0,.09a1.42,1.42,0,0,0,0,.16h0l-.06,0,0,.05,0,0h0l-.07.12v0l0,.28s0,0,0,0a.79.79,0,0,0,0,.12v0s0,.06,0,.1a.62.62,0,0,0,0,.1l0,0s0,.16,0,.17,0,.19,0,.19l0,.15v.23s0,0,0,0l0,0h0v.12h0s0,.15,0,.15,0,.18-.06.24a.36.36,0,0,0-.11.1.31.31,0,0,0,0,.08.37.37,0,0,0,0,.11.29.29,0,0,1,0,.09s0,0,0,0l-.07.13,0,.07-.09.21-.09.18v0a3.26,3.26,0,0,0,0,.34l-.06.05a.14.14,0,0,0,0,.06.2.2,0,0,0,0,.09v.14l0,.07s0,.06,0,.08l-.06.08h0s0,0,0,.07a.25.25,0,0,0,0,.1v.05l0,.1,0,.1h0v.09a1,1,0,0,0-.05.12l0,.13h0v0l0,0v0a.3.3,0,0,0,0,.12V32a.15.15,0,0,1,0,.09l-.23.63-.19.51h0a.23.23,0,0,1,0,.07l0,.08a1.15,1.15,0,0,0-.09.29h0v.09l-.16.34h0v.09l0,.08-.06.14h0v.11a.63.63,0,0,0,0,.09l0,.13a1,1,0,0,1,0,.18v0l-.11.27-.06.08,0,0s0,.13,0,.16l0,.06v.11l-.08.17v0s0,0,0,0,0,.14,0,.14v0a.48.48,0,0,0-.07.18l-.14.11,0,0a.39.39,0,0,1,0,.18,1.6,1.6,0,0,1-.13.41v0l-.06.25,0,.07-.08.13-.05.19,0,.16,0,.08-.07.14-.3.82-.2.55-.1.37-.07.14-.08.18,0,.11a.2.2,0,0,0,0,.05l0,0,0,0a1.16,1.16,0,0,0-.08.31,1.2,1.2,0,0,1-.07.26l0,0,0,.08,0,.12,0,.1-.07,0c0,.06-.11.2-.13.24v.08l0,0a1.68,1.68,0,0,1,0,.18,7.18,7.18,0,0,1-.36.78l0,.07v0l-.15,0,0,0-.08,0h-.27l0,0h0a.67.67,0,0,1-.25,0,.76.76,0,0,0-.3,0,1,1,0,0,1-.35,0h-.15l-.25,0a.69.69,0,0,1-.24,0l-.19,0-.22,0h0l-.1,0,0,0-.07,0-.08,0h0l0,0-.07,0h-.24l-.17,0h-.13l0,0-.13,0h0l-.1,0-.13,0H65.8l-.06,0,0,0,0,0,0,0-.13,0-.13,0h-.12l-.09,0-.08,0H64l-.11,0h-.24l-.16,0H63.3l-.21,0-.27-.05-.46,0H62l0,0v0h-.46l-.27,0h-.14l0,0h0v0l0,0s-.2-.11-.23-.11h0l-.14,0h-.2l-.21.05-.06,0a.25.25,0,0,0-.18,0l0,0v0l-.11,0-.05,0-.16,0h0l-.06,0,0,0-.07,0h-.17l0,0h0l-.09,0,0,0,0,0-.05,0h0l-.11,0h0l0,0-.19,0-.16-.07h0l-.08,0h0l-.06,0v-.08h0l-.19,0,0,0h0a.23.23,0,0,0-.14,0h0l-.06,0,0,0-.06,0-.13,0s-.07,0-.08,0h0l-.07-.07v0l-.11,0-.08,0-.14-.05h0l-.09,0s0,0,0,0l-.05,0-.19,0-.13,0-.11,0a1,1,0,0,0-.52,0l-.05-.06v0l-.07,0h0l-.07,0-.09,0h-.24l-.06,0-.1,0H55c-.2,0-.42,0-.64,0h-.39l-1.54-.07-.17,0-.15,0-.22,0h-.59l-.12,0,0,0h0L51,42h-.1l-.07,0-.08,0-.09,0h-.74a.81.81,0,0,0-.19,0,.5.5,0,0,1-.16,0l-.23,0-.19,0L49,42h-.13l-.14,0-.24,0h0l-.11,0h-.58l-.23,0-.12,0h-.17l-.09,0h-.32l-.19.05h-.6l-.16,0-.11,0-.17,0-.18,0-.13,0-.09,0h-.06l-.48,0h0l-.07,0h-.14a2.32,2.32,0,0,0-.37,0l-.14,0a.16.16,0,0,1-.15,0,.38.38,0,0,1,0-.13.86.86,0,0,1,0-.13,0,0,0,0,1,0,0,.34.34,0,0,1,0-.14.64.64,0,0,1,.06-.24h0l0-.46a.77.77,0,0,0,0-.2v-.09a.6.6,0,0,1,0-.16h0l.1-.46.09-.48,0-.09a2.57,2.57,0,0,0,.07-.46,2.32,2.32,0,0,1,.05-.38,1.47,1.47,0,0,0,0-.36,2.16,2.16,0,0,1,0-.29.11.11,0,0,0,0-.05.37.37,0,0,0,0-.12V37.5a.53.53,0,0,1,0-.17l0-.18a.13.13,0,0,0,0-.06V37a1,1,0,0,1,.07-.3v-.07a.07.07,0,0,0,0-.07.88.88,0,0,0,0-.17c0-.12,0-.24,0-.35a2.28,2.28,0,0,1,0-.37,1.73,1.73,0,0,1,.05-.38v-.2l0-.09,0-.09v-.16a.22.22,0,0,1,0-.08.28.28,0,0,1,0-.09l0,0a1.06,1.06,0,0,0,.07-.22v-.07a2.12,2.12,0,0,1,0-.39v0l0-.11h0s0-.21,0-.24l0-.08,0-.11h0s0-.2,0-.2v0a.54.54,0,0,1,0-.15v-.05a2.58,2.58,0,0,0,.06-.46,1.62,1.62,0,0,0,0-.33h0a.08.08,0,0,1,0,0l0-.09,0-.35-.05-.39a.15.15,0,0,1,0-.07l0-.17v-.27l0-.11,0-.12,0-.2V30l-.07-.13,0-.09,0-.19v0l0-.08h0s0-.13,0-.13l0-.16,0,0h0V29h0L44.22,29h0v-.09s-.06-.06-.09-.07l-.05,0s0-.06,0-.11,0-.11,0-.14h0l-.06,0,0,0,0-.09-.07,0-.07,0,0-.06a.41.41,0,0,0-.12-.14H43.5l0,0s0-.05,0-.05h0l-.14,0-.09-.09a.33.33,0,0,0-.19-.13.7.7,0,0,0-.33.06,1,1,0,0,1-.27.06.41.41,0,0,1-.23-.11L42,27.66a2.17,2.17,0,0,0-1.46.25h0l0,0h0l-.09,0a.67.67,0,0,0-.38.2h-.08a1.71,1.71,0,0,0-.48.27l0,.06v0l-.05.05-.14.15h0v0l-.1.08-.09.08s-.25.31-.25.31h0l-.07.07A9,9,0,0,0,38,30.28h0l-.14.06v.25l0,0,0,.13,0,.05a0,0,0,0,1,0,.05v0l-.06.14h0v0s0,.06,0,.09v0a2.73,2.73,0,0,0-.08.46l0,.25v.37l0,.18a4.41,4.41,0,0,1-.07.54.43.43,0,0,0,0,.2v0a.74.74,0,0,1,0,.26v0a.88.88,0,0,0,0,.35v.29a1.73,1.73,0,0,1,0,.68l0,.48a2.86,2.86,0,0,0-.09.71l0,0a2.85,2.85,0,0,1,0,.31v.07a1.9,1.9,0,0,1,0,.25v0l0,.11V37a.51.51,0,0,1,0,.18.39.39,0,0,1,0,.15l0,.12,0,.14h0v.1h0a1.17,1.17,0,0,1,0,.27v0h0v.17a.57.57,0,0,1,0,.16.59.59,0,0,0,0,.13.57.57,0,0,0,0,.13v.1a.09.09,0,0,1,0,0l-.09.39-.08.34v.17l-.06.13,0,.11a.93.93,0,0,0,0,.27l0,.16h0s0,.1,0,.12a.83.83,0,0,1,0,.12c0,.15,0,.39,0,.42h0c0,.05,0,.14,0,.14h0a.42.42,0,0,1,0,.19h0l0,0,0,0v0l0,.05h0l0,0,0,.08,0,.15v.09a.36.36,0,0,0,0,.1s0,.07,0,.1v.13a3.39,3.39,0,0,0-.13.69,2,2,0,0,1-.42,0H36l-.18,0-.14,0h-.12l-.09,0h0l-.21,0a5.43,5.43,0,0,0-.63.08l-.1,0-.13,0h-.85a.64.64,0,0,0-.24.05l-.17,0h-.32l-.18,0-.13,0-.09,0h-.1l-.18,0,0,0-.07,0-.14,0s-.08,0-.09,0a.36.36,0,0,1-.09,0h0a.39.39,0,0,0-.15,0h0a1.29,1.29,0,0,1-.35,0,.41.41,0,0,1,0-.07l-.15,0,0,0-.12,0h0l-.06,0,0,0-.07,0-.08,0-.1,0-.16,0h0l0,0L30.22,43v0l-.08,0,0,0-.19,0-.15,0L29.57,43h0l-.14,0-.16,0-.22,0-.19,0,0,0-.09,0-.12,0-.06,0-.09,0-.11,0-.13,0-.11,0a1.75,1.75,0,0,0-.33-.05l-.1,0h-.05a1.66,1.66,0,0,1-.32,0h0a.07.07,0,0,0-.06-.07l-.11,0s0-.08,0-.08h-.05a.6.6,0,0,1-.23,0l-.17,0h0l-.16,0,0,0-.06,0h-.09l-.06,0-.1,0h-.4l-.16,0-.19-.05-.09,0h0l0,0-.1,0h0l-.06,0-.15,0-.11,0h-.25l-.05,0h-.25l-.07,0-.1,0h-.23l0,0h0l-.17,0-.06,0-.12,0-.17,0-.19,0H23l0,0h-.12l-.05-.05-.1,0,0,0-.11,0s0,0,0,0l-.07,0h-.13l-.14,0h0l0,0,0,0L22.06,42h-.13l-.11,0-.08,0h-.29l-.08-.06a.14.14,0,0,1,0,0,.79.79,0,0,1-.37-.07h-.15a1.63,1.63,0,0,0-.59-.11h-.09c-.13,0-.25,0-.25-.06h0v-.06h-.24l-.09,0a.47.47,0,0,0-.21-.06v-.06l-.06,0a.11.11,0,0,1-.1,0l-.08,0-.12,0h0l-.1,0-.08,0-.19,0a1.08,1.08,0,0,1-.27,0l-.12-.07-.15-.09-.14,0h-.11l0,0-.06-.06h-.09l0-.06a.84.84,0,0,0-.26-.07v0h-.09l0,0h-.14l-.09,0-.13-.09-.13-.1s-.29-.12-.29-.13l-.07-.06-.09,0h0l-.05,0-.11-.07H16v0h0a1.85,1.85,0,0,0-.2-.1,1.13,1.13,0,0,0-.32-.06A1.25,1.25,0,0,1,15.2,40l-.15-.1-.17-.1-.08,0-.08,0v0l0-.05-.09,0-.06,0v-.06l-.09,0v-.05h0l-.13,0-.08,0-.05-.05a.23.23,0,0,0-.11-.08h0l-.09,0,0-.07h0a1.75,1.75,0,0,0-.28-.13l-.14-.05L13.43,39l-.15,0-.11,0a.15.15,0,0,0,0,0h0l-.06,0h0L13,38.84l-.12-.08h-.08l-.07-.07-.09-.07h-.17s0,0,0,0l-.17-.08-.09,0,0,0,0-.05-.08,0h0l-.05-.07-.08-.09h-.05a1.26,1.26,0,0,1-.17-.11l-.07,0,0,0,0-.06-.08,0h0l0-.1h0l-.09,0h0l-.42-.36a5.57,5.57,0,0,1-.74-.72v0l-.12,0a.4.4,0,0,0-.09-.27H9.77v-.13H9.71a.41.41,0,0,1,0-.07l0-.1L9.62,36h0a.52.52,0,0,1,0-.18l0-.15,0-.07,0-.06,0-.25v-.19s0-.13,0-.13h0a.9.9,0,0,1,0-.24h0l0-.09h0a1.63,1.63,0,0,1,0-.37,1.92,1.92,0,0,1,.18-.68l.05-.16,0-.14.06-.09.07-.1a2.73,2.73,0,0,1,.61-.79l.1-.09.15-.12.08-.11.08-.1,0,0,.07-.05.08-.08.09-.09.07-.05.15-.12h0l0,0,.08-.1.17-.13.21-.16.13-.16.29-.24,0,0a2.08,2.08,0,0,0,.21-.21l.15-.16c.37-.33.67-.59,1-.84l.08-.09,0,0,.09-.06.13-.09.19-.18.29-.27h0l.22-.13h0s0,0,0-.06l.11-.08.15-.11h0s0,0,0,0l0,0,.1-.05.06-.06,0,0,.07,0h0l.12-.14.12-.14.22-.15A1.6,1.6,0,0,0,16,27.4c.47-.41,1-.81,1.51-1.24l.09-.05.12-.07a3.52,3.52,0,0,0,.37-.32l.18-.16.21-.14.16-.09L19,25l.27-.23.15-.08.16-.09.09-.08.05,0,.16-.12.15-.1.12-.11.16-.12.34-.2a3,3,0,0,0,.44-.26,5.33,5.33,0,0,0,.56-.47l.08-.06.12-.08.08-.08,0,0,.13,0h0l.07-.07,0,0,.08,0,.11-.06.24-.2.26-.21.1,0h0c.22-.14.48-.32.8-.56l.1,0,.14-.07.26-.22.15-.07.21-.1h0a.07.07,0,0,1,0,0L24.8,21,25,20.9l.24-.18.25-.15.11-.06.08,0,.08,0,.26-.19.09-.08a1.58,1.58,0,0,1,.26-.13l.26-.13.1-.09.09-.07.12-.06.16-.08.14-.11.12-.1.11-.05.14-.06.82-.53c.31-.19.63-.39.92-.6l.09,0,.12-.06.27-.17a1.36,1.36,0,0,0,.17-.12l.21-.06.15-.1.07,0,.13-.09.17-.12.13-.06.16-.09L31,17.2v0l.14-.06.14-.07a4.5,4.5,0,0,0,.45-.31l.43-.29.18-.08.06,0,.15-.1.06,0L33,16l.18-.11.16-.05.69-.39.1,0,.11-.05.1-.06.15-.09.16-.07.2-.09L35,15l.21-.13.19-.07.17-.11a1.73,1.73,0,0,1,.37-.2.35.35,0,0,0,.16-.09l0,0,.11,0,.13,0,.07-.05,0,0a1.09,1.09,0,0,1,.27-.11,2.13,2.13,0,0,0,.36-.15,1.79,1.79,0,0,1,.44-.19h0l.18-.12.21-.07h0l.06,0,.05,0s0,0,.11,0l.06-.07,0,0,.09,0h0l.11-.08,0,0a1.16,1.16,0,0,1,.28-.1.81.81,0,0,0,.25-.09l.1-.08.08-.06a1.32,1.32,0,0,1,.49-.16l.07,0,0-.08v0a3.26,3.26,0,0,1,.53-.25l.43-.2.38-.12.1-.06.18-.11a.61.61,0,0,1,.18,0l.17-.06.23-.06.26-.08h0l.15-.07h.09l.24-.14.09-.05.11,0,.15-.05v0l0,0,.09,0,.12-.07,0,0,.23-.07a2.77,2.77,0,0,1,.46-.22l.44-.2.19-.08.1,0h.08l1-.58a1.38,1.38,0,0,1,.26-.07,1.62,1.62,0,0,0,.46-.14,2.25,2.25,0,0,1,.4-.15l.24-.08.15,0,.18-.05h0l.05,0,0,0h.08a.43.43,0,0,0,.14,0l0,0,0,0s.08,0,.08,0l.13,0a4.5,4.5,0,0,1,.53-.21l.44-.17.22,0h0A4,4,0,0,1,50,8.48a6.48,6.48,0,0,0,.62-.27L51.18,8A4.22,4.22,0,0,1,52.3,7.6l.07,0,.06,0,.2,0a2.94,2.94,0,0,1,.74-.27,1.32,1.32,0,0,0,.36-.13A1,1,0,0,1,54,7a2.6,2.6,0,0,0,.59-.17l.2,0h0a1.28,1.28,0,0,1,.31-.11l.1,0,.14,0a1.87,1.87,0,0,0,.48-.12,2.5,2.5,0,0,1,.48-.11l.16-.06.14,0h0l.17,0h0L57,6.15h.24l.39-.06.32,0,.12,0h.08v.06l.06,0a.49.49,0,0,1,.2-.06V6l0,0,.06,0h.06l.15,0,0,0,0,0,.07,0h.05s0,0,.25-.12h.06a.2.2,0,0,0,.12,0h0v.09l.06,0a1.7,1.7,0,0,1,.89-.12h.39l.14,0a.37.37,0,0,1,.14,0l.24,0,.23,0h0l.09,0h0l.07,0a.78.78,0,0,1,.26-.06h.8a6.13,6.13,0,0,1,1,.11h.21l.84.07.27.07.19.06h.2l.18,0,.08,0,.1,0H66l.07,0h.28l.08,0,.11,0,.22,0a.58.58,0,0,1,.23,0l.23.06.17,0,0,0,.08,0h.15l.06.08h.09a.08.08,0,0,1,0,0H68l.11.07.12.07.15,0,.08.08h0a1.09,1.09,0,0,0,.26,0l.2,0,.06.07h.1l.07.08h0l.24.07.19,0,.16.1.07.05a.9.9,0,0,0,.23.08l.12,0,.2.18.15,0,.15.05,0,.06.08.08h.11l0,.07h0l.07,0h0l0,.06L71.2,8l.13,0a.4.4,0,0,1,.13.07l.38.37.1,0,0,0,.05.05.06.07.1,0,0,.09.1.09.07.07.1.19.12.1.1.07.17.25.06.1.08,0,0,0,0,.09.06.11a1.55,1.55,0,0,1,.21.33l.08.13,0,.06s.08.07.08.1h0l0,.06h.13s0,.11,0,.11l.07.13a2.82,2.82,0,0,1,.32.43l0,.07,0,.09,0,.07.06.11,0,.1,0,.17h0l.05,0s0,0,0,0h0l.06.09,0,.07v.08s0,.09,0,.12l.05,0h0a.88.88,0,0,1,.05.15.4.4,0,0,0,.07.21h0l0,0h0v.09l.06.06,0,0,0,.16,0,.2a4.16,4.16,0,0,1,.21.63,1.52,1.52,0,0,1,0,.23h0l0,.11a1,1,0,0,0,.12.23l.1.18a.81.81,0,0,1,0,.16.65.65,0,0,1,0,.17v0l.06,0a.72.72,0,0,0,0,.13h0a3.27,3.27,0,0,1,.14.33v.1a.34.34,0,0,0,0,.08l0,.07V16a2,2,0,0,1,.08.44v.14l.06.12,0,.06s0,.16,0,.16h0l0,0h0v.12l0,.26,0,.28s0,.34,0,.4h0l0,0a.58.58,0,0,0,0,.14.17.17,0,0,0,0,.07v0a.59.59,0,0,1,0,.2.36.36,0,0,1,0,.1l0,0,0,0A.37.37,0,0,1,76,19a.45.45,0,0,1,0,.16v0l0,0a1.34,1.34,0,0,1,0,.33.37.37,0,0,1,0,.11s0,.26,0,.38V20l0,0s0,0,0,0h0m52.22,15.47,0,.06,0,.1h0s0,.13,0,.13h0l0,0s-.07.21-.07.21l-.05.14v.1s0,0,0,0a.07.07,0,0,1,0,.05l0,0-.09.06.09,0h0s0,.05-.06.12l0,0v.07a1.07,1.07,0,0,1-.06.3,3.57,3.57,0,0,1-.41.74l-.12.19-.1.12-.12.15h0a.35.35,0,0,0,0,.06l-.06.09-.1.15,0,.12a.81.81,0,0,0-.06.13l-.06,0h0l0,.08,0,0,0,0-.08.08h0l0,0h0l0,0-.1.11-.1.16,0,0-.1.11,0,.07-.07.1a2.47,2.47,0,0,1-.39.32,3.79,3.79,0,0,0-.38.32l-.08.1,0,.08-.09,0-.11.07-.11.08v.05l-.07,0h0a.56.56,0,0,0,0,.08l0,0-.09.06-.06.06-.07.07-.07,0s0,0,0,.07h-.06l-.08.09a.64.64,0,0,1-.25.19l-.06,0v.08l-.06,0v0l-.11,0h0l-.22.2-.09,0-.1.05-.38.28-.06,0-.1,0h0l-.1.11-.06.07-.17.09v0l0,.05-.15.1-.09.06a.49.49,0,0,1-.18.08l-.2.08-.56.33a.37.37,0,0,1-.14,0l-.13,0-.29.19-.22.15-.1,0-.11,0a.6.6,0,0,1-.19.08l0,0h0l-.16.05a.83.83,0,0,1-.18,0l0,0h0l-.11,0-.09,0a1.05,1.05,0,0,0-.33,0l0,0-.15,0,0,0h-.09v0l0-.06h-.15l0,0a.3.3,0,0,0-.17,0l0-.08h0v0h0l0,0h0l-.06-.07-.08-.08h0v0l-.06,0,0,0v0h0s0,0,0,0a.12.12,0,0,0,0-.09l-.08,0h0v0a.4.4,0,0,0-.1-.15s0,0,0,0h0a.77.77,0,0,0,0-.2.08.08,0,0,0-.07,0s0-.09,0-.13a2.35,2.35,0,0,0,0-.26v-.08a.14.14,0,0,0,0-.09v-.06l0,0,0-.08h0a0,0,0,0,1,0,0l0,0v0l0-.12a1.2,1.2,0,0,0-.08-.27.59.59,0,0,0,0-.22.88.88,0,0,0,0-.17l.07,0,0-.05v0a.09.09,0,0,1,0,0l0,0v0a.12.12,0,0,0-.06-.08.18.18,0,0,0,0-.06l0-.12v0a.1.1,0,0,1,0,0l.05-.08a.32.32,0,0,1,0-.08h0v-.11a.61.61,0,0,1,0-.11l.06-.07a.56.56,0,0,0,0-.07h0v-.11l0,0h0l0-.16,0-.12.06-.12.06-.12,0-.1,0-.08,0,0,.06-.08,0-.11v-.07c.31-.56.66-1.1,1-1.63l.11-.1.07-.09.38-.47.09-.06h0l0-.06v0l0,0,.11-.1h0v0l.12-.07.13-.09v0l0,0,.11-.07.14-.1.08-.09.06-.07.11-.09a1.57,1.57,0,0,0,.37-.3h.12l.13-.06.13-.06,0,0,0,0v0l0-.11a.52.52,0,0,1,.13-.13l.08,0,.11-.11.07-.08.05,0,.11,0h0l.07-.09.1-.06.13-.1c.08,0,.11,0,.13.15a.34.34,0,0,0,.08.17c0,.05.1,0,.14,0H123l.07,0a2.12,2.12,0,0,0,.43.06h0l.12,0,.12,0,.17,0,.21,0,.18,0h.43a.65.65,0,0,0,.2,0l.11,0,.18-.06.14,0,.19,0,.12,0,.08,0a1.15,1.15,0,0,1,.26,0h.27l.12,0,.19-.08a1.62,1.62,0,0,1,.39-.13l.15,0,.12,0h0l.17-.07a1.43,1.43,0,0,0,.38-.1v0h0l.06,0h0s0,.08,0,.08a.21.21,0,0,0,0,.13l.07,0h0l0,.06.09,0v0a.15.15,0,0,0,0,0,0,0,0,0,1,0,0l-.06.11,0,0a.66.66,0,0,1,.08.43,1,1,0,0,1,0,.17l0,.09h0"/><path class="cls-2" d="M20.6,109.51l-5.9,1.84,3.65-9.75.07,0Zm.95,3.47,1.37,4.57,5.18-1.62L21.27,93.74l-3.76,1.18L5.23,123.09l5.11-1.6,2.57-5.8Z"/><path class="cls-2" d="M45.23,101.07l-5,2,3.61,3.36A8.47,8.47,0,0,1,41.1,108c-4.75,1.49-6.87-1.68-6.46-5.74.44-4.22,3.46-9.41,8.17-10.89,4.35-1.36,6.85,1.94,6.44,5.9a12,12,0,0,1-2.07,5.55Zm8.16,7.47-3-2.9a20.93,20.93,0,0,0,3.85-9.78c.7-6.86-3.72-11.29-11-9S30.37,96.7,29.66,103.55c-.72,7,3.71,11.35,11,9.08A17.26,17.26,0,0,0,47,109l1.5,1.51Z"/><path class="cls-2" d="M57.75,82.94l4.84-1.52L61.18,95.13c-.31,3-.49,7.19,3.63,5.9s4.82-5.63,5.13-8.65l1.42-13.7,4.84-1.52L74.69,91.81c-.61,6-3.65,11.29-10.31,13.38s-8.76-1.63-8.14-7.6Z"/><path class="cls-2" d="M90.4,87.64l-5.9,1.85,3.65-9.76.07,0Zm.94,3.48,1.38,4.56,5.18-1.62L91.06,71.88l-3.75,1.17L75,101.23l5.11-1.61,2.57-5.8Z"/><path class="cls-2" d="M122.12,66.71c4.25-1.34,6.87,1.71,6.46,5.67-.38,3.7-4,9.4-8.15,10.69s-6.8-2.42-6.42-6.13c.41-4,3.85-8.9,8.11-10.23m-2.18,21.07c7.25-2.27,12.9-9.76,13.63-16.78.7-6.85-3.72-11.28-11-9S109.69,71.85,109,78.71c-.72,7,3.71,11.34,11,9.07"/><polygon class="cls-2" points="139.52 81.02 134.67 82.54 137.2 58.05 142.04 56.53 139.52 81.02"/><polygon class="cls-2" points="148.32 74.24 155.17 72.09 154.74 76.25 143.04 79.92 145.57 55.43 150.41 53.91 148.32 74.24"/></g></g></svg>