<svg xmlns="http://www.w3.org/2000/svg" viewBox="0 0 905.35 437.87"><defs><style>.cls-1,.cls-14,.cls-16,.cls-9{fill:#fff000;}.cls-2{font-size:21.54px;fill:#00b8ee;}.cls-2,.cls-9{font-family:UDShinGoPro-Bold-90ms-RKSJ-H, A-OTF UD Shin Go Pro;}.cls-3{letter-spacing:-0.06em;}.cls-4{letter-spacing:-0.05em;}.cls-5{letter-spacing:-0.01em;}.cls-6{letter-spacing:0em;}.cls-7{letter-spacing:0.01em;}.cls-8{font-size:29.37px;letter-spacing:0.06em;}.cls-9{font-size:38.9px;}.cls-10{letter-spacing:-0.02em;}.cls-11,.cls-12{font-size:69.43px;}.cls-11{letter-spacing:-0.1em;}.cls-12{letter-spacing:-0.06em;}.cls-13,.cls-15{fill:none;}.cls-13{stroke:#fff000;stroke-miterlimit:10;stroke-width:1.48px;}.cls-14{font-size:36.74px;font-family:UDShinGoPro-Light-90ms-RKSJ-H, A-OTF UD Shin Go Pro;}.cls-16{font-size:16.33px;font-family:UDShinGoPro-DeBold-90ms-RKSJ-H, A-OTF UD Shin Go Pro;letter-spacing:0.12em;}.cls-17{letter-spacing:0.14em;}</style></defs><title>アセット 16</title><g id="レイヤー_2" data-name="レイヤー 2"><g id="レイヤー_1-2" data-name="レイヤー 1"><ellipse class="cls-1" cx="827.58" cy="170.26" rx="77.77" ry="51.13"/><polyline class="cls-1" points="790.99 212.66 779.4 232.98 811.2 217.71"/><path class="cls-1" d="M787.09,219.55c1.34-2.57,1.78-4.68-2.09-6.52s.94-5.88.94-5.88l22.85,9.76,5.4,1.84s1.26,1.92-2.07,1.57A19.93,19.93,0,0,0,800.87,222c-3.68,1.49-13.89,2.64-13.89,2.64A6.18,6.18,0,0,1,787.09,219.55Z"/><text class="cls-2" transform="translate(764.01 165.61)"><tspan class="cls-3">は</tspan><tspan class="cls-4" x="20.34" y="0">じ</tspan><tspan class="cls-5" x="40.84" y="0">め</tspan><tspan class="cls-6" x="62.21" y="0">て</tspan><tspan class="cls-7" x="83.82" y="0">の</tspan><tspan x="105.51" y="0">人</tspan><tspan class="cls-8"><tspan x="33.31" y="32.61">限定</tspan></tspan></text><text class="cls-9" transform="translate(355.66 131.25)"><tspan class="cls-10">第</tspan><tspan class="cls-11" x="38.12" y="4.69">1</tspan><tspan class="cls-12" x="77" y="4.69">1</tspan><tspan x="118.66" y="0">回</tspan></text><line class="cls-13" x1="322.73" y1="84.56" x2="348.43" y2="146.84"/><line class="cls-13" x1="323.39" y1="108.61" x2="342.17" y2="146.18"/><line class="cls-13" x1="546.14" y1="84.56" x2="520.44" y2="146.84"/><line class="cls-13" x1="545.48" y1="108.61" x2="526.7" y2="146.18"/><text class="cls-14" transform="translate(188.76 147) rotate(-46.74)">水</text><text class="cls-14" transform="translate(218.26 116.22) rotate(-39.16)">も</text><text class="cls-14" transform="translate(251.51 89.64) rotate(-31.56)">使</text><text class="cls-14" transform="translate(287.95 67.7) rotate(-23.94)">え</text><text class="cls-14" transform="matrix(0.96, -0.29, 0.29, 0.96, 325.15, 51.46)">る</text><text class="cls-14" transform="translate(364.2 40.07) rotate(-9.3)">ハ</text><text class="cls-14" transform="translate(405.28 33.67) rotate(-1.9)">イ</text><text class="cls-14" transform="matrix(1, 0.09, -0.09, 1, 446.72, 32.59)">ブ</text><text class="cls-14" transform="translate(486.59 36.57) rotate(12.6)">リ</text><text class="cls-14" transform="matrix(0.95, 0.32, -0.32, 0.95, 520.79, 44.11)">ッ</text><text class="cls-14" transform="translate(552.28 54.71) rotate(24.89)">ド</text><text class="cls-14" transform="matrix(0.85, 0.53, -0.53, 0.85, 588.95, 71.98)">油</text><text class="cls-14" transform="matrix(0.77, 0.64, -0.64, 0.77, 625.34, 95.38)">絵</text><text class="cls-14" transform="matrix(0.67, 0.74, -0.74, 0.67, 658.27, 123.45)">具</text><rect class="cls-15" x="84.44" y="317.89" width="12.51" height="20.99"/><rect class="cls-15" x="84.44" y="358.07" width="12.51" height="22.11"/><rect class="cls-15" x="117.66" y="317.89" width="13.07" height="20.99"/><rect class="cls-15" x="117.66" y="358.07" width="13.07" height="22.11"/><path class="cls-1" d="M166.6,408.63c-1.31-7-2.14-12.18-3-20.76l-11.83-78.19a156.23,156.23,0,0,1-1-17.38,120.89,120.89,0,0,1-15.31,2.31l-21.29,2.16-.77-7.54a93.15,93.15,0,0,1-.59-16.08l-24.1,2.45a84.09,84.09,0,0,1,2.55,14.83l.87,8.58-21.59,2.2a127.88,127.88,0,0,1-14,.82l3-4.64a176.46,176.46,0,0,0-28.8-15.9L18.34,299.34c12.43,6.2,17.52,9.27,28.84,17.68l9.13-14.52A147.53,147.53,0,0,1,58.48,318l4.7,81a176.49,176.49,0,0,1,1.16,18.71l26.1-2.91-.68-6.65,49.25-5,.69,6.81ZM101,386l-13.31,1.35L85.25,363.8l13.31-1.35ZM96.49,342,83.18,343.4l-2.27-22.33,13.31-1.36Zm19.76-24.57,13.9-1.41,2.27,22.33-13.9,1.41ZM123,383.73l-2.39-23.52,13.91-1.41,2.39,23.51Z"/><path class="cls-1" d="M22.89,417.3A24.6,24.6,0,0,1,19.58,423L41,437.87c6.26-16.32,9.49-28.6,13.21-50.79L34.08,376C31.05,394.66,27.93,406.63,22.89,417.3Z"/><path class="cls-1" d="M0,340.43a177.56,177.56,0,0,1,29.67,17l11-20.09A178.3,178.3,0,0,0,11.27,322Z"/><path class="cls-1" d="M545.84,301.42c-11,14.57-25.73,28.66-41.77,40.75a290.5,290.5,0,0,1-46,28.73,53,53,0,0,0-6.07,3.57,1.8,1.8,0,0,1-.78.31,1.64,1.64,0,0,1-1.73-.77c-4.85-6.07-10.64-13.23-16.36-19.4a101.64,101.64,0,0,0,10.06-4.13,292.17,292.17,0,0,0,46.54-28.41c17.36-13.23,33.31-28.43,46.92-47.25a68.7,68.7,0,0,0,9,20.12,10,10,0,0,1,1.09,2.46A4.74,4.74,0,0,1,545.84,301.42Zm-67.72-16.26a167.93,167.93,0,0,0-16.57,19.6,217.88,217.88,0,0,0-37-24.67c5-6.47,10.12-13.25,15.49-19.37a1.64,1.64,0,0,1,1-.77,1,1,0,0,1,1.07.34c1.13.61,2.15,1.39,3.74,2.19a198.59,198.59,0,0,1,32,20.88,1.87,1.87,0,0,1,.61.87A1,1,0,0,1,478.12,285.16Z"/><path class="cls-1" d="M848.06,395.82a1.56,1.56,0,0,1-1.39.58,1.77,1.77,0,0,1-1.35-1,35.57,35.57,0,0,0-2.61-4.13c-6.15-9.11-18.92-23.11-25.19-28.7-1.72,16-2.95,28.76-4.78,47-.28,3.65-.56,7.3-.64,10.53-4.2-.64-8.69-1.31-13.19-1.84s-9-.91-13.25-1.25c-1.45-.17-2-.68-1.81-2.13.66-3.16,1.21-6.63,1.78-10.24,2.58-18.25,4.83-36.25,6.94-54.26,1.82-15.54,3.6-30.79,5-46.53a111,111,0,0,0,.4-12.18c10,1.61,18.07,2.85,27.41,4.83,1.58.33,2.35,1.31,2.23,2.32a2.88,2.88,0,0,1-1.09,1.79,10,10,0,0,0-2.25,5.33c-.84,5.94-1.7,12-2.45,18.41s-2.26,22.16-3.1,29.28a96.4,96.4,0,0,0,12.3-12c.66-.66,1-.92,1.42-.86a1.57,1.57,0,0,1,1,.55c1.46,1.35,2.79,2.54,4,3.71,7.55,7.21,20.92,21.13,27.26,29.82,1.4,1.94,2.83,3.57,4.22,5.5C861.82,385.21,853.93,390.91,848.06,395.82Z"/><path class="cls-15" d="M254.2,297.73a91.38,91.38,0,0,1-13.07,17h27.81A98,98,0,0,1,254.2,297.73Z"/><path class="cls-15" d="M194,333.18a100.61,100.61,0,0,0,10.71-.69c-.84-2.92-1.25-4.18-3.06-9.18C198.87,326.92,196.92,329.57,194,333.18Z"/><path class="cls-1" d="M164.28,414.42l13.48,6.95c2.5-13.48,3.48-24.05,4-43.09l-13.2-2.09C167.89,394.4,166.92,403.44,164.28,414.42Z"/><path class="cls-1" d="M225.53,358a179.3,179.3,0,0,0-6.25-21.81l-11.61,3.36c5.84-7,11.57-14.64,14.9-19.18a30.42,30.42,0,0,1,3.17-4.13L209.85,307c-2.37,4.88-5.6,10-14.11,22.16-1.14-1.88-1.53-2.46-2.67-4.34a172.25,172.25,0,0,0,10.86-16.63c4.5-8,4.5-8,5.87-9.82l-17.63-8.14c-1.12,4.81-4.94,13.08-9.09,19.66L180,305.53l-10.3,16.66a158.9,158.9,0,0,1,14,22.55c-1.79,2-1.79,2-3.73,4.24l-1.39-.09c-6.1-.35-7.21-.56-9.68-1.12l.53,19.53a42,42,0,0,1,7.67-.25c1.4-.06,3.62.07,10.58.06l-2.23,38.17a140,140,0,0,1-1.85,17.44l19.71,1.15c-.41-4.9-.34-8.51.19-17.53l2.3-39.42c2.38-.14,2.38-.14,6.84-.3l.44,4.34,10.48-2.86,3.72-.83Zm-26.38-8.5c3.12-3.44,5.22-6,8.21-9.41,1.51,5.1,1.85,6.38,2.51,9.34A98.93,98.93,0,0,1,199.15,349.54Z"/><path class="cls-1" d="M237.07,347.54a65.82,65.82,0,0,0,7.53-6.21l.63,9.43c3.45-.51,7.46-.92,12.74-1.27l23.58-1.58a106.44,106.44,0,0,1,12.66-.29l-.7-10.4a65.61,65.61,0,0,0,9.55,5.21c2.18-9.06,4.16-14.77,7.76-21.42-16.76-6.82-29.85-17.09-36.46-28.49l-21,1.4c-4.48,14.23-13.48,25.56-28.52,36.05C230.91,336.67,233.84,340.79,237.07,347.54Zm29.21-34.14a98,98,0,0,0,15.84,15.94l-27.75,1.86A91.44,91.44,0,0,0,266.28,313.4Z"/><path class="cls-1" d="M275.37,384.69c4.6,6.24,6.13,8.37,8.17,11.72-6.74,1.28-10.33,1.8-14.47,2.36a22.25,22.25,0,0,0-3.46.37c3.19-8.57,5.84-16.83,7.72-24.06l20.26-1.36a122.77,122.77,0,0,1,16-.37l-1.38-20.53c-4.13.69-9.25,1.31-16.46,1.79l-43.84,2.94c-6.1.41-8.47.43-12.09.39l-1.66,0,1,10.18.67,10a140.47,140.47,0,0,1,15.08-1.57l.83-.06a228.38,228.38,0,0,1-7.52,25c-5.26.49-5.26.49-6.79.59l-4.77.39,1.17,6.13L237,423.07c3-.48,4-.68,7.85-1.36,7.46-1.06,20.13-3.3,37.88-6.58,1.8-.25,3.85-.81,10-2.48,1.6,3.1,2.41,4.86,4.52,9.32l22.09-10.5c-8.1-14.79-13.84-21.53-27.32-36.39Z"/><path class="cls-1" d="M224.93,409.28s0-2-.19-6.65A110,110,0,0,0,219.36,373l-12.05,1.25a297.74,297.74,0,0,1,.73,35.14Z"/><path class="cls-1" d="M418.37,380.51c-.14-13.9-.28-27.94-.28-42,0-15.57,0-30.31.42-45.6-17.1.28-34.62.55-51.44.55H349c-6.12,0-12.24,0-18.22-.14-3.47,0-7.09-.27-11-.55,0,7.51,0,15.71.42,22.94.14,1.25.41,2.08,1.81,2.08h.27c2.37-.27,5-.27,7.37-.41,10.15-.28,21.27-.42,33.92-.42h29.76l.27,46.44s.14,15-.13,23.07a77.63,77.63,0,0,1-.28,8.07c4.31-.14,8.62-.28,12.93-.28s8.48.14,12.65.28C418.51,390,418.37,385.24,418.37,380.51Z"/><path class="cls-1" d="M360.67,363.42c-11,0-22-.14-32.95-.14-2.91,0-5.83-.14-8.61-.42,0,5.14-.14,10.7-.14,16v6.53c0,1.25.55,1.81,1.94,1.81h.42c3.06-.14,5.7-.14,8.48-.14,18.63-.25,37.64-.39,57.46-.52V363.42Z"/><path class="cls-1" d="M562.33,317.35c11.81-.41,24.6-.41,37.12-.41s26.13,0,38.51.13c1.11,0,1.66-.13,1.66-1.39v-.41c-.27-6.54-.27-13.77-.27-20.72-2.23.14-4.59.28-7,.28-5.15.14-10.71.14-16.27.14H599.58c-10.14,0-21.13,0-31.56-.14-2.5,0-5-.14-7.5-.28l-.14,21.27C560.38,316.94,560.93,317.35,562.33,317.35Z"/><path class="cls-1" d="M580.19,388.6A56,56,0,0,1,562.11,400a60.64,60.64,0,0,1,17.38,12.93,4.08,4.08,0,0,0,3.2,1.67,6.24,6.24,0,0,0,2.5-.56c5.84-2.23,11.54-6.54,16.68-12,9-9.72,15.59-23.19,18.48-45.25H594.87C592.78,371.72,588.06,381.35,580.19,388.6Z"/><path class="cls-1" d="M659,328.2c-19.19.69-38.51,1-57.84,1-9.59,0-19,.14-28.64.14-7.09,0-14.32,0-21.41-.28-2.92,0-6-.28-8.76-.56-.27,5.15-.41,9.88-.41,14.6,0,2.09,0,4,.14,6,0,1.39.69,1.81,2.22,1.81,14.88-.56,30.17-.7,45.46-1l25.45.28c15.43,0,28.36,0,41.43.56h.55c1.25,0,1.67-.56,1.67-2-.14-3.06-.28-6-.28-9.17C658.53,335.84,658.67,332.09,659,328.2Z"/><path class="cls-1" d="M777.2,371.5A211.84,211.84,0,0,0,749,343.71a157.1,157.1,0,0,1-16.12,17.71,196.17,196.17,0,0,1,26.62,30.18c.67.85,1.22,1.29,1.77,1.3a2.38,2.38,0,0,0,1.69-.79,160.77,160.77,0,0,1,18.92-15.34A55.93,55.93,0,0,1,777.2,371.5Z"/><path class="cls-1" d="M767.45,302.49a40.88,40.88,0,0,1,3.34-5.47,2.32,2.32,0,0,0,.6-1.52,1.9,1.9,0,0,0-.66-1.41l-8.5-9.41a3.19,3.19,0,0,0-2.6-1.46h-.56a76.51,76.51,0,0,1-8.08.33l-69.77-1.63c-2.64-.07-5.28-.28-7.91-.49l-.4,24.74c2.37-.21,4.74-.28,7.66-.34q13.56-.26,29.62,0l27.53.48c-10.47,21.82-28.61,39.13-50.2,50.36a126.23,126.23,0,0,1-27.12,10.25,76.84,76.84,0,0,1,16,17,3.79,3.79,0,0,0,3,1.89,8,8,0,0,0,1.67-.23c5.33-1.38,11.37-3.86,19.28-8.23a151,151,0,0,0,28.09-20s10.5-11.57,15.91-17.65C752.24,329.61,760.68,315.79,767.45,302.49Z"/><path class="cls-1" d="M257.14,190.79a93.31,93.31,0,0,0-1,13.76l-.76,31.33c-.5,20.77-13,32.52-34.47,32.52-11.05,0-20-3.18-25.18-8.92-5-5.65-7.52-13.58-7.27-23.78l.75-31.15a91.12,91.12,0,0,0-.38-13.76H208a87.23,87.23,0,0,0-1,13.76l-.75,31.33c-.28,11.48,4.67,17,15.1,17,10.69,0,15.9-5.47,16.18-17l.75-31.33a90.26,90.26,0,0,0-.38-13.76Z"/><path class="cls-1" d="M338.55,213.16c.73,24.09-13.13,40.07-34.78,40.07-21.83,0-36.39-15.61-37.13-39.8s12.86-39.52,34.79-39.52S337.81,189.25,338.55,213.16Zm-18.54.18c-.45-14.79-7-25.84-17.79-25.84s-17.59,11.15-17.14,25.84c.46,14.88,7.42,24.1,18.29,24.1S320.47,228.31,320,213.34Z"/><path class="cls-1" d="M500,229.91c0,3-.85,4.35-3.28,5.66a86,86,0,0,1-28.41,9.35c-11.57,1.57-16.72-3.21-19.47-16.15-1-5-2.07-11.32-2.95-17.77-1.6-11.74-2.77-23-4.12-36.94-.07-.53-.15-1.06-.22-1.59a32.74,32.74,0,0,0-1-5,124,124,0,0,1,15.2-.72c.82.07,1,.4,1.25,1.27,0,.26.08.62.13,1,.18,1.32.31,2.93.47,4.79.9,11.93,2.45,25.3,3.74,34.75.81,6,1.67,11.65,2.61,15.92.78,3.77,2,5,6.36,4.45,9-1.23,19.7-5.29,31.19-12.07A70,70,0,0,0,500,229.91Zm-8.3-42.07a74.91,74.91,0,0,0-11.3-11.57l5-3.83a1.33,1.33,0,0,1,2.06.1A66.14,66.14,0,0,1,498.2,182.8Zm11.11-8.73a76.77,76.77,0,0,0-11.48-10.8l4.73-3.78a3.47,3.47,0,0,1,.85-.44,1.43,1.43,0,0,1,1.19.43,58.09,58.09,0,0,1,10.72,9.67Z"/><path class="cls-1" d="M575.61,240.87c-4.62,4.3-9.63,8-15.66,10a5.39,5.39,0,0,1-1.23.27c-1.33.19-2.24-.31-3.2-1.73a19.18,19.18,0,0,0-10.34-7.28c6.75-1.86,14.8-5.39,19.62-10.09,5.17-5,10.29-11,11.74-22.6.76-6-3.65-11.58-10.33-13.81-2.68,7.31-6.33,14.52-10.61,19.69,2,1.25,3.66,2.41,5.62,3.48a63.66,63.66,0,0,0-8.2,7.93,2,2,0,0,1-1.34.71,2.78,2.78,0,0,1-1-.35,38.66,38.66,0,0,1-3.39-2.23,46.17,46.17,0,0,1-15.68,10.25,18.17,18.17,0,0,1-5.88,1.15,10.42,10.42,0,0,1-6.86-2.4c-3.75-3.12-6.78-8.2-6.78-16.31,0-9.8,4.37-20.14,15.15-27.63-1.42-4.9-2.94-11.14-3.92-16.48-.27-1.52-.53-3-.89-4.64,4.46-.44,9.54-.71,13.81-.8.63,0,.8.18.8.8a22.88,22.88,0,0,0,.36,3.39c.54,3.56,1.25,7.57,2.05,11.5a55.43,55.43,0,0,1,16.76-2.59,120,120,0,0,0,2-16.22c5.08.54,10.07,1.25,14.35,2.05.71.09,1.06.45,1.06,1a1.75,1.75,0,0,1-.35,1.07,13.54,13.54,0,0,0-1,3.21c-.63,3.56-1.52,7.22-2.41,10.69,14,4.19,21.45,14.44,21.21,26.92C590.8,223.84,584.25,232.82,575.61,240.87Zm-44-37.9c-4.28,4.27-6.24,9.17-6.24,12.83,0,2,.27,3.3,1,4.19a2.34,2.34,0,0,0,1.87,1,3.32,3.32,0,0,0,1.43-.36,26.76,26.76,0,0,0,8.38-5.44A50.77,50.77,0,0,1,531.63,203Zm11.23-7.22a37.09,37.09,0,0,0,4.36,9.89,45.94,45.94,0,0,0,5.8-12A27.06,27.06,0,0,0,542.86,195.75Z"/><path class="cls-1" d="M672.53,188.15a2.31,2.31,0,0,1,.27,1c0,.71-.63,1-2,1-10.34,0-17.92,2-24.51,7a25,25,0,0,0-9.8,19.87c0,10.7,4.9,15,14.34,16.85a127.28,127.28,0,0,0,18.18,2,85.81,85.81,0,0,0-2.85,13.81c-.18,1.16-.71,1.43-1.78,1.43a97,97,0,0,1-20.76-2.86c-14.26-3.56-22.37-13.45-22.37-28.25a35.82,35.82,0,0,1,8.82-24.42c-10.43,2.23-21.39,4-30.48,5.08h-.53c-.9,0-1.16-.35-1.34-1.24L595.08,186c1.79,0,3.48-.18,5.62-.36,14-1.42,30.39-4.1,46.07-7,7.58-1.33,14.09-2.23,19.7-2.67h.36c1.07,0,1.51.44,2,1.51Z"/><path class="cls-1" d="M165.82,193.64c-6.72-4.91-15.88-6.68-26.73-5.16l-6.32.88,2.28,15.43,4.52-.63c6.36-.89,10.79-.07,14.31,2.58,3.93,3,6.37,8.2,7.42,15.7,1,7.33-.08,13.51-3.18,17.73-2.73,3.62-6.58,5.69-12.32,6.49L134,248.32l-6-42.54-2.53-15.39-4.84.67c-7.32,1-9.54,1.25-13.1,1.57a76.08,76.08,0,0,1,2.61,12.86l6.74,48.1a83.68,83.68,0,0,1,1.1,13c3.69-.7,6.15-1.13,12.94-2.09l18.62-2.61c10.51-1.47,18.47-5.64,23.57-12.3,5.76-7.64,7.93-17.85,6.24-29.94C177.71,207.9,173.15,199.09,165.82,193.64Z"/><path class="cls-1" d="M386.09,189.29h-4.63l2.94,12.48c.27,1,.54,1.25,1.52,1.25,3.69,0,7.81-.1,12.33-.28l-1.12-13.6C393.28,189.25,389.54,189.29,386.09,189.29Z"/><path class="cls-1" d="M378.19,173.79a127.26,127.26,0,0,0-13.93-3.88c-.48,2-1.05,4-1.64,6.19a230,230,0,0,0-7.51,38.46c-1.15,11-.39,21.74,1.25,28.27.77,2.95,2.24,4.35,5,5a20.73,20.73,0,0,0,2.19.4,4.55,4.55,0,0,0,4.37-1.51,52.71,52.71,0,0,0,9.62-16.56,7.47,7.47,0,0,0,.32-1.4,4.37,4.37,0,0,0-.46-2.38,24.57,24.57,0,0,1-3.54-9.06,45.46,45.46,0,0,1-5.3,8.77c0-2.87.18-6.88.57-10.61a193.55,193.55,0,0,1,7.73-35.39,18.38,18.38,0,0,1,1.89-4.37,2.09,2.09,0,0,0,.36-.86C379.19,174.43,378.88,174,378.19,173.79Z"/><path class="cls-1" d="M437.16,232.43a99.1,99.1,0,0,0-17.83-8.29c-.62-7.57-1.07-14.62-1.6-22.55,5-.53,9.89-1,14.08-1.78.71-.09,1.07-.36,1.07-1.25v-2.85c0-3.12.09-6.42.36-9.44-5.89.89-11,1.33-16.31,1.69-.27-3.57-.36-7-.45-10.52a9.94,9.94,0,0,1,.45-2.85,1.07,1.07,0,0,0,.18-.71c0-.54-.36-.8-1.07-.8-4.64-.45-9.36-.63-14.26-.63.44,5.35.8,10.79,1.16,16.49l.89,13.54c.53,6.42.89,12.48,1.42,19a34.25,34.25,0,0,0-5.52-.45c-10.34,0-17.2,4.9-17.2,12.75,0,9.8,7.93,16,20.32,16,5.26,0,9.27-.9,12.56-3,2.68-1.79,4.1-4.28,4.1-8.29v-.36a69.25,69.25,0,0,1,12.57,7.49c2-3.74,4-8.56,5.35-11.94a1.27,1.27,0,0,0,.08-.54A.79.79,0,0,0,437.16,232.43Zm-31.37,1.69c0,2.85-1.52,3.92-4.46,3.92-4.1,0-6.86-1.33-6.86-3.38,0-1.43,1.34-2.59,4.37-2.59a16.7,16.7,0,0,1,7,1.34Z"/><path class="cls-1" d="M720.87,191.1c-23.35,0-41.26,15.5-41.26,36.89,0,13.55,6,22.55,13.9,27.36a14.52,14.52,0,0,0,7.4,2.23,12.19,12.19,0,0,0,8-3.12c9.87-8.2,16.31-22.59,18.53-42a80.85,80.85,0,0,0-14.61.55c-1.24,13.05-5,21.35-10.52,26.84a3.68,3.68,0,0,1-2.49,1.34,3.2,3.2,0,0,1-2.23-1.34c-2.32-2.67-3.39-6.59-3.39-12.47-.08-9.63,6.51-19.34,19.08-22.1,3.62-.6,11.18-.91,14.79,0,12,1.78,17.82,11.22,17.82,21.29,0,7-3,12.48-9.27,16.94a47.58,47.58,0,0,1-16.93,7,25,25,0,0,1,9.71,8.37,2.93,2.93,0,0,0,2.59,1.52,11.36,11.36,0,0,0,1.52-.18,42.92,42.92,0,0,0,14.61-6.68c8.55-6.15,13.19-15.33,13.19-26.56C761.33,208.47,747,191.1,720.87,191.1Z"/><text class="cls-16" transform="translate(198.74 181.16)">デ<tspan class="cls-17" x="18.29" y="0">ュ</tspan><tspan x="36.9" y="0">オ</tspan></text></g></g></svg>