<svg xmlns="http://www.w3.org/2000/svg" viewBox="0 0 287.67 192.43"><defs><style>.cls-1{fill:#939494;}.cls-2{fill:#f4b0a9;}.cls-3{fill:#ddf1ff;}.cls-4{fill:none;stroke:#ff8191;stroke-miterlimit:10;stroke-width:2.6px;}.cls-5{fill:#f7b52c;}.cls-6{fill:#914e3f;}.cls-7{fill:#87b7be;}.cls-8{fill:#f2e7e5;}.cls-9{fill:#bf4847;}.cls-10{fill:#668bc0;}.cls-11{fill:#4f7ab6;}.cls-12{fill:#d2af87;}.cls-13{fill:#5a667d;}.cls-14{fill:#fff;}.cls-15{fill:#1b1e23;}.cls-16{fill:#6a7b61;}.cls-17{fill:#bebfbf;}.cls-18{fill:#d9e3e8;}.cls-19{fill:#d57976;}</style></defs><title>lp_postcard_application</title><g id="レイヤー_2" data-name="レイヤー 2"><g id="レイヤー_1-2" data-name="レイヤー 1"><path class="cls-1" d="M29,24.48s.5,15.07,5.81,18.65,26.89,11.2,31.84,11.53c4.4.28,5.51-3.21,4.27-9.06-.27-1.31-32.1-16.44-32.1-16.44Z"/><path class="cls-2" d="M78.18,35.38a4,4,0,0,0,1,1.78,5.5,5.5,0,0,0,1.24,1.13.68.68,0,0,0,.31.08A.77.77,0,0,0,81,38.3,5.18,5.18,0,0,0,82.9,37a7.85,7.85,0,0,0,.8-1.82,12.94,12.94,0,0,1,.75-1.36,23.86,23.86,0,0,1,2.9-4.07,12.81,12.81,0,0,1,1.89-1.57c.56-.4,1.18-.74,1.41-1.44a3.63,3.63,0,0,0-.14-2,17.56,17.56,0,0,0-.74-2.26c-.22-.53-.48-1-.75-1.57a2.23,2.23,0,0,0-.43-.65,1.6,1.6,0,0,0-2,.08A7.29,7.29,0,0,0,85.24,22a.6.6,0,0,1-.22.2.73.73,0,0,1-.33,0,1.91,1.91,0,0,0-1.85.83,2.43,2.43,0,0,0-.18.69c-.13.91-.35,1.85-.4,2.77a12.43,12.43,0,0,1-.1,2.11c-.22,1-1,1.31-1.49,2.05a31.55,31.55,0,0,0-1.8,2.79C78.52,34.07,78,34.67,78.18,35.38Z"/><path class="cls-1" d="M81.12,29.83l5.35,2.55s-11,19.49-15.32,22.11c-5.32,3.21-10.48-2.36-9.06-5.75.68-1.63,4.12-2.15,7.33-5.48C75.53,36.93,81.12,29.83,81.12,29.83Z"/><rect class="cls-3" x="66.49" y="19" width="132.36" height="173.43"/><rect class="cls-4" x="85.31" y="40.42" width="24.86" height="27.23"/><rect class="cls-4" x="122.23" y="45.15" width="14.21" height="14.21"/><rect class="cls-4" x="143.54" y="45.15" width="14.21" height="14.21"/><rect class="cls-4" x="164.85" y="45.15" width="14.21" height="14.21"/><path class="cls-5" d="M207.81,174.13l0-.08c.23-.73,1-.48,1.51-.09,1.87,1.35,2.82,3.34,3.85,5.23a18.5,18.5,0,0,1,1.88,4.79c.28,1.06.3,2.51-1.4,1.92a4.77,4.77,0,0,1-1.21-.62c-2.39-1.61-3-3.91-3.77-6.35a21.24,21.24,0,0,1-.69-2.72A6.09,6.09,0,0,1,207.81,174.13Z"/><polygon class="cls-2" points="215.43 169.41 210.61 176.66 209.1 174.94 212.59 167.74 215.43 169.41"/><path class="cls-2" d="M209.07,174.94l2.25.58s3.48,5.6.64,4.62C208.92,179.08,209.07,174.94,209.07,174.94Z"/><path class="cls-5" d="M213,179s-1.55-1.54-2.78-.57-.72,1-.72,1l1.82,2.67,2.17-.35Z"/><path class="cls-5" d="M233.71,180.62l0-.09c-.23-.72.55-.86,1.24-.77,2.4.29,4.4,1.55,6.41,2.69a22.35,22.35,0,0,1,4.47,3.21c.86.77,1.75,2-.05,2.27a5.46,5.46,0,0,1-1.4,0c-3-.28-4.88-2-7-3.68a26.29,26.29,0,0,1-2.21-2A7,7,0,0,1,233.71,180.62Z"/><path class="cls-6" d="M238.05,34a13,13,0,0,0-.34-2.69c-.27-1.07-.7-2.24.58-2.9,2.5-1.29,4.72,1.38,5.81,3.07A10.48,10.48,0,0,1,245.69,38a6.3,6.3,0,0,1-1.32,3.32c-.69.85-1.86,1.9-.65,2.86a2.15,2.15,0,0,1-.24-.18,1.52,1.52,0,0,0,1.16.66c-.71,1-2.45.8-3.51.38-2.36-.91-2.38-2.41-2.93-4.33C237.56,38.52,238.12,36.32,238.05,34Z"/><path class="cls-7" d="M236.45,116.45s-4.36,25-9.7,36.94c-2.19,4.89-12.12,18.24-12.12,18.24l-4-1.24c-.34-.1,9.58-19.22,9.58-19.22L224.88,114Z"/><polygon class="cls-2" points="237.37 173.09 237.61 181.48 235.3 180.72 233.96 172.97 237.37 173.09"/><path class="cls-2" d="M235.27,180.73l2.26-.54s6.31,3.16,3.31,3.63C237.62,184.32,235.27,180.73,235.27,180.73Z"/><path class="cls-7" d="M245.58,113.64s-6,27.58-6.66,40.35c-.48,9.94-.74,19.94-.74,19.94l-4.66-.48c-1.05-.11-1-60.17-1-60.17Z"/><path class="cls-8" d="M223.59,48.51s-2.91,1-5,6.17-5.93,24.53-5.93,24.53l6.73-1.58,3.8-13.82Z"/><path class="cls-8" d="M222.47,73s-.95-22.7-.95-22.7L227,46l9.76-.08L243,50.18l-.75,23.44Z"/><polygon class="cls-9" points="222.75 72.51 223.2 48.49 226.61 46.06 227.73 57.21 236.15 57.02 236.63 45.84 240.17 48.12 241.73 71.57 253.18 135.28 236.55 135.85 212.24 136.65 222.75 72.51"/><path class="cls-6" d="M242.47,27.66c-.92,4.37-6,8.26-6,8.26l-10.15-.29s-4.37-3.72-4.16-7.6a19.39,19.39,0,0,1,.5-3.74,6.93,6.93,0,0,1,1.61-3.23A11.73,11.73,0,0,1,231,18.18a19,19,0,0,1,2.43-.17c.53,0,.85,0,.85,0h0l2.07.52s.31.13.79.39C239.07,20,243.63,22.22,242.47,27.66Z"/><path class="cls-2" d="M240.08,31.4c0,4-3.84,7.26-8.55,7.24s-8.5-3.27-8.48-7.29,3.83-7.26,8.53-7.24S240.09,27.38,240.08,31.4Z"/><path class="cls-2" d="M244.14,31.44a2.72,2.72,0,0,1-5.39,0,2.72,2.72,0,0,1,5.39,0Z"/><path class="cls-6" d="M223.49,26.31a12.41,12.41,0,0,0-.7,2.35c-.08.46-.42,1.54,0,1.93a24,24,0,0,1,1.47-2.09A23.29,23.29,0,0,1,227,26.26a4,4,0,0,1-.43,1.46,11.43,11.43,0,0,0,3.32-2.22c.8,1.15,2.43,2,3.65,2.7a13.13,13.13,0,0,0,4,1.84,9.76,9.76,0,0,1-1.31-2.91c.79.85,1.21,2,2,2.89a7.45,7.45,0,0,0,2.34,2c1-1.65,1.73-3.16,1.35-5.14a8.06,8.06,0,0,0-2.35-4,8.17,8.17,0,0,0-4.09-2,7.52,7.52,0,0,1-1.72-.25,2.77,2.77,0,0,0-1.35-.3A10.58,10.58,0,0,0,226,22.57,7.66,7.66,0,0,0,223.49,26.31Z"/><path class="cls-2" d="M231.49,46.33l-4.94,0a7.26,7.26,0,0,0,1.57-1.19c1.25-1.09,1.64-8.61,1.64-8.61l1.59,0v0l1.59,0s.83,7.49,2.15,8.52l1.32,1-4.62.29v0h-.3Z"/><path class="cls-8" d="M240.46,49.23s1.67-.13,4.59,4.67,5.69,22.74,5.69,22.74l-5,1.3Z"/><path class="cls-5" d="M241,182.35s-2.25-.6-2.72.79,0,1.18,0,1.18l3.15,1.44,1.64-1.3Z"/><polygon class="cls-10" points="204.36 143.68 190.52 134.33 275.44 8.47 287.67 16.81 204.36 143.68"/><polygon class="cls-11" points="194.78 137.21 190.52 134.33 275.44 8.47 280.49 11.88 194.78 137.21"/><path class="cls-2" d="M229.54,72.45c-.4,0-.8,0-1.19,0a6,6,0,0,0-2.58.69,12.38,12.38,0,0,0-1.68,1.72,68,68,0,0,1-5.94,5.46c-1.27.84-4.47,3-6,1.29-.45-.49-.22-1.1-.12-1.65s.42-.83.93-1.26c1.83-1.54,11.45-7.66,12.67-8.26,1.86-.91,8.11-4,9.49-4.22a8,8,0,0,1,1.62-.18,11.18,11.18,0,0,1,1.49.37c.59.17,1.09.45,1.7.59.43.1.89.2,1.34.28.19,0,.8,0,.9.18s-.4.44-.66.44c.39.11.79.21,1.17.33a4,4,0,0,1,1,.38c.59.71-2.13.4-2.5.32-.86-.18-1.66-.35-2.49-.6a4.79,4.79,0,0,0-2.16.13c.59.1,1.21.08,1.8.15a2.9,2.9,0,0,1,1.33.6,13.39,13.39,0,0,0,2,1c.25.11.82.31.75.58-.19.78-2.76-.47-3.2-.68a11.75,11.75,0,0,0-2.51-.45,2.82,2.82,0,0,1,2,1.11,8.74,8.74,0,0,0,.73.88c.12.16.61.59.57.78-.08.35-.81.15-1.12,0a2.9,2.9,0,0,1-1.1-.85,3,3,0,0,0-1.25-.68,4.25,4.25,0,0,0-3.3.15,13.83,13.83,0,0,1-2.1,1.08A5.52,5.52,0,0,1,229.54,72.45Z"/><path class="cls-2" d="M255.68,63c0,.34.11.69.15,1a4.24,4.24,0,0,1-.39,2.35,11.94,11.94,0,0,1-1.68,1.73,66.79,66.79,0,0,0-5.25,6c-.76,1.23-2.67,4.35-.54,5.42a2.56,2.56,0,0,0,1.88-.16,2.32,2.32,0,0,0,1.28-1,143.28,143.28,0,0,0,7.39-12.3c.74-1.75,3.3-7.68,3.31-8.9a4.82,4.82,0,0,0-.05-1.42,6.94,6.94,0,0,0-.64-1.24c-.28-.48-.67-.87-.92-1.37s-.37-.73-.52-1.11c-.07-.16-.17-.69-.34-.75-.33-.14-.43.41-.4.64-.17-.32-.35-.65-.55-1s-.4-.75-.58-.83c-.89-.39-.13,1.91,0,2.22.35.72.66,1.37,1.06,2.06s.18,1.16.19,1.88c-.2-.49-.28-1-.45-1.53a2.41,2.41,0,0,0-.87-1.05,11,11,0,0,1-1.47-1.51c-.17-.21-.48-.67-.78-.56-.84.29,1,2.31,1.27,2.66.5.55.55,1.42.88,2.09a2.55,2.55,0,0,0-1.55-1.53c-.39-.12-.74-.33-1.11-.48-.2-.09-.75-.44-1-.37-.38.13,0,.72.13,1a2.81,2.81,0,0,0,1.12.81,2.53,2.53,0,0,1,1,1,2.93,2.93,0,0,1,.34,2.87,11.23,11.23,0,0,0-.9,2A3.61,3.61,0,0,0,255.68,63Z"/><polygon class="cls-12" points="190.55 134.33 186.86 154.55 204.39 143.67 190.55 134.33"/><polygon class="cls-13" points="186.86 154.55 192.36 151.14 188.06 147.96 186.86 154.55"/><polygon class="cls-14" points="42.59 145.13 41.84 183.82 37.43 183.82 34.03 145.37 42.59 145.13"/><polygon class="cls-14" points="11.94 145.13 12.69 183.82 17.09 183.82 20.46 146.38 11.94 145.13"/><path class="cls-15" d="M18.92,186.14c0,.32,0,.63,0,.89,0,1.38.09,1.83-1.39,2.14a6.89,6.89,0,0,1-3.83-.45c-1.29-.55-1.2-1-2.68-.13a7.76,7.76,0,0,1-2.48,1.27c-1.17.24-9.47.5-8.42-2,.36-.85,1.54-1,2.59-1.1.45,0,.88-.06,1.21-.11,2.8-.47,5.2-3.38,7-5.24,1.93-2,2.66,1,4.52,1.2.83.07,1.43-.1,1.92-.06a1.36,1.36,0,0,1,1.06.71A5.67,5.67,0,0,1,18.92,186.14Z"/><path class="cls-16" d="M11.12,90.56l-.74,88.21,8.43,0,10.58-75.13L35,178.39h9.34L45.71,90S11.42,89.76,11.12,90.56Z"/><path class="cls-15" d="M35.61,186.14c0,.32,0,.63,0,.89,0,1.38-.09,1.83,1.39,2.14a6.88,6.88,0,0,0,3.83-.45c1.29-.55,1.2-1,2.68-.13A7.72,7.72,0,0,0,46,189.86c1.17.24,9.47.5,8.41-2-.36-.85-1.54-1-2.59-1.1-.45,0-.88-.06-1.21-.11-2.8-.47-5.2-3.38-7-5.24-1.93-2-2.65,1-4.52,1.2-.83.07-1.42-.1-1.92-.06a1.36,1.36,0,0,0-1.06.71A5.57,5.57,0,0,0,35.61,186.14Z"/><path class="cls-17" d="M24.09,25.72l-11.64,8C12.3,38,12.85,43,12,47.2a7.48,7.48,0,0,0-.3,3.89c.28,1.35.79,2.66,1,4A54.09,54.09,0,0,1,13.91,66.3c-.11,4.11-.45,8.24-.65,12.35-.17,3.38.35,6.53.23,9.88,9.37,2.16,19.14,1.64,28.75,1.1a2,2,0,0,0,1.33-.42A1.92,1.92,0,0,0,44,87.92c.37-7.3-.38-14.42-.32-21.72q.12-16.1.26-32.2l-9.08-6.91Z"/><path class="cls-1" d="M11.89,75.24c0,1.1,0,2.21-.12,3.31-.24,3.23-.55,5.63-.91,9-.34,3.13-.41,4.06,3,4.46s7.36,0,10.9-.1c1.91,0,2-13.37,2-15.07.06-4.75.12-13,.19-17.72,0-1.84,0-3.69.07-5.53a9.27,9.27,0,0,0,0-2.17S22,31.14,20.66,28.09c-.4-.92-5.62,1.29-9.36,3.93-1.93,1.36.86,5.1.56,8.07C11.66,42,9.37,44,9.07,46c-.39,2.58.47,5.4,1,8a78.2,78.2,0,0,1,1.32,9.73C11.61,66.47,11.91,72.6,11.89,75.24Z"/><path class="cls-1" d="M45.62,91.28l1.4-.34a80.68,80.68,0,0,0-1.13-12.19,54,54,0,0,1-1-8.58s1.07-37.88,1.07-37.88l-9.35-4L31.8,53.78c.16,7.29.39,14.59.76,21.87C32.83,81,33.62,86.22,34,91.58a.84.84,0,0,0,.15.52.81.81,0,0,0,.57.18A41.71,41.71,0,0,0,45.62,91.28Z"/><path class="cls-2" d="M32.55,22.48l1.56,6.58c-1.56.92-4,3.08-5.87,2.93a9.23,9.23,0,0,1-4.06-2.15A11,11,0,0,1,22.43,28l2.33-5.3Z"/><path class="cls-2" d="M36.82,7A3.35,3.35,0,0,0,35.5,5.85a10.77,10.77,0,0,0-6.29-.69,10.8,10.8,0,0,0-6.3.69A3.35,3.35,0,0,0,21.59,7a4.1,4.1,0,0,0-.46,2.61c.13,2.49.21,5,.37,7.48.08,1.26.18,2.53.32,3.79.12,1.11.69,1.62,1.83,2.38a12.32,12.32,0,0,0,2.64,1.5,8.58,8.58,0,0,0,2.92.3,8.55,8.55,0,0,0,2.91-.3,12.32,12.32,0,0,0,2.64-1.5c1.14-.76,1.71-1.27,1.83-2.38.14-1.26.24-2.53.32-3.79.16-2.49.24-5,.37-7.48A4,4,0,0,0,36.82,7Z"/><path class="cls-2" d="M39.56,14c0,1.42-1.57,2.58-3.54,2.57S32.45,15.4,32.45,14,34,11.4,36,11.4,39.56,12.55,39.56,14Z"/><path class="cls-2" d="M25.63,13.11c.22,1.41-1.19,2.75-3.14,3s-3.7-.7-3.92-2.1,1.19-2.76,3.13-3S25.41,11.7,25.63,13.11Z"/><path class="cls-18" d="M38.44,4.81a3.85,3.85,0,0,0-1.95-2c-.24-.1-.61-.11-.81-.22s-.39-.48-.56-.68C33.22-.33,30-.17,27.26.27a9.31,9.31,0,0,0-6.13,3.79A7.91,7.91,0,0,0,20.06,7.3a36.11,36.11,0,0,0-.3,4.33c.44-.06,1.2,0,1.44.39a5,5,0,0,1,.47,2.54,4.07,4.07,0,0,1,.87-.18c.07-1.71-.59-3.92.74-5.36a7.63,7.63,0,0,1,1.93-1.36c.82-.46,1.62-1,2.45-1.42a6,6,0,0,1-1.49,1.58A20,20,0,0,0,29,7,24.48,24.48,0,0,0,33.8,5.24a13.11,13.11,0,0,0,.86,2.54c.26.53.68,1,1,1.5.78,1.36.17,3.46.23,4.93a6.91,6.91,0,0,0,.91,0,4.67,4.67,0,0,1,.42-1.65,1.28,1.28,0,0,1,1.21-.5s.08-.46.1-.59a24.08,24.08,0,0,0,.42-3A8.35,8.35,0,0,0,38.44,4.81Z"/><path class="cls-19" d="M29.35,26h-.48a7.52,7.52,0,0,1-2.81-.33,8.54,8.54,0,0,1-1.75-1.06.21.21,0,0,1,0-.3.22.22,0,0,1,.31-.05,8.49,8.49,0,0,0,1.66,1,6.93,6.93,0,0,0,2.64.3,7,7,0,0,0,2.66-.3,7.24,7.24,0,0,0,1.13-.62.22.22,0,0,1,.24.36,7.82,7.82,0,0,1-1.2.67A6.37,6.37,0,0,1,29.35,26Z"/><path class="cls-18" d="M31.64,23.59h0c-.63-.41-.86-1.12-1.5-.28-.71-.66-.8.14-1.35.07-.26,0-.29-.42-.65-.33s-.35.48-.46.63c-.5.62-1.17.32-2,.1a5.31,5.31,0,0,1-3-2.81c-.2-.34-.82-2.57-1.07-1.19-.17.95.7,3,1.21,3.75a6.38,6.38,0,0,0,3.62,2.41,8.27,8.27,0,0,0,2.71.33,11.11,11.11,0,0,0,4.58-1.39,5.33,5.33,0,0,0,2.61-3c.17-.45,1-2.44.26-2.71-.33-.13-.67.35-.78.58C35.36,20.73,33.5,25,31.64,23.59Z"/><path class="cls-18" d="M31.58,19.81a7.88,7.88,0,0,0-3.21-.29c-.36,0-2.91.58-2.39,1.28.18.25.79-.18,1.09-.17-.16.76.82-.07,1.05-.08.05.91.76.12,1.15.08.14.8.77.27,1.15,0,.12.16.28.41.55.38s.14-.33.29-.33c.55,0,1.14.52.92-.09A1.75,1.75,0,0,0,31.58,19.81Z"/><path class="cls-1" d="M8.63,40.92s-1.5,4.21,1.82,7c9.79,8.24,19,15.71,19,15.71l6.83-6L21.56,38.33Z"/><path class="cls-2" d="M57.89,66.36a9.15,9.15,0,0,0,1.39.22c1.15.1,2.32,0,3.48,0a7.23,7.23,0,0,0,2.36-.36c.66-.21,1.33-.3,2-.46a4.65,4.65,0,0,1,1-.24,3.3,3.3,0,0,1,2,.91,25.4,25.4,0,0,1,2.13,1.72c.33.33.63.72.25,1.12s-1.1.31-1.56-.12-1-.86-1.45-1.23c-.68-.5-1.83-.15-2.63-.13a14,14,0,0,1,2.65.62,4.55,4.55,0,0,1,1.65,1,9.15,9.15,0,0,1,.86.79c.36.35.86.56,1.2.94s.19.89-.29,1.2c-.64.43-1.31-.11-1.83-.47a11.63,11.63,0,0,1-1.45-1.25,2.26,2.26,0,0,0-.9-.6,3.62,3.62,0,0,0-1.22-.23c-.32,0-.68.15-1,0,1,.33,2.36.67,2.94,1.61a11.88,11.88,0,0,0,1,1.46,5.63,5.63,0,0,1,.9,1.23c.15.31.13.41-.2.53a1.29,1.29,0,0,1-1,.07c-.64-.3-.9-1.11-1.5-1.41a3.05,3.05,0,0,1,.94,1.2c.14.52-.72.77-1.1.69a3.18,3.18,0,0,1-1.18-.88c-.38-.32-.8-.57-1.17-.89a3.2,3.2,0,0,0-1-.75,5.42,5.42,0,0,0-1.66-.05c-1.34,0-2.67,0-4-.08a3.91,3.91,0,0,1-2-.9,15.68,15.68,0,0,0-1.89-1,7.14,7.14,0,0,1-1.73-1.2c-.61-.58-.81-1-.5-1.75s1.1-2.53,2.3-2A13.21,13.21,0,0,0,57.89,66.36Z"/><path class="cls-1" d="M58.68,66.37S33.46,52.74,31.45,55.7s-4,7.3.2,8.69S58.28,72,58.28,72Z"/><path class="cls-1" d="M11.23,52.08C6.37,45.84,6.18,34.79,11.3,32s6.93,1.38,6.93,1.38L15.9,44.56S13,54.41,11.23,52.08Z"/><path class="cls-2" d="M87,17.08a.58.58,0,0,0-.3-.25c-1.93-.93-5.33-.24-6.94.56-.37.18-.8.49-.66.85a.85.85,0,0,0,.29.31c1.66,1.23,2.31,1.24,3.28,3.12a17.48,17.48,0,0,1,.56,1.91c.06.16.46.78.73.67s.07-1,.1-1.24a3.85,3.85,0,0,0,0-1.62,6.29,6.29,0,0,1-.39-1.62c.52.57,1.29,1.08,1.24,1.91,0,.38-.5,2.89.39,2.64.51-.13.73-2.59.75-3a6.59,6.59,0,0,0-.61-2c.25.39.45.84.68,1.26a3,3,0,0,1,.47.93c.07.66-.8,1.85-.42,2.78.5,1.2,1.7-2.65,1.75-2.84.2-.71.22-.79-.1-1.34a5.52,5.52,0,0,1-.56-1.27,6.51,6.51,0,0,1,1.44,2.08c.06.45-.58,2-.4,2.58s.75.82,1.09-.55,1.1-1.78.64-3.1S87,17.08,87,17.08Z"/><path class="cls-2" d="M79.77,17.69a18.63,18.63,0,0,1-3.12.35c-.81-.1-.69,1.22,1.39,1.37a6.76,6.76,0,0,0,3.52-.66l1.91-.56Z"/></g></g></svg>