<svg xmlns="http://www.w3.org/2000/svg" viewBox="0 0 532.28 228.56"><defs><style>.cls-1{fill:#f7b52c;}.cls-2{fill:#f4b0a9;}.cls-3{fill:#914e3f;}.cls-4{fill:#87b7be;}.cls-5{fill:#f2e7e5;}.cls-6{fill:#bf4847;}.cls-7{fill:#f4e7c7;}.cls-8{fill:#e2c8a1;}.cls-9{fill:#a49a93;}.cls-10{fill:#e39a4e;}.cls-11{fill:#d48431;}.cls-12{fill:#8f670f;}.cls-13{fill:#d9e3e8;}.cls-14{fill:#6b767b;}.cls-15{fill:#55524e;}.cls-16{fill:#393432;}.cls-17{fill:#1b1e23;}.cls-18{fill:#383f45;}.cls-19{fill:#2e3339;}.cls-20{fill:#1a1e23;}.cls-21{fill:#939494;}.cls-22{fill:#c2c3c3;}.cls-23{fill:#102141;}.cls-24{fill:#3c3736;}.cls-25{fill:#c0d1da;}.cls-26{fill:#522726;}.cls-27{fill:#0e0000;}.cls-28{fill:#fff;}.cls-29{fill:#f0d9b4;}.cls-30{fill:#fcecd7;}.cls-31{fill:#a99187;}.cls-32{fill:#dc9d67;}.cls-33{fill:#ce8352;}.cls-34{fill:#b79465;}.cls-35{fill:#866a60;}.cls-36{fill:#cbab82;}.cls-37{fill:#5b78ba;}.cls-38{fill:#6a5150;}.cls-39{fill:#f09692;}.cls-40{fill:#be8f53;}.cls-41{fill:#ebb67e;}.cls-42{fill:#6fb92c;}.cls-43{fill:#fff237;}.cls-44{fill:#e95733;}.cls-45{fill:#eb6b44;}.cls-46{fill:#00b0ec;}.cls-47{fill:#f08d29;}</style></defs><title>lp_people_left</title><g id="レイヤー_2" data-name="レイヤー 2"><g id="レイヤー_1-2" data-name="レイヤー 1"><path class="cls-1" d="M97.85,194a.29.29,0,0,1,0-.09c-.23-.69-.94-.45-1.45-.08-1.78,1.29-2.69,3.19-3.67,5a17.54,17.54,0,0,0-1.8,4.57c-.26,1-.28,2.39,1.34,1.83a5.24,5.24,0,0,0,1.16-.58c2.28-1.54,2.85-3.73,3.6-6.07a21.33,21.33,0,0,0,.65-2.59A5.76,5.76,0,0,0,97.85,194Z"/><polygon class="cls-2" points="90.58 189.45 95.18 196.37 96.62 194.73 93.29 187.86 90.58 189.45"/><path class="cls-2" d="M96.65,194.73l-2.15.55s-3.32,5.34-.61,4.4C96.79,198.68,96.65,194.73,96.65,194.73Z"/><path class="cls-1" d="M92.9,198.57s1.48-1.47,2.66-.54.68.95.68.95l-1.74,2.55-2.07-.34Z"/><path class="cls-1" d="M73.14,200.14l0-.08c.22-.69-.52-.82-1.18-.74-2.29.28-4.2,1.48-6.11,2.57A21.52,21.52,0,0,0,61.61,205c-.82.74-1.67,1.91,0,2.17a5.48,5.48,0,0,0,1.34,0c2.86-.26,4.66-1.87,6.69-3.51a22.58,22.58,0,0,0,2.11-1.91A6.6,6.6,0,0,0,73.14,200.14Z"/><path class="cls-3" d="M81.58,59.56A12.46,12.46,0,0,0,81.26,57c-.26-1-.67-2.14.55-2.77,2.39-1.23,4.51,1.31,5.54,2.93a10,10,0,0,1,1.52,6.23,6.07,6.07,0,0,1-1.26,3.16c-.66.82-1.77,1.82-.62,2.74a2,2,0,0,1-.23-.18,1.43,1.43,0,0,0,1.1.63c-.67,1-2.33.76-3.34.37-2.25-.88-2.27-2.31-2.79-4.14C81.11,63.84,81.65,61.73,81.58,59.56Z"/><path class="cls-4" d="M70.53,138.92s4.16,23.87,9.25,35.25c2.09,4.66,11.56,17.4,11.56,17.4l3.86-1.18c.33-.1-9.13-18.34-9.13-18.34l-4.5-35.51Z"/><polygon class="cls-2" points="69.65 192.96 69.42 200.97 71.63 200.24 72.91 192.85 69.65 192.96"/><path class="cls-2" d="M71.65,200.25l-2.15-.52s-6,3-3.16,3.47C69.41,203.68,71.65,200.25,71.65,200.25Z"/><path class="cls-4" d="M61.82,136.25s5.77,26.31,6.36,38.49c.45,9.49.7,19,.7,19l4.44-.46c1-.11,1-57.41,1-57.41Z"/><path class="cls-5" d="M82.79,74.11s2.79,1,4.78,5.88,5.66,23.41,5.66,23.41l-6.42-1.51L83.19,88.7Z"/><path class="cls-5" d="M83.87,97.5s.91-21.66.91-21.66l-5.23-4.1-9.3-.08-6,4L65,98.07Z"/><polygon class="cls-6" points="83.6 97 83.17 74.09 79.92 71.78 78.85 82.41 70.81 82.23 70.36 71.56 66.98 73.73 65.49 96.11 54.57 156.88 70.44 157.44 93.62 158.19 83.6 97"/><path class="cls-3" d="M85.8,53.48C84.92,57.64,80,61.35,80,61.35l-9.69-.27s-4.17-3.55-4-7.25a19.33,19.33,0,0,1,.48-3.57,6.67,6.67,0,0,1,1.53-3.08,11.29,11.29,0,0,1,6.43-2.75,18.86,18.86,0,0,1,2.32-.16c.5,0,.81,0,.81,0h0l2,.5s.29.12.75.36C82.56,46.14,86.9,48.28,85.8,53.48Z"/><path class="cls-2" d="M83.51,57c0,3.83-3.66,6.93-8.14,6.91s-8.12-3.12-8.1-7,3.66-6.93,8.14-6.91S83.53,53.21,83.51,57Z"/><path class="cls-2" d="M87.39,57.08a2.59,2.59,0,1,1-2.56-2.26A2.42,2.42,0,0,1,87.39,57.08Z"/><path class="cls-3" d="M67.69,52.19A11.77,11.77,0,0,0,67,54.43c-.07.44-.4,1.47,0,1.84a21.86,21.86,0,0,1,1.41-2,21.22,21.22,0,0,1,2.69-2.14,3.66,3.66,0,0,1-.42,1.4,11,11,0,0,0,3.17-2.13A11.05,11.05,0,0,0,77.32,54a12.43,12.43,0,0,0,3.78,1.76A9.28,9.28,0,0,1,79.84,53c.76.81,1.16,1.91,2,2.75A7,7,0,0,0,84,57.62c.92-1.58,1.65-3,1.29-4.91A7.69,7.69,0,0,0,79.17,47a7,7,0,0,1-1.65-.24,2.72,2.72,0,0,0-1.28-.29A10.15,10.15,0,0,0,70,48.62,7.29,7.29,0,0,0,67.69,52.19Z"/><path class="cls-2" d="M75.26,72l4.72,0a7,7,0,0,1-1.5-1.14c-1.2-1-1.57-8.21-1.57-8.21l-1.52,0v0l-1.52,0s-.78,7.15-2,8.13l-1.26,1L75,72v0h.28Z"/><path class="cls-5" d="M66.7,74.79s-1.59-.12-4.37,4.46S56.9,101,56.9,101l4.76,1.23Z"/><path class="cls-1" d="M66.16,201.8s2.14-.58,2.59.75,0,1.13,0,1.13l-3,1.37-1.56-1.24Z"/><path class="cls-7" d="M127.78,175.87c9.15,11.29,5.61,25.18,11.5,30.36a12.93,12.93,0,0,1-5.89-2.83l2.36,2.83s-17.43-.89-24-19.51l7.07-10.86Z"/><path class="cls-8" d="M122.89,177.84A40.88,40.88,0,0,1,133,196s-.16-11.78-8-20.48Z"/><path class="cls-8" d="M117.92,176.69a43,43,0,0,1,11.82,15.84s-2.8-11.17-10.94-18.31Z"/><path class="cls-9" d="M106.64,173.05l-5.56-8.22-.5-11.92,10.87,4.91,5.56,8.23c2.24,3.32,7.07,4.34,10.77,9.82l-8,5.42-8,5.43C108,181.23,108.89,176.38,106.64,173.05Z"/><polygon class="cls-10" points="101.08 164.83 111.45 157.82 6.95 5.8 0 10.57 101.08 164.83"/><polygon class="cls-11" points="108.26 159.98 111.45 157.82 6.95 5.8 4.08 7.74 108.26 159.98"/><path class="cls-2" d="M77.12,97c.38,0,.76,0,1.14,0a5.58,5.58,0,0,1,2.46.66,10.76,10.76,0,0,1,1.6,1.64A67.79,67.79,0,0,0,88,104.49c1.21.8,4.26,2.83,5.75,1.23.43-.47.21-1,.12-1.57s-.4-.8-.9-1.21c-1.73-1.47-10.91-7.31-12.08-7.88-1.77-.87-7.74-3.84-9-4a7.32,7.32,0,0,0-1.54-.16,8.78,8.78,0,0,0-1.43.35c-.56.16-1,.42-1.62.56-.42.1-.85.19-1.28.27-.18,0-.76,0-.86.17s.38.41.63.42c-.38.1-.76.19-1.12.32a3.64,3.64,0,0,0-1,.35c-.56.68,2,.39,2.38.31.83-.18,1.59-.34,2.39-.57a4.33,4.33,0,0,1,2,.12c-.56.09-1.15.08-1.72.15a2.7,2.7,0,0,0-1.26.56,12.22,12.22,0,0,1-1.86,1c-.25.1-.79.29-.72.56.18.74,2.63-.45,3-.66a10.74,10.74,0,0,1,2.4-.42,2.65,2.65,0,0,0-1.89,1,9.34,9.34,0,0,1-.69.84c-.12.16-.59.56-.55.75s.77.14,1.07,0a2.69,2.69,0,0,0,1-.81,2.85,2.85,0,0,1,1.19-.64,4,4,0,0,1,3.14.13,13.25,13.25,0,0,0,2,1A5.32,5.32,0,0,0,77.12,97Z"/><path class="cls-2" d="M52.18,87.9c0,.33-.11.66-.14,1a4.05,4.05,0,0,0,.37,2.24A11.41,11.41,0,0,0,54,92.78a66.41,66.41,0,0,1,5,5.75c.72,1.18,2.55,4.15.51,5.17a2.38,2.38,0,0,1-1.79-.15,2.19,2.19,0,0,1-1.22-1,133.29,133.29,0,0,1-7.05-11.74c-.72-1.67-3.15-7.32-3.17-8.48a5.14,5.14,0,0,1,0-1.36A6.59,6.59,0,0,1,47,79.82c.27-.46.64-.83.88-1.31s.35-.7.5-1.06c.07-.15.16-.66.32-.72.32-.13.42.4.39.61.16-.3.33-.62.52-.91s.38-.72.55-.79c.85-.37.13,1.82,0,2.11-.33.69-.63,1.32-1,2s-.17,1.11-.18,1.8c.19-.48.26-1,.43-1.47a2.26,2.26,0,0,1,.83-1,10,10,0,0,0,1.4-1.44c.16-.2.46-.64.74-.54.81.28-.9,2.21-1.2,2.54-.48.53-.53,1.36-.84,2a2.36,2.36,0,0,1,1.47-1.46,9.16,9.16,0,0,0,1.06-.46c.19-.08.72-.42.92-.35.37.12,0,.69-.11.93a2.71,2.71,0,0,1-1.08.78,2.41,2.41,0,0,0-.9.92,2.78,2.78,0,0,0-.32,2.74,11.73,11.73,0,0,1,.86,1.91A3.44,3.44,0,0,1,52.18,87.9Z"/><path class="cls-12" d="M510,105.33s11-23.23,14.18-22,6.45,5.12,3.92,8.5-16,18.92-16,18.92Z"/><polygon class="cls-2" points="483.36 198.63 483.58 210.13 487.34 210.13 488.19 198.29 483.36 198.63"/><path class="cls-13" d="M487.83,207.49a1.23,1.23,0,0,1,.43,0c.44.12.45.6.49,1.24a19.62,19.62,0,0,1-.11,3c-.1,1.18-.84,1.21-1.69,1.44a3.75,3.75,0,0,1-2.12,0c-.21-.09-.35-.35-.53-.5s-.43-.13-.75,0a37.94,37.94,0,0,1-7.67,1.36,5,5,0,0,1-2.72-.58c-.41-.25-1.05-.36-1.21-1a1.52,1.52,0,0,1,.95-1.65,6.93,6.93,0,0,1,1.44-.19,6.09,6.09,0,0,0,1.79-.71c1.46-.8,4.15-2.21,5.26-3.58.84-1,1.94-.08,2.68.8a1.19,1.19,0,0,0,1.21.5C486.15,207.65,487.44,207.54,487.83,207.49Z"/><polygon class="cls-2" points="509.08 198.63 509.26 210.13 505.5 210.13 504.25 198.29 509.08 198.63"/><path class="cls-13" d="M504.42,207.49a1.17,1.17,0,0,0-.42,0c-.45.12-.46.6-.5,1.24a21,21,0,0,0,.11,3c.11,1.18.85,1.21,1.7,1.44a3.72,3.72,0,0,0,2.11,0c.21-.09.35-.35.54-.5s.43-.13.75,0a37.82,37.82,0,0,0,7.66,1.36,5,5,0,0,0,2.72-.58c.42-.25,1.06-.36,1.22-1a1.54,1.54,0,0,0-.95-1.65,7.11,7.11,0,0,0-1.44-.19,6.09,6.09,0,0,1-1.79-.71c-1.47-.8-4.15-2.21-5.26-3.58-.84-1-1.95-.08-2.68.8a1.2,1.2,0,0,1-1.22.5C506.11,207.65,504.81,207.54,504.42,207.49Z"/><path class="cls-14" d="M483.5,117.59s-1.27,26.19-.77,42.12.15,39.76.15,39.76l6.12.24,9.47-71.18,5.14,70.83,5.92.09s1.72-28.45,2-30.19,1.21-50.64,1.21-50.64S483.76,116.84,483.5,117.59Z"/><path class="cls-12" d="M483.71,105.75l-1.48-41.51,1-1.07s10-4,10-3.81l11.76.66,8.73,4.64-2.3,35c.4,5.5.58,17.08.69,19.59.07,1.66-14.9,1.79-18.88,1.3a58.08,58.08,0,0,1-11.11-2.07C482.4,112.39,483.9,111,483.71,105.75Z"/><path class="cls-12" d="M483.78,63s-6.06,2.37-6.82,5.75a90.27,90.27,0,0,0-1.59,9.08c-.31,2.57-1.66,4.7-3,6.81A22,22,0,0,1,470.11,88c-.66.66-1.65.76-2.22,1.47a4.36,4.36,0,0,0-.67,1.6c-.44,1.66,3.64-.42,3.2,1.24a9.29,9.29,0,0,0-.46,3.21c.09,1.09-3,3.18-2,3.64,1.18.54,6.19-1,7.32-1.58a35.54,35.54,0,0,0,5.34-3.89h0a12.2,12.2,0,0,0,2.82-2.92c2.74-4.49,0-10.63-.07-15.45C483.34,71.06,483.83,67.21,483.78,63Z"/><path class="cls-12" d="M513.76,64.75s1.24.86,3.53,4.32c2.71,4.1,11.45,18.5,11.45,18.5l-6.51,5.72L504.36,77.81Z"/><path class="cls-2" d="M492.56,39.28a5.66,5.66,0,0,0-.57,2.59c-.14,2.51-.32,5-.44,7.53-.07,1.27-.12,2.54-.14,3.82a3.26,3.26,0,0,0,1.06,2.51,8.73,8.73,0,0,0,1.7,1.68,5.13,5.13,0,0,0,2.36.52,4.4,4.4,0,0,0,2-.5c.53-.23,1.06-.37,1.58-.59a8.28,8.28,0,0,0,2.13-1.33,8.43,8.43,0,0,0,2.46-5.5,50.38,50.38,0,0,0,.26-8.93c-.51-.08-1,0-1.52-.12a6.78,6.78,0,0,1-1.87-.87A21.8,21.8,0,0,0,498.09,38a5.46,5.46,0,0,0-4.51.25A2.86,2.86,0,0,0,492.56,39.28Z"/><path class="cls-2" d="M507.65,46.09c.06,1.33-1.25,2.47-2.93,2.54s-3.09-1-3.15-2.29,1.25-2.47,2.92-2.54S507.59,44.75,507.65,46.09Z"/><path class="cls-15" d="M507.07,38.3c-1.48-3.54-4.7-2.65-7.32-.91-1.62,1.08-2.85,2.32-1.15,4a3.87,3.87,0,0,0,1.74.87c1.35.51,2,2.73,2.28,4,.1.45.52,2.62.52,2.62l1.22,0c-.05-1.37-.69-4.6,1.44-4.52.56,0,.92.22,1.21-.27a5.71,5.71,0,0,0,.52-1.91,7.63,7.63,0,0,0-.21-3.12A6,6,0,0,0,507.07,38.3Z"/><path class="cls-16" d="M492.2,35.82a6.21,6.21,0,0,0-1.31,2.69,6.45,6.45,0,0,0,.05,2.8c.1.37,1.17,1.8.94,2.07.48-.55.55-1.24,1.32-1.42.55-.12,1.42.13,2.07,0a15.71,15.71,0,0,0,4.66-1.78c1.22-.68,2.62-1.63,4.07-1.66.89,0,2.12.93,2.61,0a1.19,1.19,0,0,0,.08-.16c.63-1.71-1.48-2.79-2.75-3.28a13,13,0,0,0-2.75-.72A5.63,5.63,0,0,0,500,34.3a4.17,4.17,0,0,0-.86.08c-.06,0-.88.18-.88.17a1.79,1.79,0,0,1,.24-.75c.14-.23.37-.55.66-.59a13.53,13.53,0,0,0-1.53.35,4.94,4.94,0,0,0-1.05.4,2.21,2.21,0,0,0-1.21,1.72,4,4,0,0,1,.71-2.22c-.05.08-.32.15-.42.2l-.41.25a5.69,5.69,0,0,0-.75.63,3.79,3.79,0,0,0-.8,1.49,2.7,2.7,0,0,1,.81-2c-.23,0-.41.23-.6.33A6.65,6.65,0,0,0,492.2,35.82Z"/><polygon class="cls-2" points="502.61 55.56 504.29 60.13 499.06 64.16 492.96 59.58 495.51 53.48 502.61 55.56"/><polygon class="cls-17" points="509.54 70.2 486.9 70.07 476.94 172.78 517.64 174.2 509.54 70.2"/><polygon class="cls-18" points="482.87 108.47 495.8 110.16 512.75 108.04 512.95 110.66 495.8 112.65 482.52 111.05 482.87 108.47"/><polygon class="cls-19" points="496.02 110.18 503 116.42 499.94 117.61 495.03 112.17 490.12 115.79 487.42 114.26 493.89 110.24 496.02 110.18"/><path class="cls-20" d="M496.78,110.05c-.07.2-.32,3.75-.32,3.75l-2.76-.63.71-3.18Z"/><polygon class="cls-17" points="487.15 61.62 490.12 70.65 488.41 70.99 486.01 62.08 487.15 61.62"/><polygon class="cls-17" points="509.31 62.08 506.34 71.1 508.06 71.45 510.45 62.54 509.31 62.08"/><path class="cls-21" d="M436,.06c2.27-1.27,19.79,17.27,22.2,21.58s-1.44,11.83.85,15.92,12.19,21.81,12.19,21.81l-1.59.89-1.59.89s-9.91-17.72-12.19-21.81-10.71-4.75-13.12-9.06S433.72,1.33,436,.06Z"/><polygon class="cls-22" points="469.71 53.06 468.49 51.15 462.8 54.59 464.07 56.88 469.71 53.06"/><path class="cls-10" d="M462.82,56.24C464,58.51,519,158.68,520.56,161.58s6.94,4.12,9,3,3.76-6,1.88-9.14S471.35,53.91,470.13,52.05Z"/><path class="cls-2" d="M469.56,69.56a20,20,0,0,1,1-1.74c.39-.75.8-1.51,1.21-2.25a22.21,22.21,0,0,0,.91-2.06.65.65,0,0,1,.13-.23.64.64,0,0,1,.26-.13,13.68,13.68,0,0,1,2.77-.52,2.85,2.85,0,0,1,1.56.2,1.13,1.13,0,0,1,.59,1.33l.83.48a.76.76,0,0,1,.22.17.6.6,0,0,1,.06.23,2.67,2.67,0,0,1,0,.56.38.38,0,0,0,0,.19.44.44,0,0,0,.27.14.72.72,0,0,1,.3,1.18.78.78,0,0,1,.52.45,1.67,1.67,0,0,1,.12.7c0,.16,0,.37-.18.42a.4.4,0,0,1-.24,0l-1.63-.58a1.07,1.07,0,0,0-1.52.53c-.56.74-1,1.52-1.52,2.3s-1.62.92-1.84,1.9a9.88,9.88,0,0,0-.23,2.42,1.43,1.43,0,0,1-.25,1.08,1.32,1.32,0,0,1-1,.24l-2.81-.07a.33.33,0,0,1-.22-.06c-.06-.06-.05-.16-.05-.25.14-1.72.27-3.45.4-5.18a5.51,5.51,0,0,1,.17-1.14C469.49,69.74,469.52,69.65,469.56,69.56Z"/><path class="cls-12" d="M467.27,99.13c2.89,1.22,6.47-1.53,7.14-3.32,2.15-5.66-.33-22.73-.33-22.73l-5.65-1.56s-3.59,15.92-3.69,16.23C463.66,91.27,463.19,97.41,467.27,99.13Z"/><path class="cls-2" d="M508.87,106.7a7.21,7.21,0,0,1-1.25.53c-1.07.37-2.19.56-3.28.83a7.11,7.11,0,0,1-2.3.21c-.67,0-1.32,0-2,0a4.39,4.39,0,0,0-1,0,3.12,3.12,0,0,0-1.71,1.33,21.67,21.67,0,0,0-1.6,2.11c-.24.38-.43.82,0,1.11s1.1,0,1.44-.47a17.82,17.82,0,0,1,1.08-1.5c.52-.63,1.68-.57,2.44-.73a13,13,0,0,0-2.35,1.2,4.42,4.42,0,0,0-1.32,1.3,9.63,9.63,0,0,0-.63.94c-.26.42-.68.73-.9,1.17s0,.87.54,1.06c.7.25,1.21-.41,1.62-.87a12.14,12.14,0,0,0,1.07-1.51,2.26,2.26,0,0,1,.7-.77,3.55,3.55,0,0,1,1.1-.51,3.26,3.26,0,0,0,.94-.18c-.85.53-2.06,1.17-2.39,2.19a12,12,0,0,1-.61,1.6,6.38,6.38,0,0,0-.57,1.38c-.06.32,0,.41.33.45a1.21,1.21,0,0,0,.9-.16c.54-.43.6-1.25,1.09-1.67a2.81,2.81,0,0,0-.6,1.34c0,.52.86.56,1.19.39s.65-.72.91-1.1.62-.72.89-1.11a3,3,0,0,1,.74-.93,5,5,0,0,1,1.55-.43c1.26-.31,2.52-.6,3.74-1a3.86,3.86,0,0,0,1.7-1.31,13.86,13.86,0,0,1,1.54-1.42,7.22,7.22,0,0,0,1.34-1.53c.44-.69.54-1.1.07-1.77s-1.62-2.12-2.63-1.35A12.31,12.31,0,0,1,508.87,106.7Z"/><path class="cls-12" d="M508.76,106.54S521,82.1,524.22,83.31s6.45,5.12,3.92,8.5-16,18.92-16,18.92Z"/><path class="cls-23" d="M338.8,55.33l-14.17,8.05,2.28,54.26s17.81,2.22,30.32-.63l-1.48-53.25-7.63-7.12Z"/><polygon class="cls-2" points="328.94 198.1 328.89 203.1 332.71 203.1 333.84 197.75 328.94 198.1"/><path class="cls-24" d="M332.93,202.8c0,1-.38,7.7-.38,7.7l-3,0,0-2.28s-2.48,1.49-3.23,2.13-4.48,1.31-5.75.5a2,2,0,0,1-.78-2.27s.76,1,3.25-.05,5.62-5.5,5.62-5.5Z"/><polygon class="cls-2" points="354.55 198.1 354.6 203.1 350.77 203.1 350.31 197.54 354.55 198.1"/><path class="cls-24" d="M350.56,202.8c0,1,.38,7.7.38,7.7l3,0,0-2.28a38.2,38.2,0,0,1,3.22,2.13c.74.63,4.49,1.31,5.75.5a2,2,0,0,0,.79-2.27s-.76,1-3.25-.05-5.62-5.5-5.62-5.5Z"/><path class="cls-21" d="M357,61.72s3.55,2.85,3.81,4.54,7.94,28.86,7.94,28.86l-7.84,2.67L349,75.88Z"/><path class="cls-25" d="M326.47,116.83s.47,26.19,1,42.38.36,39.78.36,39.78l6.22.24,9.38-69.62,5.47,67.95,6.32.09s.64-26.89.92-28.66S358,117.13,358,117.13,326.73,116.07,326.47,116.83Z"/><path class="cls-21" d="M325.56,100.11c-.39,4.9-1.34,21.39-2.32,23.46,2.52.11,5.09,1,7.58,0,1.81-.7,2.83-.82,4.19-2.21,2-2.07,3.63-4.44,3.6-7.4,0-2.6-.18-5.22-.28-7.83L337.7,88.3c-.4-11-.66-21.49-1.06-32.47L326.27,61Z"/><path class="cls-21" d="M350.24,121.73c2.21,2.67,6.57.62,10.08-.16l-3.67-23.86.52-35.87-7.4-4L347.62,57l-.17,41.5q.07,7,.16,13.91c0,3.41.07,4.9,1.74,8A9,9,0,0,0,350.24,121.73Z"/><path class="cls-2" d="M349.83,36.69a5.88,5.88,0,0,1,.62,2.62c.18,2.55.41,5.09.58,7.64.08,1.3.16,2.59.2,3.88a3.34,3.34,0,0,1-1,2.58,8.76,8.76,0,0,1-1.7,1.74,5.13,5.13,0,0,1-2.39.56,4.44,4.44,0,0,1-2-.47c-.54-.23-1.08-.36-1.61-.58a7.92,7.92,0,0,1-2.2-1.31,8.56,8.56,0,0,1-2.59-5.55,51.09,51.09,0,0,1-.42-9.07c.52-.09,1,0,1.54-.15a6.63,6.63,0,0,0,1.89-.92,22.81,22.81,0,0,1,3.48-2.18,5.57,5.57,0,0,1,4.59.18A2.92,2.92,0,0,1,349.83,36.69Z"/><path class="cls-2" d="M334.61,43.87c-.05,1.35,1.31,2.49,3,2.53s3.12-1,3.16-2.38-1.31-2.49-3-2.53S334.65,42.51,334.61,43.87Z"/><path class="cls-26" d="M334.82,36.66a5.07,5.07,0,0,1,.24-.72,4.6,4.6,0,0,1,2.32-2.65c.75-.39,1.57-.46,2.32-.77a1,1,0,0,0,.52-.42,3.18,3.18,0,0,1,3.24-1.63,12,12,0,0,1,5.25,1.41,8.3,8.3,0,0,1,3,2.69,3.36,3.36,0,0,1,.49,3.12,1.52,1.52,0,0,0-.85-1.16,5.93,5.93,0,0,1,.27,2.4,5.75,5.75,0,0,1-.93,2.16,8.2,8.2,0,0,0-3.45-3.67c-.91-.44-1.5-.17-2.49-.23a3.38,3.38,0,0,1-1,1.76,4,4,0,0,1-1.76.91c-1.36.54-2,2.82-2.25,4.08-.09.45-.48,2.67-.48,2.67H338c0-1.4.61-4.69-1.55-4.58-.57,0-.93.25-1.23-.24a5.7,5.7,0,0,1-.56-1.94A7.59,7.59,0,0,1,334.82,36.66Z"/><polygon class="cls-2" points="346.81 53.3 347.75 57.14 342.32 60.22 337.64 56.07 339.56 51.3 346.81 53.3"/><path class="cls-27" d="M341.32,45.43h0a.3.3,0,0,1-.3-.3,1.38,1.38,0,0,1,.63-1.1,5.37,5.37,0,0,1,3.74-.59,2.81,2.81,0,0,1,.37.15.89.89,0,0,0,.31.11,2.84,2.84,0,0,0,.6-.07l.33-.05c.26,0,.26,0,.38-.19l.07-.09a1.8,1.8,0,0,1,.89-.58s1.49-.52,2.26-.06a.87.87,0,0,1,.42.63.29.29,0,1,1-.58.09.27.27,0,0,0-.15-.21,2.75,2.75,0,0,0-1.75.11,1.16,1.16,0,0,0-.63.41l-.07.08a.89.89,0,0,1-.77.4l-.29,0a2.8,2.8,0,0,1-.77.07,1.53,1.53,0,0,1-.51-.16,1.39,1.39,0,0,0-.28-.12,4.84,4.84,0,0,0-3.22.5.79.79,0,0,0-.38.63A.3.3,0,0,1,341.32,45.43Z"/><polygon class="cls-27" points="337.69 42.59 341.2 44.85 341.32 45.43 337.85 43.06 337.69 42.59"/><path class="cls-28" d="M343.61,46.85a2.87,2.87,0,0,1-1.74-.48,1.15,1.15,0,0,1-.42-.8.1.1,0,0,1,.09-.1.09.09,0,0,1,.11.09,1,1,0,0,0,.34.66,3.1,3.1,0,0,0,2,.41,2.23,2.23,0,0,0,1.59-.73,1.45,1.45,0,0,0,.26-1.12.09.09,0,0,1,.08-.11.09.09,0,0,1,.11.08,1.64,1.64,0,0,1-.29,1.28,2.48,2.48,0,0,1-1.73.8Z"/><path class="cls-28" d="M348.82,45.9a2.61,2.61,0,0,1-1.59-.44,1,1,0,0,1-.38-.72.08.08,0,0,1,.08-.1.09.09,0,0,1,.1.08.81.81,0,0,0,.31.6,2.77,2.77,0,0,0,1.83.38,2.05,2.05,0,0,0,1.46-.66,1.31,1.31,0,0,0,.23-1,.09.09,0,1,1,.18,0,1.43,1.43,0,0,1-.27,1.16,2.17,2.17,0,0,1-1.58.73Z"/><path class="cls-2" d="M339.82,69.52a8.44,8.44,0,0,0,.51-1.29c.35-1.1.51-2.25.75-3.37a7.16,7.16,0,0,0,.16-2.35c-.07-.68,0-1.35,0-2a4.59,4.59,0,0,1,0-1,3.23,3.23,0,0,1,1.32-1.78,24.65,24.65,0,0,1,2.12-1.7c.39-.25,1.4-.79,1.72-.35s-.5,1.47-1,1.83a18.77,18.77,0,0,0-1.51,1.15c-.63.55-.53,1.73-.68,2.51a13.27,13.27,0,0,1,1.17-2.43,4.54,4.54,0,0,1,1.3-1.39,10.78,10.78,0,0,1,.95-.67c.42-.28.73-.72,1.17-1s.9,0,1.11.53c.28.71-.39,1.24-.85,1.67a11.82,11.82,0,0,1-1.52,1.14,2.19,2.19,0,0,0-.77.74,3.71,3.71,0,0,0-.49,1.14c-.07.3,0,.68-.17,1,.53-.89,1.15-2.14,2.19-2.5a12.7,12.7,0,0,0,1.63-.67,6,6,0,0,1,1.4-.62c.33-.07.42,0,.47.32a1.25,1.25,0,0,1-.14.93c-.43.56-1.27.64-1.68,1.15a3,3,0,0,1,1.36-.65c.53,0,.6.86.43,1.2s-.72.69-1.1,1-.73.65-1.12.94a3.05,3.05,0,0,0-.93.78,5.31,5.31,0,0,0-.4,1.59c-.29,1.29-.54,2.59-.92,3.85A4,4,0,0,1,344.91,71a13.55,13.55,0,0,0-1.41,1.61A7.41,7.41,0,0,1,342,74c-.7.47-1.11.58-1.81.12s-2.24-1.6-1.47-2.65A12.39,12.39,0,0,0,339.82,69.52Z"/><path class="cls-21" d="M326.64,60.86s-5.64,3.56-5.75,6.32c-.34,9.1,0,21.38,2.73,28.85,1.33,3.58,5.69,4.26,7.39,2.61,5.27-5.07,12.17-24.36,12.17-24.36l-5-3.65S330,84.21,330,83.84,326.64,60.86,326.64,60.86Z"/><polygon class="cls-13" points="327.32 195.81 327.45 199.37 334.19 199.24 334.72 195.94 327.32 195.81"/><polygon class="cls-13" points="348.46 196.33 348.59 199.9 355.32 199.77 355.85 196.47 348.46 196.33"/><polygon class="cls-29" points="347.51 138.68 352.88 74.04 355.14 75.17 349.77 139.81 347.51 138.68"/><polygon class="cls-30" points="403.65 59.43 352.88 74.04 355.14 75.17 405.92 60.56 403.65 59.43"/><polygon class="cls-31" points="403.51 120.3 349.35 134.91 347.28 134.34 401.44 119.73 403.51 120.3"/><polygon class="cls-32" points="351.61 138.11 398.99 123.5 404.07 62.25 356.7 76.86 351.61 138.11"/><polygon class="cls-33" points="355.38 109.84 401.44 95.23 401.44 90.33 355.38 104.94 355.38 109.84"/><path class="cls-34" d="M355.14,75.17l50.78-14.61-5.37,64.64-50.78,14.61ZM402.23,64l-44,14.61-4.8,57.86,44-14.61Z"/><polygon class="cls-35" points="348.41 142.45 402.56 127.84 403.51 120.3 349.35 134.91 348.41 142.45"/><polygon class="cls-31" points="348.41 142.45 349.35 134.91 347.28 134.34 346.34 141.88 348.41 142.45"/><polygon class="cls-31" points="403.51 120.3 349.35 134.91 347.28 134.34 401.44 119.73 403.51 120.3"/><polygon class="cls-35" points="385.27 78.17 419.6 208.47 414.92 208.47 380.9 79.33 385.27 78.17"/><polygon class="cls-35" points="380.88 78.25 385.33 78.48 411.81 228.56 407.25 228.56 382.37 92.06 352.22 224.3 347.58 224.3 380.88 78.25"/><path class="cls-28" d="M241,138.75l.89-.41,7.19-.09.45.1-3.75,15.45C245.84,153.3,241,138.75,241,138.75Z"/><path class="cls-2" d="M245.88,138.44l3.66-.09a9.84,9.84,0,0,1-1.12-.8c-1-.76-1.44-6.1-1.44-6.1h-2.43s-.46,5.34-1.44,6.1a4.76,4.76,0,0,1-1.13.76l3.67.13h.23Z"/><polygon class="cls-2" points="253.84 184.69 254.01 209.05 251.81 209.05 249.36 186.43 253.84 184.69"/><path class="cls-13" d="M251.52,207.63a.64.64,0,0,0-.24,0c-.27.06-.27.32-.29.66a9.24,9.24,0,0,0,.06,1.58c.06.63.49.66,1,.78a2.39,2.39,0,0,0,1.23,0c.13-.05.21-.19.32-.27s.25-.07.43,0a24,24,0,0,0,4.48.72,3.13,3.13,0,0,0,1.59-.31c.24-.13.61-.19.71-.53a.81.81,0,0,0-.56-.88,3.94,3.94,0,0,0-.84-.1,4.14,4.14,0,0,1-1-.38,11.69,11.69,0,0,1-3.06-1.92c-.5-.55-1.14,0-1.57.43a.72.72,0,0,1-.71.27C252.51,207.72,251.75,207.66,251.52,207.63Z"/><polygon class="cls-2" points="237.65 184.94 239.01 209.05 241.21 209.05 242.38 186.68 237.65 184.94"/><path class="cls-13" d="M241.84,207.63a.69.69,0,0,1,.25,0c.26.06.26.32.28.66a9.24,9.24,0,0,1-.06,1.58c-.06.63-.49.66-1,.78a2.39,2.39,0,0,1-1.23,0c-.13-.05-.21-.19-.32-.27s-.25-.07-.43,0a24,24,0,0,1-4.48.72,3.13,3.13,0,0,1-1.59-.31c-.24-.13-.61-.19-.71-.53a.81.81,0,0,1,.56-.88,3.94,3.94,0,0,1,.84-.1,4.14,4.14,0,0,0,1-.38,11.92,11.92,0,0,0,3.07-1.92c.49-.55,1.13,0,1.56.43a.72.72,0,0,0,.71.27C240.85,207.72,241.61,207.66,241.84,207.63Z"/><path class="cls-36" d="M247.86,188.18l-2-18.93-2.24,18.93-7.47-.25c-.17-.93.82-27.73.82-27.73s16.92-.94,17.07-.54c0,0,1.08,19,.79,27.52Z"/><polygon class="cls-37" points="249.41 138.15 245.62 144.09 241.97 138.25 235.32 135.3 236.36 153.96 235.66 167.75 255.84 167.75 255.09 154.18 255.21 145.46 255.59 135.24 249.41 138.15"/><path class="cls-2" d="M253.88,126.72c-.19,3.58-4,6.44-8.46,6.38s-7.95-3-7.76-6.58,1.48-8.09,8.45-8.09S254.07,123.15,253.88,126.72Z"/><path class="cls-2" d="M257.7,127.72a2.49,2.49,0,0,1-2.84,1.86,2.26,2.26,0,0,1-2.28-2.32,2.49,2.49,0,0,1,2.83-1.86A2.26,2.26,0,0,1,257.7,127.72Z"/><path class="cls-2" d="M238.64,127.72a2.48,2.48,0,0,1-2.83,1.86,2.26,2.26,0,0,1-2.29-2.32,2.5,2.5,0,0,1,2.83-1.86A2.26,2.26,0,0,1,238.64,127.72Z"/><path class="cls-16" d="M237.4,125.65a9,9,0,0,1,5.85-3.24l.63-2.86,1,2.74a23.06,23.06,0,0,1,5.48.25,4.93,4.93,0,0,1,3.62,3s2.49-5.48.37-8.47-7.1-3.49-10.34-3.12-6.72,1.12-7.6,4.49C235.62,121.45,237.4,125.65,237.4,125.65Z"/><path class="cls-37" d="M239.14,137.73l-7.34-7.59-.75-15.32-3.49-.25s-.75,12.7-.87,15.32a6,6,0,0,0,1.74,5c2.24,2.49,10.71,12.33,10.71,12.33"/><polygon class="cls-2" points="262.55 116.19 262.99 106.35 259.89 109.63 260.22 116.35 262.55 116.19"/><path class="cls-37" d="M251.46,137.73l7.35-7.59.75-15.32,3.49-.25s.74,12.7.87,15.32a6.05,6.05,0,0,1-1.75,5c-2.24,2.49-10.71,12.33-10.71,12.33"/><path class="cls-28" d="M184.62,144.54l.82-.38,6.61-.08.42.09.75,11.92-4.2,2.3c0-.16-4.18-.89-4.82-2.91C182.9,151.38,184.62,144.54,184.62,144.54Z"/><path class="cls-38" d="M180.59,130.48c1.26,4.47,1.15,7.28.75,8a2.13,2.13,0,0,1-1.09,1,23.94,23.94,0,0,0,8.14,1.66l-1.95-8.77Z"/><path class="cls-38" d="M197.27,130.48c-1.26,4.47-1.15,7.28-.75,8a2.13,2.13,0,0,0,1.09,1,23.94,23.94,0,0,1-8.14,1.66l1.95-8.77Z"/><path class="cls-2" d="M189.1,144.25l3.37-.08a7.73,7.73,0,0,1-1-.74c-.9-.69-1.33-5.6-1.33-5.6h-2.23s-.43,4.91-1.33,5.6-1,.7-1,.7l3.38.12h.21Z"/><polygon class="cls-2" points="194.02 186.81 194.17 209.21 192.15 209.21 189.1 185.38 194.02 186.81"/><path class="cls-13" d="M191.89,207.92h-.23c-.24.06-.25.29-.27.61a8.92,8.92,0,0,0,.06,1.46c.06.57.46.59.91.7a2.2,2.2,0,0,0,1.14,0c.11-.05.19-.18.29-.25s.22-.07.4,0a21.86,21.86,0,0,0,4.11.67,2.92,2.92,0,0,0,1.46-.28c.23-.13.57-.18.66-.49a.77.77,0,0,0-.51-.82,5,5,0,0,0-.78-.09,3.47,3.47,0,0,1-1-.35,10.69,10.69,0,0,1-2.82-1.76c-.45-.51-1,0-1.44.4a.67.67,0,0,1-.65.24C192.79,208,192.1,207.94,191.89,207.92Z"/><path class="cls-2" d="M178.24,190.47c-1.83-.57-17.54-6-17.54-6l.5-2L174.88,185l7.16-.24S180.08,191.05,178.24,190.47Z"/><path class="cls-13" d="M162.6,182.27a.64.64,0,0,0,.05-.23c0-.24-.22-.31-.52-.41a8.54,8.54,0,0,0-1.42-.3c-.58-.09-.69.28-.91.7a2.23,2.23,0,0,0-.31,1.09,1.87,1.87,0,0,0,.17.35c.08.19,0,.23-.11.38a22.06,22.06,0,0,0-1.68,3.82,3,3,0,0,0-.09,1.49c.07.24,0,.59.31.75a.75.75,0,0,0,.92-.29,4.59,4.59,0,0,0,.28-.73,3.61,3.61,0,0,1,.58-.84,10.91,10.91,0,0,1,2.41-2.29c.61-.31.3-1,0-1.49a.68.68,0,0,1-.07-.7C162.3,183.12,162.53,182.46,162.6,182.27Z"/><path class="cls-39" d="M195.64,163.85l3-18.53-.61-4L192.35,144s.41,9.67-3.49,9.67-3.35-9.58-3.35-9.58l-6.12-2.71,1.15,23.24L170.9,183c3.1,3.75,4.83,3.83,8.57,3,4.81-1.07,4.81,4.17,11.24,2,7-2.33,7.92,4.61,12.74-1.17Z"/><path class="cls-2" d="M196.46,133.47c-.18,3.29-3.66,5.92-7.78,5.87s-7.32-2.76-7.14-6.05.78-9.8,7.19-9.8S196.63,130.18,196.46,133.47Z"/><path class="cls-2" d="M200,134.39a2.28,2.28,0,0,1-2.6,1.71,2.07,2.07,0,0,1-2.1-2.13,2.3,2.3,0,0,1,2.6-1.72A2.08,2.08,0,0,1,200,134.39Z"/><path class="cls-2" d="M182.44,134.39a2.29,2.29,0,0,1-2.61,1.71,2.07,2.07,0,0,1-2.1-2.13,2.31,2.31,0,0,1,2.61-1.72A2.08,2.08,0,0,1,182.44,134.39Z"/><path class="cls-38" d="M181.54,133.29a14.31,14.31,0,0,1,3.52-3.95c1.09-1.09.29-4.47.29-4.47A22.25,22.25,0,0,0,188.5,128a14.49,14.49,0,0,0,5.21,1.6l2.75,3.85s2.37-6.14.42-8.89-6.53-3.21-9.51-2.86-6.18,1-7,4.12C179.66,128.62,181.54,133.29,181.54,133.29Z"/><polygon class="cls-2" points="175.03 123.16 174.86 117.1 172.37 116.6 172.7 123.33 175.03 123.16"/><path class="cls-39" d="M182.9,143.6l-6.59-6.15-.85-14.93-3.21-.23s-.69,11.69-.81,14.09a5.57,5.57,0,0,0,1.61,4.59c2.06,2.29,9.85,11.34,9.85,11.34"/><path class="cls-39" d="M194.24,143.6l6.92-6.15.53-14.93,3.2-.23s.69,11.69.81,14.09a5.57,5.57,0,0,1-1.61,4.59c-2.06,2.29-9.85,11.34-9.85,11.34"/><path class="cls-40" d="M265.43,84.29C259.51,79.62,251.27,81,249.12,77c-3.36-6.24,12.31-9.35,6.25-20.7-7-13.09-54.85-14.57-87.33,5.23s-18.7,49,8,58.51,79.18-.93,90.74-15.69C272.93,96.51,270.94,88.64,265.43,84.29Zm-31.92-15c-6.35-.16-11.27-3.66-11-7.81s5.65-7.38,12-7.22,11.27,3.67,11,7.82S239.86,69.42,233.51,69.25Z"/><path class="cls-41" d="M267.85,82.52c-5.92-4.67-14.16-3.31-16.31-7.31-3.36-6.23,12.31-9.35,6.26-20.7-7-13.09-54.85-14.56-87.33,5.23s-18.71,49,8,58.51,79.19-.93,90.74-15.68C275.35,94.75,273.36,86.87,267.85,82.52Zm-31.92-15c-6.35-.17-11.27-3.67-11-7.82s5.64-7.38,12-7.21,11.27,3.66,11,7.81S242.28,67.65,235.93,67.49Z"/><path class="cls-42" d="M210.64,56.67c-3.48-.59-7.5-.51-9.24,2.22a6.45,6.45,0,0,0,1,7.92,10.7,10.7,0,0,0,6.08,2.55,8.7,8.7,0,0,0,4.31-.39c1.31-.54,2.3-1.69,2.11-2.84-.24-1.47-2.25-2.53-2.19-4,0-1.16,1.37-2.17,1.21-3.32S212.13,56.92,210.64,56.67Z"/><path class="cls-43" d="M188,64c-2-.34-6.5-.58-8.16.71-1.37,1.07-.94,2.92-1.93,4.22-.86,1.13-2.78,1.86-2.77,3.16a2.14,2.14,0,0,0,1.4,1.7c1.87.91,4.27.59,6.47.39s5.6,1,7.43-.08c3.07-1.82-.75-3.65-.68-5.54,0-1,1.15-1.82,1-2.79S189.22,64.17,188,64Z"/><path class="cls-44" d="M174.9,97.83c2.11-.76,6.41-3,6.36-5.08,0-1.47-1.89-2.45-2.57-3.81a7.27,7.27,0,0,1-.35-3.12,3,3,0,0,0-1.45-2.77,6.48,6.48,0,0,0-4-.12,4.14,4.14,0,0,0-2.06.78c-1.24,1.19.12,2.74-1.25,3.92s-4.39.49-5.29,2.73c-1.28,3.2,3.71,2.77,5.2,4.45.77.86.46,2.19,1.38,3S173.59,98.31,174.9,97.83Z"/><path class="cls-45" d="M247.92,96.68c-2.49-1.37-5.23-.69-8.09-.24-2.37.37-5.11,1.08-5.84,2.9-1.29,3.2,3.26,5.41,6.26,6.2,2.5.66,7.13,3.45,9.72,1.92,3.06-1.82-.76-3.65-.68-5.54.09-2.36,1.66-3.38-1.1-5.08Z"/><path class="cls-46" d="M192.92,99.37c-2-.34-6.6-.51-7.94,1-1,1.11-.31,2.63-.76,3.93a8.55,8.55,0,0,1-1.85,2.47,2.68,2.68,0,0,0-.85,2.68c.4.92,1.62,1.4,2.73,1.79a3.77,3.77,0,0,0,2,.31c1.68-.35,1.76-2.08,3.53-2.37s3.45,1.53,5.6.26c3.07-1.82-.75-3.66-.68-5.54,0-1,1.15-1.82,1-2.79S194.18,99.58,192.92,99.37Z"/><path class="cls-47" d="M223,100.16a19.58,19.58,0,0,0-9.61,1c-2.29.82-4.7,2-5.32,4a4.34,4.34,0,0,0-.06,2.12,6.82,6.82,0,0,0,5.89,5.59c3.61.38,3.21-2.38,6-2.83,1.86-.3,3.44,1.53,5.59.26,3.07-1.82-.75-3.66-.67-5.54,0-1,1.15-1.82,1-2.79S224.2,100.37,223,100.16Z"/></g></g></svg>