<svg xmlns="http://www.w3.org/2000/svg" viewBox="0 0 506.88 253.67"><defs><style>.cls-1{isolation:isolate;}.cls-2{fill:#f4b0a9;}.cls-3{fill:#3c3736;}.cls-4{fill:#9196a8;}.cls-5{fill:#fff;}.cls-6{fill:#6a5150;}.cls-7{fill:#c8e5ee;}.cls-8{fill:#148c81;}.cls-9{fill:#6f6f6f;}.cls-10{fill:#f0d9b4;}.cls-11{fill:#fcecd7;}.cls-12{fill:#a99187;}.cls-13{fill:#dc9d67;}.cls-14{fill:#ce8352;}.cls-15{fill:#b79465;}.cls-16{fill:#866a60;}.cls-17{fill:#1b1e23;}.cls-18{fill:#6a7b61;}.cls-19{fill:#939494;}.cls-20{fill:#bebfbf;}.cls-21{fill:#d57976;}.cls-22{fill:#ab7b25;}.cls-23{fill:#f0e0cb;}.cls-24{fill:#e06a63;}.cls-25{fill:#a5b1b7;}.cls-26{fill:#f4e7c7;}.cls-27{fill:#a49a93;}.cls-28{fill:#e39a4e;}.cls-29{fill:#ede7e4;}.cls-30{fill:#f3b6d1;}.cls-31{fill:#dccfc8;}.cls-32{fill:#d1d1d1;mix-blend-mode:multiply;}.cls-33{fill:#8a5959;}.cls-34{fill:#ee92ba;}.cls-35{fill:#6c7980;}.cls-36{fill:#4a5770;}.cls-37{fill:#cbab82;}.cls-38{fill:#f7bf85;}</style></defs><title>lp_people_right</title><g class="cls-1"><g id="レイヤー_2" data-name="レイヤー 2"><g id="レイヤー_1-2" data-name="レイヤー 1"><path class="cls-2" d="M274.2,120a47,47,0,0,0-.25-4.89c-.44-.76-1.6-.86-2.36-1s-.67-.18-.92-.8-1.71-4-2.37-5.38c-.32-.68-.7-1.45-1.23-1.45-.26,0-.13,0-.32.22a.67.67,0,0,0-.17.81c.32,1,2.54,6.87,2.68,7.47-.58-.23-1.36-1-1.95-.66-.79.51.28,1.33.27,1.91-.73-.23-1,0-1.19.66s.24.59.49,1.1c-.44.19-.75.38-.69.8s.64.75,1,1.09,2.29,2.62,2.85,3.14c1,1,.91,2.35,1.48,3.53a1.16,1.16,0,0,0,1.09.78,2.58,2.58,0,0,0,.79-.28c.36-.12.76-.12,1.13-.25-.11-1.65-1.4-3.2-.73-4.8.29-.67.53-.92.43-1.64C274.23,120.23,274.21,120.13,274.2,120Z"/><path class="cls-3" d="M298.41,222.82c0,1-.33,7.09-.33,7.09l-2.59,0,0-2.1a32.79,32.79,0,0,0-2.78,2c-.64.58-3.88,1.21-5,.46a1.93,1.93,0,0,1-.68-2.09s.66.94,2.81-.05,5.11-6,5.11-6Z"/><path class="cls-3" d="M315.64,225.43c0,.95-.33,7.09-.33,7.09l-2.6,0,0-2.11s-2.14,1.38-2.78,2-3.88,1.22-5,.47a1.93,1.93,0,0,1-.68-2.1s.66.95,2.81,0,5.1-6,5.1-6Z"/><path class="cls-4" d="M318.8,133.85s1,18.63.56,33.56c-.49,16.53-1.53,36.78-3.45,59.49l-4.9-.16-3.58-76.68-8.61,74.1-5.47.09s.92-57.58.68-59.2,1.07-30.85,1.07-30.85S318.58,133.15,318.8,133.85Z"/><path class="cls-5" d="M308.43,80.61,322,87.73l-1.06,52.54s-14.37,7.32-26.26,4.9l-2.14-56.62,5.85-5.45Z"/><path class="cls-2" d="M295.72,63.83a8,8,0,0,0-.68,3.63c-.18,3.23-.45,6.49-.49,9.73,0,2.1,3.63,4.49,6.72,3.49s5.6-2.19,6.17-7a48.89,48.89,0,0,0,.34-5.54,8.39,8.39,0,0,0-.26-2.39,2.55,2.55,0,0,0-.69-1.13,8.54,8.54,0,0,0-3.38-2.61,9.21,9.21,0,0,0-3.43-.18,7.38,7.38,0,0,0-3.27.93A3,3,0,0,0,295.72,63.83Z"/><path class="cls-2" d="M310.33,70.09c.06,1.24-1.22,2.29-2.85,2.36s-3-.88-3.06-2.12S305.63,68,307.26,68,310.27,68.86,310.33,70.09Z"/><path class="cls-6" d="M309.54,63.35a5.68,5.68,0,0,0-.67-1.66,7.34,7.34,0,0,0-1.4-1.7,7.19,7.19,0,0,0-4.08-1.81,7.72,7.72,0,0,0-2.25.22,10.61,10.61,0,0,1-1,.37c-.29,0-.33-.08-.6-.16a3,3,0,0,0-2.45.18,7.09,7.09,0,0,0-2.67,2.26,5.91,5.91,0,0,0-.76,2.82c.31-.42.17-.47.56-1a7.45,7.45,0,0,0-.42,1.81,6.14,6.14,0,0,0,.42,2.15,6.92,6.92,0,0,1,.47,1.8,3.65,3.65,0,0,0,.42-1.33,3.78,3.78,0,0,1,1.72-2.67,1.7,1.7,0,0,1,2,.16,1.93,1.93,0,0,1,1.06-.62,3.25,3.25,0,0,1,1.95.06c1.66.54,2.47,2.56,2.72,4,.46-.54.29-1.38.29-2.15.43.4.64,2.48.67,2.92a17.47,17.47,0,0,1-.23,3.21,11.9,11.9,0,0,0,1.2.06s.73-2.08.9-2.66a1.82,1.82,0,0,1,.67-1.1,1.91,1.91,0,0,1,1.25,0c0-.53-.08-1.1,0-1.61.23.2.47.66.75.76a4.56,4.56,0,0,1-.31-1.72c0-.62,0-1.24-.05-1.85A4.52,4.52,0,0,0,309.54,63.35Z"/><polygon class="cls-2" points="298.25 79.14 298.98 82.25 302.13 82.63 307.25 79.09 306.29 76.94 298.25 79.14"/><path class="cls-5" d="M298.69,81.2l3.9.54,4.77-3,1.27,1.85s-1.6,4.85-5.52,4.65-4.78-2-4.78-2Z"/><path class="cls-7" d="M319.59,87.85s2.59-1,3.37.43,17.54,27.18,17.54,27.18l-6.75,4.24L317.07,102Z"/><path class="cls-7" d="M287.5,105.75c.34-6.63.62-12.81.62-13.35,0-1.21,5.3-4.74,5.3-4.74l6.67,13.44-5.88,15c-.53,4.59-1.18,8.36-1.93,9.17-2.18,2.34-4.85,3.63-6.64,1.7a5.87,5.87,0,0,1-2-4.11C283.65,122.28,285.7,113.43,287.5,105.75Z"/><path class="cls-7" d="M265.23,105.51l4.15-3.93s21.8,16.46,22.51,19.57-.15,6.46-2.77,6.85-3.27-.66-4.1-1.14S265.23,105.51,265.23,105.51Z"/><path class="cls-7" d="M308.7,80.51,322,87.59l-.44,37.19,8.38,56.6s-28.77,2.92-40.66.51l4.11-55.56-1.29-37.72,6.12-5.36L305.45,106Z"/><polygon class="cls-8" points="302.84 82.44 304.93 85.05 304.14 87.27 306.48 97.36 305.4 106.03 302.52 97.54 303.24 87.36 302.01 85.28 302.84 82.44"/><path class="cls-9" d="M303.58,70.87a.17.17,0,0,1-.16-.12h0c-.13-.44-.18-.62-.55-.76a10,10,0,0,0-2.8-.3,3.08,3.08,0,0,0-.48.2,1.84,1.84,0,0,1-.55.23,2.26,2.26,0,0,1-.91-.06,1.13,1.13,0,0,1-.38-.2.66.66,0,0,0-.31-.16c-.7-.12-1.57-.08-1.84.32a.16.16,0,0,1-.28-.17c.5-.74,2-.49,2.18-.46a.94.94,0,0,1,.46.22.66.66,0,0,0,.26.14,1.68,1.68,0,0,0,.75.06,2.19,2.19,0,0,0,.47-.2,2.91,2.91,0,0,1,.55-.23,9.81,9.81,0,0,1,3,.32c.52.2.61.52.74,1v0a.15.15,0,0,1-.11.19Z"/><path class="cls-9" d="M303.68,70.84h-.05a.16.16,0,0,1-.13-.18.16.16,0,0,1,.18-.14A27.82,27.82,0,0,0,307.54,68a.16.16,0,0,1,.23,0,.16.16,0,0,1,0,.22C307.46,68.46,304.25,70.84,303.68,70.84Z"/><path class="cls-5" d="M301.34,72.27a6.18,6.18,0,0,1-.85-.11c-1.06-.22-1-1.2-1-2v-.12a.14.14,0,0,1,.16-.15h0a.16.16,0,0,1,.16.16v.12c0,.93,0,1.5.74,1.66,1.13.23,2.37.09,2.55-.64a.16.16,0,0,1,.19-.12.15.15,0,0,1,.12.19C303.24,72,302.32,72.31,301.34,72.27Z"/><path class="cls-5" d="M297,72.08a1.87,1.87,0,0,1-1.37-.41,1.56,1.56,0,0,1-.35-1.23.17.17,0,0,1,.33,0,1.29,1.29,0,0,0,.25,1,1.72,1.72,0,0,0,1.22.32h0a.16.16,0,1,1,0,.31Z"/><path class="cls-2" d="M320.31,132.39a8.7,8.7,0,0,1-1.18.5c-1,.34-2.05.52-3.07.77a6.56,6.56,0,0,1-2.16.2c-.62-.05-1.23,0-1.86,0a4.51,4.51,0,0,0-.9,0,3,3,0,0,0-1.6,1.25,23.41,23.41,0,0,0-1.5,2c-.22.36-.4.77,0,1s1,0,1.35-.45.65-1,1-1.4c.49-.6,1.58-.53,2.29-.69a12,12,0,0,0-2.2,1.13,4,4,0,0,0-1.24,1.22,10.38,10.38,0,0,0-.59.88c-.24.39-.64.68-.85,1.09s0,.83.52,1c.65.24,1.13-.38,1.51-.82a9.84,9.84,0,0,0,1-1.42,2.28,2.28,0,0,1,.66-.72,3.42,3.42,0,0,1,1-.47,3.34,3.34,0,0,0,.89-.17c-.81.49-1.94,1.1-2.25,2a9.53,9.53,0,0,1-.57,1.51,5.68,5.68,0,0,0-.53,1.28c-.06.31,0,.39.3.43a1.18,1.18,0,0,0,.85-.15c.51-.41.56-1.17,1-1.57a2.76,2.76,0,0,0-.56,1.26c0,.49.8.52,1.11.37s.61-.68.86-1,.58-.68.83-1.05a3,3,0,0,1,.7-.87,4.65,4.65,0,0,1,1.45-.4c1.18-.3,2.36-.56,3.51-.95a3.56,3.56,0,0,0,1.59-1.23,13.15,13.15,0,0,1,1.45-1.33,7.14,7.14,0,0,0,1.26-1.43c.41-.65.5-1,.06-1.66s-1.53-2-2.47-1.27A13,13,0,0,1,320.31,132.39Z"/><path class="cls-7" d="M340.66,115.42l-.44,2.91s-15.27,18.16-15.54,18.2-3.85-4.45-3.85-4.45l12.08-17.44Z"/><polygon class="cls-10" points="299.19 161.82 293.92 98.47 291.71 99.58 296.97 162.93 299.19 161.82"/><polygon class="cls-11" points="236.28 98.47 293.92 98.47 291.71 99.58 234.07 99.58 236.28 98.47"/><polygon class="cls-12" points="236.43 158.13 297.38 158.13 299.41 157.57 238.46 157.57 236.43 158.13"/><polygon class="cls-13" points="295.16 161.27 240.86 161.27 235.87 101.24 290.18 101.24 295.16 161.27"/><rect class="cls-14" x="238.46" y="128.76" width="53.01" height="4.8"/><path class="cls-15" d="M297,162.93H239.33l-5.26-63.35h57.64Zm-54.58-3.32h51l-4.71-56.71h-51Z"/><polygon class="cls-16" points="298.3 165.52 237.35 165.52 236.43 158.13 297.38 158.13 298.3 165.52"/><polygon class="cls-12" points="298.3 165.52 297.38 158.13 299.41 157.57 300.33 164.96 298.3 165.52"/><polygon class="cls-16" points="262.17 102.52 224.13 245.66 228.71 245.66 266.46 103.66 262.17 102.52"/><polygon class="cls-16" points="266.48 102.59 262.12 102.83 244.41 253.67 248.87 253.67 265.02 116.13 294.56 245.74 299.11 245.74 266.48 102.59"/><polygon class="cls-5" points="92.25 199.88 91.53 236.79 87.33 236.79 84.09 200.11 92.25 199.88"/><polygon class="cls-5" points="63.01 199.88 63.73 236.79 67.93 236.79 71.15 201.07 63.01 199.88"/><path class="cls-17" d="M69.67,239c0,.3,0,.59,0,.84,0,1.32.08,1.75-1.33,2a6.52,6.52,0,0,1-3.65-.42c-1.24-.53-1.15-1-2.56-.13a7.1,7.1,0,0,1-2.37,1.21c-1.12.23-9,.48-8-1.91.35-.81,1.47-1,2.47-1,.43,0,.84-.06,1.16-.11,2.67-.45,5-3.23,6.66-5s2.53,1,4.3,1.14c.8.07,1.37-.09,1.84-.05a1.26,1.26,0,0,1,1,.68A5.38,5.38,0,0,1,69.67,239Z"/><path class="cls-18" d="M62.23,147.82,61.53,232l8,0,10.09-71.67L85,231.61h8.92l1.3-84.34S62.52,147.06,62.23,147.82Z"/><path class="cls-17" d="M85.59,239c0,.3,0,.59,0,.84,0,1.32-.08,1.75,1.33,2a6.56,6.56,0,0,0,3.66-.42c1.23-.53,1.15-1,2.55-.13a7.2,7.2,0,0,0,2.37,1.21c1.12.23,9,.48,8-1.91-.34-.81-1.47-1-2.47-1-.43,0-.84-.06-1.15-.11-2.67-.45-5-3.23-6.66-5s-2.54,1-4.31,1.14c-.8.07-1.36-.09-1.84-.05a1.28,1.28,0,0,0-1,.68A5.38,5.38,0,0,0,85.59,239Z"/><path class="cls-19" d="M79.28,84.77s.48,14.38,5.54,17.8,25.66,10.69,30.38,11c4.2.27,5.26-3.06,4.08-8.64-.27-1.26-30.64-15.69-30.64-15.69Z"/><path class="cls-20" d="M74.61,86,63.5,93.54c-.14,4.1.38,8.91-.48,12.91a7.33,7.33,0,0,0-.29,3.71c.27,1.29.76,2.54,1,3.84a51.81,51.81,0,0,1,1.17,10.67c-.11,3.92-.44,7.87-.63,11.79-.16,3.22.34,6.23.22,9.42,9,2.07,18.26,1.56,27.43,1.05a1.4,1.4,0,0,0,1.64-1.63c.34-7-.37-13.76-.32-20.72q.14-15.36.25-30.73l-8.66-6.59Z"/><path class="cls-19" d="M63.51,131.89c0,1.1-.11,2.2-.22,3.31-.32,3.28-1,6.53-1.31,9.78-.32,3-.39,3.87,2.85,4.25s7,0,10.39-.09c1.83,0,1.9-12.76,1.92-14.38.06-4.54.12-12.38.18-16.91,0-1.75.05-3.51.07-5.27a9.05,9.05,0,0,0,0-2.08s-4.83-19.37-6.09-22.28C71,87.34,66,89.45,62.4,92c-1.84,1.3.82,4.86.53,7.7-.18,1.83-.57,3.53-.89,5.3-.4,2.27.22,4.69.58,6.92a73,73,0,0,1,.82,8.85C63.54,123.39,63.6,129.29,63.51,131.89Z"/><path class="cls-19" d="M95.15,148.5l1.33-.32a75.88,75.88,0,0,0-1.08-11.63,53.68,53.68,0,0,1-1-8.19s1-36.13,1-36.13l-8.92-3.8L82,112.73c.14,7,.36,13.92.71,20.86.26,5.11,1,10.09,1.36,15.2a.58.58,0,0,0,.69.67A39.66,39.66,0,0,0,95.15,148.5Z"/><path class="cls-2" d="M82.68,82.87l1.49,6.28c-1.49.87-3.8,2.93-5.6,2.79a8.73,8.73,0,0,1-3.88-2A11.23,11.23,0,0,1,73,88.09L75.25,83Z"/><path class="cls-2" d="M86.75,68.07A3.31,3.31,0,0,0,85.5,67a10.34,10.34,0,0,0-6-.66,10.32,10.32,0,0,0-6,.66,3.27,3.27,0,0,0-1.26,1.07,3.94,3.94,0,0,0-.44,2.49c.13,2.38.21,4.76.36,7.14.07,1.2.17,2.41.3,3.61s.66,1.55,1.75,2.28A12.05,12.05,0,0,0,76.71,85a8.27,8.27,0,0,0,2.78.28A8.32,8.32,0,0,0,82.27,85a12.58,12.58,0,0,0,2.52-1.43c1.08-.73,1.63-1.22,1.75-2.28s.22-2.41.3-3.61c.15-2.38.23-4.76.35-7.14A3.87,3.87,0,0,0,86.75,68.07Z"/><path class="cls-2" d="M89.37,74.76c0,1.36-1.51,2.46-3.38,2.46s-3.4-1.11-3.41-2.46S84.09,72.3,86,72.3,89.36,73.4,89.37,74.76Z"/><path class="cls-2" d="M76.07,73.93c.21,1.34-1.13,2.62-3,2.86s-3.53-.66-3.74-2,1.14-2.62,3-2.86S75.86,72.58,76.07,73.93Z"/><path class="cls-5" d="M88.29,66a3.62,3.62,0,0,0-1.85-1.93c-.23-.11-.59-.11-.77-.22s-.37-.45-.54-.64c-1.82-2.12-4.88-2-7.5-1.54a8.9,8.9,0,0,0-5.85,3.62,7.28,7.28,0,0,0-1,3.08,33.12,33.12,0,0,0-.3,4.14c.43-.06,1.15,0,1.38.37a4.78,4.78,0,0,1,.44,2.42,3.93,3.93,0,0,1,.83-.16c.08-1.64-.56-3.75.71-5.12a7.29,7.29,0,0,1,1.84-1.3c.78-.44,1.55-1,2.34-1.36a5.5,5.5,0,0,1-1.42,1.51,18.22,18.22,0,0,0,2.67-.83,23.12,23.12,0,0,0,4.61-1.63,12.55,12.55,0,0,0,.82,2.42c.25.51.65.94.93,1.43.75,1.3.17,3.3.22,4.71h.88a4.32,4.32,0,0,1,.39-1.58,1.22,1.22,0,0,1,1.16-.47l.09-.57a21.86,21.86,0,0,0,.41-2.81A8,8,0,0,0,88.29,66Z"/><path class="cls-21" d="M79.63,86.22h-.46a7,7,0,0,1-2.68-.32,8.4,8.4,0,0,1-1.68-1,.21.21,0,0,1,.25-.33,7.6,7.6,0,0,0,1.59,1,6.7,6.7,0,0,0,2.52.29,6.73,6.73,0,0,0,2.53-.29,7,7,0,0,0,1.08-.59.21.21,0,1,1,.23.34,6.4,6.4,0,0,1-1.15.64A6.15,6.15,0,0,1,79.63,86.22Z"/><path class="cls-5" d="M81.81,83.92h0c-.6-.39-.82-1.07-1.43-.27-.68-.63-.76.13-1.29.07-.25,0-.27-.4-.62-.32s-.33.46-.44.6c-.47.59-1.12.31-1.87.1a5.05,5.05,0,0,1-2.89-2.68c-.19-.32-.79-2.45-1-1.14a7.23,7.23,0,0,0,1.16,3.58,6,6,0,0,0,3.45,2.3,8,8,0,0,0,2.59.31,10.63,10.63,0,0,0,4.37-1.32,5.15,5.15,0,0,0,2.48-2.88c.16-.44.92-2.33.26-2.59-.33-.12-.65.34-.75.56C85.36,81.2,83.58,85.23,81.81,83.92Z"/><path class="cls-5" d="M81.75,80.32A7.67,7.67,0,0,0,78.69,80c-.34,0-2.77.55-2.28,1.22.17.24.75-.16,1-.16-.15.73.78-.06,1-.07,0,.87.72.11,1.09.07.14.76.75.27,1.11,0,.11.16.26.39.52.36s.14-.31.28-.31c.52,0,1.09.5.87-.08A1.6,1.6,0,0,0,81.75,80.32Z"/><path class="cls-5" d="M162.9,112.9c.15.93-1.79.06-2.1-.22a3.4,3.4,0,0,1-.75-3.17c.6-1.81,4-3.51,6.17-3.16a4.53,4.53,0,0,1,2.86,1.51,1,1,0,0,1-.73,1.61,1.62,1.62,0,0,1,1.68,2.3c-.33.68-1.54,1.6-2.39.92.36.5-.59,1.18-1.08,1.39-1.36.54-2.84-.28-3.7-1.07A.36.36,0,0,1,162.9,112.9Z"/><path class="cls-22" d="M161.59,236.29l-2.33-.41s-4.9,6.14.08,6.76C164.68,243.32,161.59,236.29,161.59,236.29Z"/><polygon class="cls-2" points="159.18 209.41 159.18 232.11 161.39 231.36 162.68 209.24 159.18 209.41"/><polygon class="cls-2" points="154.5 209.41 154.5 232.11 156.71 231.36 157.79 209.24 154.5 209.41"/><path class="cls-22" d="M156.91,236.29l-2.33-.41s-10.72,6.05-5.74,6.68C154.18,243.23,156.91,236.29,156.91,236.29Z"/><path class="cls-5" d="M149.76,99.44a6.07,6.07,0,0,1,1.64-2.82,11.59,11.59,0,0,1,6.44-2.37,22.58,22.58,0,0,1,2.3-.08,7.82,7.82,0,0,1,.79,0h0l1.92.52a8,8,0,0,1,.74.37c1.76,1,6.09,3.84,5.23,8.71-.23,1.32-.78,1.58-2,2.35a13.91,13.91,0,0,1-3.72,2,25.15,25.15,0,0,1-8.08,1.06,5.46,5.46,0,0,1-5.4-3.38C148.72,103.93,149.13,101.45,149.76,99.44Z"/><path class="cls-2" d="M165.89,106.27c-.17,3.56-3.9,6.34-8.32,6.19s-7.87-3.16-7.7-6.73,4-8.17,8.46-7.94C165.19,98.15,166.06,102.7,165.89,106.27Z"/><path class="cls-2" d="M169.71,106.42a2.39,2.39,0,0,1-2.64,2,2.31,2.31,0,0,1-2.43-2.19,2.41,2.41,0,0,1,2.64-2A2.31,2.31,0,0,1,169.71,106.42Z"/><path class="cls-5" d="M160.41,96.51a2.68,2.68,0,0,0-1.25-.31A10.45,10.45,0,0,0,153,98a6.9,6.9,0,0,0-2.47,3.25,10.56,10.56,0,0,0-.75,2.08c-.09.4-.45,1.35-.12,1.71.88-.88,1.46-2,2.31-2.88a11.63,11.63,0,0,1,3.17-2.48,4.15,4.15,0,0,1,3.16-.55c1.42.52,1.66,2,2.24,3a6.18,6.18,0,0,0,5.22,3.11,4,4,0,0,1-.41-.51,4.17,4.17,0,0,0,3.18.24,4.09,4.09,0,0,1-1.11-1.94c-.09-.38-.09-.77-.15-1.16-.21-1.37-1.36-2.46-2.36-3.48a5.91,5.91,0,0,0-2-1.36C162.12,96.75,161.1,96.87,160.41,96.51Z"/><path class="cls-2" d="M158.2,121.32l4.36-.88-1.22-1c-1.21-.94-1.78-7.62-1.78-7.62h-1.5v0h-1.5s-.57,6.68-1.78,7.62l-1.21,1,4.35.88h.28Z"/><polygon class="cls-23" points="168.9 153.56 171.91 151.28 169.07 125.57 162.42 120.24 157.93 121.28 153.24 120.37 146.58 126.5 145.09 151.79 147.46 153.57 168.9 153.56"/><polygon class="cls-24" points="145.98 152.35 141.73 217.03 179.19 216.79 169.51 152.17 145.98 152.35"/><path class="cls-23" d="M149.21,124.1s-3.39,1-4.28,5.8,2.67,21.34,2.67,21.34l4.66-2.2Z"/><path class="cls-25" d="M159.18,224.18c-.05,0,.07,6.56,0,6.71s-.15.19-.24.38c-.14.34.11.47.12.81,0,.13-.13.25-.12.4s.16.25.14.43-.23.25-.22.47.25.37.23.58c0,.37-.38.52-.2.93,0,.12.26.28.28.38.07.3-.32.35-.28.62s.88.43,1.16.46a2,2,0,0,0,1.44-.44c.46-.36.05-.6.15-1.06,0-.23.32-.49.34-.7s-.24-.3-.34-.54.26-.47.3-.79a1.81,1.81,0,0,0-.11-.65c-.31-1,0-6.91.06-7.89Z"/><path class="cls-25" d="M154.51,224.14c-.29.21.06,5.87,0,6.18s-.27.4-.27.71c0,.15.12.35.11.47,0,.4-.31.54-.14,1,.08.18.19.27.18.49s-.17.29-.15.49.12.25.09.48-.14.31-.1.51.22.24.2.44-.27.3-.31.45c-.11.36.19.45.31.73,0,.11-.11.14,0,.29a1.17,1.17,0,0,0,.5.2c.68.14,2.23-.27,2.15-1,0-.14-.26-.22-.26-.39s.23-.28.27-.46-.11-.2-.16-.41.08-.34.13-.58a3.51,3.51,0,0,0,0-1c0-.14-.1-.17-.05-.36s.26-.34.25-.6a6.83,6.83,0,0,1-.12-.77,7.56,7.56,0,0,0,0-.83c0-.42,0-5.59,0-6l-1.76,0a2.61,2.61,0,0,0-.88,0Z"/><path class="cls-5" d="M162.26,119.94,158,121.21s.28,3.34,2.3,3.16,2.31-4.08,2.31-4.08Z"/><path class="cls-5" d="M153.57,120l4.44,1.23s-.34,3.37-2.4,3.19-2.34-4.08-2.34-4.08Z"/><path class="cls-2" d="M142.79,151.29a13.87,13.87,0,0,0,.56-1.45,6.88,6.88,0,0,0,.58-2.33c0-1.64-1.43-1.79-2.47-.51a16.12,16.12,0,0,1-1.69,2.05,9.76,9.76,0,0,0-1.15,1.17c-.14.17-.41.44-.43.64a1.58,1.58,0,0,0,.2.66,2.09,2.09,0,0,0,2.32,1.1,4.35,4.35,0,0,0,1.69-.81A2,2,0,0,0,142.79,151.29Z"/><path class="cls-23" d="M149.7,124s-1.89,0-4.73,4.24-5.86,20.08-5.86,20.08l4.68,1.22Z"/><path class="cls-2" d="M173.84,151.29a13.87,13.87,0,0,1-.56-1.45,6.66,6.66,0,0,1-.58-2.33c0-1.64,1.43-1.79,2.47-.51a16.12,16.12,0,0,0,1.69,2.05,9.76,9.76,0,0,1,1.15,1.17c.14.17.41.44.43.64a1.58,1.58,0,0,1-.2.66,2.09,2.09,0,0,1-2.32,1.1,4.35,4.35,0,0,1-1.69-.81A2,2,0,0,1,173.84,151.29Z"/><path class="cls-23" d="M166.93,124s1.88,0,4.73,4.24,5.85,20.08,5.85,20.08l-4.67,1.22Z"/><path class="cls-2" d="M136.24,122.5h0c0,.48,0,1,0,1.43-.45,0-.85-.25-1.29-.18A7.59,7.59,0,0,0,135,125c0,.09-1.84-.33-2-.31-.46,0,1.25,1.61,1.38,1.75.62.7,1.43,1.26,2,2a3.34,3.34,0,0,1,1.15,2c0,1,.19,2.16.16,3.11.95-.3,1.37.76,2.25.81-.15-1.49-.59-3.18-.38-4.34a4.24,4.24,0,0,1,.55-1.51c.32-.5.75-1,.58-1.58a6.62,6.62,0,0,1-.29-1.5,5.68,5.68,0,0,1,.05-1.21c-1.15-.48-4.14-8.08-4.51-8.12-1.27-.15,1.64,6.47,1.6,7C137.12,122.94,136.74,122.57,136.24,122.5Z"/><polygon class="cls-2" points="138.21 150.88 137.74 133.33 139.58 131.14 142.07 150.62 138.21 150.88"/><path class="cls-26" d="M198,115c2.55-1.46,2.9-4.34,4.39-4.89a2.59,2.59,0,0,0-1.32.1l.65-.36a5.75,5.75,0,0,0-6,1.93l.54,2.57Z"/><path class="cls-27" d="M193.75,114l-1.66,1.15-1,2.21,2.41-.13,1.65-1.15c.67-.46,1.66-.3,2.76-1.07l-1.12-1.61-1.12-1.61C194.61,112.59,194.41,113.57,193.75,114Z"/><polygon class="cls-28" points="192.09 115.18 193.54 117.26 160.96 139.64 159.99 138.23 192.09 115.18"/><path class="cls-2" d="M184.41,125.94c.38-1.22,1.46-2.26,1.88-3.48.15-.42.7-3.12.35-3.27-.65-.27-1.11,1-1.17,1.34s-.08.75-.15,1.11a3.22,3.22,0,0,1-.48.94,10.05,10.05,0,0,1-1,1.36,9.29,9.29,0,0,1-.49-1.43c-.11-.54-.17-.58-.68-1-.13-.1-3-2.15-2.6-1.09.27.81,1.45,1.2,1.77,1.69a2.73,2.73,0,0,1,.23.86c.09.39.23.8.28,1.19a6.31,6.31,0,0,0-.75-1.68c-.26-.31-1.74-1.87-2.11-1.72-.68.26,1,1.74,1.21,2,.48.55.3,1.26.31,1.9a5.9,5.9,0,0,1-.66-1.3,3.85,3.85,0,0,0-.9-1.09c-.13-.13-.46-.87-.74-.8s-.12.67-.07.81a15.74,15.74,0,0,1,.71,1.57,3.28,3.28,0,0,1,0,1.73c-.21.39-1.11.79-1.5,1.07-.91.66-2.43,1.67-2.49,2.74,0,.46.21.93.22,1.37a7.76,7.76,0,0,1-.15,1.36c-.18,1.14-2.48,17.12-1.26,18a3.65,3.65,0,0,0,2.22.37c.7-.15,2,.88,2,.31,0-1-.34-17.06-.4-18.08a2.83,2.83,0,0,1,1.14-2.64c.71-.46,1.4-.93,2.08-1.41.92-.65,1.75-1.37,2.66-2,.21-.16.36-.23.45-.45s0-.42.14-.61Z"/><path class="cls-2" d="M183.33,122.51c-.11-.54-.17-.58-.68-1-.13-.1-3-2.15-2.6-1.09.27.81,1.45,1.2,1.77,1.69a2.73,2.73,0,0,1,.23.86c.09.39.23.8.28,1.19a6.31,6.31,0,0,0-.75-1.68c-.26-.31-1.74-1.87-2.11-1.72-.68.26,1,1.74,1.21,2,.73.81-.4,2.85,1.25,2.92a1.79,1.79,0,0,0,1.66-1.13C183.89,123.85,183.48,123.21,183.33,122.51Z"/><path class="cls-2" d="M107.93,91.62a3.94,3.94,0,0,0,2,.1,5.22,5.22,0,0,0,1.54-.41.63.63,0,0,0,.22-.21.75.75,0,0,0,.08-.24,4.86,4.86,0,0,0,0-2.18,7.61,7.61,0,0,0-1-1.58,10.85,10.85,0,0,1-.7-1.3,22.92,22.92,0,0,1-1.78-4.43,13,13,0,0,1-.29-2.33,3,3,0,0,0-.42-1.87,3.47,3.47,0,0,0-1.71-.94,18.5,18.5,0,0,0-2.19-.56c-.54-.1-1.1-.16-1.65-.21a2.1,2.1,0,0,0-.75,0,1.53,1.53,0,0,0-1,1.63,7.17,7.17,0,0,0,.61,1.94.74.74,0,0,1,.05.29.67.67,0,0,1-.14.28,1.84,1.84,0,0,0-.29,1.92,2.47,2.47,0,0,0,.47.5c.66.57,1.3,1.23,2,1.75a11.68,11.68,0,0,1,1.65,1.16c.69.7.56,1.45.88,2.26a31,31,0,0,0,1.3,2.88C107.06,90.66,107.29,91.38,107.93,91.62Z"/><path class="cls-19" d="M105,86.4l4.79-3s10,18.87,9.86,23.7c-.16,5.92-7.29,7.2-9.28,4.31-1-1.39.4-4.41-.62-8.71C107.82,94.54,105,86.4,105,86.4Z"/><polygon class="cls-29" points="111.61 159.68 103.72 165.74 100.68 149.45 99.49 148.74 100.44 148.14 100.28 147.3 101.13 147.7 116.75 137.78 117.22 147.75 111.61 159.68"/><path class="cls-5" d="M51.08,106.73,116.75,138l-13,27.73-66-30.59c-12.65-5.86-30.1-10.72-33.26-10.68l8.29-17.65.58-1.23,8.3-17.65C23.61,90.4,38.49,100.73,51.08,106.73Z"/><path class="cls-30" d="M71.43,116.42l38.36,18.28c-3.6,1.5-5,5.36-5.37,11.52-.43,6.32-.73,13.69-7,16.57C88.53,158.7,72,151.06,58.25,144.66c.25-2.43,1.23-7.16,4.76-14.67C66.85,121.82,70.06,117.88,71.43,116.42Z"/><rect class="cls-31" x="109.64" y="152.56" width="13.18" height="4.02" transform="translate(-73.09 194.04) rotate(-64.83)"/><polygon class="cls-5" points="130.78 151.52 126 161.7 123.09 167.89 111.54 163.27 119.93 145.41 130.78 151.52"/><path class="cls-32" d="M41.75,128.06l65.06,30.57,6.75-2.77L126,161.7l-2.9,6.19-11.56-4.62,1.4-3-1.33-.62-7.89,6.06-66-30.59c-12.19-5.64-28.81-10.36-32.85-10.66l5-8.29S19.42,117.57,41.75,128.06Z"/><rect class="cls-29" x="-9.93" y="102.79" width="43.47" height="5.66" transform="translate(-88.81 71.39) rotate(-64.83)"/><path class="cls-19" d="M65.83,91.36s-.21-2-3.43.61c-9.5,7.68-18,16.28-18,16.28l4.36,7.49,20.79-10.33Z"/><path class="cls-2" d="M47.07,139.41a1.34,1.34,0,0,0,.07.18,7.35,7.35,0,0,0,1.32,1.9l1,1.21c.39.44.87.93,1.46.89.33,0,.69-.22,1-.06s.31.36.47.54c.49.53,1.39.19,2.08.39a4.36,4.36,0,0,0,.58.19c.71.13,1.34-.57,2.06-.56A4.09,4.09,0,0,1,55,140.32l3,.71c.32.07.76.11.91-.19s-.27-.73-.66-.9l-5-2.1a4.77,4.77,0,0,1-1.5-.86c-.76-.75-.63-2.16-.56-3.14a1.45,1.45,0,0,0-.21-1.09,1.34,1.34,0,0,0-1-.28l-2.81,0a.34.34,0,0,0-.22,0,.34.34,0,0,0-.06.24c.05,1.34.08,2.68.15,4C47.11,137.67,46.77,138.5,47.07,139.41Z"/><path class="cls-19" d="M51.63,135.3s3-27.18-.37-27.89-7.88-.92-7.59,3.3S46.5,137,46.5,137Z"/><path class="cls-33" d="M384.43,89.13c-1.81,7.88-1.81,28.67-1.81,28.67l24.16-1.53s-.92-20.49-1.53-26S393,86,393,86Z"/><path class="cls-5" d="M403,110.92l-1.15-1.32h-9.21l-.59.12s3.23,44.2,3.16,43.55c0-.19,3.61,5.19,4.56,0C402.05,140.65,403,110.92,403,110.92Z"/><polygon class="cls-34" points="397.15 111.99 392.25 114.74 394.09 117.8 396.84 114.44 398.68 117.8 401.73 114.13 397.15 111.99"/><path class="cls-2" d="M392,109.69s.23,0,1.51-1,1.87-7.9,1.87-7.9h1.57v0h1.58s.58,6.93,1.87,7.9a6.57,6.57,0,0,0,1.46.9l-4.62,2.22Z"/><path class="cls-2" d="M396,167.76s-1.58,39.07-1.67,39.07l-.75,25.31.78,2.28-.39,2.77-2.13.49-.62-2.4.45-3-1.81-23c-.53-3.33-4.53-40.67-4.53-40.67Z"/><path class="cls-2" d="M406.45,165.31s-4.13,31.94-5.11,43.69c-.61,7.38-.34,23.94-.34,23.94l5.23,3.57-3,1.05-5-3.6.36-1.18-2-25.52L395.46,169Z"/><path class="cls-35" d="M392.57,240.77s2.09.14,2.12-.11a15.18,15.18,0,0,0-.45-6.75l-.27,2.26-1.93.16-.69-2.09C390.77,236.15,392.57,240.77,392.57,240.77Z"/><path class="cls-35" d="M398.15,237.24s.85,0,1.31-.07a10.08,10.08,0,0,1,.09-1.68s1.59,1.28,1.91,1.56a11.67,11.67,0,0,0,1.89,1.42c1.47.94,5.68,1.89,5.68,1.89l1.05-.84s-4.53-3.68-5-4l-1.93,1.13-4.82-3.39C397.49,234.55,398.07,236,398.15,237.24Z"/><path class="cls-35" d="M409.77,156.88l4.35,20.56H377.73S382,164,384.2,154.77C385.52,149.21,409.77,156.88,409.77,156.88Z"/><path class="cls-36" d="M386.13,112.59a5.24,5.24,0,0,0-2,4.17c.13,2.6,2.73,6.64,2.73,6.64v11.9L381.37,157l13.76.36-2.93-47.91Z"/><polygon class="cls-36" points="406.53 134.47 407.87 113.63 401.83 109.6 399.05 157.48 411.35 157.81 406.53 134.47"/><path class="cls-33" d="M384.84,92.1c1.47,4.08,7.17,7.33,7.17,7.33l10.33-1.18A9.55,9.55,0,0,0,404.86,87a6.65,6.65,0,0,0-2.19-2.84c-2.95-2.24-8.05-2.89-11.73-1.58-3.23,1.14-6.13,3.54-6.51,6.52A6.58,6.58,0,0,0,384.84,92.1Z"/><path class="cls-2" d="M387.74,95.45c.5,3.82,4.8,6.58,9.6,6.14s8.29-3.88,7.79-7.7-4.8-6.57-9.6-6.14S387.24,91.63,387.74,95.45Z"/><path class="cls-2" d="M383.6,95.85a2.68,2.68,0,0,0,3,2,2.43,2.43,0,0,0,2.45-2.5,2.68,2.68,0,0,0-3-2A2.43,2.43,0,0,0,383.6,95.85Z"/><path class="cls-33" d="M404.07,89.13a11.87,11.87,0,0,1,1,2.18c.14.43.62,1.43.28,1.83-.66-.56-1-1.34-1.76-1.86a22.78,22.78,0,0,0-3.15-1.88,3.76,3.76,0,0,0,.62,1.35,12.66,12.66,0,0,1-3.66-1.82c-.67,1.17-2.24,2.1-3.4,2.9a13.54,13.54,0,0,1-3.82,2.11,8.83,8.83,0,0,0,1-2.9c-.71.89-1,2-1.74,2.93a7.18,7.18,0,0,1-2.14,2.11c-1.18-1.5-2.16-2.87-2-4.79a7.36,7.36,0,0,1,1.92-4A8.31,8.31,0,0,1,391.12,85a8.21,8.21,0,0,0,1.73-.39,2.9,2.9,0,0,1,1.34-.41,11.66,11.66,0,0,1,6.9,1.57A7.73,7.73,0,0,1,404.07,89.13Z"/><polygon class="cls-36" points="391.71 232.25 391.26 235.28 391.88 237.68 394.01 237.19 394.4 234.43 393.62 232.14 393.99 219.57 390.72 219.61 391.71 232.25"/><path class="cls-36" d="M401,218.66l-3.46.58,1.05,13.54-.36,1.18,5,3.6,3-1.05L401,232.94S400.88,225.7,401,218.66Z"/><path class="cls-5" d="M453.13,110.92l1.15-1.32h9.22l.59.12s-3.23,44.2-3.16,43.55c0-.19-3.61,5.19-4.56,0C454.06,140.65,453.13,110.92,453.13,110.92Z"/><path class="cls-37" d="M451.89,116.37c3.82,3.47,11.1,3.47,15.27.35l-2.78,38.16h-11.1Z"/><polygon class="cls-34" points="458.97 111.99 463.86 114.74 462.03 117.8 459.28 114.44 457.44 117.8 454.38 114.13 458.97 111.99"/><path class="cls-2" d="M464.15,109.69s-.24,0-1.51-1-1.87-7.9-1.87-7.9h-1.58v0h-1.57s-.59,6.93-1.87,7.9a6.72,6.72,0,0,1-1.47.9l4.63,2.22Z"/><path class="cls-2" d="M449.67,165.31s4.13,31.94,5.1,43.69c.62,7.38.35,23.94.35,23.94l-5.24,3.57,3.05,1.05,5-3.6-.36-1.18,2-25.52L460.65,169Z"/><path class="cls-35" d="M458,237.24s-.85,0-1.31-.07a11.11,11.11,0,0,0-.1-1.68s-1.59,1.28-1.9,1.56a11.75,11.75,0,0,1-1.9,1.42c-1.46.94-5.68,1.89-5.68,1.89l-1.05-.84s4.54-3.68,5-4L453,236.7l4.81-3.39C458.63,234.55,458,236,458,237.24Z"/><path class="cls-2" d="M459.77,158.72s4.13,31.94,5.11,43.69c.19,2.36,1.37,3,4.27,2.48,9.54-1.81,28.1-8,28.1-8l5.08,3.79v-3.22l-5-3.53-1,.72-26.66,6.06,1.12-38.29Z"/><path class="cls-35" d="M500.38,192.76s.28.8.37,1.26a10.49,10.49,0,0,0-1.56.64s1.73,1.08,2.09,1.29a11.89,11.89,0,0,1,2,1.32c1.36,1.09,3.63,4.76,3.63,4.76l-.45,1.27s-4.95-3.09-5.36-3.44l.44-2.19-4.77-3.45C497.63,193,499.2,193.09,500.38,192.76Z"/><path class="cls-36" d="M483.34,201.38l-.13-3.95,13.09-2.82,1-.72,5,3.53v3.22l-5.08-3.79S490.49,199,483.34,201.38Z"/><path class="cls-35" d="M446.34,156.88,442,177.44h36.39s-4.28-13.46-6.47-22.67C470.6,149.21,446.34,156.88,446.34,156.88Z"/><polygon class="cls-36" points="470.63 108.3 470.89 114.81 469.28 135.3 474.75 157.02 460.99 157.38 463.92 109.47 470.63 108.3"/><path class="cls-36" d="M451.11,112.27s-14.83-1.63-15.74-2-15-18-15-18l-.26,4.42s11.06,18.09,12.75,18.87,17.44,5.2,17.44,5.2Z"/><polygon class="cls-36" points="449.59 134.47 448.25 111.94 454.28 109.6 457.07 157.48 444.77 157.81 449.59 134.47"/><path class="cls-33" d="M471.28,92.1c-1.48,4.08-7.18,7.33-7.18,7.33l-10.32-1.18A9.56,9.56,0,0,1,451.25,87a6.81,6.81,0,0,1,2.19-2.84c3-2.24,8.06-2.89,11.74-1.58,3.23,1.14,6.13,3.54,6.5,6.52A6.44,6.44,0,0,1,471.28,92.1Z"/><path class="cls-2" d="M468.37,95.45c-.5,3.82-4.79,6.58-9.6,6.14s-8.28-3.88-7.78-7.7,4.8-6.57,9.6-6.14S468.87,91.63,468.37,95.45Z"/><path class="cls-2" d="M472.52,95.85a2.69,2.69,0,0,1-3,2,2.44,2.44,0,0,1-2.46-2.5,2.69,2.69,0,0,1,3.05-2A2.44,2.44,0,0,1,472.52,95.85Z"/><path class="cls-33" d="M452.05,89.13a11.28,11.28,0,0,0-1,2.18c-.13.43-.61,1.43-.27,1.83.65-.56,1-1.34,1.76-1.86a22.67,22.67,0,0,1,3.14-1.88,3.73,3.73,0,0,1-.61,1.35,12.48,12.48,0,0,0,3.65-1.82c.68,1.17,2.25,2.1,3.41,2.9A13.54,13.54,0,0,0,466,93.94a8.83,8.83,0,0,1-1-2.9c.71.89,1,2,1.74,2.93a7.06,7.06,0,0,0,2.14,2.11c1.18-1.5,2.15-2.87,2-4.79a7.43,7.43,0,0,0-1.92-4A8.41,8.41,0,0,0,465,85a8.3,8.3,0,0,1-1.74-.39,2.82,2.82,0,0,0-1.33-.41,11.64,11.64,0,0,0-6.9,1.57A7.67,7.67,0,0,0,452.05,89.13Z"/><path class="cls-36" d="M455.14,218.66l3.46.58-1.06,13.54.36,1.18-5,3.6-3.05-1.05,5.24-3.57S455.24,225.7,455.14,218.66Z"/><path class="cls-36" d="M407.87,113.63l9.67,17.44,8.07,8.07v6s-10-9-11.19-10.27-8.85-13.28-8.85-13.28Z"/><path class="cls-26" d="M423.33,23.31l.19,2.78L420,24.93l-3.35,1.63-.19-2.79L410.9,22c-.5-7.33-1.18-17.46-1.26-18.75a1.93,1.93,0,0,1,2-2.3l3.23-.22h0L425,0a1.94,1.94,0,0,1,2.3,2c.09,1.29.77,11.42,1.26,18.75Z"/><path class="cls-27" d="M426.31,33.92c.25,3.66.61,9,.61,9l-5.09,9.65-6.33-8.88s-.36-5.39-.6-9.06S411.3,28,410.9,22l8.83-.59,8.84-.6C429,26.81,426.06,30.25,426.31,33.92Z"/><polygon class="cls-38" points="426.92 42.97 415.5 43.74 428.86 235.99 439.14 235.3 426.92 42.97"/><polygon class="cls-28" points="419.02 43.5 415.5 43.74 428.86 235.99 432.02 235.78 419.02 43.5"/><path class="cls-2" d="M417,88.76c.53-.85.61-2,1.12-2.89.17-.31,1.51-2,1.78-1.88.49.26-.05,1.19-.21,1.39s-.41.42-.59.65a2.49,2.49,0,0,0-.31.77,7.93,7.93,0,0,0-.3,1.3,6.26,6.26,0,0,0,1.11-.44c.37-.2.43-.19.92-.08.13,0,2.8.67,2,1-.63.25-1.46-.26-1.91-.2a1.92,1.92,0,0,0-.63.3,7.71,7.71,0,0,0-.86.44,5.07,5.07,0,0,1,1.39-.41c.31,0,2,.09,2.1.39.19.53-1.54.3-1.8.29-.58,0-.91.46-1.3.78a4.51,4.51,0,0,0,1.11-.27,3.18,3.18,0,0,1,1.11,0c.15,0,.76-.16.86,0s-.34.41-.45.45c-.42.16-.9.19-1.3.38-1.28.62-1.14,1.76-2,2.79a.5.5,0,0,1-.21.17c-.24.1-.46-.16-.59-.38-.58-1-1.84-3.2-1.23-4.38.07-.15.24-.22.29-.39Z"/><path class="cls-2" d="M416.36,129.49A6.14,6.14,0,0,0,417,129c.51-.45.94-1,1.4-1.47a4.22,4.22,0,0,0,.8-1.13c.17-.37.4-.68.6-1a2.4,2.4,0,0,1,.28-.5,2,2,0,0,1,1.21-.5,13.77,13.77,0,0,1,1.57-.21c.27,0,.56,0,.58.35s-.31.58-.68.61a8.22,8.22,0,0,0-1.1.12c-.49.08-.79.7-1.11,1.05a7.8,7.8,0,0,1,1.33-.87,2.59,2.59,0,0,1,1.07-.3c.22,0,.45,0,.67-.05s.59-.14.88-.12.45.27.39.6-.57.51-.93.58a5.88,5.88,0,0,1-1.11.11,1.47,1.47,0,0,0-.61.14,2.19,2.19,0,0,0-.59.42c-.12.14-.2.35-.37.44a3,3,0,0,1,1.85-.6,5.85,5.85,0,0,0,1,.16,3.66,3.66,0,0,1,.88.11c.19.07.22.12.14.31a.7.7,0,0,1-.35.42c-.38.15-.83-.06-1.19.07a1.75,1.75,0,0,1,.88.09c.27.15,0,.61-.15.73a1.78,1.78,0,0,1-.85.15c-.28,0-.56.11-.84.14a1.64,1.64,0,0,0-.7.11c-.3.15-.46.44-.69.68-.54.56-1.06,1.13-1.64,1.65a2.26,2.26,0,0,1-1.19.5,7.47,7.47,0,0,0-1.19.38,4.19,4.19,0,0,1-1.2.24c-.49,0-.73,0-.94-.49s-.63-1.48.07-1.77A7.22,7.22,0,0,0,416.36,129.49Z"/><path class="cls-36" d="M388.53,115.07l12,15.61,16.13-1.82.52,4.29s-15.61,2.22-16.91,2.35-11.71-9.5-11.71-9.5"/><path class="cls-2" d="M479.39,76.82l.2-3.25a5.08,5.08,0,0,1-1.82-2,18.76,18.76,0,0,1-.52-2.86l.91-.39a1.08,1.08,0,0,1,.65-1.17c.78-.26,3.71.39,4.1,1s.39,3.71.06,4.62a24,24,0,0,0-.52,4"/><path class="cls-36" d="M463.81,116.63,476.7,96.41l2.12-20.15,4.3-.49s-1.73,19.63-1.61,20.93-12.7,25.13-12.7,25.13c-.28,2.6.35-1.64-1.51-1.66C465.22,120.16,464.06,118.2,463.81,116.63Z"/></g></g></g></svg>