<svg xmlns="http://www.w3.org/2000/svg" viewBox="0 0 311.53 263.44"><defs><style>.cls-1{fill:#bac0c8;}.cls-2{fill:#8a5959;}.cls-3{fill:#fff;}.cls-4{fill:#ee92ba;}.cls-5{fill:#f4b0a9;}.cls-6{fill:#6c7980;}.cls-7{fill:#4a5770;}.cls-8{fill:#cbab82;}.cls-9{fill:#d3d7dc;}.cls-10{fill:#b0b7c0;}.cls-11{fill:#99d8ff;}.cls-12{fill:#79ccff;}.cls-13{fill:#e5e7ea;}.cls-14{fill:#ff9eaa;}.cls-15{fill:#e7f5ff;}</style></defs><title>lp_take_picture</title><g id="レイヤー_2" data-name="レイヤー 2"><g id="レイヤー_1-2" data-name="レイヤー 1"><rect class="cls-1" x="61.25" y="103.99" width="43.5" height="22.5"/><path class="cls-2" d="M6.77,110.23c-1.83,8-1.83,29-1.83,29l24.41-1.55s-.93-20.7-1.55-26.26-12.35-4.32-12.35-4.32Z"/><path class="cls-3" d="M25.51,132.24l-1.16-1.33h-9.3l-.6.13s3.26,44.64,3.19,44c0-.19,3.65,5.24,4.6,0C24.57,162.27,25.51,132.24,25.51,132.24Z"/><polygon class="cls-4" points="19.62 133.32 14.67 136.1 16.53 139.19 19.31 135.79 21.16 139.19 24.25 135.49 19.62 133.32"/><path class="cls-5" d="M14.39,131s.23,0,1.52-1,1.89-8,1.89-8h1.59v0H21s.59,7,1.89,8a6.75,6.75,0,0,0,1.48.91l-4.67,2.24Z"/><path class="cls-5" d="M18.5,189.66s-1.6,39.47-1.69,39.46l-.76,25.57.79,2.31-.39,2.79-2.15.49-.63-2.42.46-3.06-1.84-23.24c-.53-3.37-4.57-41.08-4.57-41.08Z"/><path class="cls-5" d="M29,187.19s-4.17,32.25-5.15,44.12c-.62,7.46-.36,24.18-.36,24.18l5.3,3.61-3.08,1.06-5-3.64.37-1.19-2-25.77-1.13-38.67Z"/><path class="cls-6" d="M15,263.4s2.11.14,2.15-.11a15.28,15.28,0,0,0-.46-6.81l-.27,2.28-1.95.16-.69-2.11C13.18,258.74,15,263.4,15,263.4Z"/><path class="cls-6" d="M20.63,259.84s.86,0,1.32-.07a11.31,11.31,0,0,1,.1-1.7s1.6,1.29,1.92,1.58a12.18,12.18,0,0,0,1.92,1.44c1.48.94,5.73,1.9,5.73,1.9l1.06-.85s-4.58-3.71-5-4l-1.95,1.14-4.87-3.42C20,257.12,20.55,258.6,20.63,259.84Z"/><path class="cls-6" d="M32.37,178.66l4.39,20.78H0s4.32-13.6,6.54-22.9C7.87,170.92,32.37,178.66,32.37,178.66Z"/><path class="cls-7" d="M8.49,133.93a5.28,5.28,0,0,0-2,4.21c.13,2.63,2.76,6.7,2.76,6.7v12L3.68,178.81l13.9.36-3-48.39Z"/><polygon class="cls-7" points="29.09 156.03 30.45 134.98 24.35 130.91 21.54 179.28 33.96 179.6 29.09 156.03"/><path class="cls-2" d="M7.19,113.24c1.49,4.12,7.24,7.4,7.24,7.4l10.43-1.19a9.65,9.65,0,0,0,2.55-11.34,6.87,6.87,0,0,0-2.21-2.87c-3-2.26-8.14-2.91-11.85-1.6-3.27,1.16-6.2,3.58-6.58,6.59A6.62,6.62,0,0,0,7.19,113.24Z"/><path class="cls-5" d="M10.12,116.62c.5,3.86,4.84,6.64,9.69,6.2s8.37-3.92,7.87-7.78-4.85-6.64-9.7-6.2S9.61,112.76,10.12,116.62Z"/><path class="cls-5" d="M5.93,117a2.7,2.7,0,0,0,3.08,2,2.45,2.45,0,0,0,2.48-2.53,2.7,2.7,0,0,0-3.07-2A2.45,2.45,0,0,0,5.93,117Z"/><path class="cls-2" d="M26.61,110.23a11.73,11.73,0,0,1,1,2.2c.14.44.62,1.45.28,1.85-.66-.56-1-1.35-1.78-1.87a22.7,22.7,0,0,0-3.18-1.91,3.79,3.79,0,0,0,.63,1.37,12.57,12.57,0,0,1-3.7-1.84c-.68,1.18-2.26,2.12-3.44,2.93a13.51,13.51,0,0,1-3.85,2.13c.34-1,1-1.88,1-2.93-.72.9-1,2-1.76,3a7.16,7.16,0,0,1-2.16,2.12c-1.2-1.51-2.18-2.89-2-4.83a7.42,7.42,0,0,1,1.93-4,8.41,8.41,0,0,1,4-2.32,8.39,8.39,0,0,0,1.75-.39,3,3,0,0,1,1.35-.42,11.82,11.82,0,0,1,7,1.59A7.81,7.81,0,0,1,26.61,110.23Z"/><polygon class="cls-7" points="14.13 254.8 13.67 257.87 14.29 260.28 16.45 259.79 16.84 257 16.05 254.69 16.43 241.99 13.12 242.03 14.13 254.8"/><path class="cls-7" d="M23.49,241.07l-3.5.59,1.07,13.67-.37,1.19,5,3.64,3.08-1.06-5.3-3.61S23.39,248.18,23.49,241.07Z"/><path class="cls-3" d="M257.24,132.24l1.16-1.33h9.31l.59.13s-3.26,44.64-3.18,44c0-.19-3.65,5.24-4.61,0C258.18,162.27,257.24,132.24,257.24,132.24Z"/><path class="cls-8" d="M256,137.75c3.85,3.5,11.21,3.5,15.42.35l-2.81,38.55H257.39Z"/><polygon class="cls-4" points="263.14 133.32 268.08 136.1 266.23 139.19 263.44 135.79 261.59 139.19 258.5 135.49 263.14 133.32"/><path class="cls-5" d="M268.37,131s-.24,0-1.53-1-1.89-8-1.89-8h-1.59v0h-1.59s-.59,7-1.89,8a6.47,6.47,0,0,1-1.48.91l4.67,2.24Z"/><path class="cls-5" d="M253.74,187.19s4.17,32.25,5.16,44.12c.62,7.46.35,24.18.35,24.18L254,259.1l3.07,1.06,5-3.64-.36-1.19,2-25.77,1.13-38.67Z"/><path class="cls-6" d="M262.13,259.84s-.86,0-1.33-.07a10.12,10.12,0,0,0-.1-1.7s-1.6,1.29-1.92,1.58a12.57,12.57,0,0,1-1.91,1.44c-1.49.94-5.74,1.9-5.74,1.9l-1.06-.85s4.58-3.71,5-4l2,1.14,4.86-3.42C262.79,257.12,262.2,258.6,262.13,259.84Z"/><path class="cls-5" d="M264,180.53s4.17,32.25,5.15,44.12c.2,2.39,1.39,3.07,4.32,2.51,9.64-1.82,28.38-8.12,28.38-8.12l5.14,3.83v-3.26l-5.07-3.56-1,.73-26.94,6.12L275,184.23Z"/><path class="cls-6" d="M305,214.91s.28.81.36,1.27a11,11,0,0,0-1.57.65s1.74,1.09,2.12,1.3a12.1,12.1,0,0,1,2,1.34c1.38,1.09,3.67,4.8,3.67,4.8l-.45,1.28s-5-3.12-5.42-3.47l.44-2.21-4.82-3.48C302.18,215.17,303.77,215.24,305,214.91Z"/><path class="cls-7" d="M287.75,223.61l-.13-4,13.23-2.85,1-.73,5.07,3.56v3.26L301.8,219Z"/><path class="cls-6" d="M250.38,178.66,246,199.44h36.76s-4.32-13.6-6.53-22.9C274.88,170.92,250.38,178.66,250.38,178.66Z"/><polygon class="cls-7" points="274.91 129.6 275.18 136.17 273.55 156.87 279.07 178.81 265.18 179.18 268.14 130.78 274.91 129.6"/><path class="cls-7" d="M255.2,133.61s-15-1.64-15.91-2-18.39-13-18.39-13l-.27,4.47s14.46,13.1,16.17,13.89,17.61,5.26,17.61,5.26Z"/><polygon class="cls-7" points="253.66 156.03 252.31 133.28 258.4 130.91 261.22 179.28 248.79 179.6 253.66 156.03"/><path class="cls-2" d="M275.57,113.24c-1.49,4.12-7.25,7.4-7.25,7.4l-10.43-1.19a9.66,9.66,0,0,1-2.55-11.34,6.87,6.87,0,0,1,2.21-2.87c3-2.26,8.14-2.91,11.85-1.6,3.27,1.16,6.2,3.58,6.58,6.59A6.76,6.76,0,0,1,275.57,113.24Z"/><path class="cls-5" d="M272.63,116.62c-.5,3.86-4.84,6.64-9.69,6.2s-8.37-3.92-7.86-7.78,4.84-6.64,9.69-6.2S273.14,112.76,272.63,116.62Z"/><path class="cls-5" d="M276.82,117a2.7,2.7,0,0,1-3.08,2,2.47,2.47,0,0,1-2.48-2.53,2.71,2.71,0,0,1,3.08-2A2.44,2.44,0,0,1,276.82,117Z"/><path class="cls-2" d="M256.15,110.23a11.17,11.17,0,0,0-1,2.2c-.14.44-.62,1.45-.28,1.85.66-.56,1-1.35,1.78-1.87a23.29,23.29,0,0,1,3.18-1.91,3.79,3.79,0,0,1-.63,1.37,12.57,12.57,0,0,0,3.7-1.84c.68,1.18,2.27,2.12,3.44,2.93a13.51,13.51,0,0,0,3.85,2.13,9.26,9.26,0,0,1-1-2.93c.72.9,1,2,1.76,3a7.16,7.16,0,0,0,2.16,2.12c1.2-1.51,2.18-2.89,2-4.83a7.42,7.42,0,0,0-1.93-4,8.41,8.41,0,0,0-4-2.32,8.54,8.54,0,0,1-1.75-.39,3,3,0,0,0-1.35-.42,11.82,11.82,0,0,0-7,1.59A7.79,7.79,0,0,0,256.15,110.23Z"/><path class="cls-7" d="M259.26,241.07l3.5.59-1.06,13.67.36,1.19-5,3.64L254,259.1l5.29-3.61S259.36,248.18,259.26,241.07Z"/><path class="cls-7" d="M30.44,135l9.78,17.62,8.15,8.15v6s-10.12-9.06-11.31-10.38S28.13,143,28.13,143Z"/><path class="cls-5" d="M214.13,136.24c.54-.85.61-2,1.13-2.92.18-.31,1.53-2,1.79-1.89.5.25-.05,1.19-.2,1.39s-.42.43-.6.66a2.55,2.55,0,0,0-.31.78,8.06,8.06,0,0,0-.31,1.31,6.06,6.06,0,0,0,1.12-.44c.38-.21.44-.19.94-.08.13,0,2.82.68,2,1-.64.25-1.48-.26-1.94-.2a2.07,2.07,0,0,0-.64.3c-.28.15-.6.28-.86.44a4.81,4.81,0,0,1,1.4-.41c.32,0,2,.09,2.13.39.19.54-1.56.3-1.83.3-.58,0-.91.46-1.3.78a4.68,4.68,0,0,0,1.12-.26,2.81,2.81,0,0,1,1.12,0c.14,0,.76-.17.87,0s-.35.42-.46.46c-.42.16-.91.19-1.31.38-1.29.63-1.16,1.78-2,2.81a.55.55,0,0,1-.21.19c-.25.09-.47-.17-.6-.39-.58-1-1.86-3.23-1.25-4.43.08-.15.25-.22.3-.39Z"/><path class="cls-5" d="M39,151a6.34,6.34,0,0,0,.65-.51c.51-.45,1-1,1.42-1.48a4.12,4.12,0,0,0,.8-1.14c.17-.37.41-.69.61-1a2.32,2.32,0,0,1,.29-.51,2,2,0,0,1,1.21-.5,14.43,14.43,0,0,1,1.59-.21c.28,0,.56,0,.58.35s-.31.59-.68.62a10.17,10.17,0,0,0-1.11.11c-.49.09-.81.72-1.12,1.07a7.94,7.94,0,0,1,1.34-.88,2.53,2.53,0,0,1,1.08-.3,5.19,5.19,0,0,1,.68-.05c.3,0,.59-.14.89-.13s.45.28.39.61-.57.51-.94.59a7.08,7.08,0,0,1-1.12.11,1.4,1.4,0,0,0-.61.14,2.13,2.13,0,0,0-.6.43c-.13.13-.21.34-.38.44a3.11,3.11,0,0,1,1.88-.61,6.78,6.78,0,0,0,1,.17,3.29,3.29,0,0,1,.89.11c.19.07.23.11.15.3a.74.74,0,0,1-.36.43c-.39.16-.84-.06-1.21.08a1.78,1.78,0,0,1,.89.08c.28.15,0,.62-.15.75a1.89,1.89,0,0,1-.85.15c-.29,0-.57.11-.86.13a1.84,1.84,0,0,0-.7.11,3.05,3.05,0,0,0-.7.69c-.54.57-1.07,1.15-1.65,1.67a2.33,2.33,0,0,1-1.2.5,9,9,0,0,0-1.21.39,4.19,4.19,0,0,1-1.21.24c-.5,0-.74,0-.95-.49s-.63-1.5.07-1.79A8.32,8.32,0,0,0,39,151Z"/><path class="cls-7" d="M10.91,136.43,23,152.21l16.3-1.84.52,4.33s-15.77,2.24-17.08,2.37-11.83-9.6-11.83-9.6"/><rect class="cls-9" x="43.25" y="114.49" width="187.49" height="136.49"/><rect class="cls-7" x="43.25" y="147.48" width="187.49" height="84"/><path class="cls-5" d="M238.24,158.17l-3.3,1.13a5.5,5.5,0,0,0-2.61-1.3,20.74,20.74,0,0,0-3.11.28l-.14,1.06s-1,.12-1,1,1.47,3.72,2.19,4,3.94-.66,4.79-1.25a24.8,24.8,0,0,1,4-1.7"/><path class="cls-7" d="M257.73,149.76l-20.23,8,.73,4.58s19.81-7.42,21.19-7.67c.69-.12,1.49-1.05,2-1.48,1.36-1.15,2.68-2.34,4-3.54,3.39-3.08,6.73-6.21,10.06-9.36,1.38-1.31,3.1-2.58,3.83-4.4a4.35,4.35,0,0,0-.62-4.17,5.42,5.42,0,0,0-3.78-2.1s-.53.17-.57.18.33,0,.29.08a19.5,19.5,0,0,1-1.37,1.87,17.5,17.5,0,0,0-1.39,1.6c-.43.68-.86,1.35-1.28,2-.32.5-.8.8-1.13,1.28a17.09,17.09,0,0,1-1.24,1.46l-2.83,3.15c-1.7,1.89-3.41,3.78-5.11,5.68Z"/><circle class="cls-10" cx="139.24" cy="187.98" r="49.5" transform="translate(-68.35 295.83) rotate(-80.92)"/><circle class="cls-11" cx="139.24" cy="187.98" r="39.6"/><circle class="cls-12" cx="139.24" cy="187.98" r="16.11" transform="translate(-68.53 295.49) rotate(-80.83)"/><path class="cls-13" d="M208,140.48H184a9.77,9.77,0,0,1-9.75-9.74h0A9.78,9.78,0,0,1,184,121h24a9.78,9.78,0,0,1,9.75,9.75h0A9.77,9.77,0,0,1,208,140.48Z"/><circle class="cls-14" cx="60.41" cy="29.01" r="29.01" transform="translate(-2.82 51.21) rotate(-45)"/><path class="cls-15" d="M156.93,34.65a15.51,15.51,0,0,0-5,.83c-1.85-5.29-7.26-9.12-13.65-9.12a15,15,0,0,0-10.36,4.07,15.19,15.19,0,0,0-21.06.35,14.84,14.84,0,0,0-10.7-4.42c-6.4,0-11.8,3.83-13.65,9.12a15.51,15.51,0,0,0-5-.83c-7.91,0-14.33,5.87-14.33,13.12S69.6,60.89,77.51,60.89a15.25,15.25,0,0,0,4.72-.75c1.51,5.78,7.16,10.07,13.93,10.07a14.84,14.84,0,0,0,10.7-4.42,15.19,15.19,0,0,0,21.06.35,15,15,0,0,0,10.36,4.07c6.77,0,12.42-4.29,13.93-10.07a15.25,15.25,0,0,0,4.72.75c7.91,0,14.33-5.88,14.33-13.12S164.84,34.65,156.93,34.65Z"/></g></g></svg>