<svg xmlns="http://www.w3.org/2000/svg" viewBox="0 0 352.85 196.26"><defs><style>.cls-1{fill:#868fa0;}.cls-2{fill:#5a667d;}.cls-3{fill:#99d8ff;}.cls-4{fill:#6d778c;}.cls-5{fill:#f4b0a9;}.cls-6{fill:#d9e3e8;}.cls-7{fill:#6b767b;}.cls-8{fill:#8f670f;}.cls-9{fill:#55524e;}.cls-10{fill:#393432;}.cls-11{fill:#1b1e23;}.cls-12{fill:#383f45;}.cls-13{fill:#2e3339;}.cls-14{fill:#1a1e23;}.cls-15{fill:#79ccff;}.cls-16{fill:#cbab82;}.cls-17{fill:#5b78ba;}.cls-18{fill:#fff;}.cls-19{fill:#6a5150;}.cls-20{fill:#f09692;}</style></defs><title>アセット 2</title><g id="レイヤー_2" data-name="レイヤー 2"><g id="レイヤー_1-2" data-name="レイヤー 1"><polygon class="cls-1" points="228.99 188.88 25.28 188.88 38.42 140.14 215.85 140.14 228.99 188.88"/><polygon class="cls-2" points="61.83 151.7 49.59 151.7 50.84 146.2 62.89 146.2 61.83 151.7"/><polygon class="cls-2" points="82.24 151.7 70 151.7 70.92 146.2 82.97 146.2 82.24 151.7"/><polygon class="cls-2" points="102.65 151.7 90.4 151.7 91 146.2 103.04 146.2 102.65 151.7"/><polygon class="cls-2" points="123.06 151.7 110.81 151.7 111.08 146.2 123.12 146.2 123.06 151.7"/><polygon class="cls-2" points="143.46 151.7 131.22 151.7 131.15 146.2 143.2 146.2 143.46 151.7"/><polygon class="cls-2" points="163.87 151.7 151.63 151.7 151.23 146.2 163.28 146.2 163.87 151.7"/><polygon class="cls-2" points="184.28 151.7 172.03 151.7 171.31 146.2 183.35 146.2 184.28 151.7"/><polygon class="cls-2" points="204.69 151.7 192.44 151.7 191.39 146.2 203.43 146.2 204.69 151.7"/><polygon class="cls-2" points="60.02 161.13 47.44 161.13 48.76 155.33 61.14 155.33 60.02 161.13"/><polygon class="cls-2" points="81 161.13 68.41 161.13 69.39 155.33 81.76 155.33 81 161.13"/><polygon class="cls-2" points="101.97 161.13 89.39 161.13 90.01 155.33 102.39 155.33 101.97 161.13"/><polygon class="cls-2" points="122.94 161.13 110.36 161.13 110.64 155.33 123.01 155.33 122.94 161.13"/><polygon class="cls-2" points="143.91 161.13 131.33 161.13 131.26 155.33 143.64 155.33 143.91 161.13"/><polygon class="cls-2" points="164.89 161.13 152.3 161.13 151.89 155.33 164.26 155.33 164.89 161.13"/><polygon class="cls-2" points="185.86 161.13 173.28 161.13 172.51 155.33 184.89 155.33 185.86 161.13"/><polygon class="cls-2" points="206.83 161.13 194.25 161.13 193.14 155.33 205.51 155.33 206.83 161.13"/><polygon class="cls-2" points="58.11 171.1 45.17 171.1 46.57 164.97 59.29 164.97 58.11 171.1"/><polygon class="cls-2" points="79.68 171.1 66.74 171.1 67.77 164.97 80.49 164.97 79.68 171.1"/><polygon class="cls-2" points="101.25 171.1 88.31 171.1 88.97 164.97 101.69 164.97 101.25 171.1"/><polygon class="cls-2" points="122.82 171.1 109.88 171.1 110.17 164.97 122.9 164.97 122.82 171.1"/><polygon class="cls-2" points="144.39 171.1 131.45 171.1 131.38 164.97 144.1 164.97 144.39 171.1"/><polygon class="cls-2" points="165.96 171.1 153.02 171.1 152.58 164.97 165.3 164.97 165.96 171.1"/><polygon class="cls-2" points="187.53 171.1 174.59 171.1 173.78 164.97 186.5 164.97 187.53 171.1"/><polygon class="cls-2" points="209.1 171.1 196.16 171.1 194.98 164.97 207.71 164.97 209.1 171.1"/><polygon class="cls-2" points="56.09 181.65 42.77 181.65 44.25 175.16 57.34 175.16 56.09 181.65"/><polygon class="cls-2" points="78.29 181.65 64.97 181.65 66.06 175.16 79.15 175.16 78.29 181.65"/><polygon class="cls-2" points="100.49 181.65 87.17 181.65 87.87 175.16 100.96 175.16 100.49 181.65"/><polygon class="cls-2" points="158.96 181.65 87.17 181.65 87.87 175.16 158.4 175.16 158.96 181.65"/><polygon class="cls-2" points="144.9 181.65 131.58 181.65 131.5 175.16 144.59 175.16 144.9 181.65"/><polygon class="cls-2" points="167.1 181.65 153.78 181.65 153.31 175.16 166.4 175.16 167.1 181.65"/><polygon class="cls-2" points="189.3 181.65 175.98 181.65 175.13 175.16 188.21 175.16 189.3 181.65"/><polygon class="cls-2" points="211.5 181.65 198.18 181.65 196.94 175.16 210.03 175.16 211.5 181.65"/><rect class="cls-3" x="42.14" y="27.17" width="170" height="109.25"/><path class="cls-4" d="M208.42,30.88V132.7H45.85V30.88H208.42m7.43-7.43H38.42V140.14H215.85V23.45Z"/><rect class="cls-4" x="25.28" y="188.88" width="203.71" height="7.39"/><polygon class="cls-5" points="312.33 169.82 312.55 181.63 316.42 181.63 317.29 169.47 312.33 169.82"/><path class="cls-6" d="M316.93,178.92a1.23,1.23,0,0,1,.43,0c.46.12.47.61.51,1.27a20.69,20.69,0,0,1-.11,3.05c-.11,1.21-.87,1.25-1.74,1.48a4,4,0,0,1-2.18,0c-.21-.09-.36-.36-.55-.52s-.43-.13-.76,0a38.9,38.9,0,0,1-7.87,1.39,5.13,5.13,0,0,1-2.79-.59c-.43-.26-1.09-.37-1.25-1a1.58,1.58,0,0,1,1-1.7,6.73,6.73,0,0,1,1.48-.18,6.76,6.76,0,0,0,1.84-.74c1.5-.81,4.26-2.26,5.4-3.68.86-1.07,2-.07,2.75.83a1.23,1.23,0,0,0,1.25.51C315.19,179.08,316.52,179,316.93,178.92Z"/><polygon class="cls-5" points="338.73 169.82 338.93 181.63 335.06 181.63 333.78 169.47 338.73 169.82"/><path class="cls-6" d="M334,178.92a1.28,1.28,0,0,0-.44,0c-.46.12-.47.61-.51,1.27a20.69,20.69,0,0,0,.11,3.05c.11,1.21.87,1.25,1.74,1.48a3.92,3.92,0,0,0,2.17,0c.22-.09.37-.36.56-.52s.43-.13.76,0a38.9,38.9,0,0,0,7.87,1.39,5.18,5.18,0,0,0,2.8-.59c.42-.26,1.08-.37,1.24-1a1.58,1.58,0,0,0-1-1.7,6.73,6.73,0,0,0-1.48-.18,6.76,6.76,0,0,1-1.84-.74c-1.5-.81-4.26-2.26-5.4-3.68-.86-1.07-2-.07-2.75.83a1.23,1.23,0,0,1-1.25.51C335.69,179.08,334.35,179,334,178.92Z"/><path class="cls-7" d="M312.48,86.62s-1.3,26.89-.79,43.25.15,40.82.15,40.82l6.29.24,9.72-73.07,5.27,72.71,6.08.09s1.77-29.2,2.05-31,1.24-52,1.24-52S312.74,85.86,312.48,86.62Z"/><path class="cls-8" d="M312.7,74.47l-.87-41.22,2.28-3.1s8.41-3.54,8.42-3.3l12.07.67s8.23,3.95,8.92,4.85c2.23,2.91-2.32,35.85-2.32,35.85.41,5.64.6,17.54.71,20.11.07,1.71-15.3,1.84-19.38,1.34a60.37,60.37,0,0,1-11.4-2.13C311.35,81.28,312.88,79.89,312.7,74.47Z"/><path class="cls-8" d="M314.63,30s-4.22,1.89-5,5.35c-.69,3.09-1.25,6.2-1.63,9.33-.32,2.64-2,10.36-3.45,12.53-.68,1-4.95-1.83-5.82-.95-.68.68-1.7.78-2.28,1.51a4.35,4.35,0,0,0-.69,1.64c-.45,1.7,3.74-.43,3.29,1.27a9.57,9.57,0,0,0-.48,3.3c.1,1.11-3.05,3.27-2,3.74,1.2.55,6.35-1,7.51-1.62a37.48,37.48,0,0,0,5.48-4h0a12.7,12.7,0,0,0,2.9-3c2.81-4.6,0-10.91-.07-15.86C312.31,38.85,314.68,34.29,314.63,30Z"/><path class="cls-8" d="M343.52,32.37s1,1.17,2.45,5.17c1.69,4.76,6.86,21.27,6.86,21.27l-7.9,4.09-14-19.83Z"/><path class="cls-5" d="M321.77,6.24a6,6,0,0,0-.58,2.65c-.14,2.58-.32,5.15-.45,7.73-.07,1.3-.12,2.61-.14,3.92a3.36,3.36,0,0,0,1.08,2.58,9,9,0,0,0,1.75,1.73,5.14,5.14,0,0,0,2.43.52,4.4,4.4,0,0,0,2-.51c.54-.23,1.08-.37,1.61-.6a8.37,8.37,0,0,0,2.2-1.37,8.55,8.55,0,0,0,2.51-5.64,50.3,50.3,0,0,0,.27-9.17c-.52-.08-1,0-1.55-.12a6.93,6.93,0,0,1-1.93-.9,22.83,22.83,0,0,0-3.54-2.14,5.59,5.59,0,0,0-4.63.26A2.91,2.91,0,0,0,321.77,6.24Z"/><path class="cls-5" d="M337.27,13.22c.06,1.37-1.29,2.54-3,2.61s-3.17-1-3.24-2.34,1.29-2.54,3-2.62S337.2,11.85,337.27,13.22Z"/><path class="cls-9" d="M336.67,5.22c-1.51-3.63-4.82-2.72-7.51-.93-1.67,1.11-2.93,2.38-1.18,4.12a4,4,0,0,0,1.79.89c1.38.52,2.05,2.81,2.34,4.08.1.46.53,2.69.53,2.69l1.25,0c-.05-1.41-.7-4.72,1.48-4.65.58,0,.94.23,1.24-.27a5.6,5.6,0,0,0,.53-2,7.69,7.69,0,0,0-.21-3.2A6.34,6.34,0,0,0,336.67,5.22Z"/><path class="cls-10" d="M321.41,2.68a6.43,6.43,0,0,0-1.35,2.76,6.82,6.82,0,0,0,.05,2.88c.11.38,1.2,1.85,1,2.12.49-.56.57-1.27,1.36-1.45.56-.13,1.45.13,2.12,0a16.13,16.13,0,0,0,4.78-1.82c1.26-.7,2.69-1.68,4.19-1.71.91,0,2.17,1,2.67,0a.89.89,0,0,0,.08-.17c.65-1.75-1.51-2.86-2.82-3.37a13.78,13.78,0,0,0-2.82-.74,6,6,0,0,0-1.19-.11,4.3,4.3,0,0,0-.88.08l-.91.18a1.79,1.79,0,0,1,.25-.78c.14-.23.37-.56.67-.6A14.25,14.25,0,0,0,327,.36a4.93,4.93,0,0,0-1.07.41,2.3,2.3,0,0,0-1.25,1.77,4.11,4.11,0,0,1,.74-2.29c-.06.09-.34.16-.43.22l-.43.25a4.82,4.82,0,0,0-.77.65A3.73,3.73,0,0,0,323,2.9a2.78,2.78,0,0,1,.83-2c-.24,0-.42.23-.61.35A6.83,6.83,0,0,0,321.41,2.68Z"/><polygon class="cls-5" points="332.1 22.95 333.82 27.63 328.45 31.77 322.19 27.07 324.81 20.81 332.1 22.95"/><polygon class="cls-11" points="339.21 37.97 315.97 37.84 305.74 143.28 347.52 144.75 339.21 37.97"/><polygon class="cls-12" points="311.83 77.26 325.1 79 342.51 76.82 342.71 79.51 325.1 81.56 311.47 79.92 311.83 77.26"/><polygon class="cls-13" points="325.33 79.02 332.49 85.42 329.35 86.64 324.31 81.06 319.27 84.78 316.5 83.21 323.14 79.08 325.33 79.02"/><path class="cls-14" d="M326.11,78.89c-.07.2-.33,3.84-.33,3.84L323,82.08l.72-3.25Z"/><polygon class="cls-11" points="316.23 29.17 319.28 38.43 317.52 38.78 315.06 29.64 316.23 29.17"/><polygon class="cls-11" points="338.98 29.64 335.93 38.9 337.69 39.25 340.15 30.11 338.98 29.64"/><path class="cls-5" d="M294.61,56.12a19.42,19.42,0,0,1,1-1.78c.41-.78.82-1.55,1.25-2.32a19.86,19.86,0,0,0,.93-2.11.62.62,0,0,1,.13-.24.68.68,0,0,1,.27-.13,14.47,14.47,0,0,1,2.85-.53,2.86,2.86,0,0,1,1.59.2,1.15,1.15,0,0,1,.61,1.36l.86.5a.65.65,0,0,1,.22.18.6.6,0,0,1,.06.23,2.82,2.82,0,0,1,0,.58.3.3,0,0,0,0,.19c.05.09.17.11.27.14A.74.74,0,0,1,305,53.6a.8.8,0,0,1,.53.47,1.9,1.9,0,0,1,.13.71c0,.17,0,.38-.19.43a.37.37,0,0,1-.25,0l-1.67-.6a1.58,1.58,0,0,0-.7-.13,1.51,1.51,0,0,0-.86.68c-.57.76-1,1.56-1.56,2.35s-1.66,1-1.89,2a10.33,10.33,0,0,0-.24,2.48,1.45,1.45,0,0,1-.25,1.11,1.35,1.35,0,0,1-1,.25l-2.88-.08a.28.28,0,0,1-.22-.06c-.07-.06-.06-.16-.06-.25.14-1.77.28-3.55.41-5.32a6.62,6.62,0,0,1,.18-1.17A2.31,2.31,0,0,1,294.61,56.12Z"/><path class="cls-8" d="M292.25,86.48c3,1.25,6.65-1.58,7.34-3.41,2.2-5.81-.34-23.33-.34-23.33l-5.8-1.61s-3.69,16.34-3.79,16.66C288.55,78.4,288.06,84.71,292.25,86.48Z"/><path class="cls-5" d="M328.31,73a9.22,9.22,0,0,1-1.38.22c-1.15.1-2.32,0-3.47,0a7.52,7.52,0,0,1-2.35-.35c-.65-.22-1.31-.3-2-.47a4.54,4.54,0,0,0-.95-.23,3.21,3.21,0,0,0-2,.9A26.7,26.7,0,0,0,314,74.77c-.33.33-.63.71-.26,1.12s1.1.31,1.56-.12a17.11,17.11,0,0,1,1.45-1.23c.67-.5,1.81-.15,2.61-.12a13.15,13.15,0,0,0-2.64.61,4.63,4.63,0,0,0-1.64,1,10.59,10.59,0,0,0-.85.79c-.37.35-.86.55-1.2.94s-.18.88.29,1.19c.63.42,1.3-.11,1.82-.47a10.69,10.69,0,0,0,1.44-1.24,2.3,2.3,0,0,1,.89-.6,3.93,3.93,0,0,1,1.22-.23,3.3,3.3,0,0,0,1,.05c-1,.32-2.35.66-2.93,1.6a10.61,10.61,0,0,1-1,1.44,5.88,5.88,0,0,0-.9,1.23c-.14.31-.13.41.2.53a1.26,1.26,0,0,0,.95.06c.64-.29.9-1.09,1.49-1.39a2.93,2.93,0,0,0-.93,1.19c-.14.51.72.77,1.09.68a3.05,3.05,0,0,0,1.18-.87c.37-.32.8-.57,1.17-.89a3,3,0,0,1,1-.74,4.8,4.8,0,0,1,1.65,0c1.33,0,2.65,0,4-.08a3.91,3.91,0,0,0,2-.89,15.09,15.09,0,0,1,1.89-1A7.55,7.55,0,0,0,332.24,76c.6-.58.8-1,.5-1.75s-1.1-2.52-2.29-2A14.47,14.47,0,0,1,328.31,73Z"/><path class="cls-8" d="M328.24,72.79s18.25-21.34,21.13-19.34,5.17,6.69,1.81,9.44S330.6,77.8,330.6,77.8Z"/><rect class="cls-3" x="248.22" y="53.26" width="69.7" height="130.01"/><path class="cls-4" d="M314.34,56.84V179.7H251.79V56.84h62.55m7.15-7.15H244.64V186.85h76.85V49.69Z"/><path class="cls-5" d="M328.31,73a9.22,9.22,0,0,1-1.38.22c-1.15.1-2.32,0-3.47,0a7.52,7.52,0,0,1-2.35-.35c-.65-.22-1.31-.3-2-.47a4.54,4.54,0,0,0-.95-.23,3.21,3.21,0,0,0-2,.9A26.7,26.7,0,0,0,314,74.77c-.33.33-.63.71-.26,1.12s1.1.31,1.56-.12a17.11,17.11,0,0,1,1.45-1.23c.67-.5,1.81-.15,2.61-.12a13.15,13.15,0,0,0-2.64.61,4.63,4.63,0,0,0-1.64,1,10.59,10.59,0,0,0-.85.79c-.37.35-.86.55-1.2.94s-.18.88.29,1.19c.63.42,1.3-.11,1.82-.47a10.69,10.69,0,0,0,1.44-1.24,2.3,2.3,0,0,1,.89-.6,3.93,3.93,0,0,1,1.22-.23,3.3,3.3,0,0,0,1,.05c-1,.32-2.35.66-2.93,1.6a10.61,10.61,0,0,1-1,1.44,5.88,5.88,0,0,0-.9,1.23c-.14.31-.13.41.2.53a1.26,1.26,0,0,0,.95.06c.64-.29.9-1.09,1.49-1.39a2.93,2.93,0,0,0-.93,1.19c-.14.51.72.77,1.09.68a3.05,3.05,0,0,0,1.18-.87c.37-.32.8-.57,1.17-.89a3,3,0,0,1,1-.74,4.8,4.8,0,0,1,1.65,0c1.33,0,2.65,0,4-.08a3.91,3.91,0,0,0,2-.89,15.09,15.09,0,0,1,1.89-1A7.55,7.55,0,0,0,332.24,76c.6-.58.8-1,.5-1.75s-1.1-2.52-2.29-2A14.47,14.47,0,0,1,328.31,73Z"/><path class="cls-8" d="M328.24,72.79s18.25-21.34,21.13-19.34,5.17,6.69,1.81,9.44S330.6,77.8,330.6,77.8Z"/><path class="cls-5" d="M296.61,48.41a.61.61,0,0,1,.26-.21c1.61-.77,4.45-.19,5.79.47.31.15.67.41.55.71a.73.73,0,0,1-.24.26c-1.38,1-1.92,1-2.73,2.6a14.73,14.73,0,0,0-.48,1.6c-.05.13-.38.65-.61.56s0-.87-.08-1a3.24,3.24,0,0,1,0-1.35,5.13,5.13,0,0,0,.33-1.35c-.43.48-1.07.89-1,1.59,0,.32.42,2.41-.33,2.21-.42-.12-.61-2.17-.63-2.55a6.06,6.06,0,0,1,.51-1.7c-.21.33-.37.71-.56,1.06A2.08,2.08,0,0,0,297,52c-.07.56.66,1.55.34,2.32-.41,1-1.41-2.21-1.46-2.36-.16-.6-.18-.67.08-1.13a4.6,4.6,0,0,0,.48-1.06,5.41,5.41,0,0,0-1.21,1.74c-.05.38.48,1.69.34,2.16s-.63.67-.92-.47-.91-1.48-.53-2.58S296.61,48.41,296.61,48.41Z"/><path class="cls-5" d="M302.68,48.92a15.45,15.45,0,0,0,2.61.29c.67-.08.58,1-1.16,1.15a5.71,5.71,0,0,1-2.94-.55l-1.59-.47Z"/><rect class="cls-15" x="251.94" y="172.25" width="61.52" height="6.44"/><polygon class="cls-4" points="317.03 168.68 248.37 168.68 248.37 182.26 317.03 182.26 317.03 168.68 317.03 168.68"/><path class="cls-2" d="M288.13,177.85a5.07,5.07,0,1,1-5.06-5.06A5.07,5.07,0,0,1,288.13,177.85Z"/><polygon class="cls-5" points="183.21 153.33 208.79 155.88 208.54 158.19 184.54 158.23 183.21 153.33"/><path class="cls-16" d="M172.26,145.67c-1.39,4.18,2.79,11.14,4.53,13.58s5.92,1.74,5.92,1.74l5.92-6.61s2.09-17.07-9.75-18.46S172.26,145.67,172.26,145.67Z"/><polygon class="cls-5" points="175.2 159.25 200.78 161.8 200.53 164.11 176.53 164.15 175.2 159.25"/><path class="cls-16" d="M172.26,145.67c-1.39,4.18-5.22,17.06-3.48,19.5s5.92,1.74,5.92,1.74l5.92-6.61,3.14-16Z"/><polygon class="cls-5" points="138.83 136.27 147.19 141.14 148.58 134.18 138.83 136.27"/><path class="cls-17" d="M182.36,136.27l-11.75,14.91-21.33-3.42-3.83-13.93S163.56,131,182.36,136.27Z"/><path class="cls-5" d="M121.54,154.59a4.52,4.52,0,0,1-.82.13c-.68.06-1.37,0-2.06,0a4.34,4.34,0,0,1-1.39-.21c-.39-.13-.79-.18-1.18-.28a3,3,0,0,0-.57-.14,2,2,0,0,0-1.21.54c-.42.33-.87.64-1.26,1-.19.2-.37.43-.15.67s.65.18.93-.07a10,10,0,0,1,.86-.73c.4-.3,1.07-.09,1.55-.08a8.34,8.34,0,0,0-1.57.37,2.67,2.67,0,0,0-1,.58,5.57,5.57,0,0,0-.51.46c-.22.21-.51.33-.71.56s-.11.52.17.71.77-.06,1.08-.28a6.83,6.83,0,0,0,.86-.74,1.37,1.37,0,0,1,.53-.35,2.25,2.25,0,0,1,.73-.14,1.87,1.87,0,0,0,.58,0c-.59.19-1.4.39-1.74,1a6.05,6.05,0,0,1-.6.86,3.4,3.4,0,0,0-.53.73c-.09.18-.08.24.12.31a.73.73,0,0,0,.56,0c.38-.17.54-.65.89-.83a1.82,1.82,0,0,0-.55.71c-.08.3.43.46.65.4s.49-.33.7-.51.47-.34.69-.53a1.75,1.75,0,0,1,.57-.44,2.93,2.93,0,0,1,1,0c.79,0,1.58,0,2.37,0a2.35,2.35,0,0,0,1.2-.54,8.61,8.61,0,0,1,1.12-.61,4.78,4.78,0,0,0,1-.71.8.8,0,0,0,.29-1c-.19-.51-.65-1.49-1.36-1.18A7.84,7.84,0,0,1,121.54,154.59Z"/><path class="cls-17" d="M148.23,137l-10.92,13.12-15.54,3.6.34,3.83s15-2.09,18.46-3.13,17.76-12.19,17.76-12.19Z"/><path class="cls-5" d="M149.26,126.47c1.29,4.56-2.24,9.75-7.87,11.59s-11.24-.37-12.53-4.93-1.59-10.77,7.14-13.74S148,121.91,149.26,126.47Z"/><path class="cls-5" d="M154.47,126.09a3.3,3.3,0,0,1-2.75,3.54c-1.83.44-3.55-.42-3.85-1.94s.92-3.09,2.75-3.53S154.17,124.58,154.47,126.09Z"/><path class="cls-5" d="M130.6,134.22c.3,1.51-.93,3.09-2.76,3.54s-3.54-.43-3.85-1.94.93-3.09,2.75-3.54S130.29,132.7,130.6,134.22Z"/><path class="cls-10" d="M128.16,132.15a11.84,11.84,0,0,1,6-6.55l-.45-3.85,2.42,3a30.58,30.58,0,0,1,7-2,6.5,6.5,0,0,1,5.8,2.2s.79-7.92-3.14-10.77-10.38-1.34-14.28.51-8,4.27-7.61,8.86C124.14,127.65,128.16,132.15,128.16,132.15Z"/><path class="cls-6" d="M199.22,161.8a1,1,0,0,1-.11-.28c-.06-.32.23-.45.6-.64a11.92,11.92,0,0,1,1.8-.69c.74-.24,1,.24,1.34.73a3,3,0,0,1,.63,1.38c0,.16-.12.32-.15.48s0,.31.22.48a29.43,29.43,0,0,1,3,4.66,3.81,3.81,0,0,1,.42,1.93c0,.34.08.78-.25,1.05a1,1,0,0,1-1.26-.19,5,5,0,0,1-.52-.9,4.79,4.79,0,0,0-.93-1,14.53,14.53,0,0,0-3.62-2.52c-.87-.28-.6-1.25-.28-1.95a.91.91,0,0,0,0-.93C199.79,162.87,199.36,162.05,199.22,161.8Z"/><path class="cls-6" d="M207.4,154.93a1.24,1.24,0,0,1-.11-.28c0-.33.23-.46.6-.65a11.63,11.63,0,0,1,1.81-.69c.73-.23,1,.24,1.34.73a3.05,3.05,0,0,1,.62,1.38,2.21,2.21,0,0,1-.15.48c-.06.27,0,.31.22.48a28.9,28.9,0,0,1,3,4.67,3.65,3.65,0,0,1,.42,1.92c0,.34.09.79-.25,1.06a1,1,0,0,1-1.26-.2,5.56,5.56,0,0,1-.51-.89,4.6,4.6,0,0,0-.93-1,14.36,14.36,0,0,0-3.63-2.51c-.86-.28-.59-1.26-.28-2a.89.89,0,0,0,0-.93C208,156,207.54,155.17,207.4,154.93Z"/><path class="cls-5" d="M155.19,156.59a4.59,4.59,0,0,0,.59-2.66c0-.41,0-.83,0-1.24a2.07,2.07,0,0,0-.12-.86.68.68,0,0,0-.69-.43.74.74,0,0,0-.52.51c-.1.23-.13.49-.23.72a.74.74,0,0,1-.54.49c-.52,0-.31-.47-.54-.66a2.38,2.38,0,0,0-1-.51c-.5-.13-1-.28-1.5-.36-.27,0-.55,0-.64.25s.19.56.54.62a9.06,9.06,0,0,1,1.06.23c.46.12.64.72.87,1.07a7.18,7.18,0,0,0-1.12-.93,2.7,2.7,0,0,0-1-.39c-.22-.05-.43-.08-.65-.11s-.55-.19-.84-.21a.46.46,0,0,0-.51.5c0,.4.46.52.8.62a5.55,5.55,0,0,0,1.06.22,1.28,1.28,0,0,1,.57.19,1.81,1.81,0,0,1,.5.45c.09.13.13.33.28.43a2.89,2.89,0,0,0-1.7-.74,7.1,7.1,0,0,1-1,0,3.78,3.78,0,0,0-.89,0c-.2,0-.24.08-.2.26a.59.59,0,0,0,.26.42c.35.18.82,0,1.16.19a1.87,1.87,0,0,0-.88,0c-.3.1-.16.55,0,.68a1.94,1.94,0,0,0,.8.22c.27.06.53.16.8.21a1.85,1.85,0,0,1,.67.18c.8.52,1.26,1.24,2.29,1.44a2.42,2.42,0,0,0,2.15-.57A1.78,1.78,0,0,0,155.19,156.59Z"/><polygon class="cls-17" points="153.2 147.41 151.63 154.99 155.37 155.77 157.55 146.89 153.2 147.41"/><path class="cls-18" d="M36.09,79.14l1.1-.51,8.87-.11.56.12,1,16L42,97.71c0-.21-5.59-1.19-6.45-3.9C33.78,88.31,36.09,79.14,36.09,79.14Z"/><path class="cls-19" d="M30.69,60.28c1.69,6,1.53,9.76,1,10.76a2.84,2.84,0,0,1-1.46,1.31s3.69,1.76,10.92,2.22L38.53,62.82Z"/><path class="cls-19" d="M53.05,60.28c-1.69,6-1.54,9.76-1,10.76a2.88,2.88,0,0,0,1.46,1.31s-3.69,1.76-10.91,2.22l2.61-11.75Z"/><path class="cls-5" d="M42.1,78.75l4.52-.11a10.46,10.46,0,0,1-1.38-1c-1.21-.93-1.79-7.52-1.79-7.52h-3s-.57,6.59-1.79,7.52-1.39.94-1.39.94l4.53.16h.29Z"/><polygon class="cls-5" points="48.7 135.83 48.9 165.89 46.19 165.89 42.1 133.91 48.7 135.83"/><path class="cls-6" d="M45.83,164.15a.61.61,0,0,0-.3,0c-.32.07-.33.39-.36.81a12.62,12.62,0,0,0,.08,1.95c.08.78.61.81,1.22,1a2.93,2.93,0,0,0,1.52,0c.16-.06.26-.23.39-.33s.31-.08.54,0a29.07,29.07,0,0,0,5.52.9,3.8,3.8,0,0,0,2-.39c.3-.16.76-.23.88-.65a1,1,0,0,0-.69-1.09,5.1,5.1,0,0,0-1-.12,5.72,5.72,0,0,1-1.29-.47,14.92,14.92,0,0,1-3.78-2.36c-.61-.69-1.41-.05-1.93.52a.9.9,0,0,1-.88.33C47.05,164.25,46.11,164.18,45.83,164.15Z"/><path class="cls-5" d="M27.53,140.75C25.07,140,4,132.68,4,132.68l.69-2.62L23,133.37l9.6-.32S30,141.52,27.53,140.75Z"/><path class="cls-6" d="M6.56,129.74a.8.8,0,0,0,.06-.3c0-.33-.29-.41-.7-.54A11.22,11.22,0,0,0,4,128.48c-.77-.12-.93.39-1.22.94a3,3,0,0,0-.41,1.47c0,.16.16.31.22.46s0,.32-.14.52A29,29,0,0,0,.21,137a3.84,3.84,0,0,0-.12,2c.08.33,0,.8.41,1a1,1,0,0,0,1.23-.39,5.84,5.84,0,0,0,.38-1,5,5,0,0,1,.77-1.13,14.51,14.51,0,0,1,3.24-3.07c.82-.42.4-1.35,0-2a.92.92,0,0,1-.1-.93C6.15,130.89,6.45,130,6.56,129.74Z"/><path class="cls-20" d="M50.86,105l4-24.85h0l-8.44-1.8s.55,13-4.68,13-4.5-12.85-4.5-12.85l-7,1.36.36,26.18-12.93,24.7c4.17,5,6.49,5.14,11.49,4,6.47-1.44,6.47,5.6,15.09,2.73,9.39-3.14,10.63,6.17,17.09-1.59Z"/><path class="cls-5" d="M52,64.29c-.24,4.42-4.91,7.94-10.44,7.87S31.72,68.45,32,64,33,50.9,41.6,50.9,52.2,59.88,52,64.29Z"/><path class="cls-5" d="M56.68,65.52a3.07,3.07,0,0,1-3.49,2.3c-1.75-.16-3-1.44-2.82-2.87a3.06,3.06,0,0,1,3.49-2.29C55.61,62.81,56.87,64.09,56.68,65.52Z"/><path class="cls-5" d="M33.16,65.52a3.06,3.06,0,0,1-3.49,2.3c-1.75-.16-3-1.44-2.82-2.87a3.07,3.07,0,0,1,3.49-2.29C32.09,62.81,33.35,64.09,33.16,65.52Z"/><path class="cls-19" d="M32,64c1.89-3.23,3.26-3.84,4.72-5.3s.38-6,.38-6A29.83,29.83,0,0,0,41.29,57c1.54,1,3.61,1.54,7,2.16L52,64.29s3.18-8.24.57-11.93-8.76-4.3-12.76-3.84-8.3,1.38-9.38,5.53C29.44,57.79,32,64,32,64Z"/><path class="cls-5" d="M16,113c-2.94.21-8.3.68-8.3.68s4.73,1.74,7.25,1.74,4.09-.32,4.4-1.58-1.73-1.57-1.73-1.57Z"/><path class="cls-5" d="M68.58,110.56c2.93.35,8.25,1.08,8.25,1.08S72,113.15,69.52,113s-4.08-.51-4.33-1.78,1.8-1.49,1.8-1.49Z"/><polygon class="cls-20" points="30.25 79.87 15.97 113.04 19.33 113.88 34.45 88.27 30.25 79.87"/><polygon class="cls-20" points="54.9 80.19 69.24 110.36 65.47 112.46 50.4 86.59 54.9 80.19"/></g></g></svg>